<svg xmlns="http://www.w3.org/2000/svg" xmlns:xlink="http://www.w3.org/1999/xlink" width="89" height="89" viewBox="0 0 89 89">
  <defs>
    <clipPath id="clip-path">
      <rect id="Rectángulo_402650" data-name="Rectángulo 402650" width="56.61" height="56.463" fill="#59836b" stroke="#59836b" stroke-width="1"/>
    </clipPath>
  </defs>
  <g id="Grupo_1100548" data-name="Grupo 1100548" transform="translate(-336 -10575.347)">
    <g id="Grupo_1098742" data-name="Grupo 1098742" transform="translate(-867.32 10186.604)">
      <g id="Rectángulo_400898" data-name="Rectángulo 400898" transform="translate(1203.32 388.742)" fill="#fff" stroke="#fff" stroke-width="3" opacity="0.859">
        <rect width="89" height="89" rx="44.5" stroke="none"/>
        <rect x="1.5" y="1.5" width="86" height="86" rx="43" fill="none"/>
      </g>
      <g id="Rectángulo_400907" data-name="Rectángulo 400907" transform="translate(1203.32 388.742)" fill="none" stroke="#fff" stroke-width="3">
        <rect width="89" height="89" rx="44.5" stroke="none"/>
        <rect x="1.5" y="1.5" width="86" height="86" rx="43" fill="none"/>
      </g>
    </g>
    <g id="Grupo_1100507" data-name="Grupo 1100507" transform="translate(351.746 10591.615)">
      <g id="Grupo_1100506" data-name="Grupo 1100506" clip-path="url(#clip-path)">
        <path id="Trazado_881908" data-name="Trazado 881908" d="M10.284,24.138v1.347c0,6.544-.015,13.089.013,19.633a3.088,3.088,0,0,1-1.426,3.007,1.264,1.264,0,0,0-.428.918c-.047,1.1.007,2.205-.01,3.308-.011.674.312.9.946.9q2.7-.025,5.4,0c.651.007.95-.235.912-.907a6.611,6.611,0,0,1,.038-1.539c.048-.264.346-.482.531-.72.194.228.5.432.558.69a4.81,4.81,0,0,1,.039,1.427c-.08.853.323,1.081,1.106,1.057,1.359-.042,2.72,0,4.081-.014,1.133-.009,1.185-.074,1.221-1.174a8.832,8.832,0,0,1,.1-1.424c.039-.2.3-.353.465-.527.182.192.491.366.52.578a10.251,10.251,0,0,1,.042,1.76c-.021.575.245.791.791.788,1.618-.008,3.235-.013,4.853,0,.6.006.886-.214.855-.842a7.781,7.781,0,0,1,.035-1.65c.042-.249.362-.451.556-.674.175.208.464.4.5.628a9.329,9.329,0,0,1,.063,1.648c-.011.586.212.891.834.886,1.581-.013,3.162-.009,4.743,0,.543,0,.818-.224.8-.79a7.349,7.349,0,0,1,.039-1.539c.058-.3.353-.556.541-.832.2.266.5.511.56.8a6.9,6.9,0,0,1,.033,1.539c-.019.546.194.821.764.818q2.482-.014,4.963,0c.56,0,.8-.245.771-.806a9.727,9.727,0,0,1,.028-1.651c.03-.233.287-.438.441-.655.185.224.494.43.53.675.083.577-.018,1.181.066,1.757.036.243.347.631.54.636,1.967.047,3.936.029,5.9.029l.074-.219a5.112,5.112,0,0,1-.89-.719,2.574,2.574,0,0,1-.285-.842c.292-.028.661-.185.863-.063.975.587,1.914,1.235,2.848,1.888a.647.647,0,0,1,.02,1.174c-.914.68-1.843,1.344-2.8,1.952-.214.136-.589.017-.89.016.094-.308.105-.694.3-.908a12.543,12.543,0,0,0,1.136-1.087H9.366c-.368,0-.736-.013-1.1,0-.706.021-.985-.336-.98-1.017.011-1.434.028-2.869-.026-4.3a1.341,1.341,0,0,0-.475-.975A3.019,3.019,0,0,1,5.3,45.254q.026-11.25.008-22.5c0-.294-.02-.59,0-.882.047-.623-.244-.852-.847-.841q-1.654.03-3.309,0C.141,21-.011,20.861,0,19.859A35.341,35.341,0,0,1,2.686,6.115,13.808,13.808,0,0,1,6.759.573c.959-.755,1.26-.764,2.235-.031A14.718,14.718,0,0,1,13.71,7.337a29.979,29.979,0,0,1,1.867,8.913c.066,1.026.165,2.051.19,3.078.039,1.639-.037,1.7-1.632,1.7-.882,0-1.765-.007-2.647,0-.357,0-.714.049-1.131.08v1.567c.437.028.828.073,1.219.073,1.912,0,3.826.039,5.735-.036a2.081,2.081,0,0,1,2.2,1.217c1,1.881,2.146,3.683,3.19,5.541a1.393,1.393,0,0,0,1.411.8c1.654-.038,3.312.047,4.962-.033a2.938,2.938,0,0,1,2.493,1.081c2.293,2.486,4.666,4.9,6.968,7.376a2.228,2.228,0,0,0,1.809.8c4.816-.03,9.633-.015,14.449-.015.294,0,.588,0,.882.005.415.012.935.041.846.578-.04.239-.57.555-.885.563-1.947.054-3.9.033-5.845.034-3.162,0-6.324-.039-9.485.022A3.026,3.026,0,0,1,37.815,39.6c-2.317-2.514-4.714-4.954-7.043-7.456a1.975,1.975,0,0,0-1.63-.7c-1.838.036-3.677-.016-5.514.025a1.58,1.58,0,0,1-1.59-.911q-1.646-2.931-3.4-5.8a1.63,1.63,0,0,0-1.045-.778c-2.277-.06-4.557-.016-6.837,0a2.2,2.2,0,0,0-.467.156m0-4.4H14.66c-.1-1.569-.175-3.028-.305-4.482a26.811,26.811,0,0,0-2.189-8.707A13.887,13.887,0,0,0,8.64,1.685c-.556-.484-1.029-.534-1.488.039A35.924,35.924,0,0,0,4.34,5.36a19.28,19.28,0,0,0-2.357,6.719c-.447,2.509-.7,5.052-1.053,7.678H5.305c0-.48,0-.874,0-1.268,0-1.469-.02-2.938.009-4.406a2.536,2.536,0,0,1,2.495-2.665,2.475,2.475,0,0,1,2.473,2.657c.008.367,0,.734,0,1.1,0,1.5,0,2.994,0,4.564M6.476,36.553q0,4.185,0,8.369a9.033,9.033,0,0,0,.042,1.1A1.133,1.133,0,0,0,7.706,47.1a2.332,2.332,0,0,0,1.309-.785,1.679,1.679,0,0,0,.216-1.048c.012-5.873,0-11.747.021-17.62,0-.745-.22-1.114-1-1.027-.218.024-.44,0-.66,0-1.081.016-1.106.027-1.11,1.12-.008,2.937,0,5.873,0,8.81m0-17.267h0q0,2.2,0,4.409c0,1.822,0,1.822,1.849,1.728a1.08,1.08,0,0,1,.11,0c.539.028.811-.188.809-.767-.012-3.49.011-6.981-.02-10.471a1.492,1.492,0,0,0-1.414-1.658c-.816.013-1.314.618-1.326,1.69-.019,1.69,0,3.38,0,5.07" transform="translate(0 0)" fill="#59836b" stroke="#59836b" stroke-width="1"/>
        <path id="Trazado_881909" data-name="Trazado 881909" d="M96.22,36.307c0-1.428.054-2.859-.035-4.282-.025-.4-.431-.8-.73-1.146-1.179-1.355-2.475-2.618-3.563-4.042-2.755-3.6-2.8-7.472-.713-11.375a22.567,22.567,0,0,1,2.707-3.87A3.756,3.756,0,0,1,99.7,11.5a15.035,15.035,0,0,1,4.2,8.441,8.715,8.715,0,0,1-.957,5.012,19.4,19.4,0,0,1-4.811,5.972,1.989,1.989,0,0,0-.78,1.7c.053,1.468-.032,2.942.043,4.409a2.581,2.581,0,0,0,.578,1.442c1.025,1.2,2.191,2.283,3.2,3.5a2.45,2.45,0,0,0,2.8.736c.178-1.453.282-2.726-1.027-3.889a6.241,6.241,0,0,1-2.417-5.214,7.7,7.7,0,0,1,2.565-5.093,2.2,2.2,0,0,1,3.176.155c2.445,2.607,3.674,6.069.608,9.542a3.737,3.737,0,0,1-.593.65,3.042,3.042,0,0,0-1.2,2.982c.037.777.292,1.022,1.04,1.014,2.573-.027,5.146-.013,7.719-.006a3.953,3.953,0,0,1,1.091.086.719.719,0,0,1,.439.516.75.75,0,0,1-.443.516,2.58,2.58,0,0,1-.872.059c-3.786,0-7.572-.018-11.358.017a2.362,2.362,0,0,1-1.922-.828c-3.164-3.432-6.371-6.824-9.533-10.258a2.312,2.312,0,0,0-2.007-.873c-.951.066-1.912-.016-2.866.024a1.387,1.387,0,0,1-1.4-.828c-1.159-2.089-2.409-4.128-3.51-6.246a1.806,1.806,0,0,0-2-1.111,23.524,23.524,0,0,1-3.085,0c-.3-.016-.582-.3-.872-.464.284-.214.559-.6.854-.613a39.155,39.155,0,0,1,4.406-.046,1.778,1.778,0,0,1,1.132.847q1.844,3.071,3.555,6.22a1.634,1.634,0,0,0,1.829,1.042,4.523,4.523,0,0,1,.661,0c3,0,2.995.005,5.045,2.26.985,1.084,1.994,2.145,2.993,3.216l.237-.075M97.371,20c1.23-.176,1.52-.975,1.807-1.83.08-.238.43-.385.657-.574.128.272.393.563.36.814A2.927,2.927,0,0,1,98.246,21c-.768.258-.9.68-.888,1.385.034,2.2.01,4.409.016,6.614,0,.271.049.542.1,1.048,2.242-2.149,4.255-4.209,5.009-7.078a9.562,9.562,0,0,0,.118-3.8,13.3,13.3,0,0,0-3.709-6.887,2.743,2.743,0,0,0-4.188.073,15.563,15.563,0,0,0-3.119,4.9,8.453,8.453,0,0,0,.859,8.385c.887,1.254,1.933,2.4,2.926,3.574a5.517,5.517,0,0,0,.862.631c0-1.258-.014-2.275.006-3.291a1.016,1.016,0,0,0-.817-1.108,4.3,4.3,0,0,1-2.579-5.279c.071-.221.36-.372.548-.556.152.213.406.412.436.64.067.506-.013,1.029.027,1.54a2.359,2.359,0,0,0,2.328,2.484c.018-.395.051-.79.052-1.185.006-2.278-.015-4.556.017-6.834.007-.53-.21-1.407.618-1.388.761.017.476.856.492,1.353.039,1.233.013,2.468.013,3.784M105.2,38.155a5.361,5.361,0,0,0,.225-8.721,1.348,1.348,0,0,0-1.878.228,7.106,7.106,0,0,0-1.954,3.993,5.31,5.31,0,0,0,2.479,4.44c0-.386,0-.752,0-1.118,0-1.139-.029-2.28.026-3.416.014-.3.295-.584.453-.876.211.287.538.548.606.866a7.464,7.464,0,0,1,.042,1.537c0,1.011,0,2.023,0,3.068" transform="translate(-58.85 -7.927)" fill="#59836b" stroke="#59836b" stroke-width="1"/>
        <path id="Trazado_881910" data-name="Trazado 881910" d="M75.709,206.878H96.554a3.47,3.47,0,0,1,.986.04c.227.07.4.335.59.513-.192.188-.353.464-.582.544a3.052,3.052,0,0,1-.982.069q-20.845,0-41.69,0a3.9,3.9,0,0,1-1.091-.09c-.195-.057-.486-.388-.449-.5a.947.947,0,0,1,.544-.533,3.4,3.4,0,0,1,.985-.041H75.709" transform="translate(-41.566 -161.225)" fill="#59836b" stroke="#59836b" stroke-width="1"/>
        <path id="Trazado_881911" data-name="Trazado 881911" d="M64.133,136.213a11.764,11.764,0,0,1-1.2.6,3.477,3.477,0,0,1-.856.1c.026-.294-.043-.648.1-.87a1.966,1.966,0,0,1,2.2-.816c.334.134.562.535.838.815l-.9.5Z" transform="translate(-48.385 -105.323)" fill="#59836b" stroke="#59836b" stroke-width="1"/>
        <path id="Trazado_881912" data-name="Trazado 881912" d="M65.94,177.191a2.357,2.357,0,0,1,2.124,1.246c.112.24-.012.59-.027.89a4.82,4.82,0,0,1-.824-.237,10.525,10.525,0,0,1-1.271-.727,5.055,5.055,0,0,1-.638-.6l.637-.57" transform="translate(-50.896 -138.099)" fill="#59836b" stroke="#59836b" stroke-width="1"/>
        <path id="Trazado_881913" data-name="Trazado 881913" d="M137.91,187.5a4.859,4.859,0,0,1,1.081.49.784.784,0,0,1,.173.66.584.584,0,0,1-.509.273,1.464,1.464,0,0,0-1.583.477c-.127.125-.626.12-.668.034-.109-.222-.177-.652-.05-.768a16.682,16.682,0,0,1,1.556-1.164" transform="translate(-106.218 -146.135)" fill="#59836b" stroke="#59836b" stroke-width="1"/>
        <path id="Trazado_881914" data-name="Trazado 881914" d="M198.928,191.881c1.076.1,1.761.4,2.075,1.2.085.216-.056.522-.093.787a3.267,3.267,0,0,1-.745-.154c-.407-.187-.768-.484-1.184-.64-.372-.139-.908-.142-.736-.684.086-.269.554-.416.683-.5" transform="translate(-154.483 -149.548)" fill="#59836b" stroke="#59836b" stroke-width="1"/>
        <path id="Trazado_881915" data-name="Trazado 881915" d="M105.668,166.316a7.914,7.914,0,0,1-1.179-.764c-.149-.13-.077-.512-.106-.778a2.968,2.968,0,0,1,.771-.047,5.407,5.407,0,0,1,1.1.364,7.338,7.338,0,0,1,.8.468,9.235,9.235,0,0,1-.729.674c-.1.075-.281.042-.653.084" transform="translate(-81.354 -128.372)" fill="#59836b" stroke="#59836b" stroke-width="1"/>
      </g>
    </g>
  </g>
</svg>
