<svg id="Grupo_1100511" data-name="Grupo 1100511" xmlns="http://www.w3.org/2000/svg" xmlns:xlink="http://www.w3.org/1999/xlink" width="60.682" height="60.764" viewBox="0 0 60.682 60.764">
  <defs>
    <clipPath id="clip-path">
      <rect id="Rectángulo_402652" data-name="Rectángulo 402652" width="60.682" height="60.764" fill="#12263f"/>
    </clipPath>
  </defs>
  <g id="Grupo_1100510" data-name="Grupo 1100510" clip-path="url(#clip-path)">
    <path id="Trazado_881925" data-name="Trazado 881925" d="M44.176,49.36c-1.7.889-1.693.883-2.742-.384-2.153-2.6-2.057-2.312.471-4.36q5.355-4.34,10.707-8.683c1.591-1.289,2.55-1.312,4.117-.047q5.98,4.828,11.94,9.681c1.091.887,1.106,1.159.208,2.292-.253.319-.512.632-.768.948-1.16,1.433-1.16,1.433-2.833.589v4.434c1.334-.493,2.625-1.085,3.979-1.443,1.643-.435,3.355-.606,5.007-1.011a17.074,17.074,0,0,0,7.257-3.288c.757-.642,1.544-.364,1.693.633.862,5.756.516,11.312-3.192,16.145-3.414,4.45-8.181,5.793-13.464,3.923-.573-.2-1.127-.461-1.689-.7-1.508-.63-2.9-1.373-2.964-3.411H60.5q-6.71,0-13.419,0c-2.081,0-2.885-.782-2.9-2.868-.019-3.661-.006-7.323-.006-10.984V49.36m21.49,16.925c4.489,2.334,8.9,1.73,12.095-1.674a15.233,15.233,0,0,0,3.922-9.871c.085-1.352.014-2.713.014-4.324A27.794,27.794,0,0,1,71.639,53.87a14.242,14.242,0,0,0-4.972,1.511c-3.213,1.854-4.162,5.979-2.616,9.453a17.339,17.339,0,0,1,1.653-.72,1.607,1.607,0,0,0,1.224-1.706c.01-.892.086-1.787.184-2.675.062-.564.322-1.038.995-1.013s.9.486.922,1.07c.012.322-.079.646-.09.969-.017.5,0,.995,0,1.71,1.271-.825,2.4-1.474,3.418-2.259a2.513,2.513,0,0,0,.752-1.386,13.629,13.629,0,0,0,.094-1.945c.05-.678.183-1.384,1.076-1.318.793.058.893.694.887,1.353,0,.288.049.576.075.865l.261.1c1.02-1.146,2.048-2.284,3.055-3.441.406-.467.855-.859,1.451-.443.654.457.464,1.052.05,1.592-.465.608-.945,1.2-1.489,1.9a4.814,4.814,0,0,1,1.309.5c.3.236.684.8.584,1a1.455,1.455,0,0,1-1.06.718,12.048,12.048,0,0,1-1.9-.394,1.5,1.5,0,0,0-1.009.115c-1.2.889-2.347,1.845-3.6,2.851.524.2.958.388,1.4.539.6.2,1.066.545.86,1.239-.234.787-.882.729-1.5.538-.737-.227-1.453-.525-2.2-.723a1.838,1.838,0,0,0-1.158-.029c-1.522.748-3,1.578-4.629,2.448M50.694,62.806V61.27c0-3.212-.009-6.424.006-9.637.005-1.17.284-1.447,1.431-1.46,1.666-.019,3.333-.014,5,0,1.341.009,1.531.2,1.536,1.582.011,2.968,0,5.936,0,8.9,0,2.366.016,2.382,2.379,2.107a1.044,1.044,0,0,0,.316-.162V59.811c-.308-.059-.543-.116-.781-.146-1.283-.162-1.465-.317-1.482-1.581q-.041-3.171,0-6.343c.016-1.317.286-1.557,1.584-1.572.835-.01,1.67,0,2.463,0,.407-2.254.352-2.42-1.136-3.63-2.144-1.743-4.314-3.456-6.423-5.242a1.126,1.126,0,0,0-1.753-.021c-2.111,1.783-4.209,3.6-6.45,5.2C45.98,47.49,46,48.667,46.27,50.172c.981,0,1.908,0,2.836,0a1.031,1.031,0,0,1,1.171,1.107c.02,2.4.015,4.8.006,7.2a1.047,1.047,0,0,1-1.131,1.154c-.325.013-.649.031-.974.035-2.219.025-2.219.024-2.04,2.266,0,.041-.014.1.007.119.241.255.475.7.736.721,1.206.077,2.419.034,3.814.034m6.06-10.774c-1.22,0-2.311-.048-3.392.034a1.035,1.035,0,0,0-.7.722q-.073,4.631,0,9.264a.957.957,0,0,0,.595.711c1.153.072,2.313.034,3.505.034Zm10.495-5.177c-4.069-3.3-8.019-6.494-11.955-9.7-.493-.4-.857-.265-1.284.083q-5.768,4.7-11.546,9.395c-.083.067-.114.2-.2.351l.651.694c.324-.245.585-.432.835-.634q4.884-3.954,9.766-7.91c1.135-.917,1.234-.91,2.394.015.159.127.315.258.472.386l10.088,8.178.776-.854m-21.037,5.27V57.67h2.139c0-1.481.006-2.891,0-4.3-.008-1.338-.058-1.384-1.366-1.34-.235.008-.469.056-.771.094m14.9,5.821a6.607,6.607,0,0,0,1.3-.781c1.144-1.174.881-2.685.923-4.13.024-.821-.327-1.1-1.09-1.011-.352.04-.708.053-1.131.083Z" transform="translate(-30.169 -26.422)" fill="#12263f"/>
    <path id="Trazado_881926" data-name="Trazado 881926" d="M5.168,30.061c.191-.338.307-.776.593-.986A1.406,1.406,0,0,1,6.9,28.783a1.179,1.179,0,0,1,.447,1.072C6.715,31.438,6,32.994,5.234,34.516a.864.864,0,0,1-1.583.138c-1.018-1.319-1.989-2.68-2.879-4.088-.178-.281.1-.848.163-1.283a6.671,6.671,0,0,1,1.3.233c.223.084.355.41.652.782.116-1.572.177-2.963.327-4.345A29.09,29.09,0,1,1,37.046,57.845a28.646,28.646,0,0,1-12.2-.506c-.118-.031-.244-.036-.358-.075-.622-.211-1.389-.4-1.152-1.268.246-.9.965-.74,1.7-.555A27.217,27.217,0,1,0,5.266,24.978c-.247,1.659-.283,3.349-.417,5.024l.319.06" transform="translate(-0.539 0)" fill="#12263f"/>
    <path id="Trazado_881927" data-name="Trazado 881927" d="M12.479,161.737a3.147,3.147,0,0,1,.352-.617,6.765,6.765,0,0,1,7.67-1.828,5.91,5.91,0,0,1,3.851,7.337,18,18,0,0,1-2.439,4.993c-2.331,3.369-5.461,6.012-8.51,8.708a1.52,1.52,0,0,1-2.2.01,59.564,59.564,0,0,1-8.479-8.58,13.658,13.658,0,0,1-2.556-5.218,6.184,6.184,0,0,1,5.432-7.62,6.52,6.52,0,0,1,6.39,2.445,3.411,3.411,0,0,0,.491.368M12.3,178.8c3.222-2.934,6.5-5.679,8.81-9.329a11.716,11.716,0,0,0,1.388-3.216,4.074,4.074,0,0,0-3.094-5.315,4.816,4.816,0,0,0-5.484,1.858c-1.2,1.554-2.067,1.572-3.239-.015a4.751,4.751,0,0,0-4.426-2.039c-2.929.2-5.07,2.677-4.2,5.4a14.09,14.09,0,0,0,1.3,3.126c2.318,3.746,5.656,6.546,8.941,9.525" transform="translate(0 -120.043)" fill="#12263f"/>
    <path id="Trazado_881928" data-name="Trazado 881928" d="M94.663,71.76a2.763,2.763,0,0,1-2.744,2.82,2.855,2.855,0,0,1-2.752-2.724,2.757,2.757,0,0,1,2.78-2.779,2.654,2.654,0,0,1,2.716,2.683m-2.76-1.2c-.36.607-.713.942-.7,1.264.009.262.506.749.7.709.333-.071.8-.448.832-.736s-.4-.637-.826-1.237" transform="translate(-67.406 -52.219)" fill="#12263f"/>
  </g>
</svg>
