<svg id="Grupo_1100515" data-name="Grupo 1100515" xmlns="http://www.w3.org/2000/svg" xmlns:xlink="http://www.w3.org/1999/xlink" width="57.873" height="58.022" viewBox="0 0 57.873 58.022">
  <defs>
    <clipPath id="clip-path">
      <rect id="Rectángulo_402656" data-name="Rectángulo 402656" width="57.873" height="58.022" fill="#12263f"/>
    </clipPath>
  </defs>
  <g id="Grupo_1100514" data-name="Grupo 1100514" clip-path="url(#clip-path)">
    <path id="Trazado_881932" data-name="Trazado 881932" d="M27.123,53.766H.057c-.031-.183-.072-.265-.052-.329C1.395,49,2.694,44.522,4.225,40.13a5.757,5.757,0,0,1,4.524-3.606c1.479-.326,2.968-.6,4.451-.912.309-.065.607-.184.911-.278l.292-.464a4.076,4.076,0,0,1-.92-.447,10.629,10.629,0,0,1-3.929-7.542c-.049-.642-.2-.991-.94-1.142A3.172,3.172,0,0,1,5.83,22.7a57.871,57.871,0,0,1,.3-10.647c1-5.928,5.966-9.845,12.258-10.226a39.349,39.349,0,0,1,5.562.087,7.833,7.833,0,0,1,6.174,3.947,3.153,3.153,0,0,0,.956,1.065,8.372,8.372,0,0,1,4.342,7.72q.022,3.525,0,7.05c-.014,2.321-.892,3.436-3.114,4.132a1.083,1.083,0,0,0-.648.728A11.061,11.061,0,0,1,27.4,34.658a3.353,3.353,0,0,0-.442.611c2.78,1.069,5.9.707,8.274,2.572.114-.086.21-.122.216-.168.321-2.657,1.051-3.315,3.723-3.322,2.312-.006,4.624-.02,6.936.007,2.273.026,3.223,1.016,3.234,3.293,0,.709,0,1.418,0,2.257H57.67c.03.455.07.785.07,1.115q.006,7.448,0,14.9c0,2.439-1.016,3.458-3.452,3.46q-11.883.009-23.765,0c-2.37,0-3.388-1.034-3.4-3.4,0-.677,0-1.355,0-2.217m1.811-12c0,1.422-.1,2.784.03,4.123a2.379,2.379,0,0,0,2.183,2.291c2.021.147,4.059.04,6.135.04.049-.567.093-1.082.144-1.671H47.45c.048.62.09,1.163.131,1.7l1.674.146v1.632l-1.685.112c-.025.242-.049.423-.061.605-.143,2.076-1.114,3.005-3.178,3.019-1.4.009-2.805.025-4.206-.01a2.722,2.722,0,0,1-2.748-2.508c-.046-.361-.068-.724-.1-1.085-2.825-.364-5.676.523-8.4-.955,0,2.238,0,4.281,0,6.325,0,1.917.171,2.094,2.053,2.094q11.483,0,22.966,0c.341,0,.75.1,1.007-.049.405-.239,1-.641,1.009-.993.088-2.408.046-4.82.046-7.147a29.411,29.411,0,0,1-3.27.618c-1.454.113-1.6-.154-1.124-1.742.486,0,1.013.028,1.535-.005a2.677,2.677,0,0,0,2.753-2.252,37.74,37.74,0,0,0,.036-4.289ZM11.381,16.575a3.649,3.649,0,0,0-.154.679c.018,3.217.023,6.434.089,9.65a6.875,6.875,0,0,0,.415,1.988,9.308,9.308,0,0,0,18.136-2.52c.1-2.684-.023-5.377.071-8.062.042-1.216-.141-1.961-1.543-2.148a5.375,5.375,0,0,1-2.14-.988,28.289,28.289,0,0,1-2.274-1.885c-3.78,2.723-8.075,3.5-12.6,3.286m22.243,2.367c0-1.863.105-3.573-.025-5.265A6.363,6.363,0,0,0,29.927,8.3a2.725,2.725,0,0,1-1.053-1.077,6.178,6.178,0,0,0-5.185-3.577,54.169,54.169,0,0,0-6.242.029,9.792,9.792,0,0,0-5.334,2.056C7.583,9.064,7.123,13.8,7.6,18.917l1.859-.5c0-.772.059-1.532-.014-2.279-.1-1.074.356-1.329,1.367-1.33a41.987,41.987,0,0,0,5.666-.282,15.9,15.9,0,0,0,8.031-3.843,7.388,7.388,0,0,0,7.155,4.155v3.569l1.96.53M2.3,51.926H7.729c.282-1.588.551-3.1.834-4.69l1.68.306L9.543,52c2.123,0,4.124.024,6.122-.031.251-.007.612-.391.711-.674.35-1,.521-2.064.923-3.037a2.988,2.988,0,0,0-.577-3.316c-.378-.464-.661-.6-1.224-.37-1,.418-2.041.755-3.274,1.2V37.635c-1.035.2-1.884.357-2.733.515a4.943,4.943,0,0,0-4.1,3.763c-.8,2.721-1.684,5.419-2.527,8.129-.188.6-.361,1.213-.56,1.884m35.11-12.084H47.586c0-.8-.034-1.517.008-2.228.063-1.071-.428-1.529-1.474-1.521-1.856.015-3.712,0-5.568,0-3.466.006-3.395-.387-3.229,3.566,0,.033.031.065.09.181m8.171,8.485H39.117c0,.894-.008,1.68,0,2.466a1.1,1.1,0,0,0,1.286,1.216c.716-.012,1.433.005,2.149,0,3.245-.029,3.331.594,3.14-3.495,0-.032-.036-.063-.109-.185M27.119,51.884c0-2.093.013-4.124-.017-6.155a1,1,0,0,0-.38-.715c-1.329-.873-1.774-.725-2.712.562a2.022,2.022,0,0,0-.322,2.084c.323.882.544,1.8.8,2.706.521,1.813.519,1.814,2.628,1.518m-4.019.058c-.425-1.48-.753-2.833-1.233-4.13-.106-.285-.755-.514-1.151-.51-.487.005-1.285.158-1.4.461-.519,1.318-.84,2.713-1.261,4.178Zm4.015-8.693c0-1.969.02-3.733-.01-5.495-.012-.694-.465-.772-.9-.362-1.33,1.267-2.615,2.581-4.041,4l4.947,1.857M18.964,41.4c-1.437-1.436-2.73-2.754-4.072-4.021-.112-.106-.8.127-.8.214-.048,1.825-.037,3.651-.037,5.649L18.964,41.4m1.49-1.3,3.574-3.6a12.127,12.127,0,0,1-7.409-.141L20.453,40.1M23,43.71a3.831,3.831,0,0,0-4.825.012c.6,1.532.866,1.778,1.937,1.8,2.026.045,2.1,0,2.888-1.813m11.679-3.853c-1.657-1.869-3.744-1.754-5.727-2.2v2.2ZM9.4,20.351c-1.363.282-2.019,1.064-1.877,2.092A1.61,1.61,0,0,0,9.4,23.9Zm22.342,3.663c1.308-.189,1.988-.94,1.9-1.943a1.7,1.7,0,0,0-1.9-1.6Z" transform="translate(0 -1.362)" fill="#12263f"/>
    <path id="Trazado_881933" data-name="Trazado 881933" d="M180.108,9.421,174,2.633,167.722,9.6a4.9,4.9,0,0,0,1.1.105c1.227-.21,1.467.391,1.428,1.474-.068,1.93-.019,3.864-.019,5.8q0,6.309,0,12.618c0,1.5-.009,1.5-1.668,1.332-.025-.453-.074-.928-.074-1.4-.005-5.57-.024-11.14.015-16.71.007-1-.226-1.456-1.32-1.359-1.043.093-2.1.02-3.5.02L173.992,0l10.332,11.473c-1.4,0-2.478.064-3.546-.019-1.009-.078-1.292.28-1.286,1.276.039,6.328.021,12.656.015,18.984,0,.542.153,1.175-.785,1.163-.665-.008-.958-.192-.957-.9q.022-10.685,0-21.371c0-.691.269-.959.95-.9.433.039.872.007,1.309.007l.083-.3" transform="translate(-126.451)" fill="#12263f"/>
    <rect id="Rectángulo_402654" data-name="Rectángulo 402654" width="1.64" height="17.423" transform="translate(46.719 9.792)" fill="#12263f"/>
    <rect id="Rectángulo_402655" data-name="Rectángulo 402655" width="1.586" height="1.623" transform="translate(46.751 29.344)" fill="#12263f"/>
    <path id="Trazado_881934" data-name="Trazado 881934" d="M227.138,155.058c-.467-.126-1.063-.125-1.354-.423a1.282,1.282,0,0,1,.105-1.222,1.148,1.148,0,0,1,1.118-.093,4.219,4.219,0,0,1,.487,1.424l-.356.315" transform="translate(-174.339 -118.363)" fill="#12263f"/>
    <path id="Trazado_881935" data-name="Trazado 881935" d="M62.353,112.688H63.99a4.643,4.643,0,0,0,2.249,3.773,6.281,6.281,0,0,0,2.787.716c2.276.012,3.7-1.474,4.535-4.49h1.515c.261,3.1-2.6,6.13-5.873,6.29a6.366,6.366,0,0,1-6.851-6.289" transform="translate(-48.17 -87.055)" fill="#12263f"/>
  </g>
</svg>
