<svg xmlns="http://www.w3.org/2000/svg" xmlns:xlink="http://www.w3.org/1999/xlink" width="89" height="89" viewBox="0 0 89 89">
  <defs>
    <clipPath id="clip-path">
      <rect id="Rectángulo_402596" data-name="Rectángulo 402596" width="58.843" height="58.887" fill="#59836b"/>
    </clipPath>
  </defs>
  <g id="Grupo_1100546" data-name="Grupo 1100546" transform="translate(-757 -10144.151)">
    <g id="Grupo_1098742" data-name="Grupo 1098742" transform="translate(-446.32 9755.408)">
      <g id="Rectángulo_400898" data-name="Rectángulo 400898" transform="translate(1203.32 388.742)" fill="#fff" stroke="#fff" stroke-width="3" opacity="0.859">
        <rect width="89" height="89" rx="44.5" stroke="none"/>
        <rect x="1.5" y="1.5" width="86" height="86" rx="43" fill="none"/>
      </g>
      <g id="Rectángulo_400907" data-name="Rectángulo 400907" transform="translate(1203.32 388.742)" fill="none" stroke="#fff" stroke-width="3">
        <rect width="89" height="89" rx="44.5" stroke="none"/>
        <rect x="1.5" y="1.5" width="86" height="86" rx="43" fill="none"/>
      </g>
    </g>
    <g id="Grupo_1100489" data-name="Grupo 1100489" transform="translate(772.078 10159.207)">
      <g id="Grupo_1100488" data-name="Grupo 1100488" clip-path="url(#clip-path)">
        <path id="Trazado_881900" data-name="Trazado 881900" d="M29.936,40.01A27.086,27.086,0,0,0,26.171,38.2a7.343,7.343,0,0,0-2.707.068q-4.508.408-9.011.878a1.39,1.39,0,0,0-.959.427c-1.46,2.5-2.865,5.037-4.308,7.6a6.139,6.139,0,0,1,2.389,5.147A5.774,5.774,0,0,1,.042,52.073a5.625,5.625,0,0,1,5.385-5.844A2.327,2.327,0,0,0,7.85,44.708a31.746,31.746,0,0,1,2.36-4.189,10.069,10.069,0,0,0,1.728-6.032c-.013-1.6,0-3.194,0-4.9a14.872,14.872,0,0,1-10.2-7.732A14.24,14.24,0,0,1,.412,11.628a14.894,14.894,0,0,1,29.417,3.195A15.1,15.1,0,0,1,14.57,29.961l-.347,6.766c2.789-.259,5.4-.5,8.014-.746a2.33,2.33,0,0,1,.453-.062c2.222.254,3.563-.857,4.658-2.687,1.116-1.863,2.535-3.541,3.738-5.356a2.335,2.335,0,0,1,2.4-1.141c3.2.238,6.408.386,9.613.563a4.759,4.759,0,0,0,.625-.055V21.809c-.379-.119-.781-.217-1.161-.37a3.2,3.2,0,0,1-2.256-2.9,54.746,54.746,0,0,1,.043-6.071A6.4,6.4,0,0,1,44.1,7.2c.433-.232.894-.41,1.4-.64-.571-2.409-.457-4.643,1.984-5.978a4.11,4.11,0,0,1,4.744.375C54.074,2.4,54.242,4.341,53.553,6.51l.92.427c2.819,1.311,4.442,3.4,4.367,6.629-.03,1.3,0,2.6-.005,3.9,0,2.656-.718,3.58-3.467,4.326,0,1.935,0,3.912,0,5.888,0,1.782-.277,2.088-2.057,2.047q-9.569-.222-19.138-.507a1.738,1.738,0,0,0-1.7.839c-1.424,2.077-2.9,4.116-4.442,6.284l2.935,1.5c.24-.3.456-.551.654-.817A13.774,13.774,0,0,1,56.5,46.435a13.43,13.43,0,0,1-2.58,6.771c-.666.913-1.363,1.153-2,.7s-.633-1.119.048-2.1A11.387,11.387,0,1,0,40.9,56.3a22.452,22.452,0,0,0,2.508.177c.986.038,1.513.428,1.475,1.19-.044.864-.606,1.14-1.389,1.194A13.858,13.858,0,0,1,29.149,47.164a15.458,15.458,0,0,1,.788-7.154M27.394,14.988A12.494,12.494,0,1,0,14.827,27.423,12.477,12.477,0,0,0,27.394,14.988M53.033,27.32c-.411-2.606.69-5.244-.846-7.661a1.339,1.339,0,0,1-.216-.648c-.048-2.06-.125-4.123-.056-6.18.011-.342.662-.869,1.07-.925.334-.046.821.425,1.1.778.179.228.129.657.133,1,.017,1.453-.012,2.906.033,4.357.019.629.2,1.3,1.018,1.255a1.177,1.177,0,0,0,1.207-1.362c-.031-1.414-.006-2.829-.008-4.243A4.509,4.509,0,0,0,53.179,9a2.367,2.367,0,0,0-2.163,0,3.367,3.367,0,0,1-3.1-.055,2.239,2.239,0,0,0-.734-.294,4.923,4.923,0,0,0-4.431,3.981c-.094,1.83-.053,3.669-.025,5.5a1.314,1.314,0,0,0,.387.885c.743.633,1.612.3,1.7-.752.139-1.594.092-3.2.128-4.806.024-1.062.454-1.636,1.2-1.619.729.017,1.176.618,1.187,1.661.015,1.414.047,2.831-.018,4.242a4.083,4.083,0,0,1-.451,1.98,5.866,5.866,0,0,0-.675,3.514c.008,1.358,0,2.717,0,4.041h2.193c0-.492,0-.905,0-1.319,0-1.759,0-3.517.006-5.276,0-.745.31-1.3,1.109-1.328.854-.032,1.235.534,1.265,1.316.038.993.014,1.987.015,2.981,0,1.208,0,2.417,0,3.663ZM5.788,55.341a3.4,3.4,0,1,0,.039-6.793,3.4,3.4,0,0,0-.039,6.793M51.494,4.477A1.909,1.909,0,0,0,49.5,2.441a1.979,1.979,0,0,0-1.909,2.034A2.417,2.417,0,0,0,49.56,6.934a2.317,2.317,0,0,0,1.934-2.457" transform="translate(0 0)" fill="#59836b"/>
        <path id="Trazado_881901" data-name="Trazado 881901" d="M151.016,173.044c-1.154.94-2.181,1.861-3.3,2.645a1.769,1.769,0,0,1-1.516.249,1.681,1.681,0,0,1-.574-1.427,19.658,19.658,0,0,0,0-6.485,1.922,1.922,0,0,1,.518-1.485c.507-.472,1.131-.167,1.643.261,1.051.879,2.118,1.738,3.225,2.643l1.952-1.773c-.431-.577-.852-1.11-1.24-1.666-.607-.87-.426-1.718.575-2a33.122,33.122,0,0,1,5.008-1.1,3.265,3.265,0,0,1,3.638,2.642A3.618,3.618,0,0,0,162.714,168a8.489,8.489,0,0,1,2.019,2c.832,1.043.782,1.429-.015,2.548a8.617,8.617,0,0,1-12.8,1.347c-.279-.254-.55-.516-.9-.849m6.96-4.3a6.5,6.5,0,0,0-4.625,1.779c-.533.488-.571.866-.041,1.411a6.255,6.255,0,0,0,8.828-.046,2.9,2.9,0,0,0,.379-.846,5.49,5.49,0,0,0-.806,0c-.892.132-1.467-.208-1.484-1.11-.012-.678-.32-.857-.857-.948-.56-.1-1.12-.2-1.395-.245m.559-2.489c-.353-1.169-2.233-1.317-3.922-.193.347.217.637.554.908.54,1.008-.053,2.009-.221,3.014-.346" transform="translate(-112.208 -125.512)" fill="#59836b"/>
        <path id="Trazado_881902" data-name="Trazado 881902" d="M208.185,240.048a1.143,1.143,0,0,1,1.227,1.084,1.189,1.189,0,0,1-1.179,1.258,1.172,1.172,0,0,1-.048-2.343" transform="translate(-159.575 -184.983)" fill="#59836b"/>
        <path id="Trazado_881903" data-name="Trazado 881903" d="M36.549,20.683c.923-.486,1.836-1.028,2.8-1.458s1.7-.18,1.914.547c.26.873-.188,1.349-.977,1.655-.545.211-1.052.523-1.727.868a24.745,24.745,0,0,1,2.5.129,3.4,3.4,0,0,1,2.65,5.139A8.237,8.237,0,0,1,38.378,31.6c-.254.078-.515.132-.772.2a1.454,1.454,0,0,0-.223.156c.052.326.119.723.177,1.12.293,1.993-.585,3.853-2.031,4.308-1.468.462-3.083-.426-4.053-2.259-.249-.47-.426-.977-.638-1.473a26.623,26.623,0,0,1-2.6.624,3.227,3.227,0,0,1-3.351-1.5,3.057,3.057,0,0,1,.729-3.569,21.181,21.181,0,0,1,1.874-1.59,24.963,24.963,0,0,1-1.222-4.064,8.111,8.111,0,0,1,.355-3.581,3.326,3.326,0,0,1,5.386-1.607c.671.483,1.254,1.09,1.992,1.741-.164-.8-.29-1.561-.479-2.3-.2-.773-.225-1.471.657-1.814.732-.285,1.364.12,1.631,1.138.306,1.172.5,2.374.74,3.553m-1.7,14.411a3.613,3.613,0,0,0-.191-3.455c-.276-.559-.738-.987-.362-1.634.395-.679,1.03-.583,1.711-.566a6.062,6.062,0,0,0,5.4-2.665c.763-1.094.3-2-1.035-2a9.8,9.8,0,0,0-2.783.478c-1.346.41-1.818.2-2.109-1.143a2.64,2.64,0,0,0-.273-.567,2.266,2.266,0,0,0-.4.118c-1.441.8-1.817.634-2.48-.87a7.229,7.229,0,0,0-1.24-2.026,1.959,1.959,0,0,0-1.536-.668c-.417.131-.811.888-.9,1.422a6.368,6.368,0,0,0,1.849,5.639,1.768,1.768,0,0,1,.434,1.384c-.079.336-.682.571-1.08.8-.772.453-1.6.826-2.331,1.33-.271.186-.352.648-.543,1.029a3.563,3.563,0,0,0,4.2-2.025c.506-1.152.972-2.321,1.466-3.479.47-1.1,1.027-1.472,1.753-1.19.763.3.91,1,.434,2.163s-1,2.313-1.442,3.489a3.433,3.433,0,0,0,1.45,4.427" transform="translate(-18.944 -12.255)" fill="#59836b"/>
        <path id="Trazado_881904" data-name="Trazado 881904" d="M21.335,223.7a1.114,1.114,0,0,1-1.113-1.1,1.134,1.134,0,0,1,1.173-1.24,1.1,1.1,0,0,1,1.156,1.145,1.172,1.172,0,0,1-1.216,1.193" transform="translate(-15.579 -170.582)" fill="#59836b"/>
      </g>
    </g>
  </g>
</svg>
