<svg xmlns="http://www.w3.org/2000/svg" xmlns:xlink="http://www.w3.org/1999/xlink" width="272.881" height="327.902" viewBox="0 0 272.881 327.902">
  <defs>
    <clipPath id="clip-path">
      <rect id="Rectángulo_400902" data-name="Rectángulo 400902" width="98.038" height="86.915" fill="#e2f2f3"/>
    </clipPath>
    <clipPath id="clip-path-2">
      <rect id="Rectángulo_400902-2" data-name="Rectángulo 400902" width="98.038" height="86.915" fill="#4d812e"/>
    </clipPath>
    <clipPath id="clip-path-3">
      <rect id="Rectángulo_402471" data-name="Rectángulo 402471" width="170.069" height="315.724" fill="none"/>
    </clipPath>
    <clipPath id="clip-path-5">
      <rect id="Rectángulo_402466" data-name="Rectángulo 402466" width="69.948" height="22.507" fill="none"/>
    </clipPath>
  </defs>
  <g id="Grupo_1100545" data-name="Grupo 1100545" transform="translate(-1147.119 -419.744)">
    <path id="Rectángulo_401371" data-name="Rectángulo 401371" d="M90.5,0h0A90.5,90.5,0,0,1,181,90.5V295.328a0,0,0,0,1,0,0H0a0,0,0,0,1,0,0V90.5A90.5,90.5,0,0,1,90.5,0Z" transform="translate(1147.119 428.863)" fill="#daf2e4"/>
    <g id="Grupo_1099448" data-name="Grupo 1099448" transform="translate(1161.238 481.374)">
      <g id="Grupo_1098724" data-name="Grupo 1098724" transform="translate(0 0)">
        <g id="Grupo_1098723" data-name="Grupo 1098723" clip-path="url(#clip-path)">
          <path id="Trazado_872910" data-name="Trazado 872910" d="M3.914,1.957A1.957,1.957,0,1,1,1.957,0,1.957,1.957,0,0,1,3.914,1.957" fill="#e2f2f3"/>
          <path id="Trazado_872911" data-name="Trazado 872911" d="M32.868,1.957A1.957,1.957,0,1,1,30.911,0a1.957,1.957,0,0,1,1.957,1.957" transform="translate(-10.129)" fill="#e2f2f3"/>
          <path id="Trazado_872912" data-name="Trazado 872912" d="M61.821,1.957A1.957,1.957,0,1,1,59.864,0a1.957,1.957,0,0,1,1.957,1.957" transform="translate(-20.257)" fill="#e2f2f3"/>
          <path id="Trazado_872913" data-name="Trazado 872913" d="M90.774,1.957A1.957,1.957,0,1,1,88.817,0a1.957,1.957,0,0,1,1.957,1.957" transform="translate(-30.386)" fill="#e2f2f3"/>
          <path id="Trazado_872914" data-name="Trazado 872914" d="M119.728,1.957A1.957,1.957,0,1,1,117.771,0a1.957,1.957,0,0,1,1.957,1.957" transform="translate(-40.514)" fill="#e2f2f3"/>
          <path id="Trazado_872915" data-name="Trazado 872915" d="M148.681,1.957A1.957,1.957,0,1,1,146.724,0a1.957,1.957,0,0,1,1.957,1.957" transform="translate(-50.643)" fill="#e2f2f3"/>
          <path id="Trazado_872916" data-name="Trazado 872916" d="M3.914,33.872a1.957,1.957,0,1,1-1.957-1.957,1.957,1.957,0,0,1,1.957,1.957" transform="translate(0 -11.165)" fill="#e2f2f3"/>
          <path id="Trazado_872917" data-name="Trazado 872917" d="M32.868,33.872a1.957,1.957,0,1,1-1.957-1.957,1.957,1.957,0,0,1,1.957,1.957" transform="translate(-10.129 -11.165)" fill="#e2f2f3"/>
          <path id="Trazado_872918" data-name="Trazado 872918" d="M61.821,33.872a1.957,1.957,0,1,1-1.957-1.957,1.957,1.957,0,0,1,1.957,1.957" transform="translate(-20.257 -11.165)" fill="#e2f2f3"/>
          <path id="Trazado_872919" data-name="Trazado 872919" d="M90.774,33.872a1.957,1.957,0,1,1-1.957-1.957,1.957,1.957,0,0,1,1.957,1.957" transform="translate(-30.386 -11.165)" fill="#e2f2f3"/>
          <path id="Trazado_872920" data-name="Trazado 872920" d="M119.728,33.872a1.957,1.957,0,1,1-1.957-1.957,1.958,1.958,0,0,1,1.957,1.957" transform="translate(-40.514 -11.165)" fill="#e2f2f3"/>
          <path id="Trazado_872921" data-name="Trazado 872921" d="M148.681,33.872a1.957,1.957,0,1,1-1.957-1.957,1.957,1.957,0,0,1,1.957,1.957" transform="translate(-50.643 -11.165)" fill="#e2f2f3"/>
          <path id="Trazado_872922" data-name="Trazado 872922" d="M3.914,65.787A1.957,1.957,0,1,1,1.957,63.83a1.957,1.957,0,0,1,1.957,1.957" transform="translate(0 -22.329)" fill="#e2f2f3"/>
          <path id="Trazado_872923" data-name="Trazado 872923" d="M32.868,65.787a1.957,1.957,0,1,1-1.957-1.957,1.957,1.957,0,0,1,1.957,1.957" transform="translate(-10.129 -22.329)" fill="#e2f2f3"/>
          <path id="Trazado_872924" data-name="Trazado 872924" d="M61.821,65.787a1.957,1.957,0,1,1-1.957-1.957,1.957,1.957,0,0,1,1.957,1.957" transform="translate(-20.257 -22.329)" fill="#e2f2f3"/>
          <path id="Trazado_872925" data-name="Trazado 872925" d="M90.774,65.787a1.957,1.957,0,1,1-1.957-1.957,1.957,1.957,0,0,1,1.957,1.957" transform="translate(-30.386 -22.329)" fill="#e2f2f3"/>
          <path id="Trazado_872926" data-name="Trazado 872926" d="M119.728,65.787a1.957,1.957,0,1,1-1.957-1.957,1.958,1.958,0,0,1,1.957,1.957" transform="translate(-40.514 -22.329)" fill="#e2f2f3"/>
          <path id="Trazado_872927" data-name="Trazado 872927" d="M148.681,65.787a1.957,1.957,0,1,1-1.957-1.957,1.957,1.957,0,0,1,1.957,1.957" transform="translate(-50.643 -22.329)" fill="#e2f2f3"/>
          <path id="Trazado_872928" data-name="Trazado 872928" d="M3.914,97.7a1.957,1.957,0,1,1-1.957-1.957A1.957,1.957,0,0,1,3.914,97.7" transform="translate(0 -33.494)" fill="#e2f2f3"/>
          <path id="Trazado_872929" data-name="Trazado 872929" d="M32.868,97.7a1.957,1.957,0,1,1-1.957-1.957A1.957,1.957,0,0,1,32.868,97.7" transform="translate(-10.129 -33.494)" fill="#e2f2f3"/>
          <path id="Trazado_872930" data-name="Trazado 872930" d="M61.821,97.7a1.957,1.957,0,1,1-1.957-1.957A1.957,1.957,0,0,1,61.821,97.7" transform="translate(-20.257 -33.494)" fill="#e2f2f3"/>
          <path id="Trazado_872931" data-name="Trazado 872931" d="M90.774,97.7a1.957,1.957,0,1,1-1.957-1.957A1.957,1.957,0,0,1,90.774,97.7" transform="translate(-30.386 -33.494)" fill="#e2f2f3"/>
          <path id="Trazado_872932" data-name="Trazado 872932" d="M119.728,97.7a1.957,1.957,0,1,1-1.957-1.957,1.958,1.958,0,0,1,1.957,1.957" transform="translate(-40.514 -33.494)" fill="#e2f2f3"/>
          <path id="Trazado_872933" data-name="Trazado 872933" d="M148.681,97.7a1.957,1.957,0,1,1-1.957-1.957,1.957,1.957,0,0,1,1.957,1.957" transform="translate(-50.643 -33.494)" fill="#e2f2f3"/>
          <path id="Trazado_872934" data-name="Trazado 872934" d="M3.914,129.617a1.957,1.957,0,1,1-1.957-1.957,1.957,1.957,0,0,1,1.957,1.957" transform="translate(0 -44.659)" fill="#e2f2f3"/>
          <path id="Trazado_872935" data-name="Trazado 872935" d="M32.868,129.617a1.957,1.957,0,1,1-1.957-1.957,1.957,1.957,0,0,1,1.957,1.957" transform="translate(-10.129 -44.659)" fill="#e2f2f3"/>
          <path id="Trazado_872936" data-name="Trazado 872936" d="M61.821,129.617a1.957,1.957,0,1,1-1.957-1.957,1.957,1.957,0,0,1,1.957,1.957" transform="translate(-20.257 -44.659)" fill="#e2f2f3"/>
          <path id="Trazado_872937" data-name="Trazado 872937" d="M90.774,129.617a1.957,1.957,0,1,1-1.957-1.957,1.957,1.957,0,0,1,1.957,1.957" transform="translate(-30.386 -44.659)" fill="#e2f2f3"/>
          <path id="Trazado_872938" data-name="Trazado 872938" d="M119.728,129.617a1.957,1.957,0,1,1-1.957-1.957,1.958,1.958,0,0,1,1.957,1.957" transform="translate(-40.514 -44.659)" fill="#e2f2f3"/>
          <path id="Trazado_872939" data-name="Trazado 872939" d="M148.681,129.617a1.957,1.957,0,1,1-1.957-1.957,1.957,1.957,0,0,1,1.957,1.957" transform="translate(-50.643 -44.659)" fill="#e2f2f3"/>
        </g>
      </g>
    </g>
    <path id="Rectángulo_401372" data-name="Rectángulo 401372" d="M0,0H272.764a0,0,0,0,1,0,0V16a20,20,0,0,1-20,20H20A20,20,0,0,1,0,16V0A0,0,0,0,1,0,0Z" transform="translate(1147.119 711.646)" fill="#77af8f"/>
    <g id="Grupo_1099449" data-name="Grupo 1099449" transform="translate(1306.238 648.554)">
      <g id="Grupo_1098724-2" data-name="Grupo 1098724" transform="translate(0 0)">
        <g id="Grupo_1098723-2" data-name="Grupo 1098723" clip-path="url(#clip-path-2)">
          <path id="Trazado_872910-2" data-name="Trazado 872910" d="M3.914,1.957A1.957,1.957,0,1,1,1.957,0,1.957,1.957,0,0,1,3.914,1.957" fill="#4d812e"/>
          <path id="Trazado_872911-2" data-name="Trazado 872911" d="M32.868,1.957A1.957,1.957,0,1,1,30.911,0a1.957,1.957,0,0,1,1.957,1.957" transform="translate(-10.129)" fill="#4d812e"/>
          <path id="Trazado_872912-2" data-name="Trazado 872912" d="M61.821,1.957A1.957,1.957,0,1,1,59.864,0a1.957,1.957,0,0,1,1.957,1.957" transform="translate(-20.257)" fill="#4d812e"/>
          <path id="Trazado_872913-2" data-name="Trazado 872913" d="M90.774,1.957A1.957,1.957,0,1,1,88.817,0a1.957,1.957,0,0,1,1.957,1.957" transform="translate(-30.386)" fill="#4d812e"/>
          <path id="Trazado_872914-2" data-name="Trazado 872914" d="M119.728,1.957A1.957,1.957,0,1,1,117.771,0a1.957,1.957,0,0,1,1.957,1.957" transform="translate(-40.514)" fill="#4d812e"/>
          <path id="Trazado_872915-2" data-name="Trazado 872915" d="M148.681,1.957A1.957,1.957,0,1,1,146.724,0a1.957,1.957,0,0,1,1.957,1.957" transform="translate(-50.643)" fill="#4d812e"/>
          <path id="Trazado_872916-2" data-name="Trazado 872916" d="M3.914,33.872a1.957,1.957,0,1,1-1.957-1.957,1.957,1.957,0,0,1,1.957,1.957" transform="translate(0 -11.165)" fill="#4d812e"/>
          <path id="Trazado_872917-2" data-name="Trazado 872917" d="M32.868,33.872a1.957,1.957,0,1,1-1.957-1.957,1.957,1.957,0,0,1,1.957,1.957" transform="translate(-10.129 -11.165)" fill="#4d812e"/>
          <path id="Trazado_872918-2" data-name="Trazado 872918" d="M61.821,33.872a1.957,1.957,0,1,1-1.957-1.957,1.957,1.957,0,0,1,1.957,1.957" transform="translate(-20.257 -11.165)" fill="#4d812e"/>
          <path id="Trazado_872919-2" data-name="Trazado 872919" d="M90.774,33.872a1.957,1.957,0,1,1-1.957-1.957,1.957,1.957,0,0,1,1.957,1.957" transform="translate(-30.386 -11.165)" fill="#4d812e"/>
          <path id="Trazado_872920-2" data-name="Trazado 872920" d="M119.728,33.872a1.957,1.957,0,1,1-1.957-1.957,1.958,1.958,0,0,1,1.957,1.957" transform="translate(-40.514 -11.165)" fill="#4d812e"/>
          <path id="Trazado_872921-2" data-name="Trazado 872921" d="M148.681,33.872a1.957,1.957,0,1,1-1.957-1.957,1.957,1.957,0,0,1,1.957,1.957" transform="translate(-50.643 -11.165)" fill="#4d812e"/>
          <path id="Trazado_872922-2" data-name="Trazado 872922" d="M3.914,65.787A1.957,1.957,0,1,1,1.957,63.83a1.957,1.957,0,0,1,1.957,1.957" transform="translate(0 -22.329)" fill="#4d812e"/>
          <path id="Trazado_872923-2" data-name="Trazado 872923" d="M32.868,65.787a1.957,1.957,0,1,1-1.957-1.957,1.957,1.957,0,0,1,1.957,1.957" transform="translate(-10.129 -22.329)" fill="#4d812e"/>
          <path id="Trazado_872924-2" data-name="Trazado 872924" d="M61.821,65.787a1.957,1.957,0,1,1-1.957-1.957,1.957,1.957,0,0,1,1.957,1.957" transform="translate(-20.257 -22.329)" fill="#4d812e"/>
          <path id="Trazado_872925-2" data-name="Trazado 872925" d="M90.774,65.787a1.957,1.957,0,1,1-1.957-1.957,1.957,1.957,0,0,1,1.957,1.957" transform="translate(-30.386 -22.329)" fill="#4d812e"/>
          <path id="Trazado_872926-2" data-name="Trazado 872926" d="M119.728,65.787a1.957,1.957,0,1,1-1.957-1.957,1.958,1.958,0,0,1,1.957,1.957" transform="translate(-40.514 -22.329)" fill="#4d812e"/>
          <path id="Trazado_872927-2" data-name="Trazado 872927" d="M148.681,65.787a1.957,1.957,0,1,1-1.957-1.957,1.957,1.957,0,0,1,1.957,1.957" transform="translate(-50.643 -22.329)" fill="#4d812e"/>
          <path id="Trazado_872928-2" data-name="Trazado 872928" d="M3.914,97.7a1.957,1.957,0,1,1-1.957-1.957A1.957,1.957,0,0,1,3.914,97.7" transform="translate(0 -33.494)" fill="#4d812e"/>
          <path id="Trazado_872929-2" data-name="Trazado 872929" d="M32.868,97.7a1.957,1.957,0,1,1-1.957-1.957A1.957,1.957,0,0,1,32.868,97.7" transform="translate(-10.129 -33.494)" fill="#4d812e"/>
          <path id="Trazado_872930-2" data-name="Trazado 872930" d="M61.821,97.7a1.957,1.957,0,1,1-1.957-1.957A1.957,1.957,0,0,1,61.821,97.7" transform="translate(-20.257 -33.494)" fill="#4d812e"/>
          <path id="Trazado_872931-2" data-name="Trazado 872931" d="M90.774,97.7a1.957,1.957,0,1,1-1.957-1.957A1.957,1.957,0,0,1,90.774,97.7" transform="translate(-30.386 -33.494)" fill="#4d812e"/>
          <path id="Trazado_872932-2" data-name="Trazado 872932" d="M119.728,97.7a1.957,1.957,0,1,1-1.957-1.957,1.958,1.958,0,0,1,1.957,1.957" transform="translate(-40.514 -33.494)" fill="#4d812e"/>
          <path id="Trazado_872933-2" data-name="Trazado 872933" d="M148.681,97.7a1.957,1.957,0,1,1-1.957-1.957,1.957,1.957,0,0,1,1.957,1.957" transform="translate(-50.643 -33.494)" fill="#4d812e"/>
          <path id="Trazado_872934-2" data-name="Trazado 872934" d="M3.914,129.617a1.957,1.957,0,1,1-1.957-1.957,1.957,1.957,0,0,1,1.957,1.957" transform="translate(0 -44.659)" fill="#4d812e"/>
          <path id="Trazado_872935-2" data-name="Trazado 872935" d="M32.868,129.617a1.957,1.957,0,1,1-1.957-1.957,1.957,1.957,0,0,1,1.957,1.957" transform="translate(-10.129 -44.659)" fill="#4d812e"/>
          <path id="Trazado_872936-2" data-name="Trazado 872936" d="M61.821,129.617a1.957,1.957,0,1,1-1.957-1.957,1.957,1.957,0,0,1,1.957,1.957" transform="translate(-20.257 -44.659)" fill="#4d812e"/>
          <path id="Trazado_872937-2" data-name="Trazado 872937" d="M90.774,129.617a1.957,1.957,0,1,1-1.957-1.957,1.957,1.957,0,0,1,1.957,1.957" transform="translate(-30.386 -44.659)" fill="#4d812e"/>
          <path id="Trazado_872938-2" data-name="Trazado 872938" d="M119.728,129.617a1.957,1.957,0,1,1-1.957-1.957,1.958,1.958,0,0,1,1.957,1.957" transform="translate(-40.514 -44.659)" fill="#4d812e"/>
          <path id="Trazado_872939-2" data-name="Trazado 872939" d="M148.681,129.617a1.957,1.957,0,1,1-1.957-1.957,1.957,1.957,0,0,1,1.957,1.957" transform="translate(-50.643 -44.659)" fill="#4d812e"/>
        </g>
      </g>
    </g>
    <g id="Grupo_1100236" data-name="Grupo 1100236" transform="translate(1196.694 419.744)">
      <g id="Grupo_1100235" data-name="Grupo 1100235" clip-path="url(#clip-path-3)">
        <g id="Grupo_1100234" data-name="Grupo 1100234">
          <g id="Grupo_1100233" data-name="Grupo 1100233" clip-path="url(#clip-path-3)">
            <path id="Trazado_881162" data-name="Trazado 881162" d="M108.357,126.717,62.72,128.192a3.039,3.039,0,0,1-3.136-2.939L57.452,59.272a5.069,5.069,0,0,1,4.9-5.231L103.933,52.7a5.069,5.069,0,0,1,5.231,4.9l2.134,65.98a3.041,3.041,0,0,1-2.94,3.137" transform="translate(-6.817 -6.253)" fill="#b9c8bd"/>
            <g id="Grupo_1100232" data-name="Grupo 1100232" transform="translate(32.207 278.592)" style="mix-blend-mode: multiply;isolation: isolate">
              <g id="Grupo_1100231" data-name="Grupo 1100231">
                <g id="Grupo_1100230" data-name="Grupo 1100230" clip-path="url(#clip-path-5)">
                  <path id="Trazado_881163" data-name="Trazado 881163" d="M106.492,327.355c0,6.215-15.659,11.254-34.974,11.254s-34.973-5.039-34.973-11.254S52.2,316.1,71.517,316.1s34.974,5.039,34.974,11.254" transform="translate(-36.543 -316.101)" fill="#e2e8db"/>
                </g>
              </g>
            </g>
            <path id="Trazado_881164" data-name="Trazado 881164" d="M45.056,220.917S43.4,234.849,56.1,236.385a91.21,91.21,0,0,0,21.269.351s-5.6-28.106-32.308-15.819" transform="translate(-5.338 -25.845)" fill="#303030"/>
            <path id="Trazado_881165" data-name="Trazado 881165" d="M67.428,20.424s.121,19.536-4.213,23.046c0,0,15.029,10.038,41.578-1.316,0,0-4.882-23.148-6.527-27.426,0,0-26.79,2.287-30.838,5.7" transform="translate(-7.501 -1.748)" fill="#86a08e"/>
            <path id="Trazado_881166" data-name="Trazado 881166" d="M68.015,21.782s-1.588,16.007-6.854,21.4" transform="translate(-7.257 -2.585)" fill="none" stroke="#86a08e" stroke-miterlimit="10" stroke-width="1"/>
            <path id="Trazado_881167" data-name="Trazado 881167" d="M102.985,14.728s4.936,18.378,8.063,26.6" transform="translate(-12.22 -1.748)" fill="none" stroke="#86a08e" stroke-miterlimit="10" stroke-width="1"/>
            <path id="Trazado_881168" data-name="Trazado 881168" d="M132.019,162.857s-1.884-4.471-8.047-4.841l-1.351,9.463s3.7,17.79,5.713,15.333c2.915-3.551,4.639-3.245,4.124-6.21,1.7-12.192-.439-13.744-.439-13.744" transform="translate(-14.55 -18.75)" fill="#c6d3ca"/>
            <path id="Trazado_881169" data-name="Trazado 881169" d="M128.1,185.529s-5.35,4.229-5.909,2.264c-1.184-4.153,4.586-8.16,4.586-8.16Z" transform="translate(-14.48 -21.315)" fill="#c6d3ca"/>
            <path id="Trazado_881170" data-name="Trazado 881170" d="M121.889,187.571s-3.259-7.977-2.161-9.525,5.066,3.847,5.066,3.847Z" transform="translate(-14.18 -21.094)" fill="#c6d3ca"/>
            <path id="Trazado_881171" data-name="Trazado 881171" d="M132.855,120.317c.178,1.154,1.992,12.5,1.754,16.79a110.914,110.914,0,0,1-3.387,23.343c-.5-1.374-5.524-2.948-7.47-5.6a297.419,297.419,0,0,0-2.169-29.673c-.768-5.888,5.177-4.059,8.2-4.084,2.531-.02,2.668-3.413,3.074-.773" transform="translate(-14.419 -14.157)" fill="#c1cec5"/>
            <path id="Trazado_881172" data-name="Trazado 881172" d="M113.473,144.331c-20.2,0-57.788-4.95-57.788-4.95a100.772,100.772,0,0,0-1.947,16.966c3.617,1.381,26.786,25.342,26.148,34.533-1.056,15.238,6.335,42.75,5.77,49.44s-1.924,59.723-1.924,59.723,5.339,6.9,15.876,1.295c0,0,9.447-54.472,9.226-60.732s4.77-25.5,7.658-41.851,3.194-39.29-3.02-54.423" transform="translate(-6.377 -16.539)" fill="#c1cec5"/>
            <path id="Trazado_881173" data-name="Trazado 881173" d="M53.875,145.385a194.946,194.946,0,0,0-4.19,20.2c-6.52,46.082-4.411,50.874-3.832,56.586,1.116,10.983,1.067,68.236,1.067,68.236a18.426,18.426,0,0,0,18.383-.74s3.866-56.534,5.23-63.519c.837-4.286,3.472-9.339,8.136-20.551C84.232,192.221,97.9,162.72,97.9,162.72Z" transform="translate(-5.347 -17.251)" fill="#c1cec5"/>
            <path id="Trazado_881174" data-name="Trazado 881174" d="M51.067,131.912a48.634,48.634,0,0,1-4.652,4.934c-7.337,6.187-9.956,7.859-19.26,11.362-1.882-2.076-4.742-3.017-5.063-6.2,0,0,7.911-10.107,17.431-21,3.087-3.532,12.607,9.051,11.544,10.906" transform="translate(-2.621 -14.285)" fill="#c1cec5"/>
            <path id="Trazado_881175" data-name="Trazado 881175" d="M47.118,87.61c-3.082,15.443-5.435,28.05-6.307,36.954,0,0,5.587,10.041,12.8,2.846,0,0,7.836-27.238,7.876-34.606Z" transform="translate(-4.843 -10.396)" fill="#c1cec5"/>
            <path id="Trazado_881176" data-name="Trazado 881176" d="M124.07,84.247c4.058,7.145,7.375,24.71,7.692,35.541,0,0-3.972,8.561-11.5,1.692,0,0-9.956-24.05-10.321-31.408Z" transform="translate(-13.046 -9.997)" fill="#c1cec5"/>
            <path id="Trazado_881177" data-name="Trazado 881177" d="M102.761,97.239c1.031.977.023,6.848,1.168,7.78,0,0,18.146.7,20.682-10.714L108.988,63.2a10.976,10.976,0,0,0-5.057-4.461c-1.869-.8-12.453-3.02-12.736-3.067L70.578,57S59.547,59.93,55.589,62.38a5.577,5.577,0,0,0-1.9,1.962L37.079,95.859c3.9,8.753,18.317,9.992,19.961,10.973L52.927,134.74s38.675,6.2,58.568-.342c-.029,1.681.712-17.961-1.459-33.728,0,0-7.278-3.429-7.275-3.431" transform="translate(-4.4 -6.606)" fill="#678871"/>
            <path id="Trazado_881178" data-name="Trazado 881178" d="M93.036,48.606,90.858,26.448,77.154,27.8l1.758,21.487a3.471,3.471,0,0,1-.74,2.111,11.861,11.861,0,0,1-3.084,2.138s1.334.6,3.282,1.355a17.212,17.212,0,0,0,15.222-1.38l2.113-1.3a5.02,5.02,0,0,1-2.571-3.112,3.186,3.186,0,0,1-.1-.489" transform="translate(-8.91 -3.138)" fill="#c1cec5"/>
            <path id="Trazado_881179" data-name="Trazado 881179" d="M93.684,50.933,93.426,48.3c-8.378,3.6-12.879-2.245-12.88-2.246.221,2.7,1.62,3.228,2.842,4.032,2.878,1.894,10.308.969,10.3.842" transform="translate(-9.558 -5.465)"/>
            <path id="Trazado_881180" data-name="Trazado 881180" d="M99.766,15.585c.83,9.469-2.168,17.332-11.381,19.673S71.222,32.137,68.88,22.926,70.692,4.24,79.9,1.9,98.961,6.409,99.766,15.585" transform="translate(-8.097 -0.17)" fill="#c1cec5"/>
            <path id="Trazado_881181" data-name="Trazado 881181" d="M98.9,12.958s8.146,22.6-6.524,31.418c-1.344.808-6.077,1.574-10.127.346-6.9-2.091-10.571-6.841-10.511-28.054Z" transform="translate(-8.513 -1.538)" fill="#c1cec5"/>
            <path id="Trazado_881182" data-name="Trazado 881182" d="M81.8,16.641s4.279,3,7.571,2.27,3.4-2.27,3.4-2.27,7.132,1.866,6.584-2.085A45.016,45.016,0,0,0,81.8,16.641" transform="translate(-9.707 -1.709)" fill="#86a08e"/>
            <path id="Trazado_881183" data-name="Trazado 881183" d="M68.238,23.191s2.8.056,4.122,3.68c0,0,.335-6.1-.595-8.43l-3.527,2.106Z" transform="translate(-8.097 -2.188)" fill="#86a08e"/>
            <path id="Trazado_881184" data-name="Trazado 881184" d="M100.807,14.716s2.413,5.862,2.084,7.566l1.509-1.769s-.629-5.851-1.1-6.838-2.5,1.041-2.5,1.041" transform="translate(-11.962 -1.591)" fill="#86a08e"/>
            <path id="Trazado_881185" data-name="Trazado 881185" d="M101.432,25.84c-.812,3.231.359,6.259,2.613,6.764s4.741-1.705,5.552-4.936-.358-6.26-2.613-6.764-4.74,1.705-5.552,4.936" transform="translate(-12.005 -2.472)" fill="#c1cec5"/>
            <path id="Trazado_881186" data-name="Trazado 881186" d="M80.972,27.064c.136.689.571,1.184.972,1.1s.617-.7.481-1.392-.571-1.183-.973-1.1-.617.7-.48,1.391" transform="translate(-9.603 -3.045)"/>
            <path id="Trazado_881187" data-name="Trazado 881187" d="M96.818,25.206c.133.677.561,1.162.956,1.085s.606-.69.472-1.367-.561-1.162-.956-1.085-.606.69-.472,1.367" transform="translate(-11.484 -2.828)"/>
            <path id="Trazado_881188" data-name="Trazado 881188" d="M82.816,19.839c-.626-.717-3.811.808-3.941.893-.992.642-.65,1.377-.507,1.619.083.142.45-.079,1.363-.337,1.943-.548,2.774-.253,3.14-.916a1.218,1.218,0,0,0-.056-1.259" transform="translate(-9.278 -2.331)" fill="#86a08e"/>
            <path id="Trazado_881189" data-name="Trazado 881189" d="M95.965,19.308c.479-.649,3.009.393,3.118.464a1.389,1.389,0,0,1,.581,1.649c-.062.127-.368-.059-1.118-.264-1.6-.439-2.259-.158-2.581-.735a1.155,1.155,0,0,1,0-1.114" transform="translate(-11.37 -2.266)" fill="#86a08e"/>
            <path id="Trazado_881190" data-name="Trazado 881190" d="M73.077,28.2c1.327,3.056.666,6.235-1.476,7.1s-4.955-.91-6.282-3.966-.666-6.235,1.476-7.1,4.955.911,6.282,3.967" transform="translate(-7.669 -2.849)" fill="#c1cec5"/>
            <path id="Trazado_881191" data-name="Trazado 881191" d="M91.716,23.831s.769,2.477,2.524,3.276-.581,3.386-3.019,3.277" transform="translate(-10.824 -2.828)" fill="none" stroke="#000" stroke-miterlimit="10" stroke-width="1"/>
            <path id="Trazado_881192" data-name="Trazado 881192" d="M66.573,27.861a4.064,4.064,0,0,1,4.168,1.318s-2.194,2.467,0,3.51" transform="translate(-7.9 -3.29)" fill="none" stroke="#000" stroke-miterlimit="10" stroke-width="1"/>
            <path id="Trazado_881193" data-name="Trazado 881193" d="M108.844,24.112a5.168,5.168,0,0,0-2.745,3.366s2.082.4.382,2.694" transform="translate(-12.59 -2.861)" fill="none" stroke="#000" stroke-miterlimit="10" stroke-width="1"/>
            <path id="Trazado_881194" data-name="Trazado 881194" d="M91.071,34.783A14.324,14.324,0,0,1,81.8,33.127s.644,3.892,3.6,4.748c4.164,1.207,5.669-3.092,5.669-3.092" transform="translate(-9.707 -3.931)"/>
            <path id="Trazado_881195" data-name="Trazado 881195" d="M82.8,35.826a3.481,3.481,0,0,1,1.7-.222A2.979,2.979,0,0,1,87.3,38.352a4.813,4.813,0,0,1-1.778-.187,4.677,4.677,0,0,1-2.72-2.339" transform="translate(-9.825 -4.222)" fill="#7c9885"/>
            <rect id="Rectángulo_402467" data-name="Rectángulo 402467" width="5.057" height="243.368" transform="translate(27.669 45.571)" fill="#737373"/>
            <path id="Trazado_881196" data-name="Trazado 881196" d="M36.487,57.116H30.382a1.957,1.957,0,0,1-1.957-1.957V52.235a1.957,1.957,0,0,1,1.957-1.957h6.106a1.957,1.957,0,0,1,1.957,1.957V55.16a1.957,1.957,0,0,1-1.957,1.957" transform="translate(-3.373 -5.966)" fill="#737373"/>
            <path id="Trazado_881197" data-name="Trazado 881197" d="M34.982,352.539H32.864l-1.469-24.7h5.056Z" transform="translate(-3.725 -38.902)" fill="#608038"/>
            <rect id="Rectángulo_402468" data-name="Rectángulo 402468" width="5.01" height="5.01" transform="translate(27.669 208.227)" fill="#608038"/>
            <rect id="Rectángulo_402469" data-name="Rectángulo 402469" width="5.01" height="5.01" transform="translate(27.669 152.591)" fill="#608038"/>
            <path id="Trazado_881198" data-name="Trazado 881198" d="M53.821,145.339s-11.474,35.347-8.81,66.939c0,0,25.4-1.9,32.307,15.819l2.592-18.2,1.828,15.219s11.287,16.071,29.095-2.99c0,0,16.9-49.951,1.556-77.126a199.341,199.341,0,0,1-58.568.342" transform="translate(-5.293 -17.205)"/>
            <path id="Trazado_881199" data-name="Trazado 881199" d="M83.527,214l1.828-19.887s-4.245-10.757-10.267-14.484" transform="translate(-8.91 -21.315)" fill="none" stroke="#678871" stroke-miterlimit="10" stroke-width="1"/>
            <path id="Trazado_881200" data-name="Trazado 881200" d="M59.351,110.222s-6.305-10.953.029-17.007l2.47-8.968" transform="translate(-6.711 -9.997)" fill="none" stroke="#000" stroke-miterlimit="10" stroke-width="1"/>
            <path id="Trazado_881201" data-name="Trazado 881201" d="M113.317,83.067l.878,8.009s7.394,8.609,4.573,16.27" transform="translate(-13.446 -9.857)" fill="none" stroke="#000" stroke-miterlimit="10" stroke-width="1"/>
            <path id="Trazado_881202" data-name="Trazado 881202" d="M68.938,120.822s7.517,6.869,38.016,0" transform="translate(-8.18 -14.337)" fill="none" stroke="#000" stroke-miterlimit="10" stroke-width="1"/>
            <path id="Trazado_881203" data-name="Trazado 881203" d="M67.969,18.987A54.862,54.862,0,0,1,99.384,13.42S94.844-3.549,79.613.675C65.317,4.64,67.969,18.987,67.969,18.987" transform="translate(-8.042 0)"/>
            <path id="Trazado_881204" data-name="Trazado 881204" d="M67.995,19.535S67.6,7.225,95.542,4.673c9.811-.9,4.2,9.236,4.2,9.236s-21.278.762-31.744,5.626" transform="translate(-8.068 -0.548)"/>
            <path id="Trazado_881205" data-name="Trazado 881205" d="M68.938,17.386s4.336-7.379,9.026-9.024,12.178-3.736,15.51-3.678" transform="translate(-8.18 -0.556)" fill="none" stroke="#678871" stroke-miterlimit="10" stroke-width="1"/>
            <path id="Trazado_881206" data-name="Trazado 881206" d="M74.377,37.861a2.282,2.282,0,1,1-2.282-2.282,2.282,2.282,0,0,1,2.282,2.282" transform="translate(-8.284 -4.222)" fill="#fff"/>
            <path id="Trazado_881207" data-name="Trazado 881207" d="M106.859,34.266a2.282,2.282,0,1,1-2.282-2.282,2.282,2.282,0,0,1,2.282,2.282" transform="translate(-12.138 -3.795)" fill="#fff"/>
            <path id="Trazado_881208" data-name="Trazado 881208" d="M42.91,318.075s3.814-6.929,3.645-13.169c0,0,14.542-.821,18.887-1.663,0,0,3.441,11.846,4.291,17.606Z" transform="translate(-5.092 -35.983)" fill="#9cc7c9"/>
            <path id="Trazado_881209" data-name="Trazado 881209" d="M42.1,320.7s3.151-11.168,13.357-11.174c10.517,0,13.945,11.628,13.945,11.628s-13.358,5.084-27.3-.455" transform="translate(-4.996 -36.728)" fill="#9cc7c9"/>
            <path id="Trazado_881210" data-name="Trazado 881210" d="M45.96,314.211s10.06-10.139,21.3.813" transform="translate(-5.454 -36.777)" fill="none" stroke="#000" stroke-miterlimit="10" stroke-width="1"/>
            <path id="Trazado_881211" data-name="Trazado 881211" d="M44.337,325.93l2.621.6-.449,1.974a33.807,33.807,0,0,0,7.929,1.3v-2h2.688v2a27.516,27.516,0,0,0,6.724-1.022l-.452-1.989,2.621-.6.385,1.695a22.272,22.272,0,0,0,3.626-1.944l-.864-4.829c-11.368,7.031-27.028.88-27.17.811l-1.177,4.3a25.5,25.5,0,0,0,3.13,1.419Z" transform="translate(-4.843 -38.104)" fill="#9cc7c9"/>
            <path id="Trazado_881212" data-name="Trazado 881212" d="M43.124,322.255s13.9,5.211,25.123-.219" transform="translate(-5.117 -38.213)" fill="none" stroke="#000" stroke-miterlimit="10" stroke-width="1"/>
            <path id="Trazado_881213" data-name="Trazado 881213" d="M50.555,306.033c0-.165-2.578-5.595-1.937-8.169,0,0,9.616-2.253,14.717-.388,0,0,.384,4.882-1.042,7.624Z" transform="translate(-5.757 -35.211)" fill="#9cc7c9"/>
            <path id="Trazado_881214" data-name="Trazado 881214" d="M61.95,308.368A14.509,14.509,0,0,0,51.645,305s6.5-3.549,9.922-3.334" transform="translate(-6.128 -35.795)" fill="none" stroke="#000" stroke-linejoin="round" stroke-width="1"/>
            <path id="Trazado_881215" data-name="Trazado 881215" d="M52.172,308.161c2.181-3.059,10.811-3.636,10.811-3.636a26.991,26.991,0,0,0-10.446-2.18" transform="translate(-6.191 -35.876)" fill="none" stroke="#000" stroke-linejoin="round" stroke-width="1"/>
            <path id="Trazado_881216" data-name="Trazado 881216" d="M82.857,333.373s3.546-6.442,3.389-12.241c0,0,13.518-.763,17.557-1.547,0,0,3.2,11.011,3.989,16.366Z" transform="translate(-9.832 -37.922)" fill="#9cc7c9"/>
            <path id="Trazado_881217" data-name="Trazado 881217" d="M82.107,335.813s2.929-10.382,12.416-10.387c9.776,0,12.963,10.81,12.963,10.81s-12.418,4.727-25.379-.423" transform="translate(-9.743 -38.615)" fill="#9cc7c9"/>
            <path id="Trazado_881218" data-name="Trazado 881218" d="M85.693,329.782s9.351-9.425,19.8.755" transform="translate(-10.168 -38.66)" fill="none" stroke="#000" stroke-miterlimit="10" stroke-width="1"/>
            <path id="Trazado_881219" data-name="Trazado 881219" d="M84.185,340.674l2.436.554-.417,1.835a31.4,31.4,0,0,0,7.37,1.207v-1.854h2.5v1.859a25.561,25.561,0,0,0,6.25-.951l-.42-1.849,2.436-.554.359,1.575a20.667,20.667,0,0,0,3.37-1.807l-.8-4.49c-10.568,6.537-25.125.819-25.257.754l-1.095,4a23.726,23.726,0,0,0,2.909,1.319Z" transform="translate(-9.601 -39.893)" fill="#9cc7c9"/>
            <path id="Trazado_881220" data-name="Trazado 881220" d="M83.057,337.259s12.926,4.844,23.354-.2" transform="translate(-9.856 -39.995)" fill="none" stroke="#000" stroke-miterlimit="10" stroke-width="1"/>
            <path id="Trazado_881221" data-name="Trazado 881221" d="M89.965,322.18c0-.153-2.4-5.2-1.8-7.594,0,0,8.94-2.094,13.682-.36,0,0,.357,4.538-.969,7.088Z" transform="translate(-10.45 -37.204)" fill="#9cc7c9"/>
            <path id="Trazado_881222" data-name="Trazado 881222" d="M100.557,324.35a13.488,13.488,0,0,0-9.578-3.131s6.045-3.3,9.223-3.1" transform="translate(-10.796 -37.747)" fill="none" stroke="#000" stroke-linejoin="round" stroke-width="1"/>
            <path id="Trazado_881223" data-name="Trazado 881223" d="M91.468,324.157c2.027-2.844,10.049-3.381,10.049-3.381a25.081,25.081,0,0,0-9.71-2.025" transform="translate(-10.854 -37.822)" fill="none" stroke="#000" stroke-linejoin="round" stroke-width="1"/>
            <path id="Trazado_881224" data-name="Trazado 881224" d="M51.444,228.859s5.418,5.347,13.156,1.135" transform="translate(-6.104 -27.156)" fill="none" stroke="#000" stroke-miterlimit="10" stroke-width="1"/>
            <path id="Trazado_881225" data-name="Trazado 881225" d="M93.282,248.222a9.857,9.857,0,0,0,12.668,0" transform="translate(-11.069 -29.454)" fill="none" stroke="#000" stroke-miterlimit="10" stroke-width="1"/>
            <path id="Trazado_881226" data-name="Trazado 881226" d="M44.985,211.177s23.658-4.928,33.846,14.4" transform="translate(-5.338 -24.992)" fill="none" stroke="#678871" stroke-miterlimit="10" stroke-width="1"/>
            <path id="Trazado_881227" data-name="Trazado 881227" d="M85.732,226.939s14.162,12.471,32.512-4.335" transform="translate(-10.173 -26.414)" fill="none" stroke="#678871" stroke-miterlimit="10" stroke-width="1"/>
            <path id="Trazado_881228" data-name="Trazado 881228" d="M119.086,145.385s11.049,26.572,1.008,69.629" transform="translate(-14.131 -17.251)" fill="none" stroke="#678871" stroke-miterlimit="10" stroke-width="1"/>
            <path id="Trazado_881229" data-name="Trazado 881229" d="M78.465,151.776s2.366,1.553,1.12,6.41,2.589,8.967,2.589,8.967" transform="translate(-9.311 -18.01)" fill="none" stroke="#678871" stroke-miterlimit="10" stroke-width="1"/>
            <path id="Trazado_881230" data-name="Trazado 881230" d="M77.86,151.79s1.381,2.47-1.966,6.2-1.846,9.149-1.846,9.149" transform="translate(-8.747 -18.011)" fill="none" stroke="#678871" stroke-miterlimit="10" stroke-width="1"/>
            <path id="Trazado_881231" data-name="Trazado 881231" d="M27.921,152.364c-.613.049-7.161-.231-7.766-1.117-.791-1.157-7.208-12.474,7.418-15.445a16.834,16.834,0,0,1,8.238.027c5.02,1.625,2.062,3.881,2.062,3.881s2.51.653,2.18,2.67c-.412,2.513-3.9,1.475-3.9,1.475a2.052,2.052,0,0,1,1.148,2.879c-.725,1.8-3.5,1.192-3.945,1.358,0,0,2.225,1.91-1.347,3.2-2.808,1.018-1.983.895-4.084,1.065" transform="translate(-2.145 -16.058)" fill="#c1cec5"/>
            <path id="Trazado_881232" data-name="Trazado 881232" d="M22.957,136.424a16.643,16.643,0,0,0,5.428-7.016c2.107-5.878,3.727-6.632,4.394-4.676a6.426,6.426,0,0,1-.07,4.721c-1.5,3.047,2.043,5.48,2.043,5.48s-10.381,2.783-11.8,1.49" transform="translate(-2.724 -14.686)" fill="#c1cec5"/>
            <line id="Línea_605" data-name="Línea 605" x1="5.343" y2="0.101" transform="translate(30.198 123.44)" fill="none" stroke="#000" stroke-miterlimit="10" stroke-width="1"/>
            <line id="Línea_606" data-name="Línea 606" x1="4.642" y2="0.101" transform="translate(29.362 127.799)" fill="none" stroke="#000" stroke-miterlimit="10" stroke-width="1"/>
            <line id="Línea_607" data-name="Línea 607" x1="3.028" y2="0.005" transform="translate(28.179 132.036)" fill="none" stroke="#000" stroke-miterlimit="10" stroke-width="1"/>
            <path id="Trazado_881233" data-name="Trazado 881233" d="M57.2,122.354l2.224-15.089c5.131-19.192,1.417-39.713.249-45.211a1.275,1.275,0,0,1,.933-1.5l4.613-1.189a1.278,1.278,0,0,1,1.569.958c1.334,6.007,9.392,52.817-9.587,62.033" transform="translate(-6.788 -7.039)" fill="#b9c8bd"/>
            <path id="Trazado_881234" data-name="Trazado 881234" d="M60.812,60.717S69.32,93.041,58.9,112.358" transform="translate(-6.99 -7.205)" fill="none" stroke="#000" stroke-miterlimit="10" stroke-width="1"/>
            <path id="Trazado_881235" data-name="Trazado 881235" d="M119.547,118.752l-.043-2.124a105.09,105.09,0,0,0-.744-10.526l-.083-.68c-6.588-7.67-5.4-40.727-4.487-46.272a1.276,1.276,0,0,0-1-1.458l-4.662-.976A1.277,1.277,0,0,0,107,57.745c-1.058,6.063-6.837,52.67,12.544,61.007" transform="translate(-12.504 -6.727)" fill="#b9c8bd"/>
            <path id="Trazado_881236" data-name="Trazado 881236" d="M113.993,57.829s-6.821,37.147,5.92,53.393" transform="translate(-13.31 -6.862)" fill="none" stroke="#000" stroke-miterlimit="10" stroke-width="1"/>
            <path id="Trazado_881237" data-name="Trazado 881237" d="M116.06,310.435s5.7-11.338,10.756-13.744,10.584-13.266,16.909-13.766,17.393,2.268,21.742,7.01,11.069,20.932,11.069,20.932Z" transform="translate(-13.772 -33.565)" fill="#3c6649"/>
            <path id="Trazado_881238" data-name="Trazado 881238" d="M128.264,298.067s4.77-1.579,14.059,3.13,21.347-1.175,18.382-1.692-16.471-1.653-20.136-5.038" transform="translate(-15.22 -34.941)" fill="none" stroke="#000" stroke-miterlimit="10" stroke-width="1"/>
            <path id="Trazado_881239" data-name="Trazado 881239" d="M165.958,286.684s-.323,15.754,11.953,14.624" transform="translate(-19.692 -34.018)" fill="none" stroke="#000" stroke-miterlimit="10" stroke-width="1"/>
            <path id="Trazado_881240" data-name="Trazado 881240" d="M169.324,288.553s1.689,9.282,6.8,8.73" transform="translate(-20.092 -34.24)" fill="none" stroke="#000" stroke-miterlimit="10" stroke-width="1"/>
            <path id="Trazado_881241" data-name="Trazado 881241" d="M123.748,313.861s10.528-5.707,21.893,0" transform="translate(-14.684 -36.942)" fill="none" stroke="#000" stroke-miterlimit="10" stroke-width="1"/>
            <path id="Trazado_881242" data-name="Trazado 881242" d="M131.624,318.156s4.074-8.1,7.679-9.814,7.557-9.472,12.073-9.829,12.419,1.619,15.524,5.006,7.9,14.945,7.9,14.945Z" transform="translate(-15.619 -35.417)" fill="#86a08e"/>
            <path id="Trazado_881243" data-name="Trazado 881243" d="M153.55,298.481s5.547,10.3-16.029,11.867" transform="translate(-16.318 -35.418)" fill="none" stroke="#000" stroke-miterlimit="10" stroke-width="1"/>
            <path id="Trazado_881244" data-name="Trazado 881244" d="M163.31,300.163s-11.815,9.459-9.994,18.33" transform="translate(-18.17 -35.617)" fill="none" stroke="#000" stroke-miterlimit="10" stroke-width="1"/>
            <path id="Trazado_881245" data-name="Trazado 881245" d="M0,355.264s3.817-7.587,7.2-9.2,7.082-8.877,11.315-9.211,11.638,1.517,14.547,4.69,7.407,14.006,7.407,14.006Z" transform="translate(0 -39.967)" fill="#86a08e"/>
            <path id="Trazado_881246" data-name="Trazado 881246" d="M8.166,346.989s3.191-1.057,9.407,2.094,14.283-.786,12.3-1.133-11.022-1.106-13.474-3.371" transform="translate(-0.969 -40.888)" fill="none" stroke="#000" stroke-miterlimit="10" stroke-width="1"/>
            <path id="Trazado_881247" data-name="Trazado 881247" d="M33.388,339.372s-.217,10.541,8,9.786" transform="translate(-3.962 -40.27)" fill="none" stroke="#000" stroke-miterlimit="10" stroke-width="1"/>
            <path id="Trazado_881248" data-name="Trazado 881248" d="M35.64,340.622s1.13,6.211,4.552,5.842" transform="translate(-4.229 -40.418)" fill="none" stroke="#000" stroke-miterlimit="10" stroke-width="1"/>
            <path id="Trazado_881249" data-name="Trazado 881249" d="M5.144,357.556a16.852,16.852,0,0,1,14.65,0" transform="translate(-0.61 -42.226)" fill="none" stroke="#000" stroke-miterlimit="10" stroke-width="1"/>
            <path id="Trazado_881250" data-name="Trazado 881250" d="M169.376,45.581A8.977,8.977,0,1,1,160.4,36.6a8.977,8.977,0,0,1,8.977,8.977" transform="translate(-17.968 -4.343)" fill="#b9c8bd"/>
            <path id="Trazado_881251" data-name="Trazado 881251" d="M178.829,49.5a14.629,14.629,0,0,0-3.447.407c-1.136-2.748-4.407-4.734-8.266-4.734h-.044c-3.86,0-7.131,1.986-8.267,4.734a14.616,14.616,0,0,0-3.446-.407A12.589,12.589,0,0,0,145.306,54a7.288,7.288,0,0,0-3-.631c-2.916,0-5.349,1.634-5.911,3.8h49.859C185.691,55,183.1,49.5,178.829,49.5" transform="translate(-16.185 -5.36)" fill="#e0e7e2"/>
          </g>
        </g>
      </g>
    </g>
    <path id="Trazado_882374" data-name="Trazado 882374" d="M-139.182,719.074a7.358,7.358,0,0,1-4.4,2.1,19.984,19.984,0,0,1-4.62.148,63.144,63.144,0,0,0-10.278-.369c-8.069.628-13.08,7.7-15.289,10.359-1,1.216-2.585,3.181-3.869,4.916l-.827,1.122a26.956,26.956,0,0,1,6.219-9.961c2.611-2.805,5.491-5.109,8.3-9.487a20.514,20.514,0,0,0,3.146-8.89,12.114,12.114,0,0,0-.9-6.3,6.5,6.5,0,0,0-2.043-2.611,3.459,3.459,0,0,0-.962-.54,10.021,10.021,0,0,1-2.816,7.965c-1.745,1.86-3.838,3.182-6.2,5.525a17.081,17.081,0,0,0-4.357,8.6,44.18,44.18,0,0,0-.779,7.545c-.084,1.47-.149,3.842-.123,5.83.028,1.111.052,2.1.069,2.761q-6.346,3.638-12.481,7.792a36.454,36.454,0,0,1,4.213-8.269c1.935-3.015,4.058-6.007,5.4-10.561,1.724-6.18.414-10.544-1.025-12.657a6.327,6.327,0,0,0-3.032-2.633,12.648,12.648,0,0,1-2.057,7.523c-1.264,2.07-2.8,3.839-4.249,6.251a14.024,14.024,0,0,0-1.673,7.81c.068,2.652.533,5.164.678,6.628l.7,6.62q-1.052.725-2.1,1.466a13.609,13.609,0,0,0-3.069,1.956,12.226,12.226,0,0,0-.989,1.029c-.806.61-1.613,1.216-2.41,1.844-1.774,1.414-3.523,2.881-5.255,4.377a49.644,49.644,0,0,1,3.665-6.873c.914-1.46,1.844-2.866,2.726-4.372a28.158,28.158,0,0,0,2.48-5.219,18.493,18.493,0,0,0,1.073-6.229,21.2,21.2,0,0,0-.492-3.969l-.6-2.964c-.155-.766-.292-1.239-.292-1.239-2.027,2.282-3.473,4.232-5.161,6.155l-2.442,2.916-1.167,1.448a13.857,13.857,0,0,0-1.163,1.585,12.449,12.449,0,0,0-1.663,7.786c.169,2.544.706,4.932.87,6.363.154,1.266.385,3.374.474,5.236.014.278.025.546.034.808a142.248,142.248,0,0,0-12.639,12.679,106.922,106.922,0,0,1,4-13.12,72.823,72.823,0,0,0,4-13.674c.144-.88.256-1.72.34-2.559.086-.95.112-1.721.111-2.451a26.108,26.108,0,0,0-.259-3.707,26.165,26.165,0,0,0-1.21-4.9c-.445-1.287-.876-2.345-1.2-3.091a10.326,10.326,0,0,0-.573-1.158c-1.578,3.728-2.532,6.791-3.82,9.774-.623,1.491-1.249,2.925-1.924,4.293a47.582,47.582,0,0,0-2,4.961,21.747,21.747,0,0,0-.726,10.181c.43,3.054,1.175,5.747,1.471,7.408.255,1.462.684,3.9.937,6.019.131,1.007.231,1.93.3,2.63q-3.156,3.651-6.074,7.6c-1.6,2.156-3.13,4.4-4.6,6.7-.791-11.855,2.468-18.448,3.683-28.815.87-7.227.06-11.8-1.014-14.719a10.164,10.164,0,0,0-2.419-4.062c-1.252,8.3-4.9,12.435-7.047,21.1-2.092,8.669,1.768,15.917,3.04,19.118.834,2.072,2.507,5.984,3.365,7.982a114.247,114.247,0,0,0-7.956,14.987c-1.657-4.6-1.809-9.1-1.775-13.392.011-5.005.506-10.147-.88-16.545-1.669-7.8-4.519-11.862-6.734-13.791-2.238-1.951-3.907-1.951-3.907-1.951a30.807,30.807,0,0,1,1.66,11.109c-.038,1.774-.08,3.7-.118,5.512-.045,1.936.025,3.993,0,5.891a27.489,27.489,0,0,0,2.551,11.1,44.271,44.271,0,0,0,4.095,6.939,49.6,49.6,0,0,0,3.591,4.754c.41.479.8.9,1.14,1.264a111.11,111.11,0,0,0-4.459,12.257q-.795,2.713-1.457,5.483c-.657-3.249-1.4-6.065-2.105-8.7-.966-3.474-1.871-6.639-2.851-9.7s-2.016-6.073-3.238-9a89.848,89.848,0,0,0-4.082-8.928,32.136,32.136,0,0,0-7.128-9.336,13.335,13.335,0,0,0-6.205-3.2,6.418,6.418,0,0,0-3.627.336,3.635,3.635,0,0,0-1.07.632c3.921,2.2,5.943,5.89,7.414,9.607,1.49,3.8,2.46,7.879,4.367,12.942a38.191,38.191,0,0,0,7,11.37c2.378,2.818,4.632,5.062,5.84,6.653a50.485,50.485,0,0,1,4.1,6.128c.5.881.933,1.746,1.282,2.481a99.843,99.843,0,0,0-2.156,13.583q-.273,3.079-.37,6.171c-.035-.137-.07-.276-.1-.412a78.282,78.282,0,0,0-2.542-8.03,57.216,57.216,0,0,0-3.506-7.773,42.348,42.348,0,0,0-5.451-7.892,22.987,22.987,0,0,0-7.635-5.787,21.085,21.085,0,0,0-7.421-1.878,27.377,27.377,0,0,0-10.094,1.442,28.96,28.96,0,0,0-6.849,3.034,17.055,17.055,0,0,0-3.43,2.723,16.789,16.789,0,0,1,9.8-1.239,27.541,27.541,0,0,1,8.729,2.894c5.424,2.784,9.437,6.66,14.248,12.261,6.314,7.468,9.612,12.144,12.017,15.156.944,1.247,1.729,2.218,2.322,2.945a70.176,70.176,0,0,0,.789,7.369v.007a.869.869,0,0,0,1,.8,1.045,1.045,0,0,0,.661-1.218l-.015-.091c-.309-1.825-.527-3.688-.68-5.57l.342-.515.766-.81a11.273,11.273,0,0,1,1.631-1.49,18.991,18.991,0,0,1,1.746-1.293,37.822,37.822,0,0,1,7.284-3.666c4.9-1.918,9.833-3.2,15.579-5.881,7.664-3.561,11.746-7.687,13.758-10.814a11.55,11.55,0,0,0,2.058-5.275c-8.233,5.006-14.238,3.634-23.564,6.541-9.414,2.838-14.75,11.509-16.874,15.069a38.012,38.012,0,0,0-2.891,5.547,92.915,92.915,0,0,1,.269-12.128q.1-1.3.247-2.6a12.512,12.512,0,0,1,3.514-4.745,20.181,20.181,0,0,1,7.42-3.888c2.668-.839,5.24-1.225,8.45-2.023,2.827-.733,5.745-1.415,9.026-2.394,8.761-2.5,14-6.268,16.517-9.374a13.736,13.736,0,0,0,2.322-3.819,6.383,6.383,0,0,0,.416-1.463,27.848,27.848,0,0,1-12.763,3.182c-4.1.2-8.295.011-13.736,1.035a23.432,23.432,0,0,0-3.906,1.1c-.653.248-1.152.447-1.658.675-.552.236-1.087.481-1.64.753a28.126,28.126,0,0,0-5.982,3.928,28.373,28.373,0,0,0-6.6,8.535c-.033.06-.068.132-.1.195q.9-4.589,2.187-9.055c.837-2.891,1.808-5.721,2.867-8.5,4.161-3.348,8.621-4.486,12.793-5.134,4.975-.768,9.907-.708,16.088-2.376a39.494,39.494,0,0,0,9.366-3.51,16.566,16.566,0,0,0,5.446-4.757,9.471,9.471,0,0,0,1.695-3.981,5,5,0,0,0,.045-1.448,10.613,10.613,0,0,1-5.376,2.617,22.116,22.116,0,0,1-5.393.254c-1.8-.093-3.631-.3-5.684-.356-1-.042-2.2.042-3.19.059s-2.091.08-3.243.182a23.333,23.333,0,0,0-11.786,4.533,37.368,37.368,0,0,0-6.62,6.431c-.634.7-1.428,1.693-2.22,2.771a113.1,113.1,0,0,1,9.087-16.822,9.757,9.757,0,0,1,5.671-3.1,20.044,20.044,0,0,1,7.548.273c1.24.241,2.484.572,3.775.9l2.064.511,2.046.432a45.584,45.584,0,0,0,9.021,1.072,22.359,22.359,0,0,0,11.075-2.571,15.271,15.271,0,0,0,5.665-5.358,15.131,15.131,0,0,0,1.084-2.405,11.018,11.018,0,0,0,.37-1.831,5.516,5.516,0,0,0,.009-1.467,12.321,12.321,0,0,1-10.764,3.731c-3.561-.361-7.009-1.546-11.622-2.55a24.32,24.32,0,0,0-6.62-.532,25.026,25.026,0,0,0-6.028.938,23.4,23.4,0,0,0-7.52,3.866,130.057,130.057,0,0,1,10.333-11.76c3.634-1.057,6.991-.136,10.046,1.19,3.606,1.579,7.643,3.911,12.909,4.374a16.592,16.592,0,0,0,8.484-1.308,12.433,12.433,0,0,0,4.543-3.466,10.289,10.289,0,0,0,1.636-2.86,8.964,8.964,0,0,0,1.792-.018,7.412,7.412,0,0,0,4.785-2.3,6.823,6.823,0,0,0,1.609-2.956,5.548,5.548,0,0,0,.2-1.265c-2.665,1.089-4.919-.095-6.6-1.754-1.716-1.672-3.243-3.943-5.627-6.1a10.818,10.818,0,0,0-7.643-3,13.085,13.085,0,0,0-3.289.434q3.733-2.57,7.559-4.937c3.224-.093,5.818,1.522,8.161,3.389,2.633,2.049,5.219,4.691,9.444,6.105a10.9,10.9,0,0,0,7.119.108,8.43,8.43,0,0,0,3.931-2.77,8.354,8.354,0,0,0,1.735-4.1,7.846,7.846,0,0,1-6.706-1.263c-1.91-1.265-3.475-3.013-5.611-4.66a9.676,9.676,0,0,0-7.031-1.83,17.235,17.235,0,0,0-4.257,1c.592-.336,1.181-.677,1.775-1.008a33.732,33.732,0,0,1,8.406-2.314c4.278-.663,8.453-.793,13.45-2.082,6.635-1.691,10.611-4.872,12.478-7.894a7.558,7.558,0,0,0,1.287-3.764A3.5,3.5,0,0,0-139.182,719.074Zm-45.286,42.754c-2.716-.876-5.26-2.221-8.455-3.491a14.7,14.7,0,0,0-4.69-1.042,16.863,16.863,0,0,0-4.628.356,19.114,19.114,0,0,0-5.1,1.952c.026-.068.053-.143.08-.21q3.34-3,6.8-5.8c.991-.792,1.992-1.564,3-2.329a6.549,6.549,0,0,1,2.716.407,14.1,14.1,0,0,1,4.21,2.614c1.306,1.1,2.533,2.349,3.941,3.628a26.89,26.89,0,0,0,2.372,1.949,25.616,25.616,0,0,0,2.661,1.689,16.429,16.429,0,0,0,2.225,1.024A14.351,14.351,0,0,1-184.468,761.828Z" transform="translate(1559.016 -136.796)" fill="#2e4e1c"/>
  </g>
</svg>
