<svg xmlns="http://www.w3.org/2000/svg" xmlns:xlink="http://www.w3.org/1999/xlink" width="272.764" height="339" viewBox="0 0 272.764 339">
  <defs>
    <clipPath id="clip-path">
      <rect id="Rectángulo_400902" data-name="Rectángulo 400902" width="98.038" height="86.915" fill="#e2f2f3"/>
    </clipPath>
    <clipPath id="clip-path-2">
      <rect id="Rectángulo_400902-2" data-name="Rectángulo 400902" width="98.038" height="86.915" fill="#4d812e"/>
    </clipPath>
    <clipPath id="clip-path-3">
      <rect id="Rectángulo_402525" data-name="Rectángulo 402525" width="260.27" height="255.598" fill="none"/>
    </clipPath>
    <clipPath id="clip-path-4">
      <rect id="Rectángulo_402480" data-name="Rectángulo 402480" width="260.27" height="255.598" fill="#ff7241"/>
    </clipPath>
    <clipPath id="clip-path-5">
      <rect id="Rectángulo_402479" data-name="Rectángulo 402479" width="221.473" height="171.553" fill="#ff7241"/>
    </clipPath>
    <clipPath id="clip-path-6">
      <path id="Trazado_881373" data-name="Trazado 881373" d="M34.8,155.907s-13.978-13.466-7.614-29.967c3.932,7.024,7.614,7.083,7.614,7.083s.89-9.15-3.641-36.08S38.939,72.216,51.431,52.4c3.3,13.759-2.311,19.446,0,19.079S59.869,59.925,84.915,52.4s27.142-18.162,27.626-19.079,11.385,8.622,9.223,24.032c10.271-12.658-2.661-27.722,3.4-45.23s19.845-10.9,19.845-10.9-11.868,26.417,5.148,33.846,26.935,13.208,27.651,22.014c0,0,10.209-6.6,4.787-19.537,16.742,4.4,31.388,15.96,26.9,33.021,0,0,19.3,2.751,19.029-12.658,12.7,17.336,18.237,44.8,6.487,64.316a12.842,12.842,0,0,0,8.825-5.048s9.014,22.473-3.419,27.969S228.254,157.8,228.254,157.8s-57.24,10.243-64.567,9.8-7.328,4.429-24.626,3.917-32.61-7.651-38.2-6.833S34.8,155.907,34.8,155.907" transform="translate(-25.521 -0.001)" fill="#ff7241"/>
    </clipPath>
    <clipPath id="clip-path-7">
      <path id="Trazado_881374" data-name="Trazado 881374" d="M42.064,160.115c-1.043-.162-6.255-12.686-5.985-16.861,7.568,5.87,7.579,5.87,7.579,5.87s-2.472-21.481-3.012-28.65S34.7,91.842,37.767,85.236A56.167,56.167,0,0,1,45.153,73.5c-2.205,2.709-2.449,17.138,2.032,17.414,3.2.2,6.3-6.136,8.019-8.341,3.17-4.075,6.713-7.957,11.236-10.49,7.844-4.393,17.22-5.433,25.581-8.549,3.342-1.246,21.278-7.623,19.807-13.517,2.473,9.906,3.033,20.486-2.569,29.248,8.749,1.1,18.382-9.726,24.04-15.337,7.883-7.821,2.086-15.777-.376-25.191A50.961,50.961,0,0,1,131,23.13c-.083,1.617,4.213,6.487,5.158,7.987,1.866,2.962,3.693,5.973,5.817,8.753,4.126,5.4,9.169,9.914,15.44,12.531,10.992,4.586,14.217,13.025,10.533,20.546s-3.622,13.129-3.622,13.129,25.186-16.431,25.829-25.42V50.75s17.537,9.929,13.985,19.825c-2.181,6.076-4.969,12.176-6.657,18.414,6.377-2.113,12.522-5.515,18.563-8.466,3.69-1.8,9.906-3.793,12.534-7.205-1.582,2.053,4.3,14.973,4.941,17.561,1.918,7.73,2.511,16.582.1,24.273-1.984,6.32-10.329,15.419-4.469,21.913,4.647-2.985,9.536-5.814,14.217-8.652,0,0-.54,13.383-5.226,16.75s-15.853,14.722-15.044,17.116-71.446.926-75.05,2.577,9.01,1.016-4.865,3.718-12.252-2.251-18.2-6.1S88.494,159.9,84.3,159.9s-42.239.213-42.239.213" transform="translate(-36.069 -23.13)" fill="#ff7241"/>
    </clipPath>
    <clipPath id="clip-path-8">
      <path id="Trazado_881375" data-name="Trazado 881375" d="M204.529,154.365v.015a.042.042,0,0,1,0-.015Zm0,0,.034-.013-.012,0a.022.022,0,0,0-.022.015m-4.053,9.761h0m.119-21.646s.369.609.947,1.722a36.861,36.861,0,0,1,2.055,4.743,20.608,20.608,0,0,1,.874,3.292,12.128,12.128,0,0,1,.177,1.811l-.01.231-.035.058-.039.015.017.005c.013.005.022.009.022.005l.069.123-.031.495c-.015.161-.05.287-.072.433a2.521,2.521,0,0,1-.1.434,8.607,8.607,0,0,1-1.825,3.349c-.185.207-.473.532-.694.728-.225.219-.5.46-.754.7a19.029,19.029,0,0,0-1.624,1.584,7.456,7.456,0,0,0-1.7,4.518,33.276,33.276,0,0,0,.123,4.3q.031.494.04.96c0,.149.006.317,0,.448,0,.165-.007.328-.01.49q-.018.976-.037,1.907c-.024,1.239-.047,2.41-.069,3.491-.042,2.163-.077,3.965-.1,5.227l-.066,1.955,3.147.023s-.018-.731-.049-2.01c-.049-1.261-.117-3.062-.2-5.223-.041-1.081-.087-2.251-.135-3.49-.023-.619-.048-1.255-.074-1.905l-.018-.49c-.007-.2-.022-.36-.034-.542-.027-.352-.063-.7-.1-1.044a31.627,31.627,0,0,1-.358-4.007,7.363,7.363,0,0,1,.24-1.856c.048-.139.062-.248.132-.416l.1-.249.052-.125.009-.021.024-.044.208-.377.27-.378a17.626,17.626,0,0,1,1.382-1.511c.257-.262.5-.512.772-.809.29-.3.448-.526.717-.863a10,10,0,0,0,1.865-4.029,3.882,3.882,0,0,0,.039-.557c.018-.187-.053-.388-.049-.559s-.2-.331-.2-.5v-.171l.2-.015.2-.033-.006-.065-.025-.256a13.25,13.25,0,0,0-.316-1.964,21.634,21.634,0,0,0-1.117-3.389,37.691,37.691,0,0,0-2.377-4.71c-.65-1.09-1.064-1.692-1.064-1.692Z" transform="translate(-197.759 -142.228)" fill="none"/>
    </clipPath>
    <linearGradient id="linear-gradient" x1="-3.442" y1="7.066" x2="-3.423" y2="7.066" gradientUnits="objectBoundingBox">
      <stop offset="0" stop-color="#2b2b2b"/>
      <stop offset="0.996"/>
      <stop offset="1"/>
    </linearGradient>
    <clipPath id="clip-path-9">
      <path id="Trazado_881376" data-name="Trazado 881376" d="M191.68,152.3c0,.115-.019.282-.015.5a7.58,7.58,0,0,0,.03.78,3.734,3.734,0,0,0,.231,1.024,1.794,1.794,0,0,0,.345.551,1.455,1.455,0,0,0,.625.373,3.277,3.277,0,0,0,.955.1c.141,0,.277,0,.406.009.431.031.568.162.646.562a3.052,3.052,0,0,1,.029.642c.009.232.009.524.038.782a4.727,4.727,0,0,0,.5,1.5l.187.343c.069.107.144.208.216.313a5.315,5.315,0,0,0,.461.582,11.3,11.3,0,0,0,1.961,1.708c.305.217.59.406.838.568s.468.3.627.412c.2.135.2.142.273.193l.12.125.971-.937-.129-.117a4.019,4.019,0,0,0-.535-.364c-.2-.118-.421-.238-.676-.383s-.537-.3-.836-.485a10.223,10.223,0,0,1-1.873-1.415,4.219,4.219,0,0,1-.429-.471l-.2-.251-.171-.272a3.849,3.849,0,0,1-.49-1.19c-.036-.219-.05-.413-.076-.661a3.727,3.727,0,0,0-.1-.786,1.227,1.227,0,0,0-1.325-1.028,5.929,5.929,0,0,1-1.242,0,.993.993,0,0,1-.7-.595,3.369,3.369,0,0,1-.262-.887c-.044-.282-.068-.532-.079-.74s-.013-.373-.019-.484,0-.171,0-.171l-.289-.009s0,.061-.008.176" transform="translate(-191.665 -152.129)" fill="none"/>
    </clipPath>
    <linearGradient id="linear-gradient-2" x1="-12.524" y1="10.796" x2="-12.458" y2="10.796" xlink:href="#linear-gradient"/>
    <clipPath id="clip-path-10">
      <path id="Trazado_881377" data-name="Trazado 881377" d="M201.839,151.766c-.033.023-.076.051-.123.087l-.138.143a2.933,2.933,0,0,0-.316.432,6.486,6.486,0,0,0-.328.6,14.336,14.336,0,0,0-.6,1.59,18.518,18.518,0,0,0-.486,1.881c-.065.33-.124.644-.171,1l-.029.243a.608.608,0,0,1-.015.108.033.033,0,0,0-.012.013.439.439,0,0,1-.07.082,1.879,1.879,0,0,1-.472.306,5.765,5.765,0,0,1-.635.245,10.32,10.32,0,0,1-1.079.263l-.191.039-.185.042-.115.032.381,1.294.109-.029.265-.053c.276-.058.691-.127,1.2-.266a5.731,5.731,0,0,0,.836-.28,2.664,2.664,0,0,0,.953-.673,1.5,1.5,0,0,0,.343-.724c.011-.073.021-.146.026-.218a.8.8,0,0,0,0-.128l-.005-.231c0-.278.009-.605.025-.915a22.1,22.1,0,0,1,.409-3.455,6.42,6.42,0,0,1,.16-.624,2.605,2.605,0,0,1,.184-.452l.084-.161.081-.1.071-.087-.05-.075-.1.069" transform="translate(-196.87 -151.697)" fill="none"/>
    </clipPath>
    <linearGradient id="linear-gradient-3" x1="-17.809" y1="18.375" x2="-17.718" y2="18.375" xlink:href="#linear-gradient"/>
    <clipPath id="clip-path-11">
      <path id="Trazado_881378" data-name="Trazado 881378" d="M200.06,124.261c-2.137.89-1.84,3.56-3.264,4.51s-3.68.356-4.274,2.2,1.247,2.374-2.017,3.382-7.774,2.671-5.221,5.638-4.588,3.561-.751,5.815-7.2,4.629,4.311,4.333c3.609-.093,7.066-.063,10.092-.034,6.628.064,11.186.129,10.738-1.094-.309-.84.415-.781,1.3-.722.992.066,2.188.132,2.377-1.058.357-2.255-1.6-4.213-2.848-6.29s0-3.324-1.722-5.52,1.484-3.5-4.094-4.451c-.052-.009-.01-.156-.009-.3,0-.82.073-2.884-.941-3.086-1.067-.213-1.464-3.453-3.087-3.453a1.54,1.54,0,0,0-.592.13" transform="translate(-183.374 -124.131)" fill="none"/>
    </clipPath>
    <linearGradient id="linear-gradient-4" x1="-4.156" y1="5.672" x2="-4.132" y2="5.672" xlink:href="#linear-gradient"/>
    <clipPath id="clip-path-12">
      <path id="Trazado_881379" data-name="Trazado 881379" d="M56.932,140.581l0-.011,0,.017v-.006m0-.011h0M57,104.622s.4,1.083,1,3.015c.3.967.646,2.144,1.007,3.5s.745,2.9,1.08,4.6.658,3.537.851,5.5c.083.979.158,1.984.163,3.009l.009.385-.012.374c-.01.265-.021.53-.03.8-.061.508-.081,1.008-.183,1.53a20.357,20.357,0,0,1-2.006,6.1l-.412.749-.425.694-.933,1.443a17.774,17.774,0,0,0-1.724,3.212l-.166.445-.042.111-.041.158-.054.21-.215.842a13.788,13.788,0,0,0-.328,1.8,17.106,17.106,0,0,0-.175,1.807c-.053.6-.06,1.182-.065,1.767-.029,2.337.119,4.6.167,6.736.006.529.022,1.064.017,1.575-.006.533-.013,1.063-.019,1.585q-.021,1.569-.038,3.066c-.025,1.992-.049,3.875-.07,5.614-.043,3.477-.079,6.375-.1,8.4l-.066,3.17,3.147.015s-.018-1.165-.049-3.2l-.2-8.4c-.041-1.738-.087-3.621-.134-5.612-.023-1-.048-2.02-.072-3.065q-.019-.784-.038-1.585c-.016-.556-.052-1.1-.077-1.654-.131-2.2-.357-4.424-.408-6.651-.015-.556-.03-1.116,0-1.667a15.752,15.752,0,0,1,.1-1.636,11.418,11.418,0,0,1,.231-1.624l.184-.849.046-.212.011-.054,0-.013.027-.081.126-.373c.671-2,2.157-3.856,3.176-6a21.726,21.726,0,0,0,1.928-6.645c.086-.55.093-1.131.136-1.684,0-.268,0-.532,0-.8l0-.416-.023-.4c-.045-1.068-.159-2.1-.281-3.1-.27-2-.664-3.86-1.067-5.562s-.852-3.241-1.259-4.6-.808-2.529-1.139-3.49c-.672-1.92-1.114-3-1.114-3Z" transform="translate(-54.183 -104.456)" fill="none"/>
    </clipPath>
    <linearGradient id="linear-gradient-5" x1="-0.197" y1="6.104" x2="-0.185" y2="6.104" xlink:href="#linear-gradient"/>
    <clipPath id="clip-path-13">
      <path id="Trazado_881380" data-name="Trazado 881380" d="M48.207,103.582l.242.341a4.313,4.313,0,0,1,.273.425c.1.171.224.366.337.6s.254.482.375.771.266.592.388.933a19.715,19.715,0,0,1,.733,2.311c.112.43.2.886.3,1.354.067.474.174.959.214,1.466.026.252.052.508.079.767s.026.524.039.789c.039.532.01,1.076,0,1.627-.028.55-.076,1.109-.146,1.671a16.656,16.656,0,0,1-.312,1.675c-.07.277-.123.55-.206.832l-.277.853-.281.864c-.109.3-.161.616-.239.925a14.193,14.193,0,0,0-.213,3.733,23.973,23.973,0,0,0,.51,3.54,40.749,40.749,0,0,0,1.844,6c.663,1.71,1.3,3.1,1.771,4.062.234.482.426.858.56,1.115l.212.4,1.563-.889-.207-.36c-.136-.238-.333-.593-.575-1.051-.483-.915-1.152-2.24-1.852-3.874a39.175,39.175,0,0,1-1.978-5.717,22.649,22.649,0,0,1-.6-3.325A13,13,0,0,1,50.838,122c.062-.275.1-.561.184-.828l.246-.858q.125-.432.249-.862c.075-.294.129-.607.193-.907a18.873,18.873,0,0,0,.364-3.553c-.012-.576,0-1.144-.062-1.7-.024-.275-.039-.55-.069-.818s-.074-.532-.11-.793c-.06-.523-.189-1.021-.275-1.508-.118-.479-.226-.946-.357-1.385a20.589,20.589,0,0,0-.838-2.356c-.139-.346-.291-.659-.434-.949s-.285-.55-.417-.784-.261-.437-.374-.614a4.7,4.7,0,0,0-.3-.439l-.271-.355Z" transform="translate(-48.207 -103.291)" fill="none"/>
    </clipPath>
    <linearGradient id="linear-gradient-6" x1="-0.685" y1="10.107" x2="-0.663" y2="10.107" xlink:href="#linear-gradient"/>
    <clipPath id="clip-path-14">
      <path id="Trazado_881381" data-name="Trazado 881381" d="M41.346,106.179c.006.291.015.643.023,1.048s0,.865.054,1.355.079,1.027.123,1.592.083,1.162.144,1.776.131,1.249.2,1.894.129,1.3.214,1.953.158,1.3.237,1.945c.043.325.062.616.148,1.014a3.165,3.165,0,0,0,.477,1.039,3.8,3.8,0,0,0,1.655,1.245,7.141,7.141,0,0,0,1.676.446,12.756,12.756,0,0,0,2.5.105c.3-.015.536-.035.7-.051l.256-.03-.2-1.334-.212.031c-.143.019-.357.045-.629.067a11.5,11.5,0,0,1-2.248-.022,5.905,5.905,0,0,1-1.4-.322,2.621,2.621,0,0,1-1.181-.809,2.056,2.056,0,0,1-.321-.643c-.057-.22-.1-.569-.153-.883-.1-.638-.2-1.287-.3-1.936s-.183-1.3-.273-1.934-.172-1.265-.256-1.874-.134-1.2-.2-1.755-.119-1.086-.172-1.573-.068-.932-.093-1.327-.04-.739-.055-1.023c-.031-.568-.049-.892-.049-.892l-.688-.013s.007.332.02.912" transform="translate(-41.326 -105.267)" fill="none"/>
    </clipPath>
    <linearGradient id="linear-gradient-7" x1="-1.73" y1="13.956" x2="-1.682" y2="13.956" xlink:href="#linear-gradient"/>
    <clipPath id="clip-path-15">
      <path id="Trazado_881382" data-name="Trazado 881382" d="M56.9,148.932l.008-.016c-.013.015-.013.021-.008.016m-1.326-.2h0m14.58-7.383a16.75,16.75,0,0,1-.655,2,11.536,11.536,0,0,1-.592,1.258,6.812,6.812,0,0,1-.86,1.248,3.333,3.333,0,0,1-1.215.909,2.077,2.077,0,0,1-.721.163c-.116.009-.26.009-.411.006l-.441-.005a56.138,56.138,0,0,0-6.542.154,6.831,6.831,0,0,0-2.285.568,1.679,1.679,0,0,0-.711.65,1.24,1.24,0,0,0-.148.436l1.337.161c.005,0,0,.01,0,.022a.579.579,0,0,1,.157-.123,5.8,5.8,0,0,1,1.819-.524,55.385,55.385,0,0,1,6.387-.472l.442-.016c.143-.005.292-.011.47-.031a2.9,2.9,0,0,0,.965-.271,4.059,4.059,0,0,0,1.433-1.177,7.452,7.452,0,0,0,.875-1.413,12.337,12.337,0,0,0,.555-1.351,17.286,17.286,0,0,0,.569-2.089c.105-.51.146-.809.146-.809l-.391-.065s-.052.282-.181.775" transform="translate(-55.576 -140.574)" fill="none"/>
    </clipPath>
    <linearGradient id="linear-gradient-8" x1="-4.361" y1="8.398" x2="-4.285" y2="8.398" xlink:href="#linear-gradient"/>
    <clipPath id="clip-path-16">
      <path id="Trazado_881383" data-name="Trazado 881383" d="M57.549,68.378c-6.446,3-8.244,7.345-12.891,9.443s-8.993,7.494-6.894,8.994-9.444,4.048-8.094,8.093-8.165,7.832-.111,8.938c3.813.523,8.006-.344,11.555-1.211,3.945-.964,7.094-1.928,8.041-.982,1.8,1.8,3.448,4.8,8.244,6.295s4.8,4.948,10.642,3.3,11.692.748,13.64-3.6,10.192-3.9.749-9.893c0,0,4.2-7.794-4.047-12.291s-6.6-10.791-10.642-11.692c-3.379-.75-3.728-6.1-7.5-6.1a6.444,6.444,0,0,0-2.69.7" transform="translate(-26.286 -67.674)" fill="none"/>
    </clipPath>
    <linearGradient id="linear-gradient-9" x1="-0.252" y1="4.369" x2="-0.24" y2="4.369" xlink:href="#linear-gradient"/>
    <clipPath id="clip-path-17">
      <path id="Trazado_881384" data-name="Trazado 881384" d="M66.48,137.906c-6.24,1.292-3.147,4.159,4.665,4.441s5.059-2.7,7.7-3.543.507-1.686-1.573-3.121-1.968-1.151-4.5-2.106a1.821,1.821,0,0,0-.652-.116c-2.476,0-5.643,4.444-5.643,4.444" transform="translate(-63.153 -133.462)" fill="none"/>
    </clipPath>
    <linearGradient id="linear-gradient-10" x1="-2.411" y1="15.403" x2="-2.371" y2="15.403" xlink:href="#linear-gradient"/>
    <clipPath id="clip-path-18">
      <path id="Trazado_881385" data-name="Trazado 881385" d="M232.5,144.432l0,.007,0-.007m.069-35.958s.4,1.082,1,3.015c.3.966.646,2.144,1.007,3.5s.745,2.9,1.08,4.6.658,3.537.851,5.5c.083.979.158,1.984.163,3.009l.009.385-.012.375c-.01.264-.02.53-.03.8-.061.508-.081,1.007-.183,1.53a20.381,20.381,0,0,1-2.005,6.1l-.412.75-.425.693-.933,1.443a17.8,17.8,0,0,0-1.724,3.212l-.166.446-.042.111-.041.157-.054.211-.214.841a13.8,13.8,0,0,0-.328,1.8,17.082,17.082,0,0,0-.175,1.807c-.053.6-.06,1.182-.065,1.766-.029,2.338.119,4.6.168,6.736.005.529.021,1.064.016,1.575q-.009.8-.019,1.586c-.014,1.045-.026,2.069-.038,3.065-.025,1.992-.049,3.875-.07,5.615-.043,3.477-.079,6.375-.1,8.4l-.066,3.17,3.147.014s-.018-1.165-.049-3.2l-.2-8.4c-.041-1.739-.087-3.621-.134-5.613-.023-1-.047-2.02-.072-3.065q-.019-.783-.038-1.585c-.015-.556-.052-1.1-.077-1.653-.131-2.2-.357-4.425-.408-6.651-.015-.557-.03-1.117,0-1.667a15.684,15.684,0,0,1,.1-1.635,11.393,11.393,0,0,1,.231-1.625l.184-.85.046-.212.011-.054,0-.013.027-.08.125-.374c.671-2,2.157-3.855,3.177-6a21.749,21.749,0,0,0,1.927-6.645c.087-.549.094-1.13.136-1.683,0-.267,0-.533,0-.8l0-.416-.023-.4c-.045-1.068-.159-2.1-.281-3.1-.27-2-.664-3.859-1.067-5.562s-.852-3.241-1.259-4.6-.807-2.528-1.14-3.49c-.671-1.919-1.113-3-1.113-3Z" transform="translate(-229.753 -108.308)" fill="none"/>
    </clipPath>
    <linearGradient id="linear-gradient-11" x1="-2.274" y1="5.961" x2="-2.262" y2="5.961" xlink:href="#linear-gradient"/>
    <clipPath id="clip-path-19">
      <path id="Trazado_881386" data-name="Trazado 881386" d="M241.3,112.711a4.5,4.5,0,0,0-.287.762,7.013,7.013,0,0,0-.256,1.226c-.018.237-.047.492-.057.759s-.013.545,0,.833c.036,1.157.226,2.47.414,3.854.088.692.183,1.4.231,2.121a15.293,15.293,0,0,1,.025,2.151l-.052.558-.013.14-.021.114-.046.263a10.331,10.331,0,0,1-.228,1.043,18.9,18.9,0,0,1-.661,2,31.962,31.962,0,0,1-1.6,3.41c-.526.975-1,1.767-1.345,2.314s-.548.848-.548.848l.9.605s.216-.323.56-.886.825-1.382,1.353-2.389a33,33,0,0,0,1.618-3.541,19.472,19.472,0,0,0,.673-2.113,10.764,10.764,0,0,0,.234-1.129l.047-.289.024-.162.012-.14.045-.558a16.1,16.1,0,0,0-.049-2.309c-.059-.75-.163-1.475-.262-2.173-.2-1.392-.4-2.672-.448-3.759-.016-.273-.005-.53-.009-.777s.031-.472.044-.689a6.266,6.266,0,0,1,.213-1.084,3.86,3.86,0,0,1,.24-.659c.063-.148.1-.228.1-.228l-.731-.377-.117.265" transform="translate(-236.851 -112.446)" fill="none"/>
    </clipPath>
    <linearGradient id="linear-gradient-12" x1="-8.111" y1="14.861" x2="-8.075" y2="14.861" xlink:href="#linear-gradient"/>
    <clipPath id="clip-path-20">
      <path id="Trazado_881387" data-name="Trazado 881387" d="M246.906,113.56c-.046.037-.108.081-.171.139l-.172.207a3.661,3.661,0,0,0-.339.595,6.728,6.728,0,0,0-.293.8,9.786,9.786,0,0,0-.25.968c-.063.346-.154.717-.206,1.091s-.1.76-.157,1.151c-.062.411-.1.778-.18,1.165l-.123.569c-.054.185-.107.37-.16.554a9.517,9.517,0,0,1-.393,1.043,8.19,8.19,0,0,1-.467.926,8.842,8.842,0,0,1-.5.776,7.556,7.556,0,0,1-.894,1.031c-.118.111-.213.193-.275.245l-.094.072.647.835.129-.111c.079-.071.189-.176.322-.312a8.567,8.567,0,0,0,.957-1.215,9.584,9.584,0,0,0,.515-.883,9.378,9.378,0,0,0,.464-1.037,10.483,10.483,0,0,0,.371-1.15c.046-.2.094-.4.143-.6l.1-.614c.064-.4.091-.839.129-1.214.034-.394.069-.783.1-1.158s.1-.717.149-1.053a9.081,9.081,0,0,1,.193-.928,6.224,6.224,0,0,1,.235-.754,3.312,3.312,0,0,1,.261-.518c.045-.061.084-.115.119-.161l.094-.085c.05-.039.068-.04.069-.045l-.142-.426a.822.822,0,0,0-.183.093m.183-.093Z" transform="translate(-242.227 -113.467)" fill="none"/>
    </clipPath>
    <linearGradient id="linear-gradient-13" x1="-15.614" y1="20.874" x2="-15.548" y2="20.874" xlink:href="#linear-gradient"/>
    <clipPath id="clip-path-21">
      <path id="Trazado_881388" data-name="Trazado 881388" d="M240.091,79.6c-3.826,2.956-6.7,3.651-9.565,5.13a4.26,4.26,0,0,0-2.087,5.826c.869,1.3-7.478,1.652-9.739,3.738s-7.043,6.522-5.13,7.652,2.088,2.609.348,5.652-5.913,6,2.347,4.522,15.217-6.174,19.3-3.739,2.37,3.959,6.283,4.132,3.717,3.042,6.064,4.281,6.065,4.565,6,1.37-2.739-3.717-1.043-4.24,1.108-3.717,2.8-3.586,2.217,2.152,6.782,2.217,3.783-1.565,2.8-3,3.26-5.283-1.174-6.783-6.521-1.956-7.565-5.478-4.108-9.456-9.129-9.259c0,0-2.725-8.924-6-8.925a2.107,2.107,0,0,0-1.3.49" transform="translate(-211.312 -79.109)" fill="none"/>
    </clipPath>
    <linearGradient id="linear-gradient-14" x1="-2.939" y1="4.444" x2="-2.925" y2="4.444" xlink:href="#linear-gradient"/>
    <clipPath id="clip-path-22">
      <path id="Trazado_881389" data-name="Trazado 881389" d="M234.708,143.051c-6.24,1.67-3.148,5.372,4.665,5.735s5.059-3.483,7.7-4.572.506-2.179-1.574-4.031-1.968-1.486-4.5-2.72a1.46,1.46,0,0,0-.652-.149c-2.476,0-5.643,5.737-5.643,5.737" transform="translate(-231.381 -137.314)" fill="none"/>
    </clipPath>
    <linearGradient id="linear-gradient-15" x1="-9.2" y1="11.648" x2="-9.159" y2="11.648" xlink:href="#linear-gradient"/>
    <clipPath id="clip-path-23">
      <path id="Trazado_881390" data-name="Trazado 881390" d="M92.628,158.671c-.09.194-.223.477-.364.845a14.266,14.266,0,0,0-.453,1.354,11.052,11.052,0,0,0-.34,1.842,7.369,7.369,0,0,0,.108,2.268,5.617,5.617,0,0,0,1.1,2.367,21.784,21.784,0,0,1,1.428,1.988l.324.512.277.55.28.553c.1.183.153.382.231.574a12.794,12.794,0,0,1,.689,2.355c.059.4.129.8.182,1.194.024.4.048.8.071,1.183s-.009.777-.009,1.152c-.005.188-.009.375-.015.559s-.016.388-.024.58c-.033.747-.064,1.452-.093,2.1s-.016,1.273-.026,1.811,0,1.015.015,1.406.018.689.034.911.022.334.022.334l1.79-.186s-.01-.1-.028-.289-.032-.484-.056-.852-.045-.82-.054-1.337-.042-1.092-.025-1.748.021-1.358.033-2.1c0-.183,0-.369.006-.556v-.6c-.011-.408.018-.822-.027-1.247s-.076-.856-.115-1.292c-.069-.435-.159-.873-.239-1.314a14.261,14.261,0,0,0-.838-2.593c-.093-.208-.165-.428-.275-.627l-.325-.6-.324-.6-.38-.567a23.22,23.22,0,0,0-1.562-2.047,4.391,4.391,0,0,1-.91-1.831,6.237,6.237,0,0,1-.143-1.917,10.1,10.1,0,0,1,.259-1.662c.127-.49.254-.916.382-1.259s.236-.608.312-.786l.123-.264-.892-.458-.149.3" transform="translate(-91.431 -158.374)" fill="none"/>
    </clipPath>
    <linearGradient id="linear-gradient-16" x1="-2.467" y1="9.418" x2="-2.435" y2="9.418" xlink:href="#linear-gradient"/>
    <clipPath id="clip-path-24">
      <path id="Trazado_881391" data-name="Trazado 881391" d="M98.283,167.49v.045c0-.009,0-.023,0-.045m-1.228-6.214c-.03.16-.06.358-.085.585a5.247,5.247,0,0,0,.008.766,5.96,5.96,0,0,0,.134.892c.068.311.159.633.264.959.21.652.491,1.32.714,1.96.052.159.1.317.139.466l.049.218a.738.738,0,0,0,.013.134,1.424,1.424,0,0,1-.008.224h0v.005l-.014.037-.021.073a1.363,1.363,0,0,1-.155.292,3.577,3.577,0,0,1-1.119.954,5.9,5.9,0,0,1-1.017.468c-.134.045-.165.052-.266.078l-.123.032.547,1.714.117-.046c.06-.023.255-.1.406-.179a7.477,7.477,0,0,0,1.226-.766,4.9,4.9,0,0,0,1.407-1.6,2.656,2.656,0,0,0,.223-.64l.027-.179.013-.09v-.011l0-.076v-.016l0-.033a2.69,2.69,0,0,0-.025-.281c-.022-.128-.05-.257-.081-.382l-.1-.287c-.071-.186-.152-.357-.232-.526-.329-.662-.677-1.261-.95-1.846-.136-.292-.257-.574-.353-.848a5.4,5.4,0,0,1-.221-.782,4.923,4.923,0,0,1-.094-.676c0-.2,0-.379.009-.526.044-.291.069-.455.069-.455l-.358-.106-.14.494" transform="translate(-95.566 -160.782)" fill="none"/>
    </clipPath>
    <linearGradient id="linear-gradient-17" x1="-7.161" y1="19.084" x2="-7.083" y2="19.084" xlink:href="#linear-gradient"/>
    <clipPath id="clip-path-25">
      <path id="Trazado_881392" data-name="Trazado 881392" d="M88.425,139.014c-1.125,0-.113,4.5-2.586,6.576s-6.561,5.855-7.083,6.352c-1.443,1.374.694,1.263,2.855,1.153.742-.039,1.487-.076,2.092-.055,2.36.087.9,4.747,6.857,4.523s10.567-2.81,15.288-2.924,0-6.407,0-6.407c2.473-1.124-4.721-3.485-3.71-5.115s-2.586-7.364-6.632-12.535a2.437,2.437,0,0,0-1.781-1.173c-2.856,0-4.357,9.6-5.3,9.6" transform="translate(-78.286 -129.409)" fill="none"/>
    </clipPath>
    <linearGradient id="linear-gradient-18" x1="-1.989" y1="5.097" x2="-1.963" y2="5.097" xlink:href="#linear-gradient"/>
    <clipPath id="clip-path-27">
      <rect id="Rectángulo_402500" data-name="Rectángulo 402500" width="13.809" height="22.882" fill="none"/>
    </clipPath>
    <clipPath id="clip-path-28">
      <path id="Trazado_881393" data-name="Trazado 881393" d="M174.779,9.055c-11.882,13.811,6.466,23.162,6.844,22.876,7.879-5.981-1.876-13.008-6.844-22.876" transform="translate(-170.78 -9.055)" fill="none"/>
    </clipPath>
    <linearGradient id="linear-gradient-19" x1="-3.959" y1="7.248" x2="-3.934" y2="7.248" gradientUnits="objectBoundingBox">
      <stop offset="0" stop-color="#b4d5d6"/>
      <stop offset="0.314" stop-color="#9dc8c9"/>
      <stop offset="0.996" stop-color="#608038"/>
      <stop offset="1" stop-color="#608038"/>
    </linearGradient>
    <clipPath id="clip-path-29">
      <path id="Trazado_881394" data-name="Trazado 881394" d="M77.336,31.58c-2.382,1.53-5.443.479-7.965-.033.172,7.673,6.314,6.1,11.749,4.522,3.194-.926,6.144-1.852,7.5-.9.447-.51-.354-1.829-.509-2.467,5.9,1.979,26.569,3.222,29.737-2.478-3.56,2.849-26.658,2.131-30.442.659C76.945,26.811,62.87,18.887,55.035,10.407c5,9.907,14.456,14.311,22.3,21.173" transform="translate(-55.035 -10.407)" fill="none"/>
    </clipPath>
    <linearGradient id="linear-gradient-20" x1="-0.751" y1="8.561" x2="-0.738" y2="8.561" xlink:href="#linear-gradient"/>
    <clipPath id="clip-path-30">
      <path id="Trazado_881395" data-name="Trazado 881395" d="M269.447,121.6c.033.077.067.153.1.231a.026.026,0,0,1,.014,0q-.714-1.658-1.483-3.289.71,1.515,1.373,3.056" transform="translate(-268.074 -118.541)" fill="none"/>
    </clipPath>
    <linearGradient id="linear-gradient-21" x1="-154.958" y1="46.816" x2="-154.38" y2="46.816" gradientUnits="objectBoundingBox">
      <stop offset="0" stop-color="#7d7d7d"/>
      <stop offset="0.996" stop-color="#525252"/>
      <stop offset="1" stop-color="#525252"/>
    </linearGradient>
    <clipPath id="clip-path-31">
      <path id="Trazado_881396" data-name="Trazado 881396" d="M26.086,189.251c.086.632.18,1.263.28,1.9q.078.5.161.993A108.094,108.094,0,0,0,64.384,257.7c.206.172.415.345.626.512a109.259,109.259,0,0,0,48.753,22.71c.005,0,.009,0,.014,0,.949.181,1.9.342,2.852.5a.176.176,0,0,0,.037,0s.005,0,.009,0a.81.81,0,0,0,.1.01l.061.009a.5.5,0,0,0,.061.005c.388.064.777.109,1.169.167.453.067.9.1,1.357.159.512.073,1.027.073,1.542.134,1.377.17,2.757.195,4.148.3.011,0,.022,0,.033,0a.325.325,0,0,0,.089-.013.3.3,0,0,1,.094-.013c.011,0,.016-.253.028-.286l0,0h0c.005,0,.011,0,.017,0a47.51,47.51,0,0,0,8.877.657c37.16,0,70.112-18.089,89.586-46.183v0c0-.072.2-.128.25-.2.015-.022.092-.027.109-.046h0a105.987,105.987,0,0,0,18.2-44.923H27.432q-.455-1.089-.88-2.179c-.17.075-.325.147-.466.222" transform="translate(-26.086 -189.029)" fill="none"/>
    </clipPath>
    <linearGradient id="linear-gradient-22" x1="-0.103" y1="1" x2="-0.099" y2="1" xlink:href="#linear-gradient-21"/>
    <clipPath id="clip-path-32">
      <rect id="Rectángulo_402506" data-name="Rectángulo 402506" width="0.006" height="0.005" fill="none"/>
    </clipPath>
    <linearGradient id="linear-gradient-23" x1="-16456.285" y1="8.506" x2="-16342.746" y2="8.506" gradientUnits="objectBoundingBox">
      <stop offset="0" stop-color="#597d64"/>
      <stop offset="0.004" stop-color="#597d64"/>
      <stop offset="1" stop-color="#6b6b6b"/>
    </linearGradient>
    <clipPath id="clip-path-33">
      <path id="Trazado_881397" data-name="Trazado 881397" d="M97.235,191.57a.878.878,0,0,1-.218.7c-1.98,2.107-7.079,14.458-4.885,22.724,2.175,8.285,13.609,9.66,16.447,13.762,2.837,4.121,1.226,10.6,1.685,15.49a21.272,21.272,0,0,1-.049,3.882c-.273,3.181-.881,6.2.513,10.45,1.97,5.923,13.724,11.733,12.5,20.186-.115.856-.58,1.654.045,2.39.039.045.021.09.021.132v0c1.113.177,1.788.344,2.726.5.045.008.155.013.16.021a.117.117,0,0,0,.058.021c.388.063.778.124,1.171.18.451.069.9.133,1.357.194.51.072,1.025.138,1.542.2,1.459.177,2.928.326,4.395.445-.071-.076-.141-.156-.213-.233s-.139-.161-.2-.241a5.074,5.074,0,0,1-1.5-3.3c.26-4.579-1.88-3.943-4.625-10.515s6.533-.9,10.44-7.455c3.929-6.541,5.556-11.295,9.4-13.113,1.545-.734,1.986-1.46,1.841-2.375-.208-1.36-1.7-3.132-2.744-5.963-1.75-4.73,8.74-4.3,12.117-3.54,3.358.771,8.58-.774,3.7-9.021-4.925-8.268,2.333-12.48,4.679-15.758s3.094-2.518,1.507-7.39-4.917-1.265-6.318-4.955-3.6-5.629-8.983-3c-4.985,2.432-6.941,1.422-10.947-4.42Z" transform="translate(-91.595 -191.57)" fill="none"/>
    </clipPath>
    <linearGradient id="linear-gradient-24" x1="-0.471" y1="0.889" x2="-0.464" y2="0.889" xlink:href="#linear-gradient-23"/>
    <linearGradient id="linear-gradient-25" x1="-64.31" y1="50.227" x2="-64.069" y2="50.227" xlink:href="#linear-gradient-23"/>
    <clipPath id="clip-path-35">
      <path id="Trazado_881399" data-name="Trazado 881399" d="M248.394,191.57c-.457,4.173,3.708,10.316,8.269,15.593,5.219,6.039-2.473,5.8-3.459,9.439s-.367,10.786,2.487,13.412c1.058.949.663,3.381.3,5.893-.027.186-.053.386-.081.57-.013.093-.024.2-.037.29a106.833,106.833,0,0,0,18.305-45.2Z" transform="translate(-248.36 -191.57)" fill="none"/>
    </clipPath>
    <linearGradient id="linear-gradient-26" x1="-3.826" y1="1.966" x2="-3.81" y2="1.966" xlink:href="#linear-gradient-23"/>
    <clipPath id="clip-path-37">
      <rect id="Rectángulo_402511" data-name="Rectángulo 402511" width="216.246" height="93.426" fill="none"/>
    </clipPath>
    <clipPath id="clip-path-38">
      <path id="Trazado_881400" data-name="Trazado 881400" d="M242.059,191.2c-.011.064-.02.131-.031.2a105.537,105.537,0,0,1-17.786,44.171l-.006.006c-.088.125-.239.239-.328.364-.053.072-.109.128-.109.2v0a109.289,109.289,0,0,1-89.731,46.3c-2.932,0-5.856-.541-8.732-.541h-.022l-.287,0c-.014,0-.019.176-.03.176a.221.221,0,0,1-.067-.027.156.156,0,0,0-.033-.008c-1.43-.114-2.852-.164-4.265-.337-.517-.061-1.029-.075-1.544-.147-.454-.058-.9-.094-1.352-.164-.4-.058-.787-.1-1.174-.167-.089-.016-.176-.025-.261-.036-.773-.125-1.542-.255-2.31-.4-.041-.005-.081-.014-.122-.022-.14-.022-.281-.05-.42-.078-.009,0-.011,0-.017,0a109.216,109.216,0,0,1-48.461-22.476c-.212-.167-.42-.34-.626-.512a108.147,108.147,0,0,1-38.123-65.68c-.051-.289-.1-.579-.145-.87-.094-.59-.183-1.18-.264-1.773.072-.044.15-.086.233-.128.142-.075.3-.147.467-.222a.176.176,0,0,1,.028-.011c.278.67.559,1.335.851,2.025.022.056.047.109.069.164q.329.777.67,1.542a94.728,94.728,0,0,0,68.595,54.1h.015a15.083,15.083,0,0,0,2.459.556c.075.011.156.083.231.1.334.052.674.13,1.013.181.128.022.258.052.387.066a.021.021,0,0,0,.014,0c.255.039.512.078.768.108.442.064.885.1,1.33.156,1.249.153,2.5.359,3.77.459.011,0,.019.042.025.042h0c2.57,0,5.13.284,7.756.284a94.719,94.719,0,0,0,25.946-3.583l.005,0a95.192,95.192,0,0,0,18.442-7.386,93.731,93.731,0,0,0,33.041-29.162c0-.061.1-.114.141-.178a94.355,94.355,0,0,0,6.554-10.923c1.1-2.119,2.115-4.253,3.047-6.36Z" transform="translate(-25.813 -189.016)" fill="none"/>
    </clipPath>
    <linearGradient id="linear-gradient-27" x1="-0.102" y1="1.001" x2="-0.098" y2="1.001" xlink:href="#linear-gradient-21"/>
    <clipPath id="clip-path-39">
      <path id="Trazado_881401" data-name="Trazado 881401" d="M27.893,187.83a.214.214,0,0,0-.027.012c-.169.075-.323.147-.465.222-.082.042-.159.083-.232.128-.691.4-1.048.8-1.048,1.213,0,.487.5.965,1.454,1.43l.266.123a15.541,15.541,0,0,0,1.634.6c7.779,2.451,28.508,4.485,55.982,5.6,14.68.6,31.286.934,48.873.934,6.788,0,13.43-.05,19.871-.147,16.542-.245,31.761-.8,44.736-1.572,7.007-.419,13.362-.9,18.915-1.446,13.413-1.307,22.171-2.936,24.223-4.719a1.631,1.631,0,0,0,.2-.194.934.934,0,0,0,.268-.616c0-4.8-48.446-8.7-108.209-8.7-53.068,0-97.215,3.072-106.438,7.122" transform="translate(-26.121 -180.708)" fill="none"/>
    </clipPath>
    <linearGradient id="linear-gradient-28" x1="-0.103" y1="5.789" x2="-0.1" y2="5.789" xlink:href="#linear-gradient"/>
    <clipPath id="clip-path-40">
      <path id="Trazado_881402" data-name="Trazado 881402" d="M33.025,176.671c-3.6.15-3,7.645-3,7.645-16.188,3.747,8.244,4.5,14.989,4.346s.749,3.3,17.686,3.6,26.231-2.848,34.476-3.3,15.288-1.049,14.988-2.248-8.244-3.447-9.443-3.447-1.8-.6-6.745-2.249a17.28,17.28,0,0,0-6.619-.549c-2.423.126-4.721.252-6.9-.951-4.072-2.247-14.364,0-14.364,0a35.36,35.36,0,0,0-2.96-4.933c-1.574-2.087-2.473.962-6.17,1.749s-3.947-6.014-5.689-7.476c-.906-.76-3.012-.32-5.046.12-1.88.407-3.7.814-4.454.274-1.574-1.124-.712-3.073-2.96-4.271a.988.988,0,0,0-.472-.126c-2.022,0-3.7,6.944-7.323,11.817" transform="translate(-24.584 -164.854)" fill="none"/>
    </clipPath>
    <linearGradient id="linear-gradient-29" x1="-0.105" y1="4.124" x2="-0.096" y2="4.124" xlink:href="#linear-gradient"/>
    <clipPath id="clip-path-41">
      <path id="Trazado_881403" data-name="Trazado 881403" d="M235.295,160.7c-2.136.75-2.473,3.363-2.3,5.353s-7.248,2.675-5.788,5.031,3.066,2.807,1.289,5.954c-1.1,1.953-2.336,1.377-3.309.8-.6-.352-1.1-.706-1.409-.478s-.729-.439-1.392-1.115c-1.02-1.038-2.654-2.076-5.559.192-4.8,3.748-9.743,6.045-11.392,6.32a18.72,18.72,0,0,1-4.346-.873c-2.894-.7-6.583-1.408-9.418-.351-4.823,1.8-10.368,3.86-12.766,4.328s-11.542,2.118-1.8,2.417,11.992,2.7,28.329,2.4,35.674-3,40.17-2.7,18.887,1.649,14.539-2.624-2.847-11.466-7.494-11.916c0,0-5.1-16.188-12.291-8.669-.7.733-1.467-.616-2.344-1.964-.7-1.085-1.482-2.171-2.354-2.171a1.076,1.076,0,0,0-.36.063" transform="translate(-172.703 -160.638)" fill="none"/>
    </clipPath>
    <linearGradient id="linear-gradient-30" x1="-1.469" y1="3.596" x2="-1.461" y2="3.596" xlink:href="#linear-gradient"/>
    <clipPath id="clip-path-42">
      <path id="Trazado_881404" data-name="Trazado 881404" d="M145.739,142.582a7.271,7.271,0,0,0-3.108,1.629c-1.325-.786-2.444-.422-2.579.031s-3.349.406-5.838.181-.566,1.426-.2,2.149,4.457,1.516,4.457,1.516.724,4.752.272,6.109-2.172,3.982-2.308,6.553c-2.761-1.412-4.594-1.326-6.879-1.643s1.516,4.028,1.516,4.39-.316,2.308.385,3.19,3.281,4.163,3.281,4.163a19.259,19.259,0,0,0,.271-2.534c0-.973-2.714-2.443-2.6-2.625s-.544-2.365-.2-3.994,6.787,2.783,7.873,4.547S153.1,169.3,153.1,169.3s.339,2.307.679,4.208,8.96,5.227,8.96,5.227.882,5.7.882,7.194,2.511,2.58,2.511,2.58.814-1.968,0-2.376-.7-3.245-1.241-6.323-1.629-3.349-3.621-4.8.363-4.707.905-7.331-.634-4.525-5.7-4.525-6.879-2.987-11.133-6.427-1.841-11.343-1.841-11.343a5.126,5.126,0,0,1,1.328-.935c.789-.394,2.263-1.894,1.175-1.894a1.756,1.756,0,0,0-.27.023" transform="translate(-128.822 -142.559)" fill="none"/>
    </clipPath>
    <linearGradient id="linear-gradient-31" x1="-2.141" y1="3.069" x2="-2.123" y2="3.069" xlink:href="#linear-gradient"/>
    <clipPath id="clip-path-43">
      <path id="Trazado_881405" data-name="Trazado 881405" d="M139.281,134.333c-.6,1.931,1.418,1.75,2.263,2.5s2.987,2.143,2.987,3.5-2.112,2.594-2.112,2.594l.965,1.025a5.1,5.1,0,0,1,1.266-2.173c1.056-1.145,1.479-2.865.845-3.56s.452-3.53.452-3.53c-1.205.483-1.779,3.47-1.779,3.47a1.377,1.377,0,0,0-.544-1.146c-.6-.453-.965-4.224-.965-4.224-1.266,1.056-.091,3.651-.091,3.651a27.679,27.679,0,0,0-2.443-1.327c-.634-.241-.061-3.017-.061-3.017a15.609,15.609,0,0,0-.784,2.233" transform="translate(-139.17 -132.1)" fill="none"/>
    </clipPath>
    <linearGradient id="linear-gradient-32" x1="-9.404" y1="16.923" x2="-9.335" y2="16.923" xlink:href="#linear-gradient"/>
    <clipPath id="clip-path-44">
      <path id="Trazado_881406" data-name="Trazado 881406" d="M168.82,166.073c-.135.814-2.082,1.651-2.376,1.765,0,0-1.7.18.634.52s2.443-.407,3.461-1.493a1.363,1.363,0,0,0,0-2.014s-.52.611-.5.294a2.555,2.555,0,0,0-.747-1.833,17.7,17.7,0,0,0-.475,2.761" transform="translate(-165.848 -163.312)" fill="none"/>
    </clipPath>
    <linearGradient id="linear-gradient-33" x1="-24.104" y1="16.202" x2="-23.958" y2="16.202" xlink:href="#linear-gradient"/>
    <clipPath id="clip-path-45">
      <path id="Trazado_881407" data-name="Trazado 881407" d="M37.9,224.322c-6.529,1.133-9.718,10.861-10.025,17.193-.441,9.058,4.685,17.928,11.318,22.812,6.737,4.961,11.038,2.87,17.336,8.924,5.2,5,3.986,8.07,7.951,11.014,9.856,7.311,30.5-1.906,30.129-6.034-.309-3.446-14.971-.307-22.139-10.115-4.212-5.763-2.281-11.132-7.633-14.963-4.866-3.483-8.724-.667-11.831-4.04-4.018-4.362,1.133-10.494-2.741-17.525-2.179-3.954-6.762-7.376-11.059-7.377a7.663,7.663,0,0,0-1.307.111" transform="translate(-27.85 -224.211)" fill="none"/>
    </clipPath>
    <linearGradient id="linear-gradient-34" x1="-0.153" y1="0.838" x2="-0.143" y2="0.838" gradientUnits="objectBoundingBox">
      <stop offset="0" stop-color="#869e68"/>
      <stop offset="1" stop-color="#3c6649"/>
    </linearGradient>
    <clipPath id="clip-path-47">
      <rect id="Rectángulo_402520" data-name="Rectángulo 402520" width="56.951" height="36.779" fill="none"/>
    </clipPath>
    <clipPath id="clip-path-48">
      <path id="Trazado_881409" data-name="Trazado 881409" d="M43.216,204.286C38.7,214.9,40.9,227.747,46.663,236.5c5.852,8.892,11.905,8.293,16.753,18.3,4,8.255,1.2,11.388,4.632,16.649,8.536,13.072,37.233,11.176,38.614,6.085,1.152-4.246-17.731-6.968-21.958-21.833-2.484-8.736,2.189-14.289-2.509-21.223-4.27-6.3-10.117-4.643-12.336-10.037-2.872-6.979,5.98-12.023,4.457-22.123-.944-6.262-5.659-13.039-11.554-14.126a9.279,9.279,0,0,0-1.685-.153c-7.683,0-14.915,9.332-17.86,16.25" transform="translate(-40.8 -188.036)" fill="none"/>
    </clipPath>
    <linearGradient id="linear-gradient-35" x1="-0.072" y1="0.898" x2="-0.065" y2="0.898" gradientUnits="objectBoundingBox">
      <stop offset="0" stop-color="#a3cbcc"/>
      <stop offset="0.044" stop-color="#aacfd0"/>
      <stop offset="0.136" stop-color="#b1d3d4"/>
      <stop offset="0.318" stop-color="#b4d5d6"/>
      <stop offset="0.508" stop-color="#a9ced0"/>
      <stop offset="0.839" stop-color="#8cbec0"/>
      <stop offset="0.866" stop-color="#8abdbf"/>
      <stop offset="1" stop-color="#8abdbf"/>
    </linearGradient>
    <clipPath id="clip-path-50">
      <rect id="Rectángulo_402523" data-name="Rectángulo 402523" width="52.502" height="67.913" fill="none"/>
    </clipPath>
  </defs>
  <g id="Grupo_1100546" data-name="Grupo 1100546" transform="translate(-727.236 -2774)">
    <path id="Rectángulo_401371" data-name="Rectángulo 401371" d="M90.5,0h0A90.5,90.5,0,0,1,181,90.5V315.544a0,0,0,0,1,0,0H0a0,0,0,0,1,0,0V90.5A90.5,90.5,0,0,1,90.5,0Z" transform="translate(727.236 2774)" fill="#daf2e4"/>
    <g id="Grupo_1099448" data-name="Grupo 1099448" transform="translate(741.355 2831.089)">
      <g id="Grupo_1098724" data-name="Grupo 1098724" transform="translate(0 0)">
        <g id="Grupo_1098723" data-name="Grupo 1098723" clip-path="url(#clip-path)">
          <path id="Trazado_872910" data-name="Trazado 872910" d="M3.914,1.957A1.957,1.957,0,1,1,1.957,0,1.957,1.957,0,0,1,3.914,1.957" fill="#e2f2f3"/>
          <path id="Trazado_872911" data-name="Trazado 872911" d="M32.868,1.957A1.957,1.957,0,1,1,30.911,0a1.957,1.957,0,0,1,1.957,1.957" transform="translate(-10.129)" fill="#e2f2f3"/>
          <path id="Trazado_872912" data-name="Trazado 872912" d="M61.821,1.957A1.957,1.957,0,1,1,59.864,0a1.957,1.957,0,0,1,1.957,1.957" transform="translate(-20.257)" fill="#e2f2f3"/>
          <path id="Trazado_872913" data-name="Trazado 872913" d="M90.774,1.957A1.957,1.957,0,1,1,88.817,0a1.957,1.957,0,0,1,1.957,1.957" transform="translate(-30.386)" fill="#e2f2f3"/>
          <path id="Trazado_872914" data-name="Trazado 872914" d="M119.728,1.957A1.957,1.957,0,1,1,117.771,0a1.957,1.957,0,0,1,1.957,1.957" transform="translate(-40.514)" fill="#e2f2f3"/>
          <path id="Trazado_872915" data-name="Trazado 872915" d="M148.681,1.957A1.957,1.957,0,1,1,146.724,0a1.957,1.957,0,0,1,1.957,1.957" transform="translate(-50.643)" fill="#e2f2f3"/>
          <path id="Trazado_872916" data-name="Trazado 872916" d="M3.914,33.872a1.957,1.957,0,1,1-1.957-1.957,1.957,1.957,0,0,1,1.957,1.957" transform="translate(0 -11.165)" fill="#e2f2f3"/>
          <path id="Trazado_872917" data-name="Trazado 872917" d="M32.868,33.872a1.957,1.957,0,1,1-1.957-1.957,1.957,1.957,0,0,1,1.957,1.957" transform="translate(-10.129 -11.165)" fill="#e2f2f3"/>
          <path id="Trazado_872918" data-name="Trazado 872918" d="M61.821,33.872a1.957,1.957,0,1,1-1.957-1.957,1.957,1.957,0,0,1,1.957,1.957" transform="translate(-20.257 -11.165)" fill="#e2f2f3"/>
          <path id="Trazado_872919" data-name="Trazado 872919" d="M90.774,33.872a1.957,1.957,0,1,1-1.957-1.957,1.957,1.957,0,0,1,1.957,1.957" transform="translate(-30.386 -11.165)" fill="#e2f2f3"/>
          <path id="Trazado_872920" data-name="Trazado 872920" d="M119.728,33.872a1.957,1.957,0,1,1-1.957-1.957,1.958,1.958,0,0,1,1.957,1.957" transform="translate(-40.514 -11.165)" fill="#e2f2f3"/>
          <path id="Trazado_872921" data-name="Trazado 872921" d="M148.681,33.872a1.957,1.957,0,1,1-1.957-1.957,1.957,1.957,0,0,1,1.957,1.957" transform="translate(-50.643 -11.165)" fill="#e2f2f3"/>
          <path id="Trazado_872922" data-name="Trazado 872922" d="M3.914,65.787A1.957,1.957,0,1,1,1.957,63.83a1.957,1.957,0,0,1,1.957,1.957" transform="translate(0 -22.329)" fill="#e2f2f3"/>
          <path id="Trazado_872923" data-name="Trazado 872923" d="M32.868,65.787a1.957,1.957,0,1,1-1.957-1.957,1.957,1.957,0,0,1,1.957,1.957" transform="translate(-10.129 -22.329)" fill="#e2f2f3"/>
          <path id="Trazado_872924" data-name="Trazado 872924" d="M61.821,65.787a1.957,1.957,0,1,1-1.957-1.957,1.957,1.957,0,0,1,1.957,1.957" transform="translate(-20.257 -22.329)" fill="#e2f2f3"/>
          <path id="Trazado_872925" data-name="Trazado 872925" d="M90.774,65.787a1.957,1.957,0,1,1-1.957-1.957,1.957,1.957,0,0,1,1.957,1.957" transform="translate(-30.386 -22.329)" fill="#e2f2f3"/>
          <path id="Trazado_872926" data-name="Trazado 872926" d="M119.728,65.787a1.957,1.957,0,1,1-1.957-1.957,1.958,1.958,0,0,1,1.957,1.957" transform="translate(-40.514 -22.329)" fill="#e2f2f3"/>
          <path id="Trazado_872927" data-name="Trazado 872927" d="M148.681,65.787a1.957,1.957,0,1,1-1.957-1.957,1.957,1.957,0,0,1,1.957,1.957" transform="translate(-50.643 -22.329)" fill="#e2f2f3"/>
          <path id="Trazado_872928" data-name="Trazado 872928" d="M3.914,97.7a1.957,1.957,0,1,1-1.957-1.957A1.957,1.957,0,0,1,3.914,97.7" transform="translate(0 -33.494)" fill="#e2f2f3"/>
          <path id="Trazado_872929" data-name="Trazado 872929" d="M32.868,97.7a1.957,1.957,0,1,1-1.957-1.957A1.957,1.957,0,0,1,32.868,97.7" transform="translate(-10.129 -33.494)" fill="#e2f2f3"/>
          <path id="Trazado_872930" data-name="Trazado 872930" d="M61.821,97.7a1.957,1.957,0,1,1-1.957-1.957A1.957,1.957,0,0,1,61.821,97.7" transform="translate(-20.257 -33.494)" fill="#e2f2f3"/>
          <path id="Trazado_872931" data-name="Trazado 872931" d="M90.774,97.7a1.957,1.957,0,1,1-1.957-1.957A1.957,1.957,0,0,1,90.774,97.7" transform="translate(-30.386 -33.494)" fill="#e2f2f3"/>
          <path id="Trazado_872932" data-name="Trazado 872932" d="M119.728,97.7a1.957,1.957,0,1,1-1.957-1.957,1.958,1.958,0,0,1,1.957,1.957" transform="translate(-40.514 -33.494)" fill="#e2f2f3"/>
          <path id="Trazado_872933" data-name="Trazado 872933" d="M148.681,97.7a1.957,1.957,0,1,1-1.957-1.957,1.957,1.957,0,0,1,1.957,1.957" transform="translate(-50.643 -33.494)" fill="#e2f2f3"/>
          <path id="Trazado_872934" data-name="Trazado 872934" d="M3.914,129.617a1.957,1.957,0,1,1-1.957-1.957,1.957,1.957,0,0,1,1.957,1.957" transform="translate(0 -44.659)" fill="#e2f2f3"/>
          <path id="Trazado_872935" data-name="Trazado 872935" d="M32.868,129.617a1.957,1.957,0,1,1-1.957-1.957,1.957,1.957,0,0,1,1.957,1.957" transform="translate(-10.129 -44.659)" fill="#e2f2f3"/>
          <path id="Trazado_872936" data-name="Trazado 872936" d="M61.821,129.617a1.957,1.957,0,1,1-1.957-1.957,1.957,1.957,0,0,1,1.957,1.957" transform="translate(-20.257 -44.659)" fill="#e2f2f3"/>
          <path id="Trazado_872937" data-name="Trazado 872937" d="M90.774,129.617a1.957,1.957,0,1,1-1.957-1.957,1.957,1.957,0,0,1,1.957,1.957" transform="translate(-30.386 -44.659)" fill="#e2f2f3"/>
          <path id="Trazado_872938" data-name="Trazado 872938" d="M119.728,129.617a1.957,1.957,0,1,1-1.957-1.957,1.958,1.958,0,0,1,1.957,1.957" transform="translate(-40.514 -44.659)" fill="#e2f2f3"/>
          <path id="Trazado_872939" data-name="Trazado 872939" d="M148.681,129.617a1.957,1.957,0,1,1-1.957-1.957,1.957,1.957,0,0,1,1.957,1.957" transform="translate(-50.643 -44.659)" fill="#e2f2f3"/>
        </g>
      </g>
    </g>
    <path id="Rectángulo_401372" data-name="Rectángulo 401372" d="M0,0H272.764a0,0,0,0,1,0,0V20a20,20,0,0,1-20,20H20A20,20,0,0,1,0,20V0A0,0,0,0,1,0,0Z" transform="translate(727.236 3073)" fill="#77af8f"/>
    <g id="Grupo_1099449" data-name="Grupo 1099449" transform="translate(886.355 3013.907)">
      <g id="Grupo_1098724-2" data-name="Grupo 1098724" transform="translate(0 0)">
        <g id="Grupo_1098723-2" data-name="Grupo 1098723" clip-path="url(#clip-path-2)">
          <path id="Trazado_872910-2" data-name="Trazado 872910" d="M3.914,1.957A1.957,1.957,0,1,1,1.957,0,1.957,1.957,0,0,1,3.914,1.957" fill="#4d812e"/>
          <path id="Trazado_872911-2" data-name="Trazado 872911" d="M32.868,1.957A1.957,1.957,0,1,1,30.911,0a1.957,1.957,0,0,1,1.957,1.957" transform="translate(-10.129)" fill="#4d812e"/>
          <path id="Trazado_872912-2" data-name="Trazado 872912" d="M61.821,1.957A1.957,1.957,0,1,1,59.864,0a1.957,1.957,0,0,1,1.957,1.957" transform="translate(-20.257)" fill="#4d812e"/>
          <path id="Trazado_872913-2" data-name="Trazado 872913" d="M90.774,1.957A1.957,1.957,0,1,1,88.817,0a1.957,1.957,0,0,1,1.957,1.957" transform="translate(-30.386)" fill="#4d812e"/>
          <path id="Trazado_872914-2" data-name="Trazado 872914" d="M119.728,1.957A1.957,1.957,0,1,1,117.771,0a1.957,1.957,0,0,1,1.957,1.957" transform="translate(-40.514)" fill="#4d812e"/>
          <path id="Trazado_872915-2" data-name="Trazado 872915" d="M148.681,1.957A1.957,1.957,0,1,1,146.724,0a1.957,1.957,0,0,1,1.957,1.957" transform="translate(-50.643)" fill="#4d812e"/>
          <path id="Trazado_872916-2" data-name="Trazado 872916" d="M3.914,33.872a1.957,1.957,0,1,1-1.957-1.957,1.957,1.957,0,0,1,1.957,1.957" transform="translate(0 -11.165)" fill="#4d812e"/>
          <path id="Trazado_872917-2" data-name="Trazado 872917" d="M32.868,33.872a1.957,1.957,0,1,1-1.957-1.957,1.957,1.957,0,0,1,1.957,1.957" transform="translate(-10.129 -11.165)" fill="#4d812e"/>
          <path id="Trazado_872918-2" data-name="Trazado 872918" d="M61.821,33.872a1.957,1.957,0,1,1-1.957-1.957,1.957,1.957,0,0,1,1.957,1.957" transform="translate(-20.257 -11.165)" fill="#4d812e"/>
          <path id="Trazado_872919-2" data-name="Trazado 872919" d="M90.774,33.872a1.957,1.957,0,1,1-1.957-1.957,1.957,1.957,0,0,1,1.957,1.957" transform="translate(-30.386 -11.165)" fill="#4d812e"/>
          <path id="Trazado_872920-2" data-name="Trazado 872920" d="M119.728,33.872a1.957,1.957,0,1,1-1.957-1.957,1.958,1.958,0,0,1,1.957,1.957" transform="translate(-40.514 -11.165)" fill="#4d812e"/>
          <path id="Trazado_872921-2" data-name="Trazado 872921" d="M148.681,33.872a1.957,1.957,0,1,1-1.957-1.957,1.957,1.957,0,0,1,1.957,1.957" transform="translate(-50.643 -11.165)" fill="#4d812e"/>
          <path id="Trazado_872922-2" data-name="Trazado 872922" d="M3.914,65.787A1.957,1.957,0,1,1,1.957,63.83a1.957,1.957,0,0,1,1.957,1.957" transform="translate(0 -22.329)" fill="#4d812e"/>
          <path id="Trazado_872923-2" data-name="Trazado 872923" d="M32.868,65.787a1.957,1.957,0,1,1-1.957-1.957,1.957,1.957,0,0,1,1.957,1.957" transform="translate(-10.129 -22.329)" fill="#4d812e"/>
          <path id="Trazado_872924-2" data-name="Trazado 872924" d="M61.821,65.787a1.957,1.957,0,1,1-1.957-1.957,1.957,1.957,0,0,1,1.957,1.957" transform="translate(-20.257 -22.329)" fill="#4d812e"/>
          <path id="Trazado_872925-2" data-name="Trazado 872925" d="M90.774,65.787a1.957,1.957,0,1,1-1.957-1.957,1.957,1.957,0,0,1,1.957,1.957" transform="translate(-30.386 -22.329)" fill="#4d812e"/>
          <path id="Trazado_872926-2" data-name="Trazado 872926" d="M119.728,65.787a1.957,1.957,0,1,1-1.957-1.957,1.958,1.958,0,0,1,1.957,1.957" transform="translate(-40.514 -22.329)" fill="#4d812e"/>
          <path id="Trazado_872927-2" data-name="Trazado 872927" d="M148.681,65.787a1.957,1.957,0,1,1-1.957-1.957,1.957,1.957,0,0,1,1.957,1.957" transform="translate(-50.643 -22.329)" fill="#4d812e"/>
          <path id="Trazado_872928-2" data-name="Trazado 872928" d="M3.914,97.7a1.957,1.957,0,1,1-1.957-1.957A1.957,1.957,0,0,1,3.914,97.7" transform="translate(0 -33.494)" fill="#4d812e"/>
          <path id="Trazado_872929-2" data-name="Trazado 872929" d="M32.868,97.7a1.957,1.957,0,1,1-1.957-1.957A1.957,1.957,0,0,1,32.868,97.7" transform="translate(-10.129 -33.494)" fill="#4d812e"/>
          <path id="Trazado_872930-2" data-name="Trazado 872930" d="M61.821,97.7a1.957,1.957,0,1,1-1.957-1.957A1.957,1.957,0,0,1,61.821,97.7" transform="translate(-20.257 -33.494)" fill="#4d812e"/>
          <path id="Trazado_872931-2" data-name="Trazado 872931" d="M90.774,97.7a1.957,1.957,0,1,1-1.957-1.957A1.957,1.957,0,0,1,90.774,97.7" transform="translate(-30.386 -33.494)" fill="#4d812e"/>
          <path id="Trazado_872932-2" data-name="Trazado 872932" d="M119.728,97.7a1.957,1.957,0,1,1-1.957-1.957,1.958,1.958,0,0,1,1.957,1.957" transform="translate(-40.514 -33.494)" fill="#4d812e"/>
          <path id="Trazado_872933-2" data-name="Trazado 872933" d="M148.681,97.7a1.957,1.957,0,1,1-1.957-1.957,1.957,1.957,0,0,1,1.957,1.957" transform="translate(-50.643 -33.494)" fill="#4d812e"/>
          <path id="Trazado_872934-2" data-name="Trazado 872934" d="M3.914,129.617a1.957,1.957,0,1,1-1.957-1.957,1.957,1.957,0,0,1,1.957,1.957" transform="translate(0 -44.659)" fill="#4d812e"/>
          <path id="Trazado_872935-2" data-name="Trazado 872935" d="M32.868,129.617a1.957,1.957,0,1,1-1.957-1.957,1.957,1.957,0,0,1,1.957,1.957" transform="translate(-10.129 -44.659)" fill="#4d812e"/>
          <path id="Trazado_872936-2" data-name="Trazado 872936" d="M61.821,129.617a1.957,1.957,0,1,1-1.957-1.957,1.957,1.957,0,0,1,1.957,1.957" transform="translate(-20.257 -44.659)" fill="#4d812e"/>
          <path id="Trazado_872937-2" data-name="Trazado 872937" d="M90.774,129.617a1.957,1.957,0,1,1-1.957-1.957,1.957,1.957,0,0,1,1.957,1.957" transform="translate(-30.386 -44.659)" fill="#4d812e"/>
          <path id="Trazado_872938-2" data-name="Trazado 872938" d="M119.728,129.617a1.957,1.957,0,1,1-1.957-1.957,1.958,1.958,0,0,1,1.957,1.957" transform="translate(-40.514 -44.659)" fill="#4d812e"/>
          <path id="Trazado_872939-2" data-name="Trazado 872939" d="M148.681,129.617a1.957,1.957,0,1,1-1.957-1.957,1.957,1.957,0,0,1,1.957,1.957" transform="translate(-50.643 -44.659)" fill="#4d812e"/>
        </g>
      </g>
    </g>
    <g id="Grupo_1100341" data-name="Grupo 1100341" transform="translate(729.947 2802)">
      <g id="Grupo_1100340" data-name="Grupo 1100340" clip-path="url(#clip-path-3)">
        <g id="Grupo_1100249" data-name="Grupo 1100249">
          <g id="Grupo_1100248" data-name="Grupo 1100248" clip-path="url(#clip-path-4)">
            <path id="Trazado_881372" data-name="Trazado 881372" d="M134.185,1.253C67.557-.687,9.843,46.99,1.123,109.548c-9.534,68.4,42.939,129.941,107.5,139.8,80.307,12.26,158.2-58.668,151.207-135.613C254.563,55.76,201.914,3.225,134.185,1.253" transform="translate(0 -0.171)" fill="#ff7241"/>
            <g id="Grupo_1100247" data-name="Grupo 1100247" transform="translate(21.88)" opacity="0.9" style="mix-blend-mode: multiply;isolation: isolate">
              <g id="Grupo_1100246" data-name="Grupo 1100246">
                <g id="Grupo_1100245" data-name="Grupo 1100245" clip-path="url(#clip-path-5)">
                  <g id="Grupo_1100242" data-name="Grupo 1100242" transform="translate(0 0.001)">
                    <g id="Grupo_1100241" data-name="Grupo 1100241" clip-path="url(#clip-path-6)">
                      <rect id="Rectángulo_402477" data-name="Rectángulo 402477" width="194.041" height="244.487" transform="translate(-17.754 171.061) rotate(-85.77)" fill="#ff7241"/>
                    </g>
                  </g>
                  <g id="Grupo_1100244" data-name="Grupo 1100244" transform="translate(9.043 19.831)">
                    <g id="Grupo_1100243" data-name="Grupo 1100243" clip-path="url(#clip-path-7)">
                      <rect id="Rectángulo_402478" data-name="Rectángulo 402478" width="163.134" height="219.02" transform="translate(-12.265 147.34) rotate(-85.77)" fill="#ff7241"/>
                    </g>
                  </g>
                </g>
              </g>
            </g>
          </g>
        </g>
        <g id="Grupo_1100251" data-name="Grupo 1100251" transform="translate(169.549 121.939)">
          <g id="Grupo_1100250" data-name="Grupo 1100250" clip-path="url(#clip-path-8)">
            <rect id="Rectángulo_402481" data-name="Rectángulo 402481" width="44.041" height="17.057" transform="translate(-8.897 41.385) rotate(-77.867)" fill="url(#linear-gradient)"/>
          </g>
        </g>
        <g id="Grupo_1100253" data-name="Grupo 1100253" transform="translate(164.324 130.428)">
          <g id="Grupo_1100252" data-name="Grupo 1100252" clip-path="url(#clip-path-9)">
            <rect id="Rectángulo_402482" data-name="Rectángulo 402482" width="12.979" height="11.611" transform="translate(-2.314 10.746) rotate(-77.867)" fill="url(#linear-gradient-2)"/>
          </g>
        </g>
        <g id="Grupo_1100255" data-name="Grupo 1100255" transform="translate(168.787 130.058)">
          <g id="Grupo_1100254" data-name="Grupo 1100254" clip-path="url(#clip-path-10)">
            <rect id="Rectángulo_402483" data-name="Rectángulo 402483" width="9.358" height="6.786" transform="matrix(0.21, -0.978, 0.978, 0.21, -1.741, 8.097)" fill="url(#linear-gradient-3)"/>
          </g>
        </g>
        <g id="Grupo_1100257" data-name="Grupo 1100257" transform="translate(157.216 106.424)">
          <g id="Grupo_1100256" data-name="Grupo 1100256" clip-path="url(#clip-path-11)">
            <rect id="Rectángulo_402484" data-name="Rectángulo 402484" width="36.378" height="26.3" transform="translate(-6.043 0)" fill="url(#linear-gradient-4)"/>
          </g>
        </g>
        <g id="Grupo_1100259" data-name="Grupo 1100259" transform="translate(46.454 89.555)">
          <g id="Grupo_1100258" data-name="Grupo 1100258" clip-path="url(#clip-path-12)">
            <rect id="Rectángulo_402485" data-name="Rectángulo 402485" width="72.469" height="23.171" transform="matrix(0.21, -0.978, 0.978, 0.21, -14.872, 69.178)" fill="url(#linear-gradient-5)"/>
          </g>
        </g>
        <g id="Grupo_1100261" data-name="Grupo 1100261" transform="translate(41.33 88.557)">
          <g id="Grupo_1100260" data-name="Grupo 1100260" clip-path="url(#clip-path-13)">
            <rect id="Rectángulo_402486" data-name="Rectángulo 402486" width="38.144" height="15.444" transform="translate(-7.674 35.696) rotate(-77.867)" fill="url(#linear-gradient-6)"/>
          </g>
        </g>
        <g id="Grupo_1100263" data-name="Grupo 1100263" transform="translate(35.431 90.251)">
          <g id="Grupo_1100262" data-name="Grupo 1100262" clip-path="url(#clip-path-14)">
            <rect id="Rectángulo_402487" data-name="Rectángulo 402487" width="17.779" height="11.679" transform="translate(-3.365 15.65) rotate(-77.867)" fill="url(#linear-gradient-7)"/>
          </g>
        </g>
        <g id="Grupo_1100265" data-name="Grupo 1100265" transform="translate(47.648 120.521)">
          <g id="Grupo_1100264" data-name="Grupo 1100264" clip-path="url(#clip-path-15)">
            <rect id="Rectángulo_402488" data-name="Rectángulo 402488" width="11.361" height="16.572" transform="matrix(0.21, -0.978, 0.978, 0.21, -1.719, 7.994)" fill="url(#linear-gradient-8)"/>
          </g>
        </g>
        <g id="Grupo_1100267" data-name="Grupo 1100267" transform="translate(22.536 58.02)">
          <g id="Grupo_1100266" data-name="Grupo 1100266" clip-path="url(#clip-path-16)">
            <rect id="Rectángulo_402489" data-name="Rectángulo 402489" width="70.368" height="45.222" transform="translate(-4.781 0)" fill="url(#linear-gradient-9)"/>
          </g>
        </g>
        <g id="Grupo_1100269" data-name="Grupo 1100269" transform="translate(54.144 114.424)">
          <g id="Grupo_1100268" data-name="Grupo 1100268" clip-path="url(#clip-path-17)">
            <rect id="Rectángulo_402490" data-name="Rectángulo 402490" width="21.248" height="9.165" transform="translate(-2.913 0)" fill="url(#linear-gradient-10)"/>
          </g>
        </g>
        <g id="Grupo_1100271" data-name="Grupo 1100271" transform="translate(196.979 92.858)">
          <g id="Grupo_1100270" data-name="Grupo 1100270" clip-path="url(#clip-path-18)">
            <rect id="Rectángulo_402491" data-name="Rectángulo 402491" width="72.468" height="23.17" transform="matrix(0.21, -0.978, 0.978, 0.21, -14.872, 69.177)" fill="url(#linear-gradient-11)"/>
          </g>
        </g>
        <g id="Grupo_1100273" data-name="Grupo 1100273" transform="translate(203.064 96.406)">
          <g id="Grupo_1100272" data-name="Grupo 1100272" clip-path="url(#clip-path-19)">
            <rect id="Rectángulo_402492" data-name="Rectángulo 402492" width="23.902" height="10.276" transform="translate(-4.78 22.236) rotate(-77.867)" fill="url(#linear-gradient-12)"/>
          </g>
        </g>
        <g id="Grupo_1100275" data-name="Grupo 1100275" transform="translate(207.673 97.281)">
          <g id="Grupo_1100274" data-name="Grupo 1100274" clip-path="url(#clip-path-20)">
            <rect id="Rectángulo_402493" data-name="Rectángulo 402493" width="13.043" height="7.47" transform="matrix(0.21, -0.978, 0.978, 0.21, -2.52, 11.723)" fill="url(#linear-gradient-13)"/>
          </g>
        </g>
        <g id="Grupo_1100277" data-name="Grupo 1100277" transform="translate(181.169 67.824)">
          <g id="Grupo_1100276" data-name="Grupo 1100276" clip-path="url(#clip-path-21)">
            <rect id="Rectángulo_402494" data-name="Rectángulo 402494" width="60.518" height="42.249" transform="translate(-3.307 0)" fill="url(#linear-gradient-14)"/>
          </g>
        </g>
        <g id="Grupo_1100279" data-name="Grupo 1100279" transform="translate(198.375 117.726)">
          <g id="Grupo_1100278" data-name="Grupo 1100278" clip-path="url(#clip-path-22)">
            <rect id="Rectángulo_402495" data-name="Rectángulo 402495" width="21.247" height="11.836" transform="translate(-2.912)" fill="url(#linear-gradient-15)"/>
          </g>
        </g>
        <g id="Grupo_1100281" data-name="Grupo 1100281" transform="translate(78.389 135.782)">
          <g id="Grupo_1100280" data-name="Grupo 1100280" clip-path="url(#clip-path-23)">
            <rect id="Rectángulo_402496" data-name="Rectángulo 402496" width="27.501" height="11.937" transform="matrix(0.21, -0.978, 0.978, 0.21, -5.533, 25.559)" fill="url(#linear-gradient-16)"/>
          </g>
        </g>
        <g id="Grupo_1100283" data-name="Grupo 1100283" transform="translate(81.934 137.847)">
          <g id="Grupo_1100282" data-name="Grupo 1100282" clip-path="url(#clip-path-24)">
            <rect id="Rectángulo_402497" data-name="Rectángulo 402497" width="10.953" height="6.058" transform="translate(-2.127 9.893) rotate(-77.867)" fill="url(#linear-gradient-17)"/>
          </g>
        </g>
        <g id="Grupo_1100285" data-name="Grupo 1100285" transform="translate(67.118 110.949)">
          <g id="Grupo_1100284" data-name="Grupo 1100284" clip-path="url(#clip-path-25)">
            <rect id="Rectángulo_402498" data-name="Rectángulo 402498" width="33.257" height="28.378" transform="translate(-0.972 0)" fill="url(#linear-gradient-18)"/>
          </g>
        </g>
        <g id="Grupo_1100292" data-name="Grupo 1100292">
          <g id="Grupo_1100291" data-name="Grupo 1100291" clip-path="url(#clip-path-3)">
            <g id="Grupo_1100290" data-name="Grupo 1100290" transform="translate(146.418 7.763)" opacity="0.9">
              <g id="Grupo_1100289" data-name="Grupo 1100289">
                <g id="Grupo_1100288" data-name="Grupo 1100288" clip-path="url(#clip-path-27)">
                  <g id="Grupo_1100287" data-name="Grupo 1100287" transform="translate(0 0)">
                    <g id="Grupo_1100286" data-name="Grupo 1100286" clip-path="url(#clip-path-28)">
                      <rect id="Rectángulo_402499" data-name="Rectángulo 402499" width="34.053" height="34.996" transform="matrix(0.557, -0.831, 0.831, 0.557, -18.596, 15.982)" fill="url(#linear-gradient-19)"/>
                    </g>
                  </g>
                </g>
              </g>
            </g>
          </g>
        </g>
        <g id="Grupo_1100294" data-name="Grupo 1100294" transform="translate(47.184 8.922)">
          <g id="Grupo_1100293" data-name="Grupo 1100293" clip-path="url(#clip-path-29)">
            <rect id="Rectángulo_402502" data-name="Rectángulo 402502" width="62.813" height="28.813" transform="translate(0 0)" fill="url(#linear-gradient-20)"/>
          </g>
        </g>
        <g id="Grupo_1100296" data-name="Grupo 1100296" transform="translate(229.833 101.631)">
          <g id="Grupo_1100295" data-name="Grupo 1100295" clip-path="url(#clip-path-30)">
            <rect id="Rectángulo_402503" data-name="Rectángulo 402503" width="1.483" height="3.289" transform="translate(0 0)" fill="url(#linear-gradient-21)"/>
          </g>
        </g>
        <g id="Grupo_1100298" data-name="Grupo 1100298" transform="translate(22.365 162.064)">
          <g id="Grupo_1100297" data-name="Grupo 1100297" clip-path="url(#clip-path-31)">
            <rect id="Rectángulo_402504" data-name="Rectángulo 402504" width="216.315" height="93.534" transform="translate(0 0)" fill="url(#linear-gradient-22)"/>
          </g>
        </g>
        <g id="Grupo_1100300" data-name="Grupo 1100300" transform="translate(121.634 255.521)">
          <g id="Grupo_1100299" data-name="Grupo 1100299" clip-path="url(#clip-path-32)">
            <rect id="Rectángulo_402505" data-name="Rectángulo 402505" width="0.007" height="0.009" transform="translate(-0.001 0.003) rotate(-56.204)" fill="url(#linear-gradient-23)"/>
          </g>
        </g>
        <g id="Grupo_1100302" data-name="Grupo 1100302" transform="translate(78.529 164.243)">
          <g id="Grupo_1100301" data-name="Grupo 1100301" clip-path="url(#clip-path-33)">
            <rect id="Rectángulo_402507" data-name="Rectángulo 402507" width="120.776" height="117.888" transform="translate(-43.872 62.983) rotate(-56.167)" fill="url(#linear-gradient-24)"/>
          </g>
        </g>
        <g id="Grupo_1100304" data-name="Grupo 1100304" transform="translate(229.833 101.631)">
          <g id="Grupo_1100303" data-name="Grupo 1100303" clip-path="url(#clip-path-30)">
            <rect id="Rectángulo_402508" data-name="Rectángulo 402508" width="3.558" height="3.063" transform="translate(-1.521 2.269) rotate(-56.167)" fill="url(#linear-gradient-25)"/>
          </g>
        </g>
        <g id="Grupo_1100306" data-name="Grupo 1100306" transform="translate(212.931 164.243)">
          <g id="Grupo_1100305" data-name="Grupo 1100305" clip-path="url(#clip-path-35)">
            <rect id="Rectángulo_402509" data-name="Rectángulo 402509" width="52.152" height="46.96" transform="translate(-21.326 31.186) rotate(-56.167)" fill="url(#linear-gradient-26)"/>
          </g>
        </g>
        <g id="Grupo_1100313" data-name="Grupo 1100313">
          <g id="Grupo_1100312" data-name="Grupo 1100312" clip-path="url(#clip-path-3)">
            <g id="Grupo_1100311" data-name="Grupo 1100311" transform="translate(22.131 162.053)" opacity="0.2" style="mix-blend-mode: multiply;isolation: isolate">
              <g id="Grupo_1100310" data-name="Grupo 1100310">
                <g id="Grupo_1100309" data-name="Grupo 1100309" clip-path="url(#clip-path-37)">
                  <g id="Grupo_1100308" data-name="Grupo 1100308" transform="translate(0 0)">
                    <g id="Grupo_1100307" data-name="Grupo 1100307" clip-path="url(#clip-path-38)">
                      <rect id="Rectángulo_402510" data-name="Rectángulo 402510" width="216.246" height="93.426" transform="translate(0 0)" fill="url(#linear-gradient-27)"/>
                    </g>
                  </g>
                </g>
              </g>
            </g>
          </g>
        </g>
        <g id="Grupo_1100315" data-name="Grupo 1100315" transform="translate(22.395 154.93)">
          <g id="Grupo_1100314" data-name="Grupo 1100314" clip-path="url(#clip-path-39)">
            <rect id="Rectángulo_402513" data-name="Rectángulo 402513" width="216.418" height="17.39" transform="translate(0 0)" fill="url(#linear-gradient-28)"/>
          </g>
        </g>
        <g id="Grupo_1100317" data-name="Grupo 1100317" transform="translate(21.077 141.338)">
          <g id="Grupo_1100316" data-name="Grupo 1100316" clip-path="url(#clip-path-40)">
            <rect id="Rectángulo_402514" data-name="Rectángulo 402514" width="98.628" height="27.705" transform="translate(-10.746 0)" fill="url(#linear-gradient-29)"/>
          </g>
        </g>
        <g id="Grupo_1100319" data-name="Grupo 1100319" transform="translate(148.067 137.723)">
          <g id="Grupo_1100318" data-name="Grupo 1100318" clip-path="url(#clip-path-41)">
            <rect id="Rectángulo_402515" data-name="Rectángulo 402515" width="97.128" height="33.725" transform="translate(-5.346 -3.384)" fill="url(#linear-gradient-30)"/>
          </g>
        </g>
        <g id="Grupo_1100321" data-name="Grupo 1100321" transform="translate(110.446 122.223)">
          <g id="Grupo_1100320" data-name="Grupo 1100320" clip-path="url(#clip-path-42)">
            <rect id="Rectángulo_402516" data-name="Rectángulo 402516" width="48.752" height="42.965" transform="translate(-4.934 45.7) rotate(-85.77)" fill="url(#linear-gradient-31)"/>
          </g>
        </g>
        <g id="Grupo_1100323" data-name="Grupo 1100323" transform="translate(119.317 113.256)">
          <g id="Grupo_1100322" data-name="Grupo 1100322" clip-path="url(#clip-path-43)">
            <rect id="Rectángulo_402517" data-name="Rectángulo 402517" width="12.374" height="8.306" transform="translate(-1.365 11.792) rotate(-85.77)" fill="url(#linear-gradient-32)"/>
          </g>
        </g>
        <g id="Grupo_1100325" data-name="Grupo 1100325" transform="translate(142.19 140.016)">
          <g id="Grupo_1100324" data-name="Grupo 1100324" clip-path="url(#clip-path-44)">
            <rect id="Rectángulo_402518" data-name="Rectángulo 402518" width="5.873" height="7.189" transform="matrix(0.074, -0.997, 0.997, 0.074, -1.497, 5.356)" fill="url(#linear-gradient-33)"/>
          </g>
        </g>
        <g id="Grupo_1100327" data-name="Grupo 1100327" transform="translate(23.877 192.227)">
          <g id="Grupo_1100326" data-name="Grupo 1100326" clip-path="url(#clip-path-45)">
            <rect id="Rectángulo_402519" data-name="Rectángulo 402519" width="87.678" height="87.776" transform="matrix(0.373, -0.928, 0.928, 0.373, -23.703, 58.018)" fill="url(#linear-gradient-34)"/>
          </g>
        </g>
        <g id="Grupo_1100332" data-name="Grupo 1100332">
          <g id="Grupo_1100331" data-name="Grupo 1100331" clip-path="url(#clip-path-3)">
            <g id="Grupo_1100330" data-name="Grupo 1100330" transform="translate(34.147 210.565)" style="mix-blend-mode: soft-light;isolation: isolate">
              <g id="Grupo_1100329" data-name="Grupo 1100329">
                <g id="Grupo_1100328" data-name="Grupo 1100328" clip-path="url(#clip-path-47)">
                  <path id="Trazado_881408" data-name="Trazado 881408" d="M96.687,281.557a.457.457,0,0,1-.277.175c-7.179,1.442-14.626.466-22.134-2.9a65.732,65.732,0,0,1-17.933-12.486A108.478,108.478,0,0,1,39.894,246.3a.46.46,0,0,1,.788-.475A107.4,107.4,0,0,0,56.99,265.69c9.157,8.664,23.4,18.323,39.238,15.14a.46.46,0,0,1,.459.727" transform="translate(-39.828 -245.599)" fill="#fff"/>
                </g>
              </g>
            </g>
          </g>
        </g>
        <g id="Grupo_1100334" data-name="Grupo 1100334" transform="translate(34.98 161.213)">
          <g id="Grupo_1100333" data-name="Grupo 1100333" clip-path="url(#clip-path-48)">
            <rect id="Rectángulo_402522" data-name="Rectángulo 402522" width="117.915" height="115.992" transform="matrix(0.671, -0.741, 0.741, 0.671, -50.108, 53.026)" fill="url(#linear-gradient-35)"/>
          </g>
        </g>
        <g id="Grupo_1100339" data-name="Grupo 1100339">
          <g id="Grupo_1100338" data-name="Grupo 1100338" clip-path="url(#clip-path-3)">
            <g id="Grupo_1100337" data-name="Grupo 1100337" transform="translate(48.924 183.38)" style="mix-blend-mode: soft-light;isolation: isolate">
              <g id="Grupo_1100336" data-name="Grupo 1100336">
                <g id="Grupo_1100335" data-name="Grupo 1100335" clip-path="url(#clip-path-50)">
                  <path id="Trazado_881410" data-name="Trazado 881410" d="M109.3,281.711a.582.582,0,0,1-.408.087c-9.2-1.445-17.659-5.894-25.133-13.225-5.956-5.841-11.3-13.515-15.894-22.809a137.974,137.974,0,0,1-10.788-31.178.585.585,0,0,1,1.15-.219,136.656,136.656,0,0,0,10.7,30.9c7.106,14.378,19.84,32.185,40.149,35.373a.585.585,0,0,1,.226,1.069" transform="translate(-57.065 -213.891)" fill="#fff"/>
                </g>
              </g>
            </g>
          </g>
        </g>
      </g>
    </g>
  </g>
</svg>
