<svg xmlns="http://www.w3.org/2000/svg" xmlns:xlink="http://www.w3.org/1999/xlink" width="85.961" height="85.961" viewBox="0 0 85.961 85.961">
  <defs>
    <clipPath id="clip-path">
      <rect id="Rectángulo_401368" data-name="Rectángulo 401368" width="85.961" height="85.961" fill="#4d812e"/>
    </clipPath>
  </defs>
  <g id="Grupo_1100046" data-name="Grupo 1100046" transform="translate(0 0)" opacity="0.4">
    <g id="Grupo_1099442" data-name="Grupo 1099442" transform="translate(0 0)" clip-path="url(#clip-path)">
      <path id="Trazado_878804" data-name="Trazado 878804" d="M876.077,478.724c-1.486.156-2.552,1.734-3.4,2.762-1.2,1.464-2.781,2.573-4.119,3.91-2.924,2.92-5.87,5.795-8.869,8.638-5.854,5.551-11.223,11.618-17.153,17.039-1.443,1.319-2.883,2.682-4.228,4.1-.744.784-2.122,3.766-3.566,3.2-2.547-.992,4.322-6.73,5.178-7.572,1.345-1.323,2.961-2.38,4.207-3.8,1.336-1.521,2.628-3.016,4.062-4.457,2.935-2.949,5.919-5.833,8.836-8.8,3.147-3.2,6.5-6.243,9.723-9.376,1.6-1.556,3.293-3.034,4.806-4.672a28.677,28.677,0,0,1,4.518-3.628v-3a37.341,37.341,0,0,0-2.754,2.7,30.988,30.988,0,0,0-3.736,3.157c-2.166,2.313-4.534,4.485-6.824,6.661-4.571,4.343-8.871,8.852-13.428,13.224a74.414,74.414,0,0,0-6.366,6.536c-1.523,1.874-3.6,3.349-5.348,5.036-.816.789-1.46,1.664-2.341,2.384a9.148,9.148,0,0,0-2.208,2.55,6.992,6.992,0,0,1-2.39,2.343c-.937.689-1.34,1.752-2.215,2.488-.908.763-2.669,1.286-2.8,2.691-.106,1.1,1.434,2.485,2.065,3.267.593.734,1.537,1.694,2.459.712,1.046-1.113-.439-1.787-1.216-2.311-.861-.581-1.655-2.152-.078-2.45,1.065-.2,1.732,1.175,2.456,1.7.809.588,3.067.658,3.227-.829.17-1.581-2.338-.973-3.127-1.525a1.239,1.239,0,0,1,.729-2.261c1.16-.1,1.8,1.165,2.85,1.345,2.164.372,4.243-3.444,5.551-4.768,1.926-1.949,3.9-3.894,5.963-5.7,1.931-1.7,3.539-3.77,5.374-5.578,4.51-4.444,9.19-8.74,13.627-13.252,1.113-1.132,2.423-2.053,3.518-3.185a32.309,32.309,0,0,1,2.26-2.6c.942-.79,1.978-1.2,2.695-2.255.583-.853,1.007-1.926,2.063-2.267Z" transform="translate(-790.162 -452.711)" fill="#4d812e"/>
      <path id="Trazado_878805" data-name="Trazado 878805" d="M55.6,0a41.177,41.177,0,0,0-2.46,3.593,16.608,16.608,0,0,1-2.559,3.4,10.581,10.581,0,0,1-2.75,2.539c-1.194.579-2.352.748-2.99,2.08-.543,1.133.04,2.6-.71,3.613s-2.216.742-3.224,1.351c-1.308.791-1.318,1.945-1.611,3.259-.279,1.251-.846,1.264-2.042,1.066-1.839-.305-4.5.457-3.91,2.949.2.844,1.529,1.373,1.371,2.262-.21,1.178-1.7.6-2.445.527-2.953-.268-3.269,1.683-4.98,3.51-1.692,1.807-3.892,3.7-6.456,2.964-1.461-.418-5.992-2.146-6.538.469-.292,1.4,1.12,1.2,1.991,1.025a8.527,8.527,0,0,1,3.771.006c1.088.326,1.533,1.314.5,2.084-.971.723-1.861.02-2.879-.126-1.073-.154-2.07.559-3.091.251-.794-.24-1.771-1.594-2.568-.579-.727.924.568,2.205,1.184,2.774.961.888,1.524.519,2.533-.1,2.29-1.41,3.435,1.211.94,2.063-.945.323-1.548.956-2.408,1.318-1.165.49-1.534-.35-2.073-1.256-.462-.776-1.224-2.541-2.253-2.637-1.126-.106-1.427,1.071-.987,1.852.641,1.138,2.089,1.865,2.606,3.083.55,1.3-.335,1.733-1.2,2.429-.914.74-1.515,1.747-2.448,2.464a5.8,5.8,0,0,0-1.987,2.066c-.531,1.083-.7,1.608-2.005,1.833-.874.15-1.787.009-2.421.764C.235,54.4,2.343,56.884,0,56.65v2.136a10.782,10.782,0,0,1,2.865-.75c1.121.017,2.176,1.291,3.3.741,1.015-.5.789-1.683-.172-2.109s-2.735.175-3.032-1.341c-.653-3.324,4.71.36,5.372.3,2.233-.191,3.7-3.3,2.887-5.134-.537-1.216-1.132-1.963.028-3.052.605-.568,1.371-.9,1.937-1.541,1.154-1.3,2.89-3.773,5.008-3,.782.285,1.762,2.011,2.767,1.349,1.1-.726-.163-1.623-.609-2.116-1.722-1.9.036-2.985,1.46-4.274a28.775,28.775,0,0,0,1.843-2.526,17.306,17.306,0,0,1,2.614-1.786c1.724-1.313,2.826-3.384,4.554-4.624,1.909-1.37,4.184.355,6.13-1.1.484-.361,1.307-1.062,1.2-1.742-.16-1.042-1.388-.8-2.081-1.224-.719-.44-1.114-1.541-.281-2.081s2.274.095,2.893.669,1.234,1.951,2.348,1.191c.91-.621.238-1.638.04-2.391-.607-2.305.3-4.454,2.794-4.647,1.281-.1,1.676-.138,2.169-1.428.428-1.119.332-2.29.66-3.4.221-.747.889-1.674,1.811-1.117.733.443.415,1.589,1.184,2.044a1.053,1.053,0,0,0,1.655-.953c.013-.9-1.084-1.464-1.009-2.412C50.427,9.214,51.894,8.1,52.6,7.365a14.944,14.944,0,0,0,1.875-2.327C54.787,4.554,57.522.754,58.016,0ZM6.967,52.1c.185-1.589,2.856-2.869,2.631-.546.343,1.907-2.9,2.854-2.631.546" transform="translate(0.045 0.046)" fill="#4d812e"/>
      <path id="Trazado_878806" data-name="Trazado 878806" d="M62.846,162.192c-.284-1.054-1.5-.8-2.146-.4-1.611,1-2.789,2.96-4.146,4.266-1.239,1.193-2.825,1.663-3.809,3.081-.37.533-.6,1.375-1.349,1.516-.891.166-1.312-.727-2.095-.842-1.7-.249-1.848,2.885-2,4.058-.168,1.333-1.111,3.324-2.215,1.358-.357-.636-.4-1.645-1.463-1.272-.8.279-.747,1.181-.6,1.827.383,1.642,1.18,3.274-.426,4.654-.727.625-1.76.623-2.5,1.223-.637.518-.851,1.305-1.388,1.9s-1.289.938-1.828,1.544c-.558.628-.853,1.424-1.35,2.1a38.356,38.356,0,0,1-4.083,4.3c-1.322,1.286-2.638,2.713-4.055,3.889s-3.444,1.852-4.382,3.533-1.34,2.985-3.4,1.651c-.787-.51-3.925-2.189-3.89.05.028,1.823,2.633.558,3.367,1.652.912,1.359-1.269,2.158-2.343,1.73-1.164-.464-2.463-2.606-3.752-.991a1.207,1.207,0,0,0,.568,1.993c.582.185,1.278-.287,1.854.052,1.893,1.112-1.061,2.024-1.715,2.43-.773.481-.974,1.359-1.471,2.061a7.933,7.933,0,0,1-1.71,1.629c-1.326,1.041-1.981,2.491-3.219,3.559-1.429,1.232-2.628,2.7-4.01,3.992-1.078,1.01-2.1,2.327-3.3,3.25v2.654c2.152-1.583,8.665-8.436,9.381-9.222,2.752-3.022,5.6-5.886,8.532-8.721a26.2,26.2,0,0,1,4.566-3.768c1.763-1.05,1.856-3.182,3.517-4.375.8-.574,1.754-.893,2.55-1.45A25.8,25.8,0,0,0,30.663,195c1.694-1.506,3.074-3.12,4.674-4.719,1.307-1.307,2.494-2.755,3.769-4.1,1.016-1.074,1.684-2.786,3.058-3.411,1.83-.832,2.447-.515,2.912-2.735.423-2.018,1.573-1.942,2.975-3.111a3.38,3.38,0,0,0,1.223-2.331c.069-.6-.162-1.316.3-1.8,1.047-1.109,2.766.346,3.932-.977.7-.8.834-1.708,1.7-2.405.666-.535,1.479-.84,2.14-1.4,1.428-1.208,2.531-2.765,3.977-3.969.526-.438,1.753-.993,1.523-1.847" transform="translate(0.045 -154.469)" fill="#4d812e"/>
      <path id="Trazado_878807" data-name="Trazado 878807" d="M709.947,778.126c-.008-.348-.312-.912-.3-1.193a2.714,2.714,0,0,1,.843-1.793c.919-.951,2.32-.972,3.22-1.928a16.6,16.6,0,0,0,1.109-1.831,15.872,15.872,0,0,1,1.794-1.906,16.836,16.836,0,0,1,3.538-2.932c2.792-1.592,4.216-4.863,6.377-7.179a83.93,83.93,0,0,1,8.043-7.874,32.99,32.99,0,0,0,3.039-3.307c.991-1.043,2.09-1.984,3.08-3.037,2.377-2.528,5.1-4.531,7.668-6.824,2.245-2,3.619-5.708,6.6-6.721a6.175,6.175,0,0,0,1.716-.527c.661-.472.736-1.252,1.077-1.916.676-1.318,1.8-1.621,2.846-2.445v-3.4c-.5.357-1.48,1.911-1.919,2.207a9.006,9.006,0,0,0-2.807,2.705c-.887,1.3-2.192,1.71-3.371,2.69a35.614,35.614,0,0,0-3.463,3.649c-1.927,2.133-4.195,3.941-6.236,5.965-2.064,2.047-4.171,4.034-6.276,6.033-.953.9-1.651,2.021-2.6,2.93-.972.932-1.974,1.821-2.931,2.772-2.177,2.162-4.363,4.315-6.483,6.533a26.93,26.93,0,0,0-3,3.389,7.931,7.931,0,0,1-2.082,2.625,23.788,23.788,0,0,0-5.558,4.541c-.717.889-.957,2.025-1.907,2.741-.847.638-1.917.705-2.678,1.492-.891.922-.936,2.125-2.137,2.785-.836.459-1.984.677-2.147,1.757Z" transform="translate(-674.678 -692.211)" fill="#4d812e"/>
      <path id="Trazado_878808" data-name="Trazado 878808" d="M762.252,0c-.665,1.185-1.831,2.917-3.346,2.909-1.084-.006-2.667-1.112-2.549.854.044.732.528,1.306.375,2.086a3.254,3.254,0,0,1-1.173,1.759c-1.367,1.143-2.785,1.953-4.081,3.243-1.265,1.258-2.39,2.707-3.685,3.918-1.071,1-2.4,1.493-3.247,2.749a4.349,4.349,0,0,1-2.934,2.339c-1.687.474-1.667,1.447-2.462,2.8-.734,1.246-2.058,1.692-2.976,2.744s-.82,2.053-.8,3.356c.027,1.672-.751,1.441-2.1,1.238s-1.943.339-2.561,1.466a7.275,7.275,0,0,1-2.589,2.691c-1.013.767-1.522,1.976-2.419,2.874a29.626,29.626,0,0,0-2.277,3.057c-.79,1-2.177,1.21-3.08,2.117-1.236,1.24-.512,2.2.125,3.567.327.7,1.038,2.383,2.052,1.3.95-1.013-.922-2.435-.45-3.592.752-1.839,2.605-.556,3.895-.83,1.684-.359.32-1.417-.083-2.189-.5-.951.132-1.931,1.256-1.575.815.258,1.395,1.6,2.406.83,1.355-1.032-.623-1.668-1-2.367-.75-1.373.767-2.277,1.809-1.3.5.468,1.146,1.857,1.878.6s-1.164-2.685-.039-3.95c.986-1.109,2.369-.383,3.575-.413,3.428-.087.6-3.59,1.872-5.489.72-1.072,2.075-1.339,2.793-2.478s.787-2.1,2.109-2.7c1.343-.606,2.348-.56,3.139-1.955a5.6,5.6,0,0,1,2.464-2.549c1.234-.737,1.854-1.933,2.805-2.957.913-.982,1.877-1.982,2.83-2.924.988-.977,2.35-1.46,3.316-2.448.9-.922.98-2.1,1.628-3.147.755-1.217,2.365-1.718,3.4-2.707C762.581,2.5,764.557.8,764.6,0Z" transform="translate(-688.734 0.046)" fill="#4d812e"/>
      <path id="Trazado_878809" data-name="Trazado 878809" d="M53.249,718.733c-1.16-.19-2.2.91-2.812,1.708-.726.947-1.266,1.725-2.578,1.728-.866,0-1.846-.508-2.384.443-.462.816.094,1.841-.415,2.794a13.959,13.959,0,0,1-2.544,2.861c-.8.788-1.966,1.258-2.609,2.193-.551.8-.64,2.049-1.787,2.184-1.1.129-2.488-1.148-2.392.823.054,1.124.5,1.669-.4,2.631-.858.926-2.035,1.647-2.941,2.568a15.063,15.063,0,0,1-2.779,1.825c-1.161.773-1.342,1.883-1.931,3.057a12.618,12.618,0,0,1-2.226,2.909c-4.316,4.574-8.866,8.948-13.286,13.424-4.03,4.081-8,8.293-12.169,12.229v1.613H.946a31.07,31.07,0,0,1,3.271-3.3c1.181-1.189,2.324-2.414,3.5-3.607,2.308-2.34,4.7-4.6,6.974-6.972,4.343-4.532,9.244-8.664,13.231-13.52.819-1,1.346-2.137,2.113-3.153a16.15,16.15,0,0,1,2.691-2.25c1.136-.984,2.354-2.013,3.435-3.048.891-.852,1.274-2.085,2.173-2.918a23.477,23.477,0,0,0,2.9-2.726,24.259,24.259,0,0,1,2.476-2.466,19.822,19.822,0,0,0,2.575-2.67c.6-.861.65-2.125,1.585-2.711.993-.622,2.1-.455,3.052-1.318.752-.68,1.3-1.472,2.107-2.105.736-.579,1.95-1.943.218-2.228" transform="translate(0.045 -687.808)" fill="#4d812e"/>
      <path id="Trazado_878810" data-name="Trazado 878810" d="M87.589,770.964a13.228,13.228,0,0,1,2.207-2.537c1.2-1.241,2.44-2.441,3.661-3.658q3.4-3.392,6.818-6.775c1.81-1.8,3.534-3.667,5.345-5.456,2.022-2,3.851-4.134,5.816-6.211,3.61-3.815,7.325-7.562,11.063-11.251,2.107-2.079,4.143-4.22,6.232-6.315a44.016,44.016,0,0,1,4.678-4.512,37.274,37.274,0,0,0,5.16-5.233c.536-.586,1.941-1.483,1.816-2.431-.15-1.136-1.5-.779-2.127-.31-.9.675-1.352,1.9-2.052,2.758a22.862,22.862,0,0,1-2.338,2.4,22.509,22.509,0,0,1-2.629,1.817,10.773,10.773,0,0,0-2.281,2.509c-1.579,2-3.594,3.648-5.328,5.515-1.625,1.749-3.325,3.423-4.977,5.147-2.041,2.128-4.514,3.871-6.4,6.135-1.484,1.785-2.945,3.549-4.518,5.263-3.642,3.968-7.575,7.646-11.348,11.489-1.137,1.158-10.753,10.133-11.521,11.66Z" transform="translate(-81.181 -685.048)" fill="#4d812e"/>
      <path id="Trazado_878811" data-name="Trazado 878811" d="M34.869,71.352c-1.419-.688-2.613,1.684-3.595,2.377A6.338,6.338,0,0,0,28.6,77c-.729,1.7-2.221,2.505-3.5,3.763-1.136,1.118-1.874,2.755-3.205,3.644-.747.5-1.644.6-2.424,1.035A19.681,19.681,0,0,0,16.9,87.433a9.945,9.945,0,0,0-2.953,3.406c-.877,1.7-2.088,2.366-3.492,3.6A52.471,52.471,0,0,0,6.907,98.46c-1.368,1.47-3.046,2.614-4.4,4.107-.856.942-1.415,2.512-2.5,3.276v2.244a14.236,14.236,0,0,0,1.684-1.146,8.176,8.176,0,0,0,1.591-2.111c1.1-1.671,2.758-2.784,4.2-4.137,1.67-1.571,2.9-3.6,4.7-5.029.684-.545,1.551-.807,2.215-1.361a5.361,5.361,0,0,0,1.265-2.354A10.06,10.06,0,0,1,19.534,87.8c1.279-.871,3-1,4.093-2.1,1.16-1.162,1.9-2.644,3.13-3.779,1.091-1,2.614-1.99,3.3-3.327.911-1.776,1.413-2.8,3.165-3.931.837-.542,3.856-2.242,1.648-3.313" transform="translate(0.045 -68.125)" fill="#4d812e"/>
      <path id="Trazado_878812" data-name="Trazado 878812" d="M1163.133,1049.594a17.725,17.725,0,0,0-1.967,2.051,6.419,6.419,0,0,1-2.181,1.325,9.245,9.245,0,0,0-4.76,3.741c-.464.748-.6,1.637-1.042,2.4a12.493,12.493,0,0,1-2.341,2.632c-1.45,1.4-2.883,3.209-4.744,4.072-.716.332-1.588.37-2.14.98a5.371,5.371,0,0,0-.707,1.881c-.637,1.723-1.949,2.823-3.223,4.089a63.741,63.741,0,0,1-4.739,4.306c-1.335,1.087-3.109,1.359-4.321,2.527-1.369,1.319-3.146,3.073-3.465,4.955a5.249,5.249,0,0,1-.527,1.953c-.367.621-1.231,1.189-1.365,1.943a1.035,1.035,0,0,0,.979,1.308c.883.008,1.3-1.017,1.632-1.651.826-1.577,1.145-3.56,2.286-4.926,2.385-2.856,5.841-4.5,8.53-7.033a42.867,42.867,0,0,0,4.815-4.953,16.29,16.29,0,0,1,3.369-3.782,36.691,36.691,0,0,0,7.905-8.27,12.7,12.7,0,0,1,3.877-4.054,17.213,17.213,0,0,0,2.333-1.391c.644-.528,1.135-1.245,1.8-1.753Z" transform="translate(-1077.218 -1004.484)" fill="#4d812e"/>
      <path id="Trazado_878813" data-name="Trazado 878813" d="M29.623,1047.271c-.893-1.257-2.074-.572-2.927.354-.968,1.052-.952,2.686-2,3.583s-2.388,1.184-3.431,2.2q-4.03,3.939-7.974,7.967c-2.293,2.345-4.426,5-6.918,7.117-1.284,1.091-2.454,2.292-3.648,3.48A31.183,31.183,0,0,1,0,1074.88v2.832a50.05,50.05,0,0,0,3.543-3.625c1.414-1.416,2.831-2.769,4.278-4.141,2.889-2.74,5.53-5.774,8.336-8.6,1.4-1.415,2.768-2.865,4.185-4.267,1.116-1.1,2.337-2.742,3.708-3.517.844-.477,1.247-.267,2.114-.054.55.135,1.166.39,1.56-.2.749-1.114-1.163-2.214-.5-3.525.994-1.965,1.712.333,2,1.163.342.993,1.567,1.329,2.022.186.408-1.024-1.021-3.017-1.621-3.862" transform="translate(0.045 -1001.605)" fill="#4d812e"/>
      <path id="Trazado_878814" data-name="Trazado 878814" d="M1212.123,1240.763c.052-.84.863-1.469,1.221-2.187.333-.668.387-1.44.722-2.1a14.451,14.451,0,0,1,3.694-3.846c1.439-1.187,2.894-2.2,4.409-3.271,1.268-.9,1.867-2.312,2.962-3.372,1.045-1.012,1.954-2.165,3.005-3.157a33.113,33.113,0,0,0,2.807-2.505c1.062-1.248,2.438-2.256,3.416-3.556a31.407,31.407,0,0,1,2.9-3.766,27.551,27.551,0,0,1,3.783-3.514c.694-.464,2.312-1.31,1.578-2.4-1.328-1.977-6.224,4.38-7.05,5.332a98.82,98.82,0,0,1-7.227,7.613c-2.426,2.261-4.447,4.944-6.816,7.269-2.186,2.145-4.89,3.686-7.077,5.839a11.282,11.282,0,0,0-2.776,4.106c-.389.915-1.85,2.453-1.836,3.523Z" transform="translate(-1157.85 -1154.848)" fill="#4d812e"/>
      <path id="Trazado_878815" data-name="Trazado 878815" d="M28.271,0H21.233a7.43,7.43,0,0,1-3.051,2.437,6.687,6.687,0,0,0-2.9,1.7c-.759.887-1.01,2.049-1.98,2.771-1.131.842-2.64.909-3.847,1.641a8.018,8.018,0,0,0-2.634,3.188A22.306,22.306,0,0,1,4.3,14.374c-.837.978-1.261,2.174-2.183,3.1A21.78,21.78,0,0,1,0,19.624v2.963c.878.521,1.514,1.168,2.382,1.8.769.56,1.828.7,2.129-.434.619-2.321-3.317-1.337-3.1-3.166.1-.881,1.566-1.285,2.124-1.849a28.519,28.519,0,0,0,2.072-2.9c.734-.962,1.664-1.737,2.413-2.673a29.157,29.157,0,0,1,1.726-2.581C11.212,9.3,13.527,9.7,14.969,8.264a16.842,16.842,0,0,0,1.47-2.471,4.215,4.215,0,0,1,2.333-1.462c2.021-.787,3.275-2.663,5.24-3.523,1.108-.484,1.7-.078,2.779.039.723.078,1.591.136,1.479-.848" transform="translate(0.045 0.046)" fill="#4d812e"/>
      <path id="Trazado_878816" data-name="Trazado 878816" d="M947.958,1347.206c.052-.618-.187-1.486-.169-2.083a4.924,4.924,0,0,1,.576-2.473,9.433,9.433,0,0,1,3.265-3.359c1.221-.672,2.455-.711,3.5-1.754a22.086,22.086,0,0,0,2.705-3.227c.707-1.076.786-2.314,1.653-3.325.813-.948,1.819-1.743,2.664-2.671,1.727-1.9,3.922-4.666,6.436-5.443,1.375-.425,1.859-.747,2.271-2.167.216-.745.887-2.75-.5-2.783-1.106-.027-1.321,1.8-1.808,2.471-.665.92-1.9,1.26-2.771,1.964a91.878,91.878,0,0,0-6.908,6.817c-1.919,1.922-2.938,4.476-4.8,6.451a13.93,13.93,0,0,1-3.2,2.085,15.365,15.365,0,0,0-2.777,2.443,7.529,7.529,0,0,0-2.266,3.409c-.277,1.251.331,2.4.362,3.645Z" transform="translate(-905.113 -1261.291)" fill="#4d812e"/>
      <path id="Trazado_878817" data-name="Trazado 878817" d="M339.185,1412.163c.262-.9,1.572-1.917,2.139-2.484.939-.938,1.658-2.021,2.651-2.92,1.059-.96,1.789-2.213,2.875-3.123a27.354,27.354,0,0,0,3.277-3.024c.834-.95,1.6-2.024,2.487-2.921.827-.835,1.956-1.254,2.7-2.176a14.92,14.92,0,0,1,2.172-2.606,22.35,22.35,0,0,0,2.546-2.535c.836-.927,2.184-1.452,2.87-2.5.513-.781.5-2.135-.781-2.083-.99.04-1.553,1.325-2.135,1.939-.783.825-1.583,1.633-2.365,2.468-.882.942-1.992,1.621-2.832,2.625a14.264,14.264,0,0,1-2.384,2.525,17.986,17.986,0,0,0-2.656,2.951c-.857.985-1.883,1.893-2.825,2.8-2.168,2.09-4.271,4.23-6.32,6.442-.426.46-3.5,3.766-4.488,4.619Z" transform="translate(-321.638 -1326.248)" fill="#4d812e"/>
      <path id="Trazado_878818" data-name="Trazado 878818" d="M26.2,1250.2c-.159-1.728-1.874-.384-2.466.307-.939,1.1-1.9,2.121-2.93,3.138-2.436,2.41-4.8,4.878-7.2,7.325q-3.649,3.726-7.349,7.408-1.735,1.731-3.485,3.448A30.451,30.451,0,0,1,0,1274.793v2.624c1.511-1.275,5.035-5.216,5.63-5.8,2.469-2.439,4.863-4.944,7.3-7.415,2.38-2.416,4.8-4.793,7.158-7.227,1.1-1.128,2.222-2.227,3.346-3.326.768-.751,2.888-2.2,2.773-3.445" transform="translate(0.045 -1195.667)" fill="#4d812e"/>
      <path id="Trazado_878819" data-name="Trazado 878819" d="M21.073,221.446c-.293-.426-1.138-.507-1.55-.779A4.225,4.225,0,0,1,18.4,219.3c-.4-.624-2.1-2.832-2.625-.935-.36,1.3,1.72,1.955,1.691,3.23-.031,1.359-2.078,2.127-3.037,2.7a12.419,12.419,0,0,0-3,2.9,31.045,31.045,0,0,1-2.631,3.4,16.949,16.949,0,0,0-3.012,2.936c-.737,1.044-1.729,3.326-3.241,2.354-.86-.553-1.368-2.762-2.54-2.862v2.951a9.624,9.624,0,0,0,2.784,2.391c1.54.614,2.359-.706,3.176-1.8a18.609,18.609,0,0,1,3.069-3.579,12.5,12.5,0,0,0,3.1-3.26,14.245,14.245,0,0,1,3.069-3.448A20.311,20.311,0,0,1,19,223.35c.8-.356,3.11-.4,2.076-1.9" transform="translate(0.045 -208.222)" fill="#4d812e"/>
      <path id="Trazado_878820" data-name="Trazado 878820" d="M1473.552,0a33.552,33.552,0,0,1-5.784,5.544c-1.67,1.382-2.027,3.429-3.561,4.9-.838.805-1.952,1.189-2.823,1.949s-1.25,1.813-2.046,2.628c-.6.614-1.979,1.045-2,2.032-.016.914,1.269,1.61,2.062,1.625,1.284.024,1.5-.88,1.742-1.929a4.927,4.927,0,0,1,1.628-3.032c1.79-1.5,3.427-1.886,4.452-4.183a12.1,12.1,0,0,1,4.138-4.7,16.738,16.738,0,0,0,2.689-2.416A19.27,19.27,0,0,0,1476.284,0Z" transform="translate(-1394.726 0.046)" fill="#4d812e"/>
      <path id="Trazado_878821" data-name="Trazado 878821" d="M210.258,1606.815a7.786,7.786,0,0,1,1.83-1.654,32.469,32.469,0,0,0,2.538-2.411c1.569-1.653,3.109-3.328,4.719-4.944,1.749-1.755,3.48-3.553,5.3-5.241.593-.552,1.417-1.03,1.734-1.808s.177-1.658-.807-1.576c-.958.08-1.462,1.262-2.01,1.885-.675.766-1.55,1.3-2.243,2.048-1.361,1.473-2.756,2.856-4.183,4.274l-5.494,5.459c-.623.62-3.611,2.8-3.731,3.968Z" transform="translate(-198.935 -1520.9)" fill="#4d812e"/>
      <path id="Trazado_878822" data-name="Trazado 878822" d="M1742.121,1384.474c-.846.147-2.683,2.272-3.138,2.724-1.116,1.109-1.866,2.058-3.522,2-1.743-.063-2.323-.182-3.648,1.172-1.165,1.191-1.731,2.138-.782,3.678,1.553,2.521,4.628.967,5.654-1.283a8.709,8.709,0,0,1,2.4-3.17c.9-.83,1.891-2.213,3.037-2.772Zm-9.527,8c.008-1.3,2.572-2.636,2.7-.8.091,1.344-2.707,2.653-2.7.8" transform="translate(-1656.207 -1324.986)" fill="#4d812e"/>
      <path id="Trazado_878823" data-name="Trazado 878823" d="M1716.2,1638.8a2.29,2.29,0,0,0,.922.554h.522a1.1,1.1,0,0,0,.563-.419c.578-.764-.127-1.263-.389-2.014-.571-1.639.624-3.008,1.877-3.908,2.931-2.107,5.078-5.153,7.914-7.347v-2.49c-1.173.634-6.63,6.522-7.448,7.159-1.651,1.284-2.764,1.573-3.627,3.587-.713,1.664-1.988,3.369-.335,4.879" transform="translate(-1641.7 -1553.442)" fill="#4d812e"/>
      <path id="Trazado_878824" data-name="Trazado 878824" d="M942.3,0c-.206.2-.644.386-.8.618a3.936,3.936,0,0,0-.328,1.284A4.9,4.9,0,0,1,940.125,4a5.473,5.473,0,0,1-2.3,1.358,9.551,9.551,0,0,0-2.357,1.653c-1.239,1-2.83,1.286-3.066,3.017a8.944,8.944,0,0,1-.585,2.636c-.254.63-.635,1.42.132,1.878,1.979,1.181,2.039-2.359,2.23-3.262.388-1.835,2.221-2.576,3.692-3.413A11.666,11.666,0,0,0,942,4.3a10.346,10.346,0,0,0,1.621-2.788c.2-.874-.144-1.022-.58-1.51Z" transform="translate(-891.454 0.046)" fill="#4d812e"/>
      <path id="Trazado_878825" data-name="Trazado 878825" d="M1326.5,1688.649c1.271-1.228,2.512-2.456,3.9-3.553,1.182-.934,3-2.486,3.489-3.957a3.793,3.793,0,0,0-.03-2.054,3.293,3.293,0,0,1,.422-2.57c.594-1.412-.491-2.58-1.691-1.249a4.644,4.644,0,0,0-1.053,2.22c-.1.916.587,1.671.526,2.574-.108,1.585-1.936,2.846-3.064,3.769-1.405,1.149-2.585,2.592-4.006,3.7a3.24,3.24,0,0,1-1.937.791c-.678.044-1.573-.384-1.993.327Z" transform="translate(-1264.296 -1602.734)" fill="#4d812e"/>
      <path id="Trazado_878826" data-name="Trazado 878826" d="M1717.181,336.906a19.333,19.333,0,0,0-3.243,3.108c-.979,1.327-1.578,2.567-3,3.541-.6.414-1.309.683-1.876,1.146a16.748,16.748,0,0,0-1.51,1.772c-.685.736-2.631.957-2.951,1.789-.638,1.654,1.726,1.878,2.637,1.237,1.218-.858,2.011-2.383,3.168-3.357a38.238,38.238,0,0,0,3.744-3.1,33.576,33.576,0,0,1,3.03-3.492Z" transform="translate(-1631.266 -322.395)" fill="#4d812e"/>
      <path id="Trazado_878827" data-name="Trazado 878827" d="M764.677,0a11.4,11.4,0,0,1-.9,2.084,7.546,7.546,0,0,1-.915,1.932c-.977,1.272-2.255,1.106-3.613,1.594-1.485.534-2.7,1.939-4.011,2.8-.561.369-1.5.794-1.494,1.6.006.871.811,1.1,1.523.9,1.459-.4,2.383-2.217,3.769-2.876a26.512,26.512,0,0,0,4.073-1.791,5.143,5.143,0,0,0,2.481-3.314,6.2,6.2,0,0,1,.4-1.884c.114-.213.752-.729.835-1.046Z" transform="translate(-721.337 0.046)" fill="#4d812e"/>
      <path id="Trazado_878828" data-name="Trazado 878828" d="M1232.991,0c-.843,1.187-2.056,2.054-2.873,3.269-.753,1.12-1.209,2.383-2.064,3.444s-2.283,1.89-2.917,3.071c-.562,1.048-.005,1.94,1.24,1.439.986-.4,1.667-1.749,2.391-2.5a9.228,9.228,0,0,0,2.327-3.073,7.553,7.553,0,0,1,1.937-3.121c.643-.606,2.085-1.6,2.293-2.532Z" transform="translate(-1172.281 0.046)" fill="#4d812e"/>
      <path id="Trazado_878829" data-name="Trazado 878829" d="M524.229,1832.7h3.325a10.154,10.154,0,0,0,1.076-.909,2.559,2.559,0,0,0,.235-1.741c-.128-.774-.566-1.475-.7-2.259a10.143,10.143,0,0,0-.159-1.716c-.451-1.265-1.82-1.107-2.341.083-.615,1.4.9,2.231,1.208,3.469.237.938-.223,2.392-1.439,1.619-.851-.54-.484-2.085-1.525-2.482s-1.745.814-1.444,1.7c.338.993,1.735,1.121,1.763,2.236" transform="translate(-499.921 -1746.786)" fill="#4d812e"/>
      <path id="Trazado_878830" data-name="Trazado 878830" d="M1817.676,1861.749c1.507,1.024-.274,1.51-.474,2.024h2.657a7.62,7.62,0,0,1,2.148-2.043c.515-.379,1.192-1.344,1.8-1.656v-2.412c-.746.424-3.1,3-3.863,3.053-1.336.089-1.984-2.094-3.4-1.435a1.175,1.175,0,0,0-.457,1.685c.4.606,1.043.414,1.588.784" transform="translate(-1737.891 -1777.857)" fill="#4d812e"/>
      <path id="Trazado_878831" data-name="Trazado 878831" d="M44.123,0c-1.04,1.527-2.687,2.758-4.6,2.29-.716-.175-1.459-.7-2.173-.186a1.149,1.149,0,0,0-.01,1.88c1.289,1.052,4.289.4,5.518-.4.431-.28,3.722-2.84,3.895-3.585Z" transform="translate(-35.229 0.046)" fill="#4d812e"/>
      <path id="Trazado_878832" data-name="Trazado 878832" d="M202.15,0a22.173,22.173,0,0,1-2.179,2.034A12.578,12.578,0,0,1,197.9,3.993c-.484.336-1.5.658-1.641,1.334-.154.757.436,1.2,1.16,1.147,1.981-.147,3.287-2.6,4.476-3.844.354-.372,3.287-2.132,4.013-2.63Z" transform="translate(-187.764 0.046)" fill="#4d812e"/>
      <path id="Trazado_878833" data-name="Trazado 878833" d="M1890.646,856.285c-.806.134-2.13,3.648-2.239,4.016a11.455,11.455,0,0,1-.8,2.492c-.436.766-1.3,1.237-1.7,2-.384.743-.149,1.449.805,1.262.729-.143,1.429-1.221,1.85-1.754a10.822,10.822,0,0,0,1.35-2.152c.308-.668.4-1.494.725-2.163Z" transform="translate(-1804.731 -819.475)" fill="#4d812e"/>
      <path id="Trazado_878834" data-name="Trazado 878834" d="M7.275,142.537c-.482-.851-1.871-.635-2.657-.683a7.7,7.7,0,0,0-2.905.057c-.613.2-1.127.587-1.715.833v3.2c.97-.166,1.245-1.791,2.195-2.227,1.6-.733,2.962.771,4.4.359a1.03,1.03,0,0,0,.681-1.536" transform="translate(0.046 -135.608)" fill="#4d812e"/>
      <path id="Trazado_878835" data-name="Trazado 878835" d="M1839.431,1298.807c-1.553-.974-3.042,1.17-4.113,2.221-.663.65-3.524,2.636-3.034,3.68.776,1.653,2.835-1.073,3.363-1.606a16.377,16.377,0,0,1,2.084-1.865,7.084,7.084,0,0,0,1.7-1.3Z" transform="translate(-1753.516 -1242.76)" fill="#4d812e"/>
      <path id="Trazado_878836" data-name="Trazado 878836" d="M1038.495,1853.256c-.072-1.384-.249-2.524.636-3.737.387-.53,2.443-2.387.79-2.816-1.1-.287-2.211,1.6-2.666,2.373a7.553,7.553,0,0,0-.75,4.181Z" transform="translate(-991.957 -1767.34)" fill="#4d812e"/>
      <path id="Trazado_878837" data-name="Trazado 878837" d="M1888.354,1745.433c-.948.7-4.971,4.044-5.006,4.706-.09,1.7,1.866.654,2.4.11.834-.842,1.695-1.612,2.6-2.392Z" transform="translate(-1802.439 -1670.447)" fill="#4d812e"/>
      <path id="Trazado_878838" data-name="Trazado 878838" d="M1902.511,1496.494a13,13,0,0,0-2.317,2.132c-.623.622-2,1.949-2.052,2.921-.082,1.593,1.351.87,1.978.174.766-.85,1.345-2.088,2.392-2.649Z" transform="translate(-1816.597 -1432.197)" fill="#4d812e"/>
      <path id="Trazado_878839" data-name="Trazado 878839" d="M2.122,1118.028A2.517,2.517,0,0,0,0,1118.7v2.865c.49-.573,1.133-1.29,1.494-1.374.83-.193,2.568.681,2.891-.616.281-1.127-1.536-1.438-2.263-1.551" transform="translate(0.045 -1069.945)" fill="#4d812e"/>
      <path id="Trazado_878840" data-name="Trazado 878840" d="M0,1400.2v3.129c.469-.5,1.032-1.2,1.226-1.351.714-.542,2.377-.92,2.7-1.839.726-2.073-2.445-.8-3.926.061" transform="translate(0.045 -1338.908)" fill="#4d812e"/>
      <path id="Trazado_878841" data-name="Trazado 878841" d="M812.378,0H810.87c-.789,1.1.266,1.53,1.148,2.159.842.6,1.868,1.71,3.035,1.215C817.7,2.253,813.59.679,812.378,0" transform="translate(-775.745 0.046)" fill="#4d812e"/>
      <path id="Trazado_878842" data-name="Trazado 878842" d="M1.261,953.432A5.441,5.441,0,0,0,0,954.953v3.3A16.4,16.4,0,0,0,1.29,956.5c.544-.617,1.822-1.189,1.953-2.044.195-1.264-1.116-1.6-1.982-1.027" transform="translate(0.045 -912.191)" fill="#4d812e"/>
      <path id="Trazado_878843" data-name="Trazado 878843" d="M1953.215,122.247c-2.076-.878-3.44,5.76,0,4.426Z" transform="translate(-1867.3 -116.876)" fill="#4d812e"/>
      <path id="Trazado_878844" data-name="Trazado 878844" d="M2.394,285.96c-.208-1.084-1.2-1.048-1.876-.43a2.837,2.837,0,0,0-.518.875v3.353c.968-.887,2.5-3.248,2.394-3.8" transform="translate(0.045 -272.812)" fill="#4d812e"/>
      <path id="Trazado_878845" data-name="Trazado 878845" d="M684.455,0c-.6.89-2.506,3.665-.408,3.7,1.048.019,2.47-2.664,2.731-3.7Z" transform="translate(-653.713 0.046)" fill="#4d812e"/>
      <path id="Trazado_878846" data-name="Trazado 878846" d="M1484.1,0c-.533.709-3.044,2.268-1.116,2.809.882.248,3.257-1.836,3.447-2.809Z" transform="translate(-1418.583 0.046)" fill="#4d812e"/>
      <path id="Trazado_878847" data-name="Trazado 878847" d="M0,709.362V712.1l.9-.229c.542-.134,1.175-.1,1.162-.882C2.058,710.52.817,709.7,0,709.362" transform="translate(0.045 -678.86)" fill="#4d812e"/>
      <path id="Trazado_878848" data-name="Trazado 878848" d="M1516.971,1958.532c.2-.725.583-1.746-.645-1.859a4.051,4.051,0,0,0-2.354,1.859Z" transform="translate(-1448.925 -1872.617)" fill="#4d812e"/>
      <path id="Trazado_878849" data-name="Trazado 878849" d="M864.416,1950.144c.01-.865.031-2.329-1.169-2.232-1.1.089-1.08,1.395-.882,2.232Z" transform="translate(-825.193 -1864.228)" fill="#4d812e"/>
      <path id="Trazado_878850" data-name="Trazado 878850" d="M1966.412,0h-1.507a8.7,8.7,0,0,0,1.507,2.6Z" transform="translate(-1880.497 0.046)" fill="#4d812e"/>
      <path id="Trazado_878851" data-name="Trazado 878851" d="M0,0V1.5A10.609,10.609,0,0,0,1.574,0Z" transform="translate(0.045 0.046)" fill="#4d812e"/>
      <path id="Trazado_878852" data-name="Trazado 878852" d="M1635.822,1982.345c-.083-.646-1.941-1.4-2.383,0Z" transform="translate(-1563.262 -1896.43)" fill="#4d812e"/>
      <path id="Trazado_878853" data-name="Trazado 878853" d="M1623.088,0c.095,1.24,1.536,1,1.947,0Z" transform="translate(-1553.356 0.046)" fill="#4d812e"/>
      <path id="Trazado_878854" data-name="Trazado 878854" d="M461.23,1984.179c-.283-.909-2.072-.983-2.109,0Z" transform="translate(-439.363 -1898.263)" fill="#4d812e"/>
      <path id="Trazado_878855" data-name="Trazado 878855" d="M0,100.72v.5a1.732,1.732,0,0,0,0-.5" transform="translate(0.045 -96.35)" fill="#4d812e"/>
      <path id="Trazado_878856" data-name="Trazado 878856" d="M97.4,0c.216.582.67.663,1.458.427.231-.069.456-.17.494-.427Z" transform="translate(-93.171 0.046)" fill="#4d812e"/>
      <path id="Trazado_878857" data-name="Trazado 878857" d="M1975.924,1980.182v-.889a2.9,2.9,0,0,0-1.08.889Z" transform="translate(-1890.009 -1894.267)" fill="#4d812e"/>
      <path id="Trazado_878858" data-name="Trazado 878858" d="M1995.693,1160.114c-.181.079-.164.324-.184.476-.024.191-.015.426.184.519Z" transform="translate(-1909.778 -1110.259)" fill="#4d812e"/>
      <path id="Trazado_878859" data-name="Trazado 878859" d="M694.333,539.386c.794-.184,1.611,1,1.552,1.709-.082.975-1.207,1.4-1.888,1.9a21.887,21.887,0,0,0-2.047,1.877c-.936.89-1.988,1.5-2.984,2.3-1.2.969-1.977,2.594-2.947,3.8-1.3,1.619-2.6,3.159-3.985,4.714-5.419,6.1-12.346,10.852-17.472,17.2-2.584,3.2-6.037,5.7-8.684,8.864a8.412,8.412,0,0,1-1.634,1.887c-.876.556-1.821.352-1.7-.793.1-.943,1.266-1.8,1.892-2.419,1.026-1.01,2.057-2.016,3.077-3.033,6.634-6.616,12.877-13.638,19.805-19.966a57.47,57.47,0,0,0,4.459-4.28c.856-.964,1.724-1.915,2.554-2.9a20.064,20.064,0,0,0,1.648-2.852c1.009-1.658,3.071-3.013,4.671-4.036a5,5,0,0,0,2.177-2.153c.331-.746.384-1.928,1.5-1.82" transform="translate(-624.473 -516.163)" fill="#4d812e"/>
      <path id="Trazado_878860" data-name="Trazado 878860" d="M682.844,1686.487a5.891,5.891,0,0,0-.736-2.738,1.651,1.651,0,0,1,.178-1.952c.642-.994,2.15-3.29,3.265-3.751,1.514-.625,2.633,1.6,3.385,2.574a2.615,2.615,0,0,1-1.237,4.187c-2.56.7-.435-2.272-.393-2.935a1.154,1.154,0,0,0-1.251-1.334c-.82.082-1.374,1.064-1.6,1.746-.605,1.829,1.147,3.264.5,5.032-.192.527-.757,1.367-1.468,1.163-.822-.236-.647-1.381-.647-1.991" transform="translate(-652.549 -1605.85)" fill="#4d812e"/>
      <path id="Trazado_878861" data-name="Trazado 878861" d="M518.82,700.261c.046,1.008-2.053,2.188-2.7,2.824-1.277,1.25-2.542,2.505-3.836,3.737-1.234,1.175-2.423,2.388-3.755,3.455-.822.659-2.875,1.3-2.23-.592.326-.958,2.046-1.8,2.723-2.622a30.891,30.891,0,0,1,3.035-2.732c1.28-1.2,2.476-2.489,3.713-3.731.533-.535,3.016-2.273,3.053-.34" transform="translate(-484.395 -669.297)" fill="#4d812e"/>
      <path id="Trazado_878862" data-name="Trazado 878862" d="M1172.21,554.169a8.47,8.47,0,0,1,2.188.42,5.5,5.5,0,0,0,2.068-.2c1.169-.229,3.53.231,4.1-1.137.308-.733-.312-3.014,1.367-2.517,1.419.421,1.161,2.59.6,3.5a3.773,3.773,0,0,1-3.506,1.811c-1.343-.012-2.627.477-3.949.4a13.818,13.818,0,0,0-2.4-.231c-.566.063-1.415.575-1.964.175-1.278-.931.4-2.337,1.491-2.22" transform="translate(-1119.969 -526.972)" fill="#4d812e"/>
      <path id="Trazado_878863" data-name="Trazado 878863" d="M1188.36,917.542c-.173-1,2.071-2.223,2.715-2.837,1.042-.993,2.1-1.964,3.134-2.971.674-.659,4.63-5.8,5.3-3.039.305,1.253-1.664,2.106-2.382,2.841-.984,1.008-1.99,1.942-2.994,2.939-1.067,1.059-2.112,2.131-3.15,3.215-.7.728-2.6,1.73-2.624-.148" transform="translate(-1137.283 -868.861)" fill="#4d812e"/>
      <path id="Trazado_878864" data-name="Trazado 878864" d="M1505.847,346.222c-.511,1.221-.155,2.326-1.176,3.426-.821.884-2.167,1.093-2.924,1.98-.67.785-.384,2-1.044,2.753-1.115,1.272-1.87-.167-1.771-1.31a4.916,4.916,0,0,1,1.7-3.128c.824-.73,2.388-1.114,2.826-2.161.449-1.072-.7-2.235.288-3.151,1.192-1.11,2.1.484,2.1,1.592" transform="translate(-1434.521 -329.429)" fill="#4d812e"/>
      <path id="Trazado_878865" data-name="Trazado 878865" d="M1737.633,50.929c-.2-1.845,4.172-3.507,5.327-4.2,1-.6.971-1.459,1.463-2.383.537-1.01,1.978-1.572,2.322-.068.188.822-.908,2.635-1.37,3.279-.62.867-1.278.924-2.238,1.193a6.8,6.8,0,0,0-2.877,1.843c-.472.446-2.652,2.3-2.627.336" transform="translate(-1662.976 -41.448)" fill="#4d812e"/>
      <path id="Trazado_878866" data-name="Trazado 878866" d="M1703.862,331.973a6.944,6.944,0,0,1-3.908-1.66c-.738-1,.111-1.93,1.236-1.765s1.733,1.579,2.948,1.442c1.454-.164,1.048-1.348.24-1.97-.62-.477-1.934-1.182-.742-1.981,1-.668,2.422.468,3.041,1.2,1.522,1.8-.6,4.816-2.814,4.733" transform="translate(-1626.657 -311.801)" fill="#4d812e"/>
      <path id="Trazado_878867" data-name="Trazado 878867" d="M1519.794,650.779c.084,1.047-1.3,1.558-1.957,2.145-.718.638-1.3,1.395-2.013,2.043-.786.719-3.649,4-4.25,1.055-.193-.946.652-1.368,1.334-1.735a7.864,7.864,0,0,0,2.208-1.629,16.351,16.351,0,0,1,2.5-2.686c.771-.517,2.295-.494,2.182.808" transform="translate(-1446.603 -621.718)" fill="#4d812e"/>
      <path id="Trazado_878868" data-name="Trazado 878868" d="M1246.676,525.248c-1.76,0-1.135-1.588-.158-2.15.7-.4,2.755-1.523,3.6-1.214a1.366,1.366,0,0,1,.359,2.42c-.5.341-1.087.209-1.641.317a19.228,19.228,0,0,1-2.157.626" transform="translate(-1192.04 -499.381)" fill="#4d812e"/>
      <path id="Trazado_878869" data-name="Trazado 878869" d="M1802.775,210.082c.4,1.206-4.626,4.349-4.876,1.981-.119-1.127,4.9-4.263,4.876-1.981" transform="translate(-1720.659 -200.239)" fill="#4d812e"/>
      <path id="Trazado_878870" data-name="Trazado 878870" d="M1371.937,442.982c-.845.019-2.682-.18-3.127-1.039-.475-.917.422-1.777,1.289-1.9,1.8-.26,4.742,2.4,1.838,2.941" transform="translate(-1309.869 -421.085)" fill="#4d812e"/>
      <path id="Trazado_878871" data-name="Trazado 878871" d="M1894.791,264.58c.107,1.137-3.8,4.271-4.086,2.007-.179-1.423,4.066-4.122,4.086-2.007" transform="translate(-1809.478 -252.427)" fill="#4d812e"/>
      <path id="Trazado_878872" data-name="Trazado 878872" d="M975.489,1295.221c-.2,1.587-3.683,3.691-3.531,1.219.091-1.489,3.562-3.49,3.531-1.219" transform="translate(-930.177 -1238.584)" fill="#4d812e"/>
      <path id="Trazado_878873" data-name="Trazado 878873" d="M1669.082,481.19c-1.724-.162-3.385-2.832-.834-2.788,1.964.034,3.527,2.489.834,2.788" transform="translate(-1595.321 -457.816)" fill="#4d812e"/>
      <path id="Trazado_878874" data-name="Trazado 878874" d="M1681.819,274.617c-2.314,0-.99-3.053.572-3.294,2.252-.347,1.209,3.594-.572,3.294" transform="translate(-1608.37 -259.607)" fill="#4d812e"/>
      <path id="Trazado_878875" data-name="Trazado 878875" d="M1452.678,834.607c-1.644,0-2.252-2.73-.422-2.818,1.623-.078,2.209,2.552.422,2.818" transform="translate(-1388.787 -796.029)" fill="#4d812e"/>
      <path id="Trazado_878876" data-name="Trazado 878876" d="M1125.029,1167.848c0,1.949-3.041.953-2.683-.633s2.974-.755,2.683.633" transform="translate(-1074.085 -1116.229)" fill="#4d812e"/>
      <path id="Trazado_878877" data-name="Trazado 878877" d="M1063.635,1232.3c.307,1.592-2.742,1.377-2.517-.418.214-1.707,2.935-.849,2.517.418" transform="translate(-1015.502 -1178.033)" fill="#4d812e"/>
      <path id="Trazado_878878" data-name="Trazado 878878" d="M1489.254,101.44c.009,1.275-1.94,1.745-2.216.314-.3-1.56,2.2-1.928,2.216-.314" transform="translate(-1423.123 -96.037)" fill="#4d812e"/>
      <path id="Trazado_878879" data-name="Trazado 878879" d="M1419.727,91.211c-1.128-.021-.862-1.737.169-1.721a.867.867,0,1,1-.169,1.721" transform="translate(-1358.025 -85.602)" fill="#4d812e"/>
      <path id="Trazado_878880" data-name="Trazado 878880" d="M63.36,324.581c-.862-.048-4.294-.679-2.5-2.154.856-.7,4.156.915,3.527-1.413-.217-.805-1.4-1.441-1.851-2.189a3.234,3.234,0,0,1-.551-2.542c.583-1.763,3.039-3.292,4.389-4.43,1.567-1.321,2.509-3.132,3.991-4.53,1.265-1.194,3.484-1.365,4.231-2.95.764-1.62.774-2.826,2.138-4.158a8.507,8.507,0,0,1,2.289-1.782c1-.469,2.206-.417,3.145-.986,1.34-.812,1.977-2.974,3.18-4.11,1.162-1.1,2.43-3.206,4.145-3.334.8-.059,3.478.268,3.428,1.474-.049,1.175-1.355.819-2.034.74a2.353,2.353,0,0,0-2.415.754c-1.106,1.114-2.744,2.388-3.393,3.833-.826,1.838-1.436,2.649-3.6,2.976a5.325,5.325,0,0,0-4.314,2.918c-.891,1.916-.855,4.349-3.233,5.02a5.661,5.661,0,0,0-2.4.987c-.939.816-1.43,2.116-2.221,3.067-1.377,1.656-3.6,2.589-4.8,4.368-1.441,2.153,1.274,2.8,2.089,4.372.725,1.393-1.707,4.293-3.249,4.067" transform="translate(-57.711 -277.499)" fill="#4d812e"/>
      <path id="Trazado_878881" data-name="Trazado 878881" d="M455.446,534.119a3.634,3.634,0,0,0,3.532-1.315c1.1-1.185.891-2.626,1.707-3.88.86-1.322,2.268-1.268,3.666-.964.648.141,1.55.25,1.694,1.024.158.85-.606,1.056-1.307,1.051-1.506-.009-2.216-.516-2.879,1.162a8.22,8.22,0,0,1-2.416,3.627c-1.22,1.042-2.919,1.961-4.576,1.435-1.683-.534-1.02-2.14.579-2.14" transform="translate(-434.35 -505.075)" fill="#4d812e"/>
      <path id="Trazado_878882" data-name="Trazado 878882" d="M115.105,271.113c-1.71.147-.993-1.726-.375-2.437.907-1.044,1.748-2.158,2.669-3.188,1.174-1.313,3.733-6.42,6.143-4.456a1.222,1.222,0,0,1-.431,2.27c-.71.226-1.255-.127-1.9.392-.443.355-.538,1.006-.8,1.477-.7,1.257-1.847,2.094-2.692,3.247-.471.643-1.519,2.988-2.611,2.694" transform="translate(-109.099 -249.354)" fill="#4d812e"/>
      <path id="Trazado_878883" data-name="Trazado 878883" d="M749.441,351.8c-.826.022-4.362-.7-3.1-2.219.614-.743,1.638.061,2.316.15,1.053.138,1.323-.367,1.95-1.114,1.18-1.407,2.739-.951,1.839.948a3.245,3.245,0,0,1-3,2.235" transform="translate(-713.992 -332.817)" fill="#4d812e"/>
      <path id="Trazado_878884" data-name="Trazado 878884" d="M423.3,150.982c-1.205.139-2.633-2.162-3.428-2.88-.641-.579-2.563-2.815-.365-2.938,1.15-.064,2.27,2.2,3.067,2.83.614.488,1.785,1,1.774,1.945a1,1,0,0,1-1.049,1.043" transform="translate(-400.474 -138.885)" fill="#4d812e"/>
      <path id="Trazado_878885" data-name="Trazado 878885" d="M500.745,101.506c.959-.154,2.367,1.863,3.09,2.4.763.57,2.036,2.44.172,2.647-1.076.12-2.1-1.754-2.885-2.343-.808-.609-2.5-2.589-.377-2.707" transform="translate(-478.216 -97.094)" fill="#4d812e"/>
      <path id="Trazado_878886" data-name="Trazado 878886" d="M571.27,52.493A4.727,4.727,0,0,1,574,54.323c.641,1.026.091,2.064-1.145,1.6-.888-.332-4.426-3.432-1.59-3.432" transform="translate(-545.663 -50.193)" fill="#4d812e"/>
      <path id="Trazado_878887" data-name="Trazado 878887" d="M842.239,232c-2.166,0-.031-3.406,1.287-3.288,1.872.168.063,3.287-1.287,3.288" transform="translate(-805.145 -218.846)" fill="#4d812e"/>
      <path id="Trazado_878888" data-name="Trazado 878888" d="M682.5,440.341c-1.838.1-2.817-2.35-.672-2.517,1.657-.129,2.917,2.517.672,2.517" transform="translate(-651.342 -418.976)" fill="#4d812e"/>
      <path id="Trazado_878889" data-name="Trazado 878889" d="M489.832,566.538c-.365-1.207,2.887-3.316,3.012-1.273.081,1.328-3.017,3.342-3.012,1.273" transform="translate(-468.729 -540.132)" fill="#4d812e"/>
      <path id="Trazado_878890" data-name="Trazado 878890" d="M1069.951,25.792c.293,1.22-2.079,2.139-2.12.461-.029-1.178,2.112-1.979,2.12-.461" transform="translate(-1021.938 -23.841)" fill="#4d812e"/>
      <path id="Trazado_878891" data-name="Trazado 878891" d="M1554.633,968.995c-.122-1.173,2.668-2.9,3.456-3.678,1.463-1.438,3.28-2.2,4.785-3.56a21.744,21.744,0,0,0,3.43-4.54c.388-.58,2.8-3.579,3.131-1.471.12.771-.871,1.476-1.294,1.968a7.052,7.052,0,0,0-1.223,2.419,9.1,9.1,0,0,1-3.69,4.28c-.843.448-1.816.517-2.649,1.032a13.706,13.706,0,0,0-2.324,2.1c-.361.359-3.642,3.735-3.622,1.452" transform="translate(-1487.836 -913.956)" fill="#4d812e"/>
      <path id="Trazado_878892" data-name="Trazado 878892" d="M1608.493,1613.962c.234,1.345-3.63,8.029-4.994,5.468-.62-1.164,1.383-2.2,1.943-2.967,1.223-1.684.54-2.833.645-4.66.088-1.531,1.323-2.412.313-3.9-.473-.7-1.6-2.683.342-2.547,1.334.093,2.416,2.939,2.17,3.973a15.881,15.881,0,0,0-.685,2.019,16.576,16.576,0,0,0,.267,2.617" transform="translate(-1534.495 -1536.374)" fill="#4d812e"/>
      <path id="Trazado_878893" data-name="Trazado 878893" d="M1343.685,1781.194c-.082-1.523,3.15-3.55,4.172-4.468.464-.417,3.907-3.945,3.838-1.335-.036,1.361-3.063,3.028-3.968,3.908-.357.348-4.072,4.5-4.042,1.9" transform="translate(-1285.947 -1698.206)" fill="#4d812e"/>
      <path id="Trazado_878894" data-name="Trazado 878894" d="M1579.222,1227.575c.118,1.179-2.989,3.4-3.815,4.094-.479.4-3.83,3.648-3.4,1.019.223-1.361,2.851-2.6,3.787-3.526.275-.272,3.389-3.819,3.426-1.587" transform="translate(-1504.433 -1174.121)" fill="#4d812e"/>
      <path id="Trazado_878895" data-name="Trazado 878895" d="M1343.535,1482.021c-2.052,0,.421-2.3.848-2.67,1.08-.951,2.28-3.139,3.67-3.624,2-.7.7,1.593.04,2.266-.678.694-1.378,1.368-2.066,2.053-.518.515-1.626,2.1-2.492,1.976" transform="translate(-1285.036 -1412.196)" fill="#4d812e"/>
      <path id="Trazado_878896" data-name="Trazado 878896" d="M1763.935,1655.34c.212.862-2.349,2.267-2.876,2.9-.561.673-1.9,2.114-2.315.442-.306-1.242,1.315-2.513,2.173-3.1.608-.413,3.031-2.079,3.018-.246" transform="translate(-1683.15 -1583.416)" fill="#4d812e"/>
      <path id="Trazado_878897" data-name="Trazado 878897" d="M1285.261,1640.17c-1.19,0-.8-1.709.156-1.812,1.378-.148,1.076,1.814-.156,1.812" transform="translate(-1229.326 -1567.962)" fill="#4d812e"/>
      <path id="Trazado_878898" data-name="Trazado 878898" d="M64.627,225.57c-.005,1.591-2.723,1.648-2.53.029.156-1.3,2.535-1.51,2.53-.029" transform="translate(-59.377 -214.853)" fill="#4d812e"/>
    </g>
  </g>
</svg>
