<svg xmlns="http://www.w3.org/2000/svg" xmlns:xlink="http://www.w3.org/1999/xlink" width="70.996" height="70.996" viewBox="0 0 70.996 70.996">
  <defs>
    <clipPath id="clip-path">
      <rect id="Rectángulo_402680" data-name="Rectángulo 402680" width="33.86" height="37.414" fill="#f1f9f9"/>
    </clipPath>
  </defs>
  <g id="Grupo_1100549" data-name="Grupo 1100549" transform="translate(-192.929 -5812.397)">
    <g id="Grupo_1099737" data-name="Grupo 1099737" transform="translate(192.929 5812.397)">
      <g id="Grupo_1099728" data-name="Grupo 1099728">
        <rect id="Rectángulo_400898" data-name="Rectángulo 400898" width="63.186" height="63.186" rx="31.593" transform="translate(4.26 4.26)" fill="#437375" opacity="0.859"/>
        <g id="Rectángulo_400907" data-name="Rectángulo 400907" fill="none" stroke="#558284" stroke-linecap="round" stroke-width="2" stroke-dasharray="7">
          <rect width="70.996" height="70.996" rx="35.498" stroke="none"/>
          <rect x="1" y="1" width="68.996" height="68.996" rx="34.498" fill="none"/>
        </g>
      </g>
    </g>
    <g id="Grupo_1100536" data-name="Grupo 1100536" transform="translate(211.497 5829.298)">
      <g id="Grupo_1100535" data-name="Grupo 1100535" clip-path="url(#clip-path)">
        <path id="Trazado_882362" data-name="Trazado 882362" d="M28.749,32.749c.567.4,1.137.8,1.7,1.207a1.872,1.872,0,0,1,.836,2.4,1.807,1.807,0,0,1-2.331.953c-2.295-.543-4.6-1.045-6.879-1.646a19.778,19.778,0,0,0-10.343.015c-2.3.615-4.634,1.115-6.954,1.663a1.785,1.785,0,0,1-2.2-.964,1.815,1.815,0,0,1,.631-2.271c.316-.248.653-.469.98-.7a4.141,4.141,0,0,0,.888-.783c-1.012,0-2.024-.02-3.035.007a1.777,1.777,0,0,1-1.863-.849,1.822,1.822,0,0,1,.36-2.02c.713-1.034,1.379-2.1,2.1-3.128a5.353,5.353,0,0,0,.991-3.251c-.024-1.406.032-2.814-.02-4.219a1.341,1.341,0,0,1,.985-1.5,23.821,23.821,0,0,1,3.714-.894c2.212-.277,4.445-.393,6.779-.585v-.823c0-1.808.02-3.617-.018-5.425a1.943,1.943,0,0,0-.393-.98,4.018,4.018,0,0,0-3.856-1.7A5.3,5.3,0,0,1,5.436,1.925C5.417-.122,5.294-.021,7.345.011a19.176,19.176,0,0,1,3,.153A5.292,5.292,0,0,1,14.43,3.288a12.038,12.038,0,0,0,2.488,3.071c.782-.9,1.766-1.5,2.143-2.746A5.268,5.268,0,0,1,24.112.008q1.7-.016,3.394,0c.733.006.892.17.917.875a5.925,5.925,0,0,1-6.185,6.367c-1.765-.076-2.4,1.181-3.4,2.071-.072.064-.066.237-.066.359,0,2.159,0,4.318,0,6.56,1.193.066,2.367.08,3.528.208,1.893.209,3.781.47,5.664.757a5.919,5.919,0,0,1,1.414.5,1.358,1.358,0,0,1,.87,1.429c-.041,1.481-.008,2.963-.014,4.445a4.926,4.926,0,0,0,.85,2.838c.8,1.187,1.583,2.385,2.386,3.569a1.6,1.6,0,0,1-1.4,2.639c-1.08-.021-2.161-.006-3.241-.006l-.076.128m-16.616-11.6c0,1.96.006,3.891,0,5.821a9.878,9.878,0,0,1-.1,1.347,7.6,7.6,0,0,1-2.066,3.777c-.326.385-.641,1.02-1.255.535s-.092-.975.252-1.328a6.807,6.807,0,0,0,1.921-5.5c-.1-1.571-.02-3.154-.02-4.719l-5.971-.969c0,1.079-.027,2.228.007,3.375A6.21,6.21,0,0,1,3.737,27.3c-.715,1.032-1.4,2.085-2.09,3.132-.145.22-.266.456-.477.823H6.037c0-.285,0-.557,0-.83,0-1.632-.016-3.265.018-4.9a1.153,1.153,0,0,1,.39-.728.612.612,0,0,1,.6.087,1.227,1.227,0,0,1,.254.738c.019,2.034.008,4.068.011,6.1a1.981,1.981,0,0,1-.925,1.711c-.741.518-1.5,1.019-2.205,1.578a1.021,1.021,0,0,0-.405.764c.091.447.5.356.863.267,2.267-.549,4.549-1.04,6.805-1.631a20.047,20.047,0,0,1,10.126-.2c2.579.646,5.171,1.242,7.765,1.828.226.051.508-.142.763-.222-.1-.252-.139-.575-.32-.741a5.92,5.92,0,0,0-1.282-.921,3.426,3.426,0,0,1-1.972-3.753c.143-1.62.033-3.262.031-4.895,0-.429.144-.767.619-.777s.646.312.648.747q0,.527,0,1.055c0,1.575,0,3.151,0,4.711A14.06,14.06,0,0,0,32.6,31.1c-.12-.211-.229-.43-.363-.632-.61-.921-1.192-1.863-1.848-2.75A6.96,6.96,0,0,1,28.954,23c.061-.985.011-1.977.011-2.888l-5.971.971c0,1.969.007,3.925,0,5.881a5.221,5.221,0,0,0,1.224,3.473,9.211,9.211,0,0,1,1.007,1.311.944.944,0,0,1-.054.851c-.253.328-.641.235-.909-.073-.379-.435-.734-.892-1.1-1.342a6.3,6.3,0,0,1-1.445-4.176c.027-1.733.006-3.466.006-5.2v-.653H17.563v.9q0,2.9,0,5.8c0,.5.1,1.128-.649,1.111s-.614-.657-.615-1.145c-.006-1.934,0-3.868,0-5.8v-.88Zm-6.8-2.492c3.33,1.625,19.93,1.62,23.2,0a44.067,44.067,0,0,0-9.756-1.077c0,.351.006.62,0,.888-.02.71-.185.877-.9.893-.377.009-.754,0-1.131,0-1.725.024-1.65,0-1.671-1.576,0-.043-.04-.086-.1-.2a43.324,43.324,0,0,0-9.639,1.076M18.6,6.447c-.355.38-.637.7-.94,1-.628.622-.821.629-1.428.022-.317-.317-.595-.675-.939-1.07l-.425.982c.243.22.47.46.73.654a2.014,2.014,0,0,1,.779,1.832c-.044,2.461-.016,4.922-.016,7.384v.8H17.5V17.21c0-2.135.072-4.273-.026-6.4a3.392,3.392,0,0,1,1.353-3.332.66.66,0,0,0,.129-.178l-.36-.85m7.08-5.1C22.4.935,20.083,2.586,20.039,5.375l5.637-4.023M6.766,1.933C6.812,4.723,9.142,6.38,12.4,5.954L6.766,1.933M13.725,5.24a4.672,4.672,0,0,0-5.49-3.85C9.972,2.631,11.684,3.856,13.4,5.077a2.665,2.665,0,0,0,.327.163m7.679.75c3.016.2,5.563-1.641,5.542-3.952L21.4,5.99" transform="translate(0 0.001)" fill="#f1f9f9"/>
        <path id="Trazado_882363" data-name="Trazado 882363" d="M205.721,375.528a2.365,2.365,0,0,1,.024-.885,1,1,0,0,1,.639-.548c.168-.022.532.323.557.533a8.255,8.255,0,0,1,0,1.934.79.79,0,0,1-.588.505.836.836,0,0,1-.6-.5,3.475,3.475,0,0,1-.026-1.036h-.005" transform="translate(-189.416 -344.497)" fill="#f1f9f9"/>
      </g>
    </g>
  </g>
</svg>
