<svg id="Grupo_1099643" data-name="Grupo 1099643" xmlns="http://www.w3.org/2000/svg" xmlns:xlink="http://www.w3.org/1999/xlink" width="111.774" height="111.774" viewBox="0 0 111.774 111.774">
  <defs>
    <clipPath id="clip-path">
      <rect id="Rectángulo_401368" data-name="Rectángulo 401368" width="111.774" height="111.774" fill="#4d812e"/>
    </clipPath>
  </defs>
  <g id="Grupo_1099442" data-name="Grupo 1099442" transform="translate(0 0)" clip-path="url(#clip-path)">
    <path id="Trazado_878804" data-name="Trazado 878804" d="M891.217,480.422c-1.932.2-3.318,2.254-4.416,3.592-1.563,1.9-3.615,3.346-5.356,5.084-3.8,3.8-7.632,7.535-11.532,11.232-7.612,7.218-14.593,15.107-22.3,22.155-1.876,1.715-3.749,3.487-5.5,5.329-.968,1.019-2.759,4.9-4.637,4.165-3.311-1.29,5.62-8.751,6.734-9.846,1.749-1.72,3.851-3.095,5.47-4.939,1.737-1.978,3.418-3.922,5.282-5.8,3.816-3.834,7.7-7.584,11.489-11.442,4.092-4.162,8.454-8.118,12.642-12.192,2.08-2.023,4.282-3.945,6.25-6.075a37.293,37.293,0,0,1,5.875-4.717v-3.907c-.841.473-3.024,3.077-3.58,3.513a40.281,40.281,0,0,0-4.858,4.106c-2.816,3.007-5.895,5.832-8.873,8.662-5.944,5.648-11.535,11.51-17.461,17.2a96.788,96.788,0,0,0-8.278,8.5c-1.98,2.437-4.687,4.355-6.954,6.548-1.061,1.026-1.9,2.163-3.044,3.1A11.9,11.9,0,0,0,835.3,528a9.089,9.089,0,0,1-3.107,3.046c-1.219.9-1.742,2.278-2.881,3.235-1.181.992-3.471,1.672-3.647,3.5-.137,1.425,1.865,3.231,2.685,4.248.771.955,2,2.2,3.2.926,1.36-1.448-.571-2.324-1.581-3.005-1.12-.755-2.152-2.8-.1-3.186,1.384-.262,2.253,1.528,3.194,2.213,1.052.765,3.988.855,4.2-1.079.221-2.056-3.04-1.265-4.066-1.983a1.611,1.611,0,0,1,.948-2.94c1.508-.125,2.343,1.514,3.705,1.749,2.814.484,5.517-4.478,7.219-6.2,2.5-2.534,5.077-5.064,7.754-7.417,2.511-2.208,4.6-4.9,6.988-7.254,5.865-5.779,11.95-11.364,17.719-17.232,1.448-1.472,3.15-2.67,4.575-4.141a42.086,42.086,0,0,1,2.938-3.374c1.224-1.027,2.572-1.567,3.5-2.932.758-1.11,1.309-2.5,2.682-2.948Z" transform="translate(-779.503 -446.598)" fill="#4d812e"/>
    <path id="Trazado_878805" data-name="Trazado 878805" d="M72.3,0a53.544,53.544,0,0,0-3.2,4.673,21.6,21.6,0,0,1-3.327,4.416c-1.118,1.168-2.09,2.581-3.575,3.3-1.553.753-3.058.973-3.888,2.7-.706,1.473.052,3.385-.923,4.7s-2.882.965-4.192,1.757c-1.7,1.029-1.714,2.529-2.1,4.238-.363,1.627-1.1,1.644-2.655,1.386-2.392-.4-5.845.594-5.084,3.834.258,1.1,1.989,1.786,1.782,2.941-.274,1.532-2.206.774-3.18.685-3.84-.349-4.25,2.188-6.476,4.565-2.2,2.349-5.06,4.808-8.395,3.854-1.9-.544-7.791-2.791-8.5.61-.38,1.816,1.457,1.557,2.588,1.333a11.087,11.087,0,0,1,4.9.008c1.414.424,1.994,1.709.648,2.71-1.263.94-2.42.027-3.743-.163-1.395-.2-2.692.727-4.019.327-1.032-.312-2.3-2.073-3.34-.753-.945,1.2.738,2.867,1.54,3.608,1.25,1.154,1.982.675,3.293-.133,2.977-1.833,4.466,1.574,1.222,2.682-1.228.42-2.013,1.243-3.132,1.714-1.515.637-1.994-.455-2.7-1.634-.6-1.009-1.592-3.3-2.93-3.429-1.464-.137-1.855,1.392-1.283,2.409.834,1.48,2.716,2.425,3.388,4.009.715,1.687-.436,2.253-1.555,3.159-1.189.962-1.97,2.272-3.184,3.2A7.545,7.545,0,0,0,7.713,65.4c-.69,1.409-.911,2.091-2.608,2.383-1.136.2-2.323.012-3.148.993C.305,70.739,3.047,73.966,0,73.661v2.777a14.019,14.019,0,0,1,3.725-.976c1.457.022,2.829,1.678,4.294.963,1.32-.644,1.026-2.189-.224-2.743s-3.556.227-3.943-1.744c-.849-4.322,6.124.468,6.985.394,2.9-.248,4.809-4.288,3.754-6.676-.7-1.582-1.472-2.553.037-3.969.787-.738,1.782-1.176,2.519-2,1.5-1.689,3.757-4.906,6.512-3.9,1.016.37,2.291,2.615,3.6,1.754,1.432-.944-.212-2.111-.792-2.752-2.239-2.473.047-3.882,1.9-5.558,1.065-.964,1.465-2.255,2.4-3.285s2.318-1.5,3.4-2.322c2.242-1.707,3.675-4.4,5.922-6.013,2.482-1.781,5.441.461,7.971-1.429.629-.47,1.7-1.381,1.564-2.265-.209-1.355-1.805-1.04-2.706-1.591-.935-.572-1.449-2-.366-2.706s2.957.123,3.762.87,1.6,2.537,3.053,1.549c1.183-.807.309-2.13.052-3.109-.789-3,.386-5.792,3.633-6.043,1.665-.129,2.179-.18,2.82-1.856.557-1.455.431-2.978.858-4.424.287-.972,1.156-2.177,2.354-1.453.953.576.539,2.067,1.539,2.658a1.369,1.369,0,0,0,2.152-1.24c.017-1.167-1.41-1.9-1.312-3.136.115-1.449,2.023-2.895,2.945-3.854A19.432,19.432,0,0,0,70.838,6.55c.4-.628,3.957-5.569,4.6-6.55ZM9.059,67.748c.24-2.066,3.713-3.73,3.421-.711.446,2.479-3.77,3.711-3.421.711" transform="translate(0.059 0.06)" fill="#4d812e"/>
    <path id="Trazado_878806" data-name="Trazado 878806" d="M81.718,162.416c-.369-1.371-1.949-1.039-2.791-.517-2.095,1.3-3.627,3.848-5.391,5.548-1.611,1.552-3.674,2.162-4.953,4.006-.481.693-.775,1.788-1.754,1.971-1.158.216-1.706-.945-2.724-1.095-2.208-.324-2.4,3.752-2.6,5.276-.219,1.733-1.445,4.322-2.88,1.766-.465-.827-.515-2.139-1.9-1.655-1.039.363-.972,1.536-.776,2.376.5,2.135,1.534,4.257-.554,6.051-.946.813-2.289.81-3.247,1.59-.828.674-1.107,1.7-1.805,2.476s-1.676,1.219-2.377,2.008c-.726.816-1.11,1.852-1.755,2.727a49.876,49.876,0,0,1-5.309,5.594c-1.719,1.673-3.43,3.528-5.273,5.057-1.862,1.545-4.478,2.408-5.7,4.595s-1.742,3.881-4.417,2.147c-1.023-.663-5.1-2.847-5.058.065.037,2.37,3.423.725,4.378,2.147,1.186,1.767-1.65,2.806-3.046,2.25-1.514-.6-3.2-3.389-4.879-1.288a1.569,1.569,0,0,0,.739,2.592c.756.241,1.662-.373,2.411.067,2.461,1.446-1.38,2.632-2.229,3.16-1.006.625-1.266,1.767-1.912,2.68a10.315,10.315,0,0,1-2.224,2.118c-1.724,1.354-2.575,3.24-4.185,4.628-1.858,1.6-3.417,3.507-5.214,5.191-1.4,1.314-2.725,3.025-4.294,4.226v3.451c2.8-2.059,11.266-10.969,12.2-11.992,3.578-3.929,7.283-7.653,11.094-11.34a34.071,34.071,0,0,1,5.937-4.9c2.292-1.365,2.413-4.137,4.573-5.689,1.039-.746,2.28-1.161,3.316-1.885a33.555,33.555,0,0,0,2.754-2.74c2.2-1.958,4-4.056,6.078-6.137,1.7-1.7,3.242-3.582,4.9-5.335,1.321-1.4,2.189-3.623,3.976-4.436,2.379-1.082,3.182-.67,3.787-3.556.55-2.624,2.045-2.525,3.868-4.046a4.4,4.4,0,0,0,1.59-3.03c.089-.782-.21-1.712.387-2.345,1.361-1.442,3.6.45,5.113-1.27.912-1.034,1.085-2.221,2.211-3.127.866-.7,1.923-1.092,2.783-1.819,1.857-1.571,3.29-3.6,5.171-5.161.684-.57,2.28-1.291,1.981-2.4" transform="translate(0.059 -152.374)" fill="#4d812e"/>
    <path id="Trazado_878807" data-name="Trazado 878807" d="M711.435,794.586c-.011-.453-.406-1.186-.4-1.551a3.529,3.529,0,0,1,1.1-2.331c1.2-1.236,3.017-1.264,4.187-2.507a21.611,21.611,0,0,0,1.442-2.381,20.655,20.655,0,0,1,2.333-2.478,21.889,21.889,0,0,1,4.6-3.813c3.631-2.07,5.482-6.323,8.292-9.335a109.147,109.147,0,0,1,10.459-10.238,42.941,42.941,0,0,0,3.952-4.3c1.289-1.356,2.717-2.58,4.005-3.949,3.09-3.287,6.625-5.892,9.971-8.873,2.919-2.6,4.705-7.422,8.582-8.739a8.02,8.02,0,0,0,2.231-.686c.859-.613.957-1.628,1.4-2.491.88-1.714,2.337-2.107,3.7-3.179v-4.424c-.653.465-1.924,2.485-2.5,2.87a11.71,11.71,0,0,0-3.65,3.518c-1.153,1.69-2.85,2.223-4.384,3.5a46.369,46.369,0,0,0-4.5,4.745c-2.505,2.773-5.454,5.125-8.109,7.757-2.684,2.662-5.424,5.245-8.16,7.844-1.239,1.176-2.148,2.628-3.381,3.81-1.264,1.212-2.567,2.368-3.811,3.6-2.83,2.812-5.673,5.611-8.429,8.495a34.984,34.984,0,0,0-3.906,4.406c-.864,1.283-1.362,2.522-2.707,3.414a30.927,30.927,0,0,0-7.227,5.9c-.932,1.156-1.245,2.633-2.48,3.564-1.1.829-2.493.917-3.483,1.94-1.159,1.2-1.217,2.763-2.779,3.621-1.087.6-2.58.881-2.792,2.284Z" transform="translate(-665.575 -682.871)" fill="#4d812e"/>
    <path id="Trazado_878808" data-name="Trazado 878808" d="M775.037,0c-.865,1.54-2.38,3.793-4.351,3.782-1.41-.008-3.467-1.446-3.315,1.111.056.951.686,1.7.488,2.712a4.23,4.23,0,0,1-1.525,2.287c-1.777,1.486-3.621,2.54-5.306,4.217-1.645,1.636-3.108,3.52-4.791,5.1-1.393,1.3-3.119,1.942-4.222,3.574-1.18,1.745-1.718,2.452-3.814,3.042-2.194.617-2.168,1.881-3.2,3.635-.955,1.62-2.676,2.2-3.87,3.568s-1.066,2.67-1.039,4.363c.035,2.175-.976,1.874-2.729,1.61s-2.526.441-3.33,1.907a9.46,9.46,0,0,1-3.367,3.5c-1.317,1-1.979,2.569-3.145,3.738a38.554,38.554,0,0,0-2.96,3.975c-1.027,1.3-2.831,1.574-4,2.752-1.607,1.613-.665,2.864.162,4.638.425.912,1.35,3.1,2.668,1.694,1.236-1.317-1.2-3.167-.585-4.67.977-2.391,3.388-.723,5.064-1.08,2.19-.466.416-1.842-.108-2.846-.646-1.237.171-2.51,1.633-2.048,1.059.335,1.814,2.079,3.128,1.079,1.762-1.342-.811-2.169-1.307-3.078-.975-1.786,1-2.961,2.353-1.687.648.609,1.49,2.415,2.443.78s-1.514-3.491-.051-5.136c1.282-1.442,3.08-.5,4.649-.538,4.457-.113.776-4.668,2.434-7.137.936-1.394,2.7-1.741,3.632-3.222s1.023-2.732,2.742-3.507c1.746-.788,3.054-.728,4.082-2.542a7.287,7.287,0,0,1,3.2-3.314c1.6-.959,2.411-2.514,3.648-3.844,1.187-1.277,2.441-2.578,3.679-3.8,1.284-1.271,3.056-1.9,4.312-3.183,1.173-1.2,1.275-2.734,2.117-4.092.982-1.583,3.075-2.233,4.421-3.52.59-.565,3.16-2.775,3.217-3.813Z" transform="translate(-679.442 0.06)" fill="#4d812e"/>
    <path id="Trazado_878809" data-name="Trazado 878809" d="M69.239,718.74c-1.509-.247-2.861,1.183-3.657,2.221-.944,1.232-1.647,2.243-3.352,2.247-1.127,0-2.4-.66-3.1.575-.6,1.061.122,2.394-.539,3.633a18.155,18.155,0,0,1-3.308,3.72c-1.044,1.024-2.557,1.636-3.393,2.851-.716,1.041-.832,2.664-2.323,2.84-1.425.168-3.235-1.493-3.111,1.07.071,1.461.646,2.17-.514,3.421-1.116,1.2-2.646,2.142-3.824,3.339-1.093,1.111-2.347,1.53-3.614,2.373-1.51,1.006-1.744,2.449-2.511,3.975a16.406,16.406,0,0,1-2.895,3.783c-5.612,5.947-11.528,11.636-17.275,17.455-5.24,5.306-10.4,10.783-15.824,15.9v2.1H1.229a40.4,40.4,0,0,1,4.254-4.288c1.536-1.546,3.022-3.139,4.552-4.69,3-3.043,6.111-5.979,9.068-9.066,5.647-5.893,12.02-11.265,17.2-17.58,1.065-1.3,1.75-2.779,2.748-4.1.956-1.267,2.322-1.906,3.5-2.926,1.478-1.28,3.06-2.618,4.467-3.964,1.158-1.108,1.656-2.712,2.825-3.795a30.52,30.52,0,0,0,3.773-3.544,31.514,31.514,0,0,1,3.219-3.207,25.764,25.764,0,0,0,3.349-3.472c.782-1.119.845-2.763,2.061-3.525,1.291-.809,2.729-.592,3.969-1.714.978-.885,1.692-1.914,2.74-2.737.957-.752,2.535-2.527.283-2.9" transform="translate(0.059 -678.528)" fill="#4d812e"/>
    <path id="Trazado_878810" data-name="Trazado 878810" d="M88.406,787.521a17.2,17.2,0,0,1,2.87-3.3c1.556-1.614,3.172-3.174,4.761-4.756q4.427-4.41,8.865-8.81c2.354-2.339,4.6-4.768,6.951-7.094,2.629-2.6,5.007-5.375,7.563-8.077,4.693-4.96,9.524-9.833,14.386-14.63,2.739-2.7,5.388-5.487,8.1-8.211a57.244,57.244,0,0,1,6.083-5.866c2.659-1.974,4.49-4.378,6.71-6.8.7-.762,2.524-1.929,2.361-3.161-.2-1.477-1.954-1.012-2.766-.4-1.17.877-1.759,2.469-2.669,3.586a29.739,29.739,0,0,1-3.041,3.115,29.3,29.3,0,0,1-3.419,2.363,14,14,0,0,0-2.966,3.262c-2.053,2.6-4.673,4.743-6.928,7.171-2.113,2.275-4.323,4.451-6.472,6.692-2.654,2.767-5.869,5.033-8.316,7.977-1.93,2.322-3.829,4.615-5.875,6.844-4.736,5.159-9.85,9.942-14.756,14.939-1.478,1.506-13.982,13.177-14.981,15.161Z" transform="translate(-80.073 -675.805)" fill="#4d812e"/>
    <path id="Trazado_878811" data-name="Trazado 878811" d="M45.34,71.39c-1.845-.894-3.4,2.19-4.674,3.091a8.241,8.241,0,0,0-3.475,4.255c-.947,2.2-2.888,3.258-4.55,4.893-1.477,1.453-2.437,3.582-4.168,4.739-.971.649-2.138.784-3.151,1.345A25.59,25.59,0,0,0,21.976,92.3a12.932,12.932,0,0,0-3.84,4.429c-1.141,2.206-2.715,3.077-4.541,4.683-1.782,1.567-3.017,3.51-4.614,5.226-1.779,1.912-3.961,3.4-5.727,5.34C2.14,113.2,1.414,115.243,0,116.237v2.917a18.509,18.509,0,0,0,2.19-1.49,10.631,10.631,0,0,0,2.069-2.745c1.428-2.173,3.586-3.62,5.457-5.379,2.172-2.043,3.769-4.675,6.11-6.54.89-.709,2.017-1.05,2.881-1.769.977-.814,1.169-1.94,1.644-3.06A13.081,13.081,0,0,1,25.4,92.779c1.663-1.132,3.9-1.305,5.321-2.731,1.508-1.51,2.466-3.439,4.07-4.914,1.419-1.305,3.4-2.587,4.291-4.326C40.267,78.5,40.92,77.17,43.2,75.7c1.088-.7,5.014-2.915,2.143-4.307" transform="translate(0.059 -67.193)" fill="#4d812e"/>
    <path id="Trazado_878812" data-name="Trazado 878812" d="M1174.406,1049.594a23.1,23.1,0,0,0-2.557,2.666,8.341,8.341,0,0,1-2.835,1.723,12.024,12.024,0,0,0-6.19,4.864c-.6.973-.781,2.128-1.355,3.124a16.256,16.256,0,0,1-3.045,3.422c-1.886,1.815-3.749,4.172-6.168,5.295-.931.432-2.064.481-2.782,1.274a6.981,6.981,0,0,0-.919,2.446c-.829,2.24-2.534,3.67-4.19,5.317a82.893,82.893,0,0,1-6.163,5.6c-1.736,1.414-4.042,1.767-5.619,3.286-1.78,1.715-4.091,4-4.505,6.442a6.828,6.828,0,0,1-.685,2.539c-.478.808-1.6,1.547-1.774,2.526a1.346,1.346,0,0,0,1.273,1.7c1.149.01,1.691-1.323,2.123-2.147,1.073-2.051,1.489-4.629,2.971-6.4,3.1-3.714,7.6-5.848,11.092-9.145a55.751,55.751,0,0,0,6.261-6.441c1.465-1.929,2.4-3.446,4.38-4.918A47.721,47.721,0,0,0,1164,1062.009a16.508,16.508,0,0,1,5.041-5.272,22.413,22.413,0,0,0,3.034-1.808c.837-.687,1.477-1.618,2.334-2.28Z" transform="translate(-1062.692 -990.938)" fill="#4d812e"/>
    <path id="Trazado_878813" data-name="Trazado 878813" d="M38.518,1047.477c-1.161-1.634-2.7-.745-3.806.461-1.259,1.367-1.238,3.493-2.6,4.659s-3.106,1.539-4.461,2.864q-5.24,5.121-10.369,10.36c-2.982,3.05-5.755,6.5-9,9.254-1.67,1.42-3.191,2.981-4.743,4.525A40.55,40.55,0,0,1,0,1083.376v3.682a65.06,65.06,0,0,0,4.608-4.714c1.838-1.841,3.682-3.6,5.562-5.384,3.756-3.563,7.191-7.509,10.84-11.186,1.825-1.84,3.6-3.725,5.441-5.548,1.451-1.436,3.038-3.566,4.822-4.573,1.1-.62,1.621-.347,2.749-.071.716.176,1.516.507,2.029-.256.973-1.449-1.513-2.879-.651-4.583,1.292-2.555,2.226.433,2.6,1.513.444,1.291,2.037,1.728,2.629.241.531-1.332-1.328-3.924-2.108-5.021" transform="translate(0.059 -988.097)" fill="#4d812e"/>
    <path id="Trazado_878814" data-name="Trazado 878814" d="M1212.809,1250.991c.068-1.092,1.123-1.91,1.588-2.844.432-.869.5-1.873.939-2.735.952-1.886,3.194-3.673,4.8-5,1.871-1.544,3.762-2.862,5.733-4.253,1.648-1.164,2.427-3.006,3.851-4.384,1.359-1.315,2.541-2.815,3.908-4.106a43.065,43.065,0,0,0,3.649-3.257c1.38-1.623,3.169-2.934,4.442-4.624a40.858,40.858,0,0,1,3.775-4.9,35.836,35.836,0,0,1,4.919-4.569c.9-.6,3.006-1.7,2.052-3.126-1.726-2.571-8.093,5.7-9.167,6.933a128.493,128.493,0,0,1-9.4,9.9c-3.154,2.941-5.781,6.43-8.862,9.452-2.842,2.788-6.358,4.792-9.2,7.592a14.666,14.666,0,0,0-3.611,5.339c-.506,1.19-2.405,3.189-2.387,4.58Z" transform="translate(-1142.239 -1139.276)" fill="#4d812e"/>
    <path id="Trazado_878815" data-name="Trazado 878815" d="M36.76,0H27.608a9.661,9.661,0,0,1-3.967,3.169,8.7,8.7,0,0,0-3.77,2.213c-.987,1.153-1.313,2.664-2.574,3.6-1.471,1.095-3.433,1.182-5,2.134-1.743,1.057-2.4,2.484-3.425,4.145C8,16.681,6.654,17.449,5.592,18.69c-1.088,1.272-1.64,2.826-2.838,4.033A28.32,28.32,0,0,1,0,25.517v3.852c1.142.678,1.969,1.519,3.1,2.341,1,.729,2.377.905,2.769-.565.8-3.017-4.313-1.739-4.036-4.116.134-1.146,2.036-1.671,2.762-2.4a37.083,37.083,0,0,0,2.695-3.772c.955-1.25,2.163-2.259,3.138-3.476.851-1.063,1.273-2.371,2.244-3.356,1.909-1.935,4.92-1.406,6.794-3.276.909-.906,1.182-2.191,1.911-3.213.829-1.162,1.752-1.4,3.034-1.9,2.628-1.024,4.258-3.463,6.814-4.58,1.44-.629,2.214-.1,3.614.05.94.1,2.068.177,1.923-1.1" transform="translate(0.059 0.06)" fill="#4d812e"/>
    <path id="Trazado_878816" data-name="Trazado 878816" d="M948.617,1356c.067-.8-.243-1.933-.22-2.709a6.4,6.4,0,0,1,.749-3.215,12.271,12.271,0,0,1,4.245-4.368c1.588-.873,3.192-.924,4.554-2.28a28.731,28.731,0,0,0,3.518-4.2c.919-1.4,1.022-3.009,2.15-4.324,1.057-1.233,2.365-2.267,3.464-3.474,2.246-2.466,5.1-6.067,8.368-7.077,1.788-.553,2.417-.971,2.953-2.817.281-.968,1.154-3.575-.647-3.619-1.437-.035-1.718,2.336-2.351,3.213-.865,1.2-2.468,1.638-3.6,2.554-3.219,2.594-6.063,5.941-8.982,8.864-2.5,2.5-3.82,5.82-6.238,8.388-1.2,1.271-2.7,1.815-4.161,2.712a19.96,19.96,0,0,0-3.61,3.176,9.789,9.789,0,0,0-2.947,4.432c-.36,1.627.431,3.125.471,4.74Z" transform="translate(-892.906 -1244.285)" fill="#4d812e"/>
    <path id="Trazado_878817" data-name="Trazado 878817" d="M340.107,1420.082c.341-1.169,2.043-2.493,2.781-3.23,1.221-1.22,2.156-2.627,3.447-3.8,1.377-1.248,2.326-2.878,3.738-4.061a35.546,35.546,0,0,0,4.261-3.933c1.085-1.235,2.079-2.632,3.234-3.8,1.076-1.086,2.544-1.631,3.509-2.83a19.394,19.394,0,0,1,2.824-3.388,29.06,29.06,0,0,0,3.311-3.3c1.088-1.206,2.84-1.889,3.732-3.246.667-1.015.656-2.776-1.016-2.709-1.288.052-2.019,1.723-2.776,2.521-1.018,1.073-2.058,2.124-3.075,3.209-1.147,1.224-2.59,2.108-3.683,3.412a18.539,18.539,0,0,1-3.1,3.284,23.388,23.388,0,0,0-3.454,3.837c-1.115,1.281-2.448,2.462-3.673,3.643-2.819,2.718-5.554,5.5-8.217,8.376-.554.6-4.554,4.9-5.836,6.005Z" transform="translate(-317.291 -1308.367)" fill="#4d812e"/>
    <path id="Trazado_878818" data-name="Trazado 878818" d="M34.074,1250.453c-.207-2.247-2.437-.5-3.207.4-1.221,1.425-2.474,2.758-3.81,4.08-3.168,3.134-6.242,6.342-9.358,9.524q-4.744,4.845-9.556,9.633-2.256,2.251-4.531,4.484A39.6,39.6,0,0,1,0,1282.432v3.411c1.965-1.658,6.547-6.782,7.321-7.546,3.211-3.171,6.323-6.428,9.489-9.642,3.095-3.142,6.236-6.232,9.308-9.4,1.424-1.467,2.889-2.9,4.35-4.325,1-.977,3.755-2.855,3.606-4.48" transform="translate(0.059 -1179.545)" fill="#4d812e"/>
    <path id="Trazado_878819" data-name="Trazado 878819" d="M27.4,222.6c-.381-.554-1.48-.659-2.015-1.014a5.493,5.493,0,0,1-1.466-1.777c-.52-.812-2.73-3.682-3.413-1.215-.468,1.691,2.237,2.542,2.2,4.2-.041,1.767-2.7,2.766-3.949,3.509a16.149,16.149,0,0,0-3.9,3.765c-1.188,1.4-2.042,3.192-3.421,4.418A22.039,22.039,0,0,0,7.516,238.3c-.958,1.358-2.248,4.324-4.214,3.06-1.118-.719-1.779-3.591-3.3-3.721v3.837c1.137,1.1,2.124,2.512,3.62,3.109,2,.8,3.068-.918,4.129-2.342a24.2,24.2,0,0,1,3.99-4.654,16.25,16.25,0,0,0,4.037-4.24,18.523,18.523,0,0,1,3.99-4.484c1.406-1.167,3.289-3.058,4.936-3.792,1.04-.463,4.043-.522,2.7-2.477" transform="translate(0.059 -205.403)" fill="#4d812e"/>
    <path id="Trazado_878820" data-name="Trazado 878820" d="M1478.42,0c-1.936,2.676-4.994,5.119-7.52,7.209-2.172,1.8-2.636,4.459-4.63,6.375-1.09,1.047-2.539,1.546-3.67,2.534s-1.626,2.357-2.661,3.417c-.779.8-2.573,1.359-2.6,2.643-.021,1.189,1.65,2.094,2.682,2.113,1.669.031,1.948-1.144,2.265-2.508a6.409,6.409,0,0,1,2.117-3.943c2.328-1.956,4.456-2.452,5.789-5.439,1.2-2.688,3.072-4.333,5.381-6.118a21.76,21.76,0,0,0,3.5-3.141c.342-.4,2.589-2.413,2.9-3.141Z" transform="translate(-1375.923 0.06)" fill="#4d812e"/>
    <path id="Trazado_878821" data-name="Trazado 878821" d="M210.964,1612.112a10.127,10.127,0,0,1,2.38-2.151,42.215,42.215,0,0,0,3.3-3.135c2.041-2.15,4.042-4.328,6.136-6.429,2.275-2.282,4.525-4.62,6.886-6.814.771-.717,1.842-1.34,2.254-2.35s.231-2.156-1.05-2.05c-1.246.1-1.9,1.642-2.613,2.45-.878,1-2.016,1.688-2.916,2.663-1.769,1.916-3.584,3.715-5.439,5.558q-3.572,3.548-7.143,7.1c-.811.806-4.7,3.637-4.851,5.159Z" transform="translate(-196.241 -1500.397)" fill="#4d812e"/>
    <path id="Trazado_878822" data-name="Trazado 878822" d="M1745.595,1384.474c-1.1.191-3.489,2.954-4.081,3.542-1.451,1.442-2.427,2.676-4.578,2.6-2.266-.082-3.021-.236-4.744,1.525-1.515,1.548-2.251,2.78-1.017,4.782,2.019,3.278,6.018,1.257,7.352-1.668a11.332,11.332,0,0,1,3.118-4.122c1.172-1.079,2.458-2.878,3.949-3.6Zm-12.387,10.408c.01-1.685,3.345-3.427,3.506-1.043.118,1.748-3.52,3.45-3.506,1.043" transform="translate(-1633.881 -1307.122)" fill="#4d812e"/>
    <path id="Trazado_878823" data-name="Trazado 878823" d="M1716.448,1643.5a2.983,2.983,0,0,0,1.2.72h.679a1.433,1.433,0,0,0,.732-.545c.751-.993-.165-1.642-.506-2.619-.743-2.132.812-3.911,2.441-5.082,3.812-2.74,6.6-6.7,10.291-9.553v-3.239c-1.526.824-8.62,8.48-9.685,9.309-2.147,1.67-3.594,2.046-4.715,4.664-.926,2.164-2.585,4.38-.436,6.344" transform="translate(-1619.57 -1532.501)" fill="#4d812e"/>
    <path id="Trazado_878824" data-name="Trazado 878824" d="M945.547,0c-.267.254-.837.5-1.041.8a5.119,5.119,0,0,0-.427,1.67,6.373,6.373,0,0,1-1.362,2.734,7.117,7.117,0,0,1-2.993,1.766,12.418,12.418,0,0,0-3.065,2.15c-1.611,1.294-3.68,1.672-3.987,3.923a11.624,11.624,0,0,1-.761,3.428c-.331.819-.827,1.847.171,2.442,2.574,1.536,2.651-3.067,2.9-4.241.5-2.386,2.888-3.35,4.8-4.438a15.167,15.167,0,0,0,5.371-4.648,13.446,13.446,0,0,0,2.108-3.625C947.52.826,947.076.635,946.509,0Z" transform="translate(-879.43 0.06)" fill="#4d812e"/>
    <path id="Trazado_878825" data-name="Trazado 878825" d="M1328.132,1692.843a68.364,68.364,0,0,1,5.071-4.62c1.536-1.215,3.9-3.233,4.536-5.145a4.933,4.933,0,0,0-.039-2.671c-.316-1.6-.053-1.914.548-3.342.773-1.836-.638-3.354-2.2-1.624a6.035,6.035,0,0,0-1.369,2.887c-.125,1.191.763,2.172.684,3.346-.14,2.061-2.517,3.7-3.984,4.9-1.827,1.494-3.362,3.369-5.208,4.814a4.216,4.216,0,0,1-2.52,1.028c-.882.058-2.045-.5-2.592.426Z" transform="translate(-1247.25 -1581.128)" fill="#4d812e"/>
    <path id="Trazado_878826" data-name="Trazado 878826" d="M1720.991,336.906c-.964.449-3.832,3.52-4.216,4.042-1.272,1.725-2.052,3.338-3.9,4.6-.785.538-1.7.888-2.439,1.49a21.776,21.776,0,0,0-1.963,2.3c-.891.957-3.42,1.245-3.838,2.327-.829,2.151,2.245,2.442,3.43,1.608,1.583-1.115,2.614-3.1,4.119-4.365a49.625,49.625,0,0,0,4.868-4.034c1.354-1.466,2.386-3.266,3.94-4.54Z" transform="translate(-1609.277 -318.038)" fill="#4d812e"/>
    <path id="Trazado_878827" data-name="Trazado 878827" d="M767.96,0a14.829,14.829,0,0,1-1.171,2.71,9.81,9.81,0,0,1-1.19,2.513c-1.27,1.655-2.932,1.438-4.7,2.073-1.931.695-3.511,2.521-5.215,3.643-.729.48-1.95,1.033-1.942,2.076.008,1.132,1.054,1.426,1.981,1.174,1.9-.517,3.1-2.883,4.9-3.74s3.6-1.164,5.3-2.329a6.688,6.688,0,0,0,3.226-4.31,8.073,8.073,0,0,1,.517-2.45c.148-.277.978-.949,1.086-1.36Z" transform="translate(-711.605 0.06)" fill="#4d812e"/>
    <path id="Trazado_878828" data-name="Trazado 878828" d="M1235.415,0c-1.1,1.544-2.674,2.671-3.736,4.251-.978,1.456-1.572,3.1-2.683,4.478s-2.969,2.458-3.792,3.993c-.732,1.363-.007,2.523,1.611,1.871,1.282-.516,2.167-2.274,3.109-3.247a12,12,0,0,0,3.026-4,9.824,9.824,0,0,1,2.519-4.059c.835-.788,2.711-2.079,2.982-3.292Z" transform="translate(-1156.475 0.06)" fill="#4d812e"/>
    <path id="Trazado_878829" data-name="Trazado 878829" d="M524.78,1834.956H529.1a13.186,13.186,0,0,0,1.4-1.182,3.326,3.326,0,0,0,.305-2.264c-.166-1.006-.735-1.918-.907-2.937a13.177,13.177,0,0,0-.207-2.231c-.587-1.645-2.367-1.44-3.044.107-.8,1.826,1.164,2.9,1.57,4.51.308,1.22-.29,3.11-1.872,2.105-1.106-.7-.629-2.711-1.983-3.227s-2.269,1.058-1.878,2.21c.439,1.29,2.256,1.457,2.293,2.907" transform="translate(-493.172 -1723.24)" fill="#4d812e"/>
    <path id="Trazado_878830" data-name="Trazado 878830" d="M1818.209,1862.976c1.96,1.331-.356,1.963-.617,2.631h3.454a9.922,9.922,0,0,1,2.793-2.657c.67-.492,1.549-1.747,2.34-2.153v-3.136c-.971.551-4.033,3.9-5.024,3.97-1.737.116-2.58-2.722-4.417-1.866a1.527,1.527,0,0,0-.595,2.191c.526.789,1.356.539,2.065,1.019" transform="translate(-1714.465 -1753.892)" fill="#4d812e"/>
    <path id="Trazado_878831" data-name="Trazado 878831" d="M46.3,0c-1.352,1.986-3.494,3.586-5.981,2.978-.931-.227-1.9-.9-2.825-.242a1.5,1.5,0,0,0-.013,2.445c1.677,1.368,5.577.52,7.175-.519C45.22,4.3,49.5.969,49.724,0Z" transform="translate(-34.74 0.06)" fill="#4d812e"/>
    <path id="Trazado_878832" data-name="Trazado 878832" d="M203.927,0a28.836,28.836,0,0,1-2.833,2.644A16.355,16.355,0,0,1,198.4,5.192c-.63.438-1.955.855-2.134,1.735-.2.985.567,1.561,1.508,1.491,2.576-.191,4.274-3.375,5.82-5,.46-.483,4.274-2.772,5.218-3.419Z" transform="translate(-185.221 0.06)" fill="#4d812e"/>
    <path id="Trazado_878833" data-name="Trazado 878833" d="M1892.119,856.285c-1.048.174-2.769,4.743-2.912,5.222a14.9,14.9,0,0,1-1.034,3.24c-.566,1-1.689,1.609-2.2,2.6-.5.966-.194,1.884,1.047,1.64.947-.186,1.858-1.587,2.405-2.281a14.063,14.063,0,0,0,1.755-2.8c.4-.868.526-1.943.942-2.812Z" transform="translate(-1780.405 -808.421)" fill="#4d812e"/>
    <path id="Trazado_878834" data-name="Trazado 878834" d="M9.46,142.776c-.627-1.107-2.433-.826-3.454-.889a10,10,0,0,0-3.778.074c-.8.261-1.466.763-2.229,1.084V147.2c1.261-.216,1.619-2.329,2.854-2.9,2.079-.953,3.851,1,5.723.467a1.339,1.339,0,0,0,.885-2" transform="translate(0.06 -133.767)" fill="#4d812e"/>
    <path id="Trazado_878835" data-name="Trazado 878835" d="M1841.594,1298.88c-2.019-1.266-3.956,1.522-5.349,2.888-.862.846-4.582,3.427-3.945,4.785,1.009,2.149,3.686-1.4,4.373-2.089a21.26,21.26,0,0,1,2.71-2.425,9.2,9.2,0,0,0,2.211-1.7Z" transform="translate(-1729.879 -1226.004)" fill="#4d812e"/>
    <path id="Trazado_878836" data-name="Trazado 878836" d="M1039.093,1855.233c-.093-1.8-.323-3.281.828-4.86.5-.689,3.177-3.1,1.027-3.662-1.435-.372-2.874,2.083-3.467,3.085-1.031,1.745-.98,3.493-.974,5.437Z" transform="translate(-978.58 -1743.517)" fill="#4d812e"/>
    <path id="Trazado_878837" data-name="Trazado 878837" d="M1889.857,1745.433c-1.232.914-6.463,5.258-6.508,6.119-.117,2.216,2.427.85,3.126.143,1.085-1.1,2.2-2.1,3.382-3.11Z" transform="translate(-1778.143 -1647.93)" fill="#4d812e"/>
    <path id="Trazado_878838" data-name="Trazado 878838" d="M1903.825,1496.494c-.817.337-2.557,2.315-3.013,2.772-.81.809-2.6,2.535-2.669,3.8-.107,2.072,1.756,1.131,2.572.226,1-1.106,1.75-2.716,3.111-3.444Z" transform="translate(-1792.111 -1412.889)" fill="#4d812e"/>
    <path id="Trazado_878839" data-name="Trazado 878839" d="M2.76,1118.039a3.272,3.272,0,0,0-2.76.881v3.725c.637-.745,1.473-1.678,1.943-1.787,1.079-.251,3.339.885,3.759-.8.365-1.466-2-1.87-2.942-2.017" transform="translate(0.059 -1055.517)" fill="#4d812e"/>
    <path id="Trazado_878840" data-name="Trazado 878840" d="M0,1400.559v4.068c.609-.647,1.341-1.565,1.594-1.757.929-.7,3.091-1.2,3.51-2.39.945-2.695-3.179-1.041-5.1.079" transform="translate(0.059 -1320.857)" fill="#4d812e"/>
    <path id="Trazado_878841" data-name="Trazado 878841" d="M812.914,0h-1.96c-1.026,1.431.346,1.99,1.493,2.808,1.1.781,2.429,2.224,3.947,1.58,3.438-1.458-1.9-3.5-3.479-4.387" transform="translate(-765.281 0.06)" fill="#4d812e"/>
    <path id="Trazado_878842" data-name="Trazado 878842" d="M1.639,953.514A7.069,7.069,0,0,0,0,955.492v4.292a21.342,21.342,0,0,0,1.677-2.277c.708-.8,2.369-1.547,2.54-2.657.253-1.644-1.451-2.083-2.578-1.335" transform="translate(0.059 -899.889)" fill="#4d812e"/>
    <path id="Trazado_878843" data-name="Trazado 878843" d="M1953.845,122.271c-2.7-1.142-4.473,7.489,0,5.755Z" transform="translate(-1842.131 -115.287)" fill="#4d812e"/>
    <path id="Trazado_878844" data-name="Trazado 878844" d="M3.113,286.219c-.27-1.41-1.563-1.363-2.439-.559A3.689,3.689,0,0,0,0,286.8v4.36c1.259-1.153,3.25-4.224,3.113-4.939" transform="translate(0.059 -269.122)" fill="#4d812e"/>
    <path id="Trazado_878845" data-name="Trazado 878845" d="M684.866,0c-.779,1.157-3.259,4.766-.53,4.815,1.363.025,3.212-3.464,3.551-4.815Z" transform="translate(-644.893 0.06)" fill="#4d812e"/>
    <path id="Trazado_878846" data-name="Trazado 878846" d="M1484.653,0c-.693.922-3.958,2.949-1.451,3.652,1.147.322,4.234-2.387,4.482-3.652Z" transform="translate(-1399.459 0.06)" fill="#4d812e"/>
    <path id="Trazado_878847" data-name="Trazado 878847" d="M0,709.362v3.567l1.176-.3c.705-.175,1.528-.125,1.51-1.147-.011-.615-1.624-1.681-2.686-2.122" transform="translate(0.059 -669.7)" fill="#4d812e"/>
    <path id="Trazado_878848" data-name="Trazado 878848" d="M1517.872,1959.091c.261-.942.758-2.27-.838-2.417-.751-.069-2.849,1.641-3.061,2.417Z" transform="translate(-1429.392 -1847.375)" fill="#4d812e"/>
    <path id="Trazado_878849" data-name="Trazado 878849" d="M865.063,1950.815c.013-1.124.041-3.029-1.52-2.9-1.431.116-1.4,1.813-1.147,2.9Z" transform="translate(-814.063 -1839.101)" fill="#4d812e"/>
    <path id="Trazado_878850" data-name="Trazado 878850" d="M1966.864,0H1964.9a11.313,11.313,0,0,0,1.959,3.38Z" transform="translate(-1855.15 0.06)" fill="#4d812e"/>
    <path id="Trazado_878851" data-name="Trazado 878851" d="M0,0V1.957A13.8,13.8,0,0,0,2.047,0Z" transform="translate(0.059 0.06)" fill="#4d812e"/>
    <path id="Trazado_878852" data-name="Trazado 878852" d="M1636.537,1982.583c-.108-.84-2.523-1.821-3.1,0Z" transform="translate(-1542.189 -1870.868)" fill="#4d812e"/>
    <path id="Trazado_878853" data-name="Trazado 878853" d="M1623.088,0c.124,1.612,2,1.3,2.531,0Z" transform="translate(-1532.416 0.06)" fill="#4d812e"/>
    <path id="Trazado_878854" data-name="Trazado 878854" d="M461.864,1984.392c-.367-1.182-2.694-1.279-2.743,0Z" transform="translate(-433.43 -1872.677)" fill="#4d812e"/>
    <path id="Trazado_878855" data-name="Trazado 878855" d="M0,100.72v.648a2.252,2.252,0,0,0,0-.648" transform="translate(0.059 -95.037)" fill="#4d812e"/>
    <path id="Trazado_878856" data-name="Trazado 878856" d="M97.4,0c.281.756.871.863,1.9.555.3-.09.592-.221.642-.555Z" transform="translate(-91.902 0.06)" fill="#4d812e"/>
    <path id="Trazado_878857" data-name="Trazado 878857" d="M1976.248,1980.449v-1.156a3.77,3.77,0,0,0-1.4,1.156Z" transform="translate(-1864.534 -1868.734)" fill="#4d812e"/>
    <path id="Trazado_878858" data-name="Trazado 878858" d="M1995.751,1160.114c-.235.1-.213.422-.239.619-.031.249-.019.554.239.675Z" transform="translate(-1884.037 -1095.288)" fill="#4d812e"/>
    <path id="Trazado_878859" data-name="Trazado 878859" d="M706.885,539.392c1.032-.24,2.1,1.306,2.018,2.221-.107,1.268-1.569,1.823-2.455,2.474a28.449,28.449,0,0,0-2.661,2.441c-1.217,1.157-2.585,1.951-3.88,2.992-1.566,1.26-2.571,3.373-3.832,4.941-1.694,2.106-3.385,4.107-5.181,6.13-7.046,7.932-16.053,14.111-22.719,22.365-3.359,4.16-7.85,7.409-11.292,11.525a10.945,10.945,0,0,1-2.125,2.453c-1.139.722-2.368.458-2.208-1.031.132-1.227,1.646-2.344,2.461-3.146,1.334-1.314,2.675-2.621,4-3.943,8.626-8.6,16.744-17.734,25.753-25.962a74.714,74.714,0,0,0,5.8-5.565c1.113-1.254,2.241-2.491,3.321-3.774a26.067,26.067,0,0,0,2.143-3.708c1.312-2.156,3.993-3.919,6.073-5.248a6.506,6.506,0,0,0,2.831-2.8c.43-.97.5-2.507,1.955-2.367" transform="translate(-616.046 -509.196)" fill="#4d812e"/>
    <path id="Trazado_878860" data-name="Trazado 878860" d="M683.136,1689.054a7.659,7.659,0,0,0-.957-3.561,2.146,2.146,0,0,1,.232-2.537c.834-1.292,2.8-4.278,4.245-4.877,1.969-.813,3.423,2.086,4.4,3.346a3.4,3.4,0,0,1-1.609,5.445c-3.329.912-.566-2.954-.511-3.817a1.5,1.5,0,0,0-1.627-1.735c-1.066.106-1.787,1.384-2.081,2.27-.787,2.378,1.492,4.244.656,6.544-.249.685-.984,1.777-1.908,1.511-1.07-.308-.842-1.8-.842-2.589" transform="translate(-643.744 -1584.203)" fill="#4d812e"/>
    <path id="Trazado_878861" data-name="Trazado 878861" d="M522.618,700.528c.059,1.31-2.669,2.845-3.514,3.672-1.66,1.625-3.3,3.257-4.988,4.859-1.605,1.528-3.151,3.1-4.883,4.493-1.069.857-3.738,1.691-2.9-.77.424-1.245,2.66-2.339,3.541-3.409a40.128,40.128,0,0,1,3.947-3.552c1.664-1.562,3.22-3.237,4.828-4.851.693-.7,3.922-2.956,3.97-.442" transform="translate(-477.855 -660.267)" fill="#4d812e"/>
    <path id="Trazado_878862" data-name="Trazado 878862" d="M1172.8,555.223c.956-.121,1.907.411,2.845.546a7.146,7.146,0,0,0,2.689-.266c1.52-.3,4.59.3,5.337-1.479.4-.953-.406-3.92,1.777-3.272,1.845.547,1.509,3.367.784,4.554a4.9,4.9,0,0,1-4.559,2.354c-1.746-.015-3.415.62-5.135.522a17.946,17.946,0,0,0-3.123-.3c-.736.082-1.841.748-2.554.228-1.661-1.211.525-3.039,1.94-2.886" transform="translate(-1104.868 -519.858)" fill="#4d812e"/>
    <path id="Trazado_878863" data-name="Trazado 878863" d="M1188.363,920.441c-.226-1.295,2.693-2.891,3.531-3.689,1.355-1.291,2.737-2.553,4.075-3.863.876-.857,6.019-7.542,6.894-3.952.4,1.629-2.163,2.738-3.1,3.695-1.279,1.31-2.587,2.526-3.894,3.821-1.387,1.376-2.745,2.771-4.1,4.18-.907.947-3.384,2.249-3.412-.193" transform="translate(-1121.949 -857.142)" fill="#4d812e"/>
    <path id="Trazado_878864" data-name="Trazado 878864" d="M1507.926,346.813c-.665,1.588-.2,3.025-1.53,4.455-1.067,1.149-2.817,1.421-3.8,2.574-.872,1.021-.5,2.6-1.358,3.579-1.45,1.654-2.432-.216-2.3-1.7a6.393,6.393,0,0,1,2.213-4.067c1.072-.95,3.106-1.449,3.675-2.81.583-1.393-.906-2.906.374-4.1,1.55-1.443,2.736.629,2.731,2.069" transform="translate(-1415.182 -324.976)" fill="#4d812e"/>
    <path id="Trazado_878865" data-name="Trazado 878865" d="M1737.635,53.2c-.256-2.4,5.425-4.561,6.926-5.461,1.3-.778,1.262-1.9,1.9-3.1.7-1.313,2.572-2.044,3.02-.089.245,1.069-1.181,3.426-1.781,4.264-.807,1.128-1.661,1.2-2.91,1.551a8.836,8.836,0,0,0-3.741,2.4c-.614.58-3.449,2.987-3.416.437" transform="translate(-1640.56 -40.875)" fill="#4d812e"/>
    <path id="Trazado_878866" data-name="Trazado 878866" d="M1705.119,333.816a9.03,9.03,0,0,1-5.081-2.158c-.959-1.3.145-2.509,1.606-2.3s2.254,2.053,3.834,1.875c1.89-.213,1.362-1.753.311-2.561-.807-.62-2.515-1.537-.965-2.576,1.3-.868,3.15.608,3.954,1.562,1.979,2.347-.781,6.262-3.659,6.154" transform="translate(-1604.729 -307.586)" fill="#4d812e"/>
    <path id="Trazado_878867" data-name="Trazado 878867" d="M1522.271,651.116c.109,1.362-1.686,2.026-2.545,2.789-.934.829-1.695,1.813-2.617,2.656-1.022.935-4.746,5.2-5.527,1.371-.251-1.231.848-1.779,1.734-2.256a10.221,10.221,0,0,0,2.871-2.118c1.057-1.133,1.94-2.617,3.246-3.492,1-.672,2.984-.642,2.837,1.051" transform="translate(-1427.101 -613.328)" fill="#4d812e"/>
    <path id="Trazado_878868" data-name="Trazado 878868" d="M1247.01,526.274c-2.288-.006-1.476-2.065-.206-2.795.913-.525,3.583-1.981,4.678-1.578a1.776,1.776,0,0,1,.466,3.147c-.646.443-1.413.272-2.134.411a24.991,24.991,0,0,1-2.8.814" transform="translate(-1175.968 -492.639)" fill="#4d812e"/>
    <path id="Trazado_878869" data-name="Trazado 878869" d="M1804.24,210.326c.514,1.568-6.015,5.655-6.341,2.575-.155-1.465,6.367-5.543,6.341-2.575" transform="translate(-1697.465 -197.527)" fill="#4d812e"/>
    <path id="Trazado_878870" data-name="Trazado 878870" d="M1372.916,443.87c-1.1.025-3.488-.233-4.066-1.35-.618-1.192.548-2.311,1.676-2.474,2.341-.338,6.166,3.126,2.39,3.825" transform="translate(-1292.209 -415.398)" fill="#4d812e"/>
    <path id="Trazado_878871" data-name="Trazado 878871" d="M1896.02,264.814c.14,1.478-4.943,5.554-5.313,2.609-.233-1.85,5.288-5.36,5.313-2.609" transform="translate(-1785.087 -249.012)" fill="#4d812e"/>
    <path id="Trazado_878872" data-name="Trazado 878872" d="M976.551,1295.529c-.262,2.063-4.789,4.8-4.592,1.585.119-1.936,4.632-4.538,4.592-1.585" transform="translate(-917.632 -1221.884)" fill="#4d812e"/>
    <path id="Trazado_878873" data-name="Trazado 878873" d="M1669.727,482.027c-2.241-.211-4.4-3.682-1.084-3.625,2.553.044,4.586,3.236,1.084,3.625" transform="translate(-1573.816 -451.634)" fill="#4d812e"/>
    <path id="Trazado_878874" data-name="Trazado 878874" d="M1682.195,275.613c-3.009,0-1.288-3.97.743-4.283,2.929-.451,1.573,4.673-.743,4.283" transform="translate(-1586.689 -256.096)" fill="#4d812e"/>
    <path id="Trazado_878875" data-name="Trazado 878875" d="M1453.141,835.454c-2.137,0-2.927-3.55-.548-3.664,2.111-.1,2.873,3.318.548,3.664" transform="translate(-1370.064 -785.292)" fill="#4d812e"/>
    <path id="Trazado_878876" data-name="Trazado 878876" d="M1125.843,1168.3c0,2.534-3.954,1.239-3.488-.823s3.867-.982,3.488.823" transform="translate(-1059.601 -1101.177)" fill="#4d812e"/>
    <path id="Trazado_878877" data-name="Trazado 878877" d="M1064.394,1232.714c.4,2.071-3.564,1.79-3.273-.543.278-2.22,3.817-1.1,3.273.543" transform="translate(-1001.807 -1162.149)" fill="#4d812e"/>
    <path id="Trazado_878878" data-name="Trazado 878878" d="M1489.927,101.755c.01,1.658-2.523,2.269-2.882.408-.39-2.029,2.867-2.507,2.882-.408" transform="translate(-1403.938 -94.729)" fill="#4d812e"/>
    <path id="Trazado_878879" data-name="Trazado 878879" d="M1419.947,91.728c-1.466-.028-1.121-2.258.219-2.238a1.127,1.127,0,1,1-.219,2.238" transform="translate(-1339.716 -84.434)" fill="#4d812e"/>
    <path id="Trazado_878880" data-name="Trazado 878880" d="M64.264,334.966c-1.121-.063-5.584-.883-3.252-2.8,1.113-.915,5.4,1.189,4.587-1.838-.283-1.047-1.82-1.873-2.407-2.846a4.205,4.205,0,0,1-.716-3.306c.758-2.292,3.952-4.28,5.707-5.76,2.037-1.718,3.263-4.072,5.189-5.89,1.645-1.553,4.53-1.775,5.5-3.835.994-2.106,1.007-3.674,2.78-5.407a11.062,11.062,0,0,1,2.976-2.317c1.3-.611,2.869-.542,4.09-1.282,1.742-1.055,2.571-3.867,4.135-5.344,1.511-1.427,3.159-4.169,5.39-4.336,1.034-.077,4.523.348,4.457,1.917-.064,1.528-1.761,1.065-2.644.962a3.06,3.06,0,0,0-3.14.98c-1.438,1.449-3.568,3.105-4.412,4.984-1.074,2.39-1.867,3.445-4.675,3.87a6.924,6.924,0,0,0-5.61,3.794c-1.158,2.491-1.112,5.655-4.2,6.528a7.361,7.361,0,0,0-3.122,1.283c-1.221,1.062-1.859,2.751-2.888,3.988-1.791,2.153-4.687,3.367-6.235,5.68-1.874,2.8,1.656,3.647,2.717,5.685.942,1.812-2.219,5.582-4.224,5.288" transform="translate(-56.92 -273.747)" fill="#4d812e"/>
    <path id="Trazado_878881" data-name="Trazado 878881" d="M455.915,536.023a4.725,4.725,0,0,0,4.592-1.711c1.431-1.541,1.159-3.414,2.22-5.045,1.119-1.719,2.95-1.648,4.767-1.253.843.183,2.016.325,2.2,1.331.2,1.106-.789,1.373-1.7,1.367-1.958-.012-2.881-.671-3.743,1.512a10.689,10.689,0,0,1-3.141,4.716c-1.587,1.355-3.8,2.549-5.95,1.866-2.188-.695-1.326-2.783.753-2.783" transform="translate(-428.484 -498.256)" fill="#4d812e"/>
    <path id="Trazado_878882" data-name="Trazado 878882" d="M115.425,274.274c-2.224.191-1.291-2.245-.487-3.169,1.18-1.357,2.273-2.806,3.47-4.145,1.526-1.707,4.854-8.347,7.988-5.794a1.589,1.589,0,0,1-.56,2.952c-.923.294-1.632-.166-2.476.51-.576.461-.7,1.308-1.04,1.921-.907,1.634-2.4,2.722-3.5,4.223-.612.836-1.976,3.886-3.395,3.5" transform="translate(-107.615 -245.98)" fill="#4d812e"/>
    <path id="Trazado_878883" data-name="Trazado 878883" d="M750.453,353c-1.074.028-5.672-.9-4.036-2.885.8-.966,2.13.08,3.011.195,1.369.179,1.72-.477,2.535-1.448,1.534-1.829,3.562-1.237,2.391,1.232-.819,1.727-1.957,2.906-3.9,2.906" transform="translate(-704.359 -328.319)" fill="#4d812e"/>
    <path id="Trazado_878884" data-name="Trazado 878884" d="M424.751,152.729c-1.567.181-3.424-2.812-4.457-3.745-.833-.753-3.333-3.66-.474-3.82,1.495-.083,2.951,2.855,3.988,3.679.8.635,2.321,1.3,2.307,2.529a1.3,1.3,0,0,1-1.364,1.356" transform="translate(-395.064 -136.999)" fill="#4d812e"/>
    <path id="Trazado_878885" data-name="Trazado 878885" d="M501.054,101.508c1.247-.2,3.078,2.423,4.018,3.125.992.742,2.647,3.172.224,3.442-1.4.156-2.734-2.28-3.752-3.047-1.051-.791-3.249-3.367-.491-3.521" transform="translate(-471.76 -95.772)" fill="#4d812e"/>
    <path id="Trazado_878886" data-name="Trazado 878886" d="M571.595,52.493a6.148,6.148,0,0,1,3.556,2.379c.833,1.334.119,2.684-1.489,2.083-1.154-.432-5.754-4.462-2.067-4.462" transform="translate(-538.298 -49.503)" fill="#4d812e"/>
    <path id="Trazado_878887" data-name="Trazado 878887" d="M842.517,232.99c-2.816,0-.04-4.429,1.673-4.275,2.435.218.082,4.275-1.673,4.275" transform="translate(-794.285 -215.883)" fill="#4d812e"/>
    <path id="Trazado_878888" data-name="Trazado 878888" d="M683.068,441.1c-2.39.134-3.663-3.056-.873-3.273,2.154-.167,3.792,3.273.873,3.273" transform="translate(-642.553 -413.317)" fill="#4d812e"/>
    <path id="Trazado_878889" data-name="Trazado 878889" d="M489.841,567.177c-.475-1.57,3.754-4.312,3.917-1.655.106,1.727-3.923,4.346-3.917,1.655" transform="translate(-462.4 -532.841)" fill="#4d812e"/>
    <path id="Trazado_878890" data-name="Trazado 878890" d="M1070.588,26.043c.38,1.586-2.7,2.782-2.757.6-.037-1.532,2.746-2.574,2.757-.6" transform="translate(-1008.157 -23.506)" fill="#4d812e"/>
    <path id="Trazado_878891" data-name="Trazado 878891" d="M1554.634,973.2c-.158-1.526,3.469-3.775,4.494-4.782,1.9-1.87,4.265-2.862,6.222-4.629s3.022-3.751,4.46-5.9c.5-.754,3.645-4.654,4.072-1.913.156,1-1.133,1.919-1.682,2.559a9.17,9.17,0,0,0-1.59,3.146,11.833,11.833,0,0,1-4.8,5.565c-1.1.582-2.361.673-3.444,1.342a17.835,17.835,0,0,0-3.022,2.727c-.469.467-4.735,4.857-4.71,1.888" transform="translate(-1467.778 -901.629)" fill="#4d812e"/>
    <path id="Trazado_878892" data-name="Trazado 878892" d="M1610.027,1616.549c.305,1.749-4.719,10.44-6.493,7.11-.806-1.513,1.8-2.857,2.526-3.858,1.59-2.19.7-3.683.839-6.059.114-1.99,1.72-3.136.406-5.077-.615-.909-2.081-3.489.443-3.312,1.735.121,3.142,3.821,2.823,5.167a20.6,20.6,0,0,0-.891,2.625,21.631,21.631,0,0,0,.346,3.4" transform="translate(-1513.809 -1515.663)" fill="#4d812e"/>
    <path id="Trazado_878893" data-name="Trazado 878893" d="M1343.685,1783.223c-.107-1.98,4.1-4.616,5.425-5.811.6-.542,5.081-5.129,4.99-1.736-.047,1.771-3.983,3.937-5.16,5.082-.465.452-5.3,5.857-5.256,2.464" transform="translate(-1268.61 -1675.314)" fill="#4d812e"/>
    <path id="Trazado_878894" data-name="Trazado 878894" d="M1581.4,1227.8c.154,1.533-3.886,4.426-4.96,5.323-.623.521-4.98,4.744-4.419,1.325.29-1.77,3.707-3.381,4.924-4.585.357-.354,4.406-4.967,4.455-2.064" transform="translate(-1484.153 -1158.29)" fill="#4d812e"/>
    <path id="Trazado_878895" data-name="Trazado 878895" d="M1343.776,1483.949c-2.668,0,.548-2.984,1.1-3.471,1.4-1.237,2.965-4.083,4.772-4.713,2.6-.906.9,2.072.051,2.946-.882.9-1.791,1.779-2.686,2.669-.673.67-2.115,2.726-3.239,2.569" transform="translate(-1267.71 -1393.157)" fill="#4d812e"/>
    <path id="Trazado_878896" data-name="Trazado 878896" d="M1765.5,1655.593c.276,1.121-3.054,2.948-3.74,3.771-.729.875-2.474,2.749-3.01.575-.4-1.615,1.709-3.268,2.826-4.026.791-.537,3.942-2.7,3.925-.32" transform="translate(-1660.462 -1562.071)" fill="#4d812e"/>
    <path id="Trazado_878897" data-name="Trazado 878897" d="M1285.483,1640.716c-1.547,0-1.039-2.222.2-2.355,1.792-.193,1.4,2.358-.2,2.355" transform="translate(-1212.751 -1546.825)" fill="#4d812e"/>
    <path id="Trazado_878898" data-name="Trazado 878898" d="M65.39,225.88c-.007,2.068-3.541,2.143-3.289.038.2-1.7,3.3-1.964,3.289-.038" transform="translate(-58.563 -211.944)" fill="#4d812e"/>
  </g>
</svg>
