<svg xmlns="http://www.w3.org/2000/svg" xmlns:xlink="http://www.w3.org/1999/xlink" width="56.588" height="55.008" viewBox="0 0 56.588 55.008">
  <defs>
    <clipPath id="clip-path">
      <rect id="Rectángulo_402584" data-name="Rectángulo 402584" width="38.238" height="38.264" fill="#59836b"/>
    </clipPath>
  </defs>
  <g id="Grupo_1100546" data-name="Grupo 1100546" transform="translate(-946.867 -4966.144)">
    <g id="Grupo_1098742" data-name="Grupo 1098742" transform="translate(946.867 4966.144)">
      <g id="Rectángulo_400898" data-name="Rectángulo 400898" fill="#fff" stroke="#fff" stroke-width="3" opacity="0.859">
        <rect width="56.588" height="55.009" rx="27.504" stroke="none"/>
        <rect x="1.5" y="1.5" width="53.588" height="52.009" rx="26.004" fill="none"/>
      </g>
      <g id="Rectángulo_400907" data-name="Rectángulo 400907" transform="translate(0)" fill="none" stroke="#fff" stroke-width="3">
        <rect width="56.588" height="55.009" rx="27.504" stroke="none"/>
        <rect x="1.5" y="1.5" width="53.588" height="52.009" rx="26.004" fill="none"/>
      </g>
    </g>
    <g id="Grupo_1100471" data-name="Grupo 1100471" transform="translate(956.042 4974.516)">
      <g id="Grupo_1100470" data-name="Grupo 1100470" clip-path="url(#clip-path)">
        <path id="Trazado_881845" data-name="Trazado 881845" d="M19.136,37.093A18.014,18.014,0,0,0,36.772,22.037,17.487,17.487,0,0,0,33.706,8.756c-.086-.122-.175-.241-.261-.362-.242-.339-.348-.7.051-.975s.7-.052.945.28a18.892,18.892,0,0,1,3,5.949A19.12,19.12,0,1,1,16.252.225,18.694,18.694,0,0,1,32.288,5.273a1.346,1.346,0,0,1,.426.5.782.782,0,0,1-.092.654.766.766,0,0,1-.656.129c-.217-.066-.386-.3-.57-.462C26.263,1.493,20.32.04,13.77,2.083,7.269,4.11,3.194,8.672,1.633,15.306a17.87,17.87,0,0,0,14.04,21.369c1.142.209,2.308.282,3.464.417" transform="translate(0 0)" fill="#59836b"/>
        <path id="Trazado_881846" data-name="Trazado 881846" d="M15.956,34.423c-.03-.929.106-1.073.922-1.09a1.869,1.869,0,0,0,.663-.021,3.074,3.074,0,0,0,.635-.5,2.891,2.891,0,0,0-.636-.585A1.974,1.974,0,0,0,16.8,32.2c-.726-.021-.97-.189-.834-.884a23.974,23.974,0,0,1,1.153-4.739A16.694,16.694,0,0,1,30.547,16.09c.244-.04.495-.031.742-.053.561-.048.844.193.83.769a2.458,2.458,0,0,0,.031.885c.087.231.363.39.555.581a6.423,6.423,0,0,0,.526-.607c.058-.085.013-.242.014-.366.013-1.241.143-1.355,1.4-1.234A17.107,17.107,0,0,1,49.23,29.715c.1.562.17,1.128.227,1.694a.646.646,0,0,1-.72.807,3.454,3.454,0,0,0-1.033.045c-.22.074-.363.38-.54.583.187.164.351.4.568.472a2.9,2.9,0,0,0,.813.027c.767.024.974.246.885,1.01a16.728,16.728,0,0,1-9.247,13.451,15.057,15.057,0,0,1-5.961,1.722c-.751.062-.966-.13-.982-.912a2.582,2.582,0,0,0-.03-.811c-.081-.216-.365-.539-.5-.511a.965.965,0,0,0-.576.524,2.3,2.3,0,0,0-.031.809c-.017.785-.214.961-.988.893a15.905,15.905,0,0,1-7.872-2.878A16.851,16.851,0,0,1,15.992,34.9c-.029-.2-.03-.4-.036-.478M30.789,48.2c.31-1.526.871-2.17,1.866-2.183s1.51.58,1.945,2.256a15.422,15.422,0,0,0,9.85-5.259,15,15,0,0,0,3.724-8.382c-1.465-.173-2.211-.727-2.231-1.71-.029-1.423.949-1.884,2.162-1.983-.464-7-7.023-13.231-13.555-13.557-.241,1.4-.79,2.091-1.777,2.1a1.472,1.472,0,0,1-1.029-.314,14.515,14.515,0,0,1-1.164-1.855,15.355,15.355,0,0,0-9.914,5.554,14.994,14.994,0,0,0-3.453,8.036c1.5.262,2.161.835,2.19,1.831s-.594,1.543-2.141,1.928A15.4,15.4,0,0,0,30.789,48.2" transform="translate(-13.561 -13.641)" fill="#59836b"/>
        <path id="Trazado_881847" data-name="Trazado 881847" d="M47.427,60.141c-.157,3.016,2.855,6.605,5.89,6.886-.058-.426-.108-.829-.17-1.231-.067-.433-.031-.845.487-.917.475-.066.628.323.709.7a12.179,12.179,0,0,1,.138,4.952,1.189,1.189,0,0,0,.627,1.41,1.49,1.49,0,0,0,1.745.126,1.891,1.891,0,0,0,.911-1.927c-.156-1.4-.094-2.82-.115-4.232a.859.859,0,0,1,.1-.5,4.261,4.261,0,0,1,.606-.545c.181.228.47.436.518.689a7.7,7.7,0,0,1,.024,1.4c2.663-.006,5.845-3.812,5.69-6.892-.2.152-.373.274-.538.4a9.026,9.026,0,0,1-5.4,2.049A1.924,1.924,0,0,0,56.6,64.182c-.07.253-.38.44-.58.657-.21-.231-.576-.446-.6-.7a1.633,1.633,0,0,0-1.455-1.467c-.431-.107-.883-.128-1.322-.2-.386-.066-.71-.3-.579-.692a.887.887,0,0,1,.682-.494c1.158.09,2.355.143,3.255,1.225.833-1.09,2-1.187,3.212-1.275a7.544,7.544,0,0,0,4.45-2.047c.46-.4.9-.961,1.61-.618.69.332.605,1.015.592,1.635a8.8,8.8,0,0,1-6.208,7.921c-.256.078-.514.152-.849.251.056.734.111,1.443.172,2.242a3.488,3.488,0,0,1,2.932,1.258c.652.633,1.412.526,2.212-.095a7.768,7.768,0,0,1,1.791-1.147,2.212,2.212,0,0,1,2.635.994,1.233,1.233,0,0,1,.1.841c-.372,1.413-.764,2.823-1.2,4.218a2.859,2.859,0,0,1-2.812,2.036c-2.359.013-4.718,0-7.077.006-.454,0-.92-.044-.913-.611.007-.551.47-.621.923-.621q3.352,0,6.7,0c1.354,0,1.777-.329,2.158-1.661l.3-1.034a1.3,1.3,0,0,0-1.529.467A3.081,3.081,0,0,1,63,76.359a2.627,2.627,0,0,1-2.072-.83c-1.073-1.09-1.82-1.085-2.886,0a2.806,2.806,0,0,1-4.011.031,5.17,5.17,0,0,0-.6-.551,1.379,1.379,0,0,0-2.051.218,2.888,2.888,0,0,1-4.575.044c-.438-.571-.72-.6-1.526-.478a15.279,15.279,0,0,0,.549,1.754,1.615,1.615,0,0,0,1.627.956c2.16-.012,4.321,0,6.481,0h.6c.438,0,.843.123.843.627s-.41.6-.849.6c-2.409-.005-4.817.01-7.226-.009a2.843,2.843,0,0,1-2.733-2.041c-.435-1.4-.846-2.8-1.189-4.22a1.349,1.349,0,0,1,.3-1.049,2.746,2.746,0,0,1,3.881-.008,4.379,4.379,0,0,0,.91.75,1.32,1.32,0,0,0,1.641-.282c1.179-1.212,1.418-1.213,3.168-1.308l.211-2.126c-.406-.112-.737-.2-1.065-.3a8.871,8.871,0,0,1-6.269-8.272c0-.539.033-1.069.6-1.331.546-.251.937.1,1.341.4.759.555,1.512,1.117,2.3,1.636.361.239.628.533.355.889a.924.924,0,0,1-.877.174c-.827-.434-1.6-.969-2.437-1.494M67.073,73.492c.09-.253.155-.413.2-.577.236-.792-.007-1.165-.818-1.019A3.13,3.13,0,0,0,65,72.655a2.817,2.817,0,0,1-4.211-.154,1.507,1.507,0,0,0-2.571-.053,2.767,2.767,0,0,1-4.345.07,1.618,1.618,0,0,0-2.633-.026,2.824,2.824,0,0,1-4.322.056,2.683,2.683,0,0,0-1.211-.651c-.909-.185-1.22.213-.951,1.084.049.16.118.313.187.5a3.089,3.089,0,0,1,2.63.822c1.211,1.211,1.766,1.208,2.969.021a2.778,2.778,0,0,1,4,0,6.082,6.082,0,0,0,.48.465,1.471,1.471,0,0,0,2.229-.19,2.771,2.771,0,0,1,4.44-.028,1.552,1.552,0,0,0,2.366.1,3.312,3.312,0,0,1,3.015-1.169" transform="translate(-36.895 -49.747)" fill="#59836b"/>
      </g>
    </g>
  </g>
</svg>
