<svg xmlns="http://www.w3.org/2000/svg" xmlns:xlink="http://www.w3.org/1999/xlink" width="601.957" height="428.19" viewBox="0 0 601.957 428.19">
  <defs>
    <clipPath id="clip-path">
      <rect id="Rectángulo_400902" data-name="Rectángulo 400902" width="90.344" height="80.095" fill="#fff5e2"/>
    </clipPath>
    <clipPath id="clip-path-2">
      <rect id="Rectángulo_402475" data-name="Rectángulo 402475" width="252.862" height="304.341" fill="none"/>
    </clipPath>
  </defs>
  <g id="Grupo_1100542" data-name="Grupo 1100542" transform="translate(-742 -399.996)">
    <rect id="BG" width="601.957" height="428.19" transform="translate(742 399.996)" fill="#effaf4" opacity="0.949"/>
    <g id="Grupo_1100541" data-name="Grupo 1100541" transform="translate(-154.123)">
      <path id="Rectángulo_401347" data-name="Rectángulo 401347" d="M95.334,0h0a95.334,95.334,0,0,1,95.334,95.334V327.787a0,0,0,0,1,0,0H0a0,0,0,0,1,0,0V95.334A95.334,95.334,0,0,1,95.334,0Z" transform="translate(1114.646 433.929)" fill="#b8ccab"/>
      <path id="Trazado_880911" data-name="Trazado 880911" d="M103.217,0A103.217,103.217,0,0,1,206.433,103.217V346.869H0V103.217A103.217,103.217,0,0,1,103.217,0Z" transform="translate(1089.795 433.929)" fill="#4d812e"/>
      <g id="Grupo_1099384" data-name="Grupo 1099384" transform="translate(1229.971 656.646)">
        <g id="Grupo_1098724" data-name="Grupo 1098724" transform="translate(0 0)">
          <g id="Grupo_1098723" data-name="Grupo 1098723" clip-path="url(#clip-path)">
            <path id="Trazado_872910" data-name="Trazado 872910" d="M3.607,1.8A1.8,1.8,0,1,1,1.8,0a1.8,1.8,0,0,1,1.8,1.8" fill="#fff5e2"/>
            <path id="Trazado_872911" data-name="Trazado 872911" d="M32.561,1.8a1.8,1.8,0,1,1-1.8-1.8,1.8,1.8,0,0,1,1.8,1.8" transform="translate(-11.606)" fill="#fff5e2"/>
            <path id="Trazado_872912" data-name="Trazado 872912" d="M61.514,1.8A1.8,1.8,0,1,1,59.71,0a1.8,1.8,0,0,1,1.8,1.8" transform="translate(-23.212)" fill="#fff5e2"/>
            <path id="Trazado_872913" data-name="Trazado 872913" d="M90.467,1.8a1.8,1.8,0,1,1-1.8-1.8,1.8,1.8,0,0,1,1.8,1.8" transform="translate(-34.818)" fill="#fff5e2"/>
            <path id="Trazado_872914" data-name="Trazado 872914" d="M119.42,1.8a1.8,1.8,0,1,1-1.8-1.8,1.8,1.8,0,0,1,1.8,1.8" transform="translate(-46.423)" fill="#fff5e2"/>
            <path id="Trazado_872915" data-name="Trazado 872915" d="M148.374,1.8a1.8,1.8,0,1,1-1.8-1.8,1.8,1.8,0,0,1,1.8,1.8" transform="translate(-58.029)" fill="#fff5e2"/>
            <path id="Trazado_872916" data-name="Trazado 872916" d="M3.607,33.718a1.8,1.8,0,1,1-1.8-1.8,1.8,1.8,0,0,1,1.8,1.8" transform="translate(0 -12.793)" fill="#fff5e2"/>
            <path id="Trazado_872917" data-name="Trazado 872917" d="M32.561,33.718a1.8,1.8,0,1,1-1.8-1.8,1.8,1.8,0,0,1,1.8,1.8" transform="translate(-11.606 -12.793)" fill="#fff5e2"/>
            <path id="Trazado_872918" data-name="Trazado 872918" d="M61.514,33.718a1.8,1.8,0,1,1-1.8-1.8,1.8,1.8,0,0,1,1.8,1.8" transform="translate(-23.212 -12.793)" fill="#fff5e2"/>
            <path id="Trazado_872919" data-name="Trazado 872919" d="M90.467,33.718a1.8,1.8,0,1,1-1.8-1.8,1.8,1.8,0,0,1,1.8,1.8" transform="translate(-34.818 -12.793)" fill="#fff5e2"/>
            <path id="Trazado_872920" data-name="Trazado 872920" d="M119.42,33.718a1.8,1.8,0,1,1-1.8-1.8,1.8,1.8,0,0,1,1.8,1.8" transform="translate(-46.423 -12.793)" fill="#fff5e2"/>
            <path id="Trazado_872921" data-name="Trazado 872921" d="M148.374,33.718a1.8,1.8,0,1,1-1.8-1.8,1.8,1.8,0,0,1,1.8,1.8" transform="translate(-58.029 -12.793)" fill="#fff5e2"/>
            <path id="Trazado_872922" data-name="Trazado 872922" d="M3.607,65.633a1.8,1.8,0,1,1-1.8-1.8,1.8,1.8,0,0,1,1.8,1.8" transform="translate(0 -25.586)" fill="#fff5e2"/>
            <path id="Trazado_872923" data-name="Trazado 872923" d="M32.561,65.633a1.8,1.8,0,1,1-1.8-1.8,1.8,1.8,0,0,1,1.8,1.8" transform="translate(-11.606 -25.586)" fill="#fff5e2"/>
            <path id="Trazado_872924" data-name="Trazado 872924" d="M61.514,65.633a1.8,1.8,0,1,1-1.8-1.8,1.8,1.8,0,0,1,1.8,1.8" transform="translate(-23.212 -25.586)" fill="#fff5e2"/>
            <path id="Trazado_872925" data-name="Trazado 872925" d="M90.467,65.633a1.8,1.8,0,1,1-1.8-1.8,1.8,1.8,0,0,1,1.8,1.8" transform="translate(-34.818 -25.586)" fill="#fff5e2"/>
            <path id="Trazado_872926" data-name="Trazado 872926" d="M119.42,65.633a1.8,1.8,0,1,1-1.8-1.8,1.8,1.8,0,0,1,1.8,1.8" transform="translate(-46.423 -25.586)" fill="#fff5e2"/>
            <path id="Trazado_872927" data-name="Trazado 872927" d="M148.374,65.633a1.8,1.8,0,1,1-1.8-1.8,1.8,1.8,0,0,1,1.8,1.8" transform="translate(-58.029 -25.586)" fill="#fff5e2"/>
            <path id="Trazado_872928" data-name="Trazado 872928" d="M3.607,97.548a1.8,1.8,0,1,1-1.8-1.8,1.8,1.8,0,0,1,1.8,1.8" transform="translate(0 -38.379)" fill="#fff5e2"/>
            <path id="Trazado_872929" data-name="Trazado 872929" d="M32.561,97.548a1.8,1.8,0,1,1-1.8-1.8,1.8,1.8,0,0,1,1.8,1.8" transform="translate(-11.606 -38.379)" fill="#fff5e2"/>
            <path id="Trazado_872930" data-name="Trazado 872930" d="M61.514,97.548a1.8,1.8,0,1,1-1.8-1.8,1.8,1.8,0,0,1,1.8,1.8" transform="translate(-23.212 -38.379)" fill="#fff5e2"/>
            <path id="Trazado_872931" data-name="Trazado 872931" d="M90.467,97.548a1.8,1.8,0,1,1-1.8-1.8,1.8,1.8,0,0,1,1.8,1.8" transform="translate(-34.818 -38.379)" fill="#fff5e2"/>
            <path id="Trazado_872932" data-name="Trazado 872932" d="M119.42,97.548a1.8,1.8,0,1,1-1.8-1.8,1.8,1.8,0,0,1,1.8,1.8" transform="translate(-46.423 -38.379)" fill="#fff5e2"/>
            <path id="Trazado_872933" data-name="Trazado 872933" d="M148.374,97.548a1.8,1.8,0,1,1-1.8-1.8,1.8,1.8,0,0,1,1.8,1.8" transform="translate(-58.029 -38.379)" fill="#fff5e2"/>
            <path id="Trazado_872934" data-name="Trazado 872934" d="M3.607,129.463a1.8,1.8,0,1,1-1.8-1.8,1.8,1.8,0,0,1,1.8,1.8" transform="translate(0 -51.172)" fill="#fff5e2"/>
            <path id="Trazado_872935" data-name="Trazado 872935" d="M32.561,129.463a1.8,1.8,0,1,1-1.8-1.8,1.8,1.8,0,0,1,1.8,1.8" transform="translate(-11.606 -51.172)" fill="#fff5e2"/>
            <path id="Trazado_872936" data-name="Trazado 872936" d="M61.514,129.463a1.8,1.8,0,1,1-1.8-1.8,1.8,1.8,0,0,1,1.8,1.8" transform="translate(-23.212 -51.172)" fill="#fff5e2"/>
            <path id="Trazado_872937" data-name="Trazado 872937" d="M90.467,129.463a1.8,1.8,0,1,1-1.8-1.8,1.8,1.8,0,0,1,1.8,1.8" transform="translate(-34.818 -51.172)" fill="#fff5e2"/>
            <path id="Trazado_872938" data-name="Trazado 872938" d="M119.42,129.463a1.8,1.8,0,1,1-1.8-1.8,1.8,1.8,0,0,1,1.8,1.8" transform="translate(-46.423 -51.172)" fill="#fff5e2"/>
            <path id="Trazado_872939" data-name="Trazado 872939" d="M148.374,129.463a1.8,1.8,0,1,1-1.8-1.8,1.8,1.8,0,0,1,1.8,1.8" transform="translate(-58.029 -51.172)" fill="#fff5e2"/>
          </g>
        </g>
      </g>
      <path id="Rectángulo_401350" data-name="Rectángulo 401350" d="M0,0H215.52a0,0,0,0,1,0,0V14.62a19,19,0,0,1-19,19H19a19,19,0,0,1-19-19V0A0,0,0,0,1,0,0Z" transform="translate(1089.795 761.716)" fill="#c6e5e6"/>
      <g id="Grupo_1100240" data-name="Grupo 1100240" transform="translate(1071.123 457.375)">
        <g id="Grupo_1100239" data-name="Grupo 1100239" clip-path="url(#clip-path-2)">
          <path id="Trazado_881328" data-name="Trazado 881328" d="M58.27,309.5c7.281-.982,18.719-5.741,24.769-9.912,45.669-31.467,80.972-137.329,80.972-137.329s-.639-30.573-3.624-45.458c-2.949-14.694-22.562-20.926-37.126-19.355-20.585,2.221-59.119,8.589-68.284,10.134-15.167,2.557-21.684,10.052-21.741,17.458,0,0-9.562,116.806-1.318,167.337C33.6,302.717,48.246,310.862,58.27,309.5" transform="translate(-8.293 -28.223)" fill="#0f0f0f"/>
          <path id="Trazado_881329" data-name="Trazado 881329" d="M58.581,304.235c7.727.006,14.786-5.291,18.77-10.953,11.368-16.155,4.753-55.434,3.823-55.374-1.36.091-15.493-65.547-23.641-102.834-1.147-5.252-5.783-8.045-10.987-8.056a16.646,16.646,0,0,0-13.109,6.676s-2.974,36.354-4.173,77.271c2.074,10.329,4.082,20.548,4.86,30.206,1.489,18.462,2,27.252,4.193,47.756.842,7.863,12.354,15.3,20.264,15.308" transform="translate(-8.496 -36.875)" fill="#3b3b3b"/>
          <path id="Trazado_881330" data-name="Trazado 881330" d="M39.154,93.189c39.985-4.7,112.016-5.577,120.865-12.908,8.548-21.4,1.5-45.631-6.733-49.4L36.592,41.364c-2.334.9-2.389,2.045-2.837,3.152l2.023,45.877a3.337,3.337,0,0,0,3.377,2.8" transform="translate(-9.8 -8.966)" fill="#292929"/>
          <path id="Trazado_881331" data-name="Trazado 881331" d="M39.154,97.11c3.746-.44,7.764-.857,11.978-1.258,5.794-11.982,10.625-37.312-4.538-51.464l-10,.9c-2.334.9-2.389,2.045-2.837,3.152l2.023,45.877a3.337,3.337,0,0,0,3.377,2.8" transform="translate(-9.8 -12.886)" fill="#1c1c1c"/>
          <path id="Trazado_881332" data-name="Trazado 881332" d="M32.795,95.744a8.2,8.2,0,0,0,7.529-2.231c5.029-5.07,6.23-13.454,5.929-20.587-.326-7.692-2.368-16.593-8.235-21.577-1.881-1.6-5.149-2.777-7.246-1.483-7.508,4.624-7.86,16.762-6.918,25.529.819,7.632,4.123,18.961,8.941,20.349" transform="translate(-6.817 -14.316)" fill="#0a0a0a"/>
          <path id="Trazado_881333" data-name="Trazado 881333" d="M112.116,36.757c1.4,12.509,6.349,11.363,10.549,24.522l52.641-28.649c9.614-4.717,20.854-8.53,16.07-27.718,0,0-3.094,4.388-6.382,4.714-12.168,1.194-31.741-15.668-51.615-7.275-16.221,6.851-12.344,21.2-12.344,21.2s-10.19,1.85-8.919,13.21" transform="translate(-32.517 0)" fill="#080808"/>
          <path id="Trazado_881334" data-name="Trazado 881334" d="M124.523,66.991c-10.637-2.443-5.36,18.61,3.954,17.539,2.2-.252,2.464-3.9,3.209-2.716,5.235,8.329,7.32,10.473,13.05,13.839,5.63,3.308,14.5,2.747,20.265,1.282,5.223-1.331,12.954-6.628,14.444-14.558,3.228-17.149.688-29.328-2.567-38.2-20.157,1.981-23.54-6.6-32.54-4.466-4.881,1.157-5.512,4.282-9.851,5.63-2.1.65-4.752.485-5.939,2.33-2.294,3.558,1.554,8.17,1.514,12.4-.032,3.181-2.125,3.834-1.1,9.386-1.3,1.564-2.46-2.017-4.445-2.47" transform="translate(-34.442 -11.429)" fill="#fcf5e0"/>
          <path id="Trazado_881335" data-name="Trazado 881335" d="M207.882,75.459l-.757-10.772-9.085.874c-3.152,1.084-3.284,8.61.933,10.481Z" transform="translate(-56.825 -18.78)" fill="#121212"/>
          <path id="Trazado_881336" data-name="Trazado 881336" d="M242.43,73.435l-.845-16.726L213.6,60.915c-5.941,1.331-4.3,13.893.989,13.8Z" transform="translate(-60.918 -16.463)" fill="#0a0a0a"/>
          <path id="Trazado_881337" data-name="Trazado 881337" d="M304.96,71.95l-1.048-29.582-49.187,6.7c-6.786.887-5.979,21.829,1.766,22.247Z" transform="translate(-72.612 -12.3)" fill="#121212"/>
          <path id="Trazado_881338" data-name="Trazado 881338" d="M324.884,37.531c-6.724,7.992-5.59,29.375.933,35.753l11.646-.233c-8.742-6.777-10.175-29.9-1.863-36.918Z" transform="translate(-93.003 -10.49)" fill="#0a0a0a"/>
          <path id="Trazado_881339" data-name="Trazado 881339" d="M341.8,73.048c2.218-.093,4.264-2.152,5.688-5.724a33.594,33.594,0,0,0,1.908-13.331c-.423-10.331-4.516-18.551-9.135-18.364s-8.018,8.723-7.594,19.056,4.511,18.555,9.133,18.364" transform="translate(-96.567 -10.343)" fill="#525252"/>
          <path id="Trazado_881340" data-name="Trazado 881340" d="M227.095,59.691c1.056-1.913,3.52-4.684,3.128-6.67-.328-1.661-3.493-2.485-4.858-1.483-1.459,1.075-4.107,5.206-3.707,7.741.364,2.279,4.356,2.368,5.438.412" transform="translate(-64.338 -14.836)" fill="#fcf5e0"/>
          <path id="Trazado_881341" data-name="Trazado 881341" d="M237.223,58.424c1.172-2.116,3.9-5.182,3.461-7.377-.362-1.837-3.865-2.746-5.372-1.638-1.615,1.189-4.544,5.755-4.1,8.56.4,2.521,4.817,2.618,6.011.455" transform="translate(-67.111 -14.204)" fill="#fcf5e0"/>
          <path id="Trazado_881342" data-name="Trazado 881342" d="M248.307,55.7c1.167-2.116,3.9-5.181,3.461-7.376-.364-1.837-3.865-2.75-5.374-1.639-1.617,1.187-4.543,5.755-4.1,8.56.4,2.519,4.815,2.619,6.009.455" transform="translate(-70.329 -13.412)" fill="#fcf5e0"/>
          <path id="Trazado_881343" data-name="Trazado 881343" d="M260.025,51.608c.955-1.731,3.186-4.24,2.832-6.037-.3-1.5-3.163-2.25-4.4-1.342-1.324.972-3.721,4.71-3.355,7.006.328,2.064,3.943,2.145,4.921.373" transform="translate(-74.049 -12.726)" fill="#fcf5e0"/>
          <path id="Trazado_881344" data-name="Trazado 881344" d="M224.534,374.535l-38.542,6.834.98,31.706h41.969Z" transform="translate(-53.996 -108.733)" fill="#121212"/>
          <path id="Trazado_881345" data-name="Trazado 881345" d="M191.824,310.72c1.772-.6,4.661-2.654,6.38-3.391,2.844-1.217,4.47-.806,7.42-1.744,3-.957,8.236-4.614,8.236-4.614-14.3-54.8-26.782-110.338-42.671-161.37l-5.243-6.93-27.4-7.311c-9.158,50.33,19.029,123.16,28.541,184.742,0,0,16.512,3.4,24.74.618" transform="translate(-39.697 -36.394)" fill="#99ae80"/>
          <path id="Trazado_881346" data-name="Trazado 881346" d="M166.291,145.271c0-12.821.508-23.794.794-29.006-5.387.777-11.921.6-16.4-2.035-4.98-2.923-7.209-4.93-11.141-10.87-.191,4.005-.428,9.783-.428,14.408,0,9.734,27.176,39.647,27.176,27.5" transform="translate(-40.387 -30.007)" fill="#fcf5e0"/>
          <path id="Trazado_881347" data-name="Trazado 881347" d="M71.535,142.956C88.641,219.1,90.4,285.718,76.443,340.735h79.15c3.265-141.53-42.52-180.359-35.98-215.375-15.332,12.309-39,10.992-48.078,17.6" transform="translate(-20.768 -36.394)" fill="#839c64"/>
          <path id="Trazado_881348" data-name="Trazado 881348" d="M245.323,346.561C240.7,283.218,225.7,219.876,201.586,158.237l-16.3-12.81c19.641,65.335,35.744,131.257,41.906,201.134Z" transform="translate(-53.79 -42.22)" fill="#839c64"/>
          <path id="Trazado_881349" data-name="Trazado 881349" d="M209.459,152.83c-10.327-8.655-16.211-23.876-31.212-25.62l-.352,6,5.242,6.93,8.386,28.882c1.445-6.4,2.991-19.357,17.936-16.189" transform="translate(-51.646 -36.931)" fill="#789356"/>
          <path id="Trazado_881350" data-name="Trazado 881350" d="M260.692,82.474l-10.541-.138a4.759,4.759,0,0,1-3.414-1.89l-.236-.129-18.225.962s2.483,6.437,4.077,8.442c2.012,2.091,5.941,3.088,6.579,7.455l1.174,71.052-8.4,22.564,3.793,13.062s17.837,15.331,27.018,16.188c7.7.718,13.7-8.441,13.276-15.14-2.36-37.408-17.868-81.836-17.12-107.96.041-2.6,1.873-5.472,2.212-7.337a20.376,20.376,0,0,0-.194-7.131" transform="translate(-66.272 -23.317)" fill="#fcf5e0"/>
          <path id="Trazado_881351" data-name="Trazado 881351" d="M239.157,197.706l-30.59-33.433,17.416,50.893c2.059-5.152,5.037-10.569,13.174-17.46" transform="translate(-60.55 -47.691)" fill="#839c64"/>
          <path id="Trazado_881352" data-name="Trazado 881352" d="M87.133,216.477c-3.571,3.114-.512,19.2,1.63,17.3,34.636-32.8,26.009-64.977,18.974-97.173-.526-1.838-12.951,1.216-12.27,3.169,6.127,15.041,16.248,57.313-8.334,76.708" transform="translate(-24.82 -39.492)" fill="#030303"/>
          <path id="Trazado_881353" data-name="Trazado 881353" d="M118.116,133.046c-3.449,15.835-1.884,32.677.822,49.743,5.179-8.181,10-16.974,23.717-10.213-4.746-14.893-12.645-27.86-10.094-47.216-4.33,3.048-8.606,6.153-14.445,7.687" transform="translate(-33.716 -36.394)" fill="#789356"/>
          <path id="Trazado_881354" data-name="Trazado 881354" d="M20.271,208.113S5.849,224.7,1.288,233.851c-1.715,3.442-1.832,8.362.348,11.528,20.589,29.891,81.756,79.659,81.756,79.659,2.436,2.153,4.694,8.161,7.1,11.063,3.238,3.908,6.509,5.813,11.3,7.555,4.47,1.622,15.214-.309,15.214-.309s9.218,3.664,12.353,9.552c.931,1.749,5.283,2.563,5.846-1.07,1.69-.89,3.046-4.759,2.388-7.163,1.249-.389,2.79-3.981.743-7.084A3.98,3.98,0,0,0,139,333.3s-3.316-6.861-5.848-9.635c-2.3-2.522-6.3-5.944-9.716-6.01-6.866-.135-12.478.93-17.79.328a15.63,15.63,0,0,1-9.387-4.117c-21.546-18.653-54.021-72.054-54.021-72.054l10.141-15.549Z" transform="translate(0 -60.418)" fill="#fcf5e0"/>
          <path id="Trazado_881355" data-name="Trazado 881355" d="M53.18,217.23l23.509-26.317L56.607,150.072c-9.112,7.261-24.676,30.038-36.776,48.368,11.429-4.119,30.216,3.336,33.349,18.79" transform="translate(-5.757 -43.568)" fill="#839c64"/>
          <path id="Trazado_881356" data-name="Trazado 881356" d="M170.649,384.108a5.449,5.449,0,0,1,3.179,1.012,54.885,54.885,0,0,1,6.663,10.933c1.826,3.736,3.039,6.771,3.039,6.771a.423.423,0,0,0,.548.233.419.419,0,0,0,.233-.547s-1.226-3.059-3.067-6.826a55.274,55.274,0,0,0-6.782-11.114c-.828-.957-2.392-1.192-3.747-1.3a18.519,18.519,0,0,0-2.539-.013.42.42,0,1,0,.067.838,17.671,17.671,0,0,1,2.407.009" transform="translate(-48.711 -111.256)" fill="#f9e8bc"/>
          <path id="Trazado_881357" data-name="Trazado 881357" d="M180.456,380.287a2.55,2.55,0,0,1,.832.495,146.679,146.679,0,0,1,8.058,13.76.4.4,0,1,0,.7-.361,146.641,146.641,0,0,0-8.111-13.852,2.428,2.428,0,0,0-1.192-.776,7.483,7.483,0,0,0-.785-.255.4.4,0,0,0-.116-.009.4.4,0,0,0-.074.779,6.443,6.443,0,0,1,.684.22" transform="translate(-52.102 -110.113)" fill="#f9e8bc"/>
          <path id="Trazado_881358" data-name="Trazado 881358" d="M184.381,374.154c2.622,4.39,6.731,11.322,6.731,11.322a.349.349,0,1,0,.6-.357s-4.108-6.931-6.731-11.324a3.04,3.04,0,0,0-.988-.9c-.354-.235-.661-.394-.661-.394a.349.349,0,1,0-.326.617s.28.146.6.357a3.156,3.156,0,0,1,.775.676" transform="translate(-53.073 -108.13)" fill="#f9e8bc"/>
          <path id="Trazado_881359" data-name="Trazado 881359" d="M238.005,81.007a52.306,52.306,0,0,0-4.193-6.348c-2.707-3.142-10.6-4.051-8.619.059,1.3,2.71,2.3,4.643,2.3,4.643Z" transform="translate(-65.286 -20.891)" fill="#fcf5e0"/>
          <path id="Trazado_881360" data-name="Trazado 881360" d="M87.663,56.2a.583.583,0,0,0,1.106-.37c-.823-2.47-2.377-5.442-4.971-6.837a.572.572,0,0,0-.28-.07.581.581,0,0,0-.272,1.1c2.145,1.153,3.648,3.868,4.416,6.179" transform="translate(-24.076 -14.202)" fill="#404040"/>
          <path id="Trazado_881361" data-name="Trazado 881361" d="M167.223,116.267c-.2.028-.406.053-.61.079-.3.04-.6.076-.914.106-.187.021-.379.041-.572.058s-.4.031-.6.05c-.182.011-.362.026-.548.038l-.633.033c-.172.007-.341.015-.512.018q-.308.009-.612.013c-.2,0-.4,0-.607,0-.184,0-.368,0-.549-.006-.214,0-.427-.011-.639-.019-.182-.006-.364-.015-.546-.025-.216-.011-.434-.028-.648-.045-.175-.015-.351-.026-.527-.042q-.563-.053-1.123-.131c-.1-.015-.2-.034-.3-.049-.28-.04-.554-.084-.827-.137-.145-.024-.292-.057-.438-.089-.231-.045-.458-.1-.686-.146-.151-.038-.3-.077-.451-.117-.218-.057-.432-.118-.647-.18-.146-.043-.29-.089-.434-.136-.214-.07-.423-.146-.632-.224-.138-.049-.277-.1-.409-.151-.226-.093-.447-.189-.669-.288-.116-.057-.235-.1-.352-.163-.04-.019-.078-.038-.118-.059-.271-.136-.534-.275-.793-.427-.555-.328-1.067-.641-1.562-.952-.108-.068-.221-.134-.329-.2s-.189-.125-.285-.186c-.189-.123-.377-.248-.557-.37l-.315-.219c-.157-.114-.317-.222-.466-.332l-.347-.254c-.131-.1-.265-.209-.4-.311-.116-.091-.235-.182-.347-.277s-.246-.207-.371-.311-.226-.193-.34-.29c-.2-.178-.4-.362-.595-.553-.016-.013-.034-.028-.05-.044-.1-.1-.2-.2-.3-.305-.121-.119-.243-.238-.364-.365s-.248-.268-.371-.4c-.092-.1-.18-.2-.271-.3-.131-.148-.258-.3-.387-.451-.1-.114-.194-.227-.292-.347-.116-.142-.233-.288-.354-.439s-.233-.294-.351-.446-.214-.28-.321-.421c-.125-.165-.246-.336-.373-.508s-.231-.317-.348-.481c-.033-.045-.068-.1-.1-.144-.423-.6-.859-1.236-1.321-1.93-.008-.011-.011-.019-.019-.031-.028.629-.06,1.363-.091,2.068,5.775,11.976,20.77,21.668,27.114,22.972.167-5.213.372-9.451.52-12.135" transform="translate(-40.525 -30.008)" fill="#f9e9be"/>
          <path id="Trazado_881362" data-name="Trazado 881362" d="M125.28,85.517a6.894,6.894,0,0,1,2.245,1.266.348.348,0,1,0,.426-.551,7.46,7.46,0,0,0-2.5-1.392v0a1.724,1.724,0,0,0-1.675.309,2.257,2.257,0,0,0-.585,1.544,7.032,7.032,0,0,0,.233,2.047A10.532,10.532,0,0,0,125.4,92.8a3.754,3.754,0,0,0,1.5,1.15,1.852,1.852,0,0,0,1.717-.221,4.1,4.1,0,0,0,1.742-3.386.348.348,0,1,0-.7-.013,3.346,3.346,0,0,1-1.446,2.824,1.074,1.074,0,0,1-1.075.138,3.138,3.138,0,0,1-1.2-.944,10,10,0,0,1-1.827-3.772,6.43,6.43,0,0,1-.211-1.842,1.628,1.628,0,0,1,.373-1.081c.2-.191.477-.275,1.013-.136" transform="translate(-35.763 -24.607)" fill="#f9e9be"/>
          <path id="Trazado_881363" data-name="Trazado 881363" d="M241.12,80.924l2.3,4.026s-.617-2.641-.94-4.088Z" transform="translate(-70.001 -23.475)" fill="#f9e9bf"/>
          <path id="Trazado_881364" data-name="Trazado 881364" d="M341.678,41.6a1.439,1.439,0,0,1,1.556.207,3.255,3.255,0,0,1,1.3,1.884.581.581,0,1,0,1.129-.275,4.345,4.345,0,0,0-1.787-2.578,3.177,3.177,0,0,0-1.38-.529,2.26,2.26,0,0,0-1.423.29c-3.1,1.856-4.165,6.041-4.434,10.141a36.785,36.785,0,0,0,.791,10.136.582.582,0,1,0,1.128-.282,36.248,36.248,0,0,1-.754-9.777c.254-3.942,1.351-7.709,3.871-9.216" transform="translate(-97.713 -11.699)" fill="#fff"/>
          <path id="Trazado_881365" data-name="Trazado 881365" d="M134.773,20.047c1-5.33,4.176-8.679,9.6-10.247s13.134-1.19,22.75,1.393a.933.933,0,0,0,.485-1.8,66.777,66.777,0,0,0-13.325-2.322,31.2,31.2,0,0,0-10.43.94c-5.946,1.719-9.8,5.774-10.914,11.7a.932.932,0,1,0,1.831.343" transform="translate(-38.588 -2.03)" fill="#fff"/>
          <path id="Trazado_881366" data-name="Trazado 881366" d="M244.945,204.19l.082,13.917,8.315-10.786Z" transform="translate(-71.111 -59.279)" fill="#fcf5e0"/>
          <path id="Trazado_881367" data-name="Trazado 881367" d="M244.219,217.587c-2.176,2.654-2.661,9.366-.83,12.5-.688-3.059-.566-8.145.828-10.482a17.648,17.648,0,0,0,0-2.023" transform="translate(-70.332 -63.169)" fill="#f9e8bc"/>
          <path id="Trazado_881368" data-name="Trazado 881368" d="M85.043,219.461l1.2,9.377c2.229-7.468,6.029-14.241,9.375-21.218Z" transform="translate(-24.689 -60.275)" fill="#608038"/>
          <path id="Trazado_881369" data-name="Trazado 881369" d="M227.348,211.5l-18.781-47.225,17.416,50.892Z" transform="translate(-60.55 -47.691)" fill="#608038"/>
          <path id="Trazado_881370" data-name="Trazado 881370" d="M125.019,387.29c4.521,1.471,15.192-.827,15.192-.827s9.338,3.344,12.672,9.122c.859,1.483,4.235,2.174,5.427-.011a3.437,3.437,0,0,1-2.872-1.477c-3.135-5.888-12.353-9.552-12.353-9.552s-10.744,1.932-15.214.309c-4.794-1.742-8.066-3.653-11.3-7.556-2.407-2.9-4.664-8.909-7.1-11.062,0,0-8.017-6.531-19.166-16.218q-.215,3.318-.485,6.6c9.588,7.7,16.171,12.7,16.171,12.7,2.507,2.066,4.969,7.992,7.476,10.81,3.368,3.793,6.7,5.588,11.555,7.164" transform="translate(-26.075 -101.615)" fill="#608038"/>
          <path id="Trazado_881371" data-name="Trazado 881371" d="M75,335.621l0-.008c-11.1-9.644-25.208-22.424-37.887-35.186.36,4.612.741,9.538,1.088,13.731l36.318,28.065Z" transform="translate(-10.773 -87.218)" fill="#1a1a1a"/>
        </g>
      </g>
    </g>
  </g>
</svg>
