<svg xmlns="http://www.w3.org/2000/svg" xmlns:xlink="http://www.w3.org/1999/xlink" width="400" height="340" viewBox="0 0 400 340">
  <defs>
    <clipPath id="clip-path">
      <rect id="Rectángulo_402685" data-name="Rectángulo 402685" width="400" height="340" transform="translate(1020.051 3114)" fill="none"/>
    </clipPath>
    <clipPath id="clip-path-2">
      <rect id="Rectángulo_402671" data-name="Rectángulo 402671" width="348.606" height="314.237" transform="translate(0 0)" fill="#e2f2f3"/>
    </clipPath>
    <clipPath id="clip-path-3">
      <rect id="Rectángulo_402669" data-name="Rectángulo 402669" width="467.329" height="389.582" transform="translate(0 0)" fill="none"/>
    </clipPath>
  </defs>
  <g id="Enmascarar_grupo_1098735" data-name="Enmascarar grupo 1098735" transform="translate(-1020.051 -3114)" clip-path="url(#clip-path)">
    <g id="Grupo_1100542" data-name="Grupo 1100542">
      <rect id="Rectángulo_402627" data-name="Rectángulo 402627" width="400" height="340" transform="translate(1020.051 3114)" fill="#ffe8b6"/>
      <g id="Grupo_1100530" data-name="Grupo 1100530" transform="translate(1045.748 3139.766)">
        <g id="Grupo_1100529" data-name="Grupo 1100529" transform="translate(0 -0.003)" clip-path="url(#clip-path-2)">
          <path id="Trazado_882355" data-name="Trazado 882355" d="M6.133,310.89q.291,1.678.6,3.344h341.76q.054-1.683.082-3.344c.27-15.963-1.174-30.111-1.564-37.058-.563-10.026-5.651-20.429-15.711-27.8s-23.7-11.516-37.929-11.516V78.637c0-20.857-11.3-40.859-31.421-55.607S214.542,0,186.09,0h0c-28.452,0-55.739,8.285-75.857,23.033S78.811,57.78,78.811,78.637v41.688c-41.451,0-70.862,29.265-75.054,55.017C-.712,202.8-2.58,260.69,6.133,310.89" transform="translate(0 0.003)" fill="#ccba92" fill-rule="evenodd"/>
        </g>
      </g>
    </g>
    <g id="Grupo_1100525" data-name="Grupo 1100525" transform="translate(981.244 3058.564)">
      <g id="Grupo_1100524" data-name="Grupo 1100524" transform="translate(0 0.004)" clip-path="url(#clip-path-3)">
        <path id="Trazado_881962" data-name="Trazado 881962" d="M1840.894,2395.25l39.311-12.7,43.47,80.8-6.349,8.061Z" transform="translate(-1627.977 -2101.968)" fill="#608038"/>
        <path id="Trazado_881963" data-name="Trazado 881963" d="M2386.017,3068.676l13.98,13.882s9.791-3.629,11.3,2.1-.691,4.979-.691,4.979l-46.9.393.092-17.67s7.956,4.177,12.293,3.057,9.927-6.74,9.927-6.74" transform="translate(-2090.319 -2707.287)" fill="#1f1f1f"/>
        <path id="Trazado_881964" data-name="Trazado 881964" d="M2363.719,3241l.091,4.042h47.884l.018-4.779-39.655.589Z" transform="translate(-2090.331 -2858.67)"/>
        <path id="Trazado_881965" data-name="Trazado 881965" d="M1825.566,2158.841c.742.358,35.215,10.8,35.215,10.8l9.98,4.644-11.21,19.954-34.214-6.609-6.267-22.028s6.13-6.93,6.5-6.757" transform="translate(-1608.677 -1904.598)" fill="#738f50"/>
        <path id="Trazado_881966" data-name="Trazado 881966" d="M1687.02,1790.805l1.874,3.955-11.043,6.48-7.332-18.336,3.472-2.478s-9.077-8.869-6.293-21.529,10.474-19.337,23.411-17.255a31.537,31.537,0,0,1,19.705,12.017Z" transform="translate(-1474.343 -1536.203)" fill="#c1dcdd"/>
        <path id="Trazado_881967" data-name="Trazado 881967" d="M1777.9,2031.978l-.731,2.969s-4.454-3.427-5.982-7.916a36.674,36.674,0,0,1-1.4-10.6l4.169-1.874Z" transform="translate(-1565.091 -1777.308)" fill="#8abdbf"/>
        <path id="Trazado_881968" data-name="Trazado 881968" d="M1785.657,1805.529c1.2-4.179,5.24.148,7.338-1.805,4.392-4.094,8.135-11.162,14.606-9.241,9.559,2.839,15.2,17.55,6.416,30.477-7.529,11.083-15.758,17.249-23.98,11.536-4.517-3.136-1.949-18.935-2.333-22.5s-2.87-5.582-2.047-8.465" transform="translate(-1578.982 -1582.866)" fill="#c1dcdd"/>
        <path id="Trazado_881969" data-name="Trazado 881969" d="M1687.657,1705.758l-6.688,7.945s-1.324-5.548-.551-7.151c.749-1.547-5.426-4.159-5.754.618-.123,1.822,2.036,3.355,2.4,6.069a13.828,13.828,0,0,1-.873,7.387l-9.558,7.212s-18.566-23.69,4.769-42.928a10.777,10.777,0,0,1,1.69-1.359c11.433-5.865,17.2-.511,30.4,6.1,15.448,7.741,18.974,7.1,18.974,7.1s-4.064,17.988-15.385,15.427a115.45,115.45,0,0,1-19.422-6.42" transform="translate(-1467.68 -1483.062)"/>
        <path id="Trazado_881970" data-name="Trazado 881970" d="M1812.712,1944.881s-2.209,6.622-1.732,11.621a26.781,26.781,0,0,0,2.883,9.3l8.006,3.564-4.95,9.593-7.213-10.169a24.349,24.349,0,0,1-1.912-11.168c.471-6.169,3.794-13.509,3.794-13.509" transform="translate(-1598.65 -1715.161)"/>
        <path id="Trazado_881971" data-name="Trazado 881971" d="M1301.549,2519.659s6.094,19.86,21.388,23.259,23.169,3.816,39.793-9.662,23.373-43.471,23.373-43.471l30.292,33.836s7.668,6.672,13.223,5.75,9-9.433,9-9.433-45.332-71.857-58.381-73.177c-27.141-2.742-78.689,72.9-78.689,72.9" transform="translate(-1151.012 -2158.55)" fill="#65843e"/>
        <path id="Trazado_881972" data-name="Trazado 881972" d="M1313.558,2046.059l15.714,21.655s5.97,16.19-.062,29.985c-2.753,6.3-13.35,12.39-21.368,23.631a73.18,73.18,0,0,0-10.679,21.334l-35.431,26.4s-4.653-51.315,7.393-82.01,44.433-40.994,44.433-40.994" transform="translate(-1115.018 -1805.101)" fill="#91a776"/>
        <path id="Trazado_881973" data-name="Trazado 881973" d="M1328.7,2109.134l-37.728-10.049s-15.757,4.258-19.1,15.62c-1.936,6.59-5.766,50.809-5.766,50.809l16.085,2.11-19.909,14.837s-4.425-51.706,7.393-82.009,39.868-39.206,39.868-39.206l7.04,10.309Z" transform="translate(-1115.574 -1818.5)" fill="#859d66"/>
        <path id="Trazado_881974" data-name="Trazado 881974" d="M1681.675,2046.059l13.5,18.431-1.645,9.9-16.419-26.546Z" transform="translate(-1483.135 -1805.101)" fill="#fcf5e0"/>
        <path id="Trazado_881975" data-name="Trazado 881975" d="M1582.4,2149.331l-45.424-26.095s-15.943-.935-19.328,5.86,2.042,19.861,2.042,19.861l53.448,22.923Z" transform="translate(-1341.139 -1873.151)" fill="#91a776"/>
        <path id="Trazado_881976" data-name="Trazado 881976" d="M2089.694,2255.173l-9.979-4.645-13.078,22.311,11.848,2.288Z" transform="translate(-1827.609 -1985.491)" fill="#fcf5e0"/>
        <path id="Trazado_881977" data-name="Trazado 881977" d="M1901.883,2293.543l-11.99-6.888-12.09,23.081,14.817,6.356Z" transform="translate(-1660.617 -2017.362)" fill="#fcf5e0"/>
        <path id="Trazado_881978" data-name="Trazado 881978" d="M2024.077,2345.143l28.023,19.671,5.687,2.247,1.425,15.652-4.838,2.478-5.214-9.613-25.083-7.887-8.1-2.836Z" transform="translate(-1782.811 -2068.963)" fill="#c1dcdd"/>
        <path id="Trazado_881979" data-name="Trazado 881979" d="M2029.843,2345.143c-.006,0-1.245,3.267,0,5.225s4.986,2.605,4.986,2.605-9.948,4.214-10.957,6.681l-1.374,3.354,6.367,1.867-2.618,1.556,10.294,3.367,5.879-15.828-12.578-8.826" transform="translate(-1788.577 -2068.963)" fill="#8abdbf"/>
        <path id="Trazado_881980" data-name="Trazado 881980" d="M2053.308,2289.966s11.014,6.156,12.816,12.7-5.611,13.471-5.611,13.471l-2.639.567-5.73,6.184-16.091,3.909-3.564.122-2.239-1.929-.471-2.13-2.246-.552-.321-2.43,14.959-7.722-3.243.26-10.993,2.691s-2.208-.29-2.425-1.646,1.553-3.784,1.553-3.784l13.246-4.115,2.888-1.576-2.375-1.667s-4.949-.617-6.471-1.682c-2.679-1.879-1.862-4.168-1.862-4.168l11.9.831,8.569,4.312-4.672-2.692Z" transform="translate(-1791.223 -2020.284)" fill="#c1dcdd"/>
        <path id="Trazado_881981" data-name="Trazado 881981" d="M2235.826,2512.177l-2.638.567-5.73,6.184-3.724.9,5.562,1.981,4.91-6.463,5.717-1.554Z" transform="translate(-1966.537 -2216.326)" fill="#8abdbf"/>
        <path id="Trazado_881982" data-name="Trazado 881982" d="M2316.017,3068.676l13.978,13.882s9.792-3.629,11.3,2.1-.69,4.979-.69,4.979l-46.9.393.094-17.67s7.957,4.177,12.294,3.057,9.929-6.74,9.929-6.74" transform="translate(-2028.411 -2707.287)" fill="#f8e6b6"/>
        <path id="Trazado_881983" data-name="Trazado 881983" d="M2293.751,3241l.088,4.042h47.886l.018-4.779-39.656.589Z" transform="translate(-2028.456 -2858.67)"/>
        <path id="Trazado_881984" data-name="Trazado 881984" d="M1382.783,2740.294l36.848,43.8-3.191-1.447-30.292-33.832s-6.749,29.986-23.373,43.467-24.5,13.061-39.793,9.663-21.381-23.254-21.381-23.254l16.085-11.985s-3.427,11.125,5.668,14.835,12.67,11.659,30.711,0,28.719-41.246,28.719-41.246" transform="translate(-1151.057 -2417.578)" fill="#608038"/>
        <path id="Trazado_881985" data-name="Trazado 881985" d="M1832.747,937.391l-62.21-27.722,4.8-16.611.049.021,2.623-9.255.015-.048.006-.033,3.423-12.085-20.133-8.971L1679,826l-6.067,21.42,82.209,36.633-4.805,16.613-6.174,21.371,20.193,9,62.323,27.772Z" transform="translate(-1479.444 -728.727)" fill="#2e4e1c"/>
        <path id="Trazado_881986" data-name="Trazado 881986" d="M2982.955,1718.672l4.714-16.563c.8-2.833,3.005-3.142,4.919-.692l22.337,28.652c1.91,2.452,1.257,4.749-1.457,5.13l-15.882,2.237-15.877,2.235c-2.719.383-4.267-1.6-3.462-4.437Z" transform="translate(-2633.595 -1499.588)" fill="#2e4e1c"/>
        <path id="Trazado_881987" data-name="Trazado 881987" d="M820.02,644.626l-14,21.3H780.854a25.174,25.174,0,1,0,50.34,0,25.738,25.738,0,0,0-11.174-21.3" transform="translate(-690.541 -568.711)" fill="#c4d0b5"/>
        <path id="Trazado_881988" data-name="Trazado 881988" d="M792.894,595.543a25.4,25.4,0,0,0-25.168,25.626h25.168Z" transform="translate(-678.931 -525.408)" fill="#859d66"/>
        <path id="Trazado_881989" data-name="Trazado 881989" d="M998.453,607.892v25.631l14-21.3a24.762,24.762,0,0,0-14-4.326" transform="translate(-882.972 -536.303)" fill="#93c2c4"/>
        <path id="Trazado_881990" data-name="Trazado 881990" d="M706.724,1120.433a7.24,7.24,0,0,1,7.172-7.3h51.619a7.237,7.237,0,0,1,7.173,7.3v26.131a7.238,7.238,0,0,1-7.173,7.3H713.9a7.24,7.24,0,0,1-7.172-7.3Z" transform="translate(-624.984 -982.041)" fill="#fff"/>
        <path id="Trazado_881991" data-name="Trazado 881991" d="M706.724,1120.433a7.24,7.24,0,0,1,7.172-7.3h51.619a7.237,7.237,0,0,1,7.173,7.3v26.131a7.238,7.238,0,0,1-7.173,7.3H713.9a7.24,7.24,0,0,1-7.172-7.3Z" transform="translate(-624.984 -982.041)" fill="none" stroke="#c4d0b5" stroke-linejoin="round" stroke-width="6.686"/>
        <path id="Trazado_881992" data-name="Trazado 881992" d="M712.431,2037.3a7.24,7.24,0,0,1,7.173-7.3h51.619a7.237,7.237,0,0,1,7.173,7.3v26.13a7.237,7.237,0,0,1-7.173,7.3H719.6a7.24,7.24,0,0,1-7.173-7.3Z" transform="translate(-630.031 -1790.933)" fill="#fff"/>
        <path id="Trazado_881993" data-name="Trazado 881993" d="M712.431,2037.3a7.24,7.24,0,0,1,7.173-7.3h51.619a7.237,7.237,0,0,1,7.173,7.3v26.13a7.237,7.237,0,0,1-7.173,7.3H719.6a7.24,7.24,0,0,1-7.173-7.3Z" transform="translate(-630.031 -1790.933)" fill="none" stroke="#c4d0b5" stroke-linejoin="round" stroke-width="6.686"/>
        <path id="Trazado_881994" data-name="Trazado 881994" d="M804.547,1152.043a3.862,3.862,0,1,0-3.861,3.932,3.9,3.9,0,0,0,3.861-3.932" transform="translate(-704.664 -1012.902)" fill="#93c2c4"/>
        <path id="Trazado_881995" data-name="Trazado 881995" d="M804.547,1255.623a3.862,3.862,0,1,0-3.861,3.932,3.9,3.9,0,0,0,3.861-3.932" transform="translate(-704.664 -1104.284)" fill="#859d66"/>
        <path id="Trazado_881996" data-name="Trazado 881996" d="M804.547,1361.228a3.862,3.862,0,1,0-3.861,3.932,3.9,3.9,0,0,0,3.861-3.932" transform="translate(-704.664 -1197.452)" fill="#c4d0b5"/>
        <rect id="Rectángulo_402661" data-name="Rectángulo 402661" width="9.619" height="1.463" rx="0.732" transform="translate(130.669 137.847)" fill="#d2dbc7"/>
        <path id="Trazado_881997" data-name="Trazado 881997" d="M957.98,1203.22a.722.722,0,0,1,.716-.729h8.186a.73.73,0,0,1,0,1.459H958.7a.722.722,0,0,1-.716-.729" transform="translate(-847.18 -1060.878)" fill="#d2dbc7"/>
        <path id="Trazado_881998" data-name="Trazado 881998" d="M1077.842,1171.18a.664.664,0,0,1,.653-.67h4.082a.664.664,0,0,1,.653.67v.124a.661.661,0,0,1-.653.67H1078.5a.661.661,0,0,1-.653-.67Z" transform="translate(-953.179 -1032.663)" fill="#d2dbc7"/>
        <path id="Trazado_881999" data-name="Trazado 881999" d="M906.053,1203.22a.725.725,0,0,1,.716-.729h3.956a.73.73,0,0,1,0,1.459h-3.956a.725.725,0,0,1-.716-.729" transform="translate(-801.259 -1060.878)" fill="#d2dbc7"/>
        <path id="Trazado_882000" data-name="Trazado 882000" d="M1053.34,1203.22a.725.725,0,0,1,.716-.729h3.956a.73.73,0,0,1,0,1.459h-3.956a.725.725,0,0,1-.716-.729" transform="translate(-931.511 -1060.878)" fill="#d2dbc7"/>
        <path id="Trazado_882001" data-name="Trazado 882001" d="M878.746,1171.221a.705.705,0,0,1,.7-.711h2.212a.708.708,0,0,1,.7.711v.041a.708.708,0,0,1-.7.711h-2.212a.705.705,0,0,1-.7-.711Z" transform="translate(-777.11 -1032.663)" fill="#d2dbc7"/>
        <path id="Trazado_882002" data-name="Trazado 882002" d="M1050.535,1171.161a.644.644,0,0,1,.635-.651h1.3a.648.648,0,0,1,.64.651v.161a.648.648,0,0,1-.64.651h-1.3a.644.644,0,0,1-.635-.651Z" transform="translate(-929.03 -1032.663)" fill="#d2dbc7"/>
        <path id="Trazado_882003" data-name="Trazado 882003" d="M878.746,1203.22a.722.722,0,0,1,.716-.729h1.14a.73.73,0,0,1,0,1.459h-1.14a.722.722,0,0,1-.716-.729" transform="translate(-777.11 -1060.878)" fill="#d2dbc7"/>
        <path id="Trazado_882004" data-name="Trazado 882004" d="M1105.032,1203.22a.722.722,0,0,1,.716-.729h1.14a.73.73,0,0,1,0,1.459h-1.14a.722.722,0,0,1-.716-.729" transform="translate(-977.224 -1060.878)" fill="#d2dbc7"/>
        <path id="Trazado_882005" data-name="Trazado 882005" d="M918.791,1171.2a.681.681,0,0,1,.676-.688h1.608a.684.684,0,0,1,.676.688v.087a.684.684,0,0,1-.676.688h-1.608a.681.681,0,0,1-.676-.688Z" transform="translate(-812.524 -1032.663)" fill="#d2dbc7"/>
        <path id="Trazado_882006" data-name="Trazado 882006" d="M1133.586,1203.22a.722.722,0,0,1,.716-.729h1.14a.73.73,0,0,1,0,1.459h-1.14a.722.722,0,0,1-.716-.729" transform="translate(-1002.476 -1060.878)" fill="#d2dbc7"/>
        <path id="Trazado_882007" data-name="Trazado 882007" d="M948.981,1171.189a.677.677,0,0,1,.667-.679h.973a.674.674,0,0,1,.667.679v.106a.674.674,0,0,1-.667.679h-.973a.677.677,0,0,1-.667-.679Z" transform="translate(-839.222 -1032.663)" fill="#d2dbc7"/>
        <path id="Trazado_882008" data-name="Trazado 882008" d="M1161.049,1203.22a.726.726,0,0,1,.721-.729h4.564a.73.73,0,0,1,0,1.459h-4.564a.726.726,0,0,1-.721-.729" transform="translate(-1026.762 -1060.878)" fill="#d2dbc7"/>
        <path id="Trazado_882009" data-name="Trazado 882009" d="M972.938,1171.226a.707.707,0,0,1,.7-.716h6.492a.706.706,0,0,1,.7.716v.032a.706.706,0,0,1-.7.716h-6.492a.706.706,0,0,1-.7-.716Z" transform="translate(-860.408 -1032.663)" fill="#d2dbc7"/>
        <path id="Trazado_882010" data-name="Trazado 882010" d="M958.057,1306.766a.726.726,0,0,1,.716-.734h8.2a.732.732,0,0,1,0,1.464h-8.2a.722.722,0,0,1-.716-.729" transform="translate(-847.248 -1152.225)" fill="#d2dbc7"/>
        <path id="Trazado_882011" data-name="Trazado 882011" d="M906.092,1306.766a.726.726,0,0,1,.716-.734h3.96a.732.732,0,0,1,0,1.464h-3.96a.722.722,0,0,1-.716-.729" transform="translate(-801.294 -1152.225)" fill="#d2dbc7"/>
        <path id="Trazado_882012" data-name="Trazado 882012" d="M1053.5,1306.766a.726.726,0,0,1,.716-.734h3.96a.732.732,0,0,1,0,1.464h-3.96a.722.722,0,0,1-.716-.729" transform="translate(-931.649 -1152.225)" fill="#d2dbc7"/>
        <path id="Rectángulo_402662" data-name="Rectángulo 402662" d="M.729,0H2.88a.729.729,0,0,1,.729.729v0a.729.729,0,0,1-.729.729H.729A.729.729,0,0,1,0,.729v0A.729.729,0,0,1,.729,0Z" transform="translate(101.636 150.041)" fill="#d2dbc7"/>
        <path id="Trazado_882013" data-name="Trazado 882013" d="M1050.691,1274.7a.641.641,0,0,1,.635-.651h1.3a.643.643,0,0,1,.64.651v.161a.641.641,0,0,1-.64.647h-1.3a.64.64,0,0,1-.635-.647Z" transform="translate(-929.168 -1124.011)" fill="#d2dbc7"/>
        <path id="Trazado_882014" data-name="Trazado 882014" d="M878.746,1306.766a.726.726,0,0,1,.716-.734h1.14a.732.732,0,0,1,0,1.464h-1.14a.722.722,0,0,1-.716-.729" transform="translate(-777.11 -1152.225)" fill="#d2dbc7"/>
        <path id="Trazado_882015" data-name="Trazado 882015" d="M1105.227,1306.766a.726.726,0,0,1,.717-.734h1.14a.732.732,0,0,1,0,1.464h-1.14a.722.722,0,0,1-.717-.729" transform="translate(-977.397 -1152.225)" fill="#d2dbc7"/>
        <path id="Trazado_882016" data-name="Trazado 882016" d="M918.83,1274.739a.681.681,0,0,1,.676-.688h1.609a.681.681,0,0,1,.676.688v.087a.68.68,0,0,1-.676.683h-1.609a.68.68,0,0,1-.676-.683Z" transform="translate(-812.558 -1124.011)" fill="#d2dbc7"/>
        <path id="Trazado_882017" data-name="Trazado 882017" d="M1133.781,1306.766a.73.73,0,0,1,.721-.734h1.14a.732.732,0,0,1,0,1.464h-1.14a.726.726,0,0,1-.721-.729" transform="translate(-1002.648 -1152.225)" fill="#d2dbc7"/>
        <path id="Trazado_882018" data-name="Trazado 882018" d="M949.059,1274.73a.671.671,0,0,1,.667-.679h.973a.671.671,0,0,1,.667.679v.105a.67.67,0,0,1-.667.674h-.973a.67.67,0,0,1-.667-.674Z" transform="translate(-839.291 -1124.011)" fill="#d2dbc7"/>
        <path id="Trazado_882019" data-name="Trazado 882019" d="M1161.321,1306.766a.726.726,0,0,1,.716-.734h4.569a.732.732,0,0,1,0,1.464h-4.569a.722.722,0,0,1-.716-.729" transform="translate(-1027.003 -1152.225)" fill="#d2dbc7"/>
        <path id="Trazado_882020" data-name="Trazado 882020" d="M973.016,1274.767a.706.706,0,0,1,.7-.716h6.5a.71.71,0,0,1,.7.716v.032a.706.706,0,0,1-.7.711h-6.5a.7.7,0,0,1-.7-.711Z" transform="translate(-860.477 -1124.011)" fill="#d2dbc7"/>
        <path id="Trazado_882021" data-name="Trazado 882021" d="M1130.392,1380.3a.679.679,0,0,1,.671-.684h8.295a.675.675,0,0,1,.667.684v.1a.676.676,0,0,1-.667.683h-8.295a.679.679,0,0,1-.671-.683Z" transform="translate(-999.651 -1217.144)" fill="#d2dbc7"/>
        <path id="Trazado_882022" data-name="Trazado 882022" d="M958.369,1412.366a.726.726,0,0,1,.721-.729h8.2a.732.732,0,0,1,0,1.464h-8.2a.73.73,0,0,1-.721-.734" transform="translate(-847.524 -1245.393)" fill="#d2dbc7"/>
        <path id="Trazado_882023" data-name="Trazado 882023" d="M1078.388,1380.287a.668.668,0,0,1,.658-.67h4.086a.664.664,0,0,1,.653.67v.124a.661.661,0,0,1-.653.67h-4.086a.665.665,0,0,1-.658-.67Z" transform="translate(-953.662 -1217.144)" fill="#d2dbc7"/>
        <path id="Trazado_882024" data-name="Trazado 882024" d="M906.4,1412.366a.722.722,0,0,1,.716-.729h3.96a.732.732,0,0,1,0,1.464h-3.96a.726.726,0,0,1-.716-.734" transform="translate(-801.57 -1245.393)" fill="#d2dbc7"/>
        <path id="Trazado_882025" data-name="Trazado 882025" d="M879.058,1380.328a.705.705,0,0,1,.7-.711h2.212a.705.705,0,0,1,.7.711v.041a.7.7,0,0,1-.7.711h-2.212a.7.7,0,0,1-.7-.711Z" transform="translate(-777.386 -1217.144)" fill="#d2dbc7"/>
        <rect id="Rectángulo_402663" data-name="Rectángulo 402663" width="2.577" height="1.463" rx="0.732" transform="translate(121.563 162.473)" fill="#d2dbc7"/>
        <path id="Trazado_882026" data-name="Trazado 882026" d="M879.058,1412.366a.722.722,0,0,1,.716-.729h1.14a.732.732,0,0,1,0,1.464h-1.14a.726.726,0,0,1-.716-.734" transform="translate(-777.386 -1245.393)" fill="#d2dbc7"/>
        <rect id="Rectángulo_402664" data-name="Rectángulo 402664" width="2.96" height="1.463" rx="0.732" transform="translate(106.308 162.473)" fill="#d2dbc7"/>
        <path id="Trazado_882027" data-name="Trazado 882027" d="M949.371,1380.3a.677.677,0,0,1,.667-.679h.973a.674.674,0,0,1,.667.679v.105a.671.671,0,0,1-.667.679h-.973a.674.674,0,0,1-.667-.679Z" transform="translate(-839.567 -1217.144)" fill="#d2dbc7"/>
        <path id="Rectángulo_402665" data-name="Rectángulo 402665" d="M.732,0H7.175a.732.732,0,0,1,.732.732v0a.732.732,0,0,1-.732.732H.732A.732.732,0,0,1,0,.732v0A.732.732,0,0,1,.732,0Z" transform="translate(112.575 162.473)" fill="#d2dbc7"/>
        <path id="Trazado_882028" data-name="Trazado 882028" d="M818.425,1601.929,812,1611.71a14.015,14.015,0,0,1,6.091,11.607,13.719,13.719,0,1,1-27.434,0H779.1a25.275,25.275,0,1,0,50.542,0,25.841,25.841,0,0,0-11.219-21.387" transform="translate(-688.99 -1413.275)" fill="#9eb286"/>
        <path id="Trazado_882029" data-name="Trazado 882029" d="M804.372,1565.04a25.5,25.5,0,0,0-25.271,25.731h11.552a13.843,13.843,0,0,1,13.719-13.964Z" transform="translate(-688.99 -1380.73)" fill="#859d66"/>
        <path id="Trazado_882030" data-name="Trazado 882030" d="M997.6,1565.04v11.767a13.455,13.455,0,0,1,7.623,2.358l6.429-9.781a24.838,24.838,0,0,0-14.053-4.344" transform="translate(-882.214 -1380.73)" fill="#93c2c4"/>
        <path id="Trazado_882031" data-name="Trazado 882031" d="M793.421,2066.6a3.927,3.927,0,1,0-3.929,4,3.965,3.965,0,0,0,3.929-4" transform="translate(-694.709 -1819.698)" fill="#93c2c4"/>
        <path id="Trazado_882032" data-name="Trazado 882032" d="M793.421,2171.976a3.927,3.927,0,1,0-3.929,4,3.963,3.963,0,0,0,3.929-4" transform="translate(-694.709 -1912.66)" fill="#859d66"/>
        <path id="Trazado_882033" data-name="Trazado 882033" d="M793.421,2279.412a3.927,3.927,0,1,0-3.929,4,3.963,3.963,0,0,0,3.929-4" transform="translate(-694.709 -2007.443)" fill="#c4d0b5"/>
        <path id="Trazado_882034" data-name="Trazado 882034" d="M1124.237,2086.085a.689.689,0,0,1,.68-.693h8.425a.686.686,0,0,1,.68.693v.1a.686.686,0,0,1-.68.693h-8.425a.689.689,0,0,1-.68-.693Z" transform="translate(-994.208 -1839.802)" fill="#d2dbc7"/>
        <path id="Trazado_882035" data-name="Trazado 882035" d="M949.488,2118.662a.736.736,0,0,1,.73-.743h8.331a.743.743,0,0,1,0,1.486h-8.331a.737.737,0,0,1-.73-.743" transform="translate(-839.67 -1868.499)" fill="#d2dbc7"/>
        <rect id="Rectángulo_402666" data-name="Rectángulo 402666" width="5.483" height="1.486" rx="0.743" transform="translate(123.92 245.59)" fill="#d2dbc7"/>
        <path id="Trazado_882036" data-name="Trazado 882036" d="M896.665,2118.662a.739.739,0,0,1,.73-.743h4.023a.743.743,0,0,1,0,1.486h-4.023a.74.74,0,0,1-.73-.743" transform="translate(-792.957 -1868.499)" fill="#d2dbc7"/>
        <path id="Trazado_882037" data-name="Trazado 882037" d="M1046.523,2118.662a.735.735,0,0,1,.725-.743h4.028a.743.743,0,0,1,0,1.486h-4.028a.736.736,0,0,1-.725-.743" transform="translate(-925.482 -1868.499)" fill="#d2dbc7"/>
        <path id="Trazado_882038" data-name="Trazado 882038" d="M868.891,2086.117a.716.716,0,0,1,.707-.725h2.253a.716.716,0,0,1,.707.725v.036a.716.716,0,0,1-.707.725H869.6a.716.716,0,0,1-.707-.725Z" transform="translate(-768.395 -1839.802)" fill="#d2dbc7"/>
        <path id="Trazado_882039" data-name="Trazado 882039" d="M1043.64,2086.053a.655.655,0,0,1,.649-.66h1.32a.658.658,0,0,1,.649.66v.166a.658.658,0,0,1-.649.66h-1.32a.655.655,0,0,1-.649-.66Z" transform="translate(-922.933 -1839.802)" fill="#d2dbc7"/>
        <path id="Trazado_882040" data-name="Trazado 882040" d="M868.891,2118.662a.736.736,0,0,1,.73-.743h1.158a.743.743,0,0,1,0,1.486h-1.158a.737.737,0,0,1-.73-.743" transform="translate(-768.395 -1868.499)" fill="#d2dbc7"/>
        <path id="Trazado_882041" data-name="Trazado 882041" d="M1099.072,2118.662a.736.736,0,0,1,.73-.743h1.158a.743.743,0,0,1,0,1.486H1099.8a.737.737,0,0,1-.73-.743" transform="translate(-971.954 -1868.499)" fill="#d2dbc7"/>
        <path id="Trazado_882042" data-name="Trazado 882042" d="M909.637,2086.094a.692.692,0,0,1,.685-.7h1.636a.692.692,0,0,1,.685.7v.087a.69.69,0,0,1-.685.7h-1.636a.69.69,0,0,1-.685-.7Z" transform="translate(-804.429 -1839.802)" fill="#d2dbc7"/>
        <path id="Trazado_882043" data-name="Trazado 882043" d="M1128.132,2118.662a.736.736,0,0,1,.73-.743h1.158a.743.743,0,0,1,0,1.486h-1.158a.737.737,0,0,1-.73-.743" transform="translate(-997.653 -1868.499)" fill="#d2dbc7"/>
        <path id="Trazado_882044" data-name="Trazado 882044" d="M940.333,2086.085a.689.689,0,0,1,.68-.693H942a.689.689,0,0,1,.68.693v.105a.685.685,0,0,1-.68.688h-.987a.685.685,0,0,1-.68-.688Z" transform="translate(-831.574 -1839.802)" fill="#d2dbc7"/>
        <path id="Trazado_882045" data-name="Trazado 882045" d="M1156.1,2118.662a.736.736,0,0,1,.73-.743h4.645a.743.743,0,0,1,0,1.486h-4.645a.737.737,0,0,1-.73-.743" transform="translate(-1022.387 -1868.499)" fill="#d2dbc7"/>
        <path id="Trazado_882046" data-name="Trazado 882046" d="M964.68,2086.117a.72.72,0,0,1,.712-.725H972a.717.717,0,0,1,.712.725v.036a.717.717,0,0,1-.712.725h-6.6a.72.72,0,0,1-.712-.725Z" transform="translate(-853.105 -1839.802)" fill="#d2dbc7"/>
        <path id="Trazado_882047" data-name="Trazado 882047" d="M949.565,2224a.736.736,0,0,1,.73-.743h8.335a.744.744,0,0,1,0,1.487h-8.335a.734.734,0,0,1-.73-.743" transform="translate(-839.739 -1961.427)" fill="#d2dbc7"/>
        <path id="Trazado_882048" data-name="Trazado 882048" d="M896.7,2224a.736.736,0,0,1,.73-.743h4.028a.744.744,0,0,1,0,1.487h-4.028a.734.734,0,0,1-.73-.743" transform="translate(-792.991 -1961.427)" fill="#d2dbc7"/>
        <path id="Trazado_882049" data-name="Trazado 882049" d="M1046.679,2224a.736.736,0,0,1,.73-.743h4.028a.744.744,0,0,1,0,1.487h-4.028a.734.734,0,0,1-.73-.743" transform="translate(-925.62 -1961.427)" fill="#d2dbc7"/>
        <path id="Trazado_882050" data-name="Trazado 882050" d="M868.891,2191.45a.713.713,0,0,1,.707-.724h2.253a.716.716,0,0,1,.712.724v.037a.72.72,0,0,1-.712.725H869.6a.716.716,0,0,1-.707-.725Z" transform="translate(-768.395 -1932.731)" fill="#d2dbc7"/>
        <path id="Trazado_882051" data-name="Trazado 882051" d="M1043.8,2191.386a.652.652,0,0,1,.649-.66h1.32a.652.652,0,0,1,.649.66v.165a.655.655,0,0,1-.649.661h-1.32a.655.655,0,0,1-.649-.661Z" transform="translate(-923.071 -1932.731)" fill="#d2dbc7"/>
        <path id="Trazado_882052" data-name="Trazado 882052" d="M868.891,2224a.736.736,0,0,1,.73-.743h1.158a.744.744,0,0,1,0,1.487h-1.158a.734.734,0,0,1-.73-.743" transform="translate(-768.395 -1961.427)" fill="#d2dbc7"/>
        <path id="Trazado_882053" data-name="Trazado 882053" d="M1099.267,2224a.739.739,0,0,1,.73-.743h1.162a.744.744,0,0,1,0,1.487H1100a.737.737,0,0,1-.73-.743" transform="translate(-972.126 -1961.427)" fill="#d2dbc7"/>
        <path id="Trazado_882054" data-name="Trazado 882054" d="M909.676,2191.422a.691.691,0,0,1,.685-.7H912a.691.691,0,0,1,.689.7v.087a.693.693,0,0,1-.689.7h-1.636a.692.692,0,0,1-.685-.7Z" transform="translate(-804.463 -1932.731)" fill="#d2dbc7"/>
        <path id="Trazado_882055" data-name="Trazado 882055" d="M1128.366,2224a.736.736,0,0,1,.73-.743h1.158a.744.744,0,0,1,0,1.487H1129.1a.734.734,0,0,1-.73-.743" transform="translate(-997.859 -1961.427)" fill="#d2dbc7"/>
        <path id="Trazado_882056" data-name="Trazado 882056" d="M940.411,2191.413a.681.681,0,0,1,.676-.688h.991a.685.685,0,0,1,.68.688v.105a.689.689,0,0,1-.68.693h-.991a.685.685,0,0,1-.676-.693Z" transform="translate(-831.643 -1932.731)" fill="#d2dbc7"/>
        <path id="Trazado_882057" data-name="Trazado 882057" d="M1156.335,2224a.739.739,0,0,1,.73-.743h4.65a.744.744,0,0,1,0,1.487h-4.65a.737.737,0,0,1-.73-.743" transform="translate(-1022.594 -1961.427)" fill="#d2dbc7"/>
        <path id="Trazado_882058" data-name="Trazado 882058" d="M964.758,2191.45a.72.72,0,0,1,.716-.724h6.61a.72.72,0,0,1,.712.724v.032a.721.721,0,0,1-.712.73h-6.61a.722.722,0,0,1-.716-.73Z" transform="translate(-853.174 -1932.731)" fill="#d2dbc7"/>
        <path id="Trazado_882059" data-name="Trazado 882059" d="M1124.9,2298.815a.686.686,0,0,1,.68-.693h8.439a.689.689,0,0,1,.68.693v.1a.686.686,0,0,1-.68.693h-8.439a.683.683,0,0,1-.68-.693Z" transform="translate(-994.794 -2027.479)" fill="#d2dbc7"/>
        <path id="Trazado_882060" data-name="Trazado 882060" d="M949.877,2331.431a.74.74,0,0,1,.734-.743h8.339a.743.743,0,0,1,0,1.487h-8.339a.738.738,0,0,1-.734-.744" transform="translate(-840.014 -2056.211)" fill="#d2dbc7"/>
        <rect id="Rectángulo_402667" data-name="Rectángulo 402667" width="5.488" height="1.486" rx="0.743" transform="translate(123.987 270.643)" fill="#d2dbc7"/>
        <path id="Trazado_882061" data-name="Trazado 882061" d="M897.016,2331.431a.737.737,0,0,1,.73-.743h4.028a.743.743,0,0,1,0,1.487h-4.028a.734.734,0,0,1-.73-.744" transform="translate(-793.267 -2056.211)" fill="#d2dbc7"/>
        <path id="Trazado_882062" data-name="Trazado 882062" d="M869.164,2298.847a.72.72,0,0,1,.712-.725h2.253a.72.72,0,0,1,.712.725v.041a.716.716,0,0,1-.712.72h-2.253a.716.716,0,0,1-.712-.72Z" transform="translate(-768.637 -2027.479)" fill="#d2dbc7"/>
        <path id="Trazado_882063" data-name="Trazado 882063" d="M1044.147,2298.782a.658.658,0,0,1,.653-.66h1.32a.655.655,0,0,1,.649.66v.166a.652.652,0,0,1-.649.66h-1.32a.656.656,0,0,1-.653-.66Z" transform="translate(-923.381 -2027.479)" fill="#d2dbc7"/>
        <path id="Trazado_882064" data-name="Trazado 882064" d="M869.164,2331.431a.739.739,0,0,1,.73-.743h1.162a.743.743,0,0,1,0,1.487h-1.162a.737.737,0,0,1-.73-.744" transform="translate(-768.637 -2056.211)" fill="#d2dbc7"/>
        <path id="Trazado_882065" data-name="Trazado 882065" d="M909.988,2298.824a.692.692,0,0,1,.685-.7h1.64a.692.692,0,0,1,.685.7v.087a.691.691,0,0,1-.685.7h-1.64a.691.691,0,0,1-.685-.7Z" transform="translate(-804.739 -2027.479)" fill="#d2dbc7"/>
        <path id="Trazado_882066" data-name="Trazado 882066" d="M940.723,2298.815a.689.689,0,0,1,.68-.693h.991a.685.685,0,0,1,.676.693v.105a.681.681,0,0,1-.676.688H941.4a.685.685,0,0,1-.68-.688Z" transform="translate(-831.919 -2027.479)" fill="#d2dbc7"/>
        <path id="Trazado_882067" data-name="Trazado 882067" d="M965.108,2298.852a.721.721,0,0,1,.712-.729h6.614a.722.722,0,0,1,.716.729v.032a.721.721,0,0,1-.716.725H965.82a.72.72,0,0,1-.712-.725Z" transform="translate(-853.484 -2027.479)" fill="#d2dbc7"/>
        <path id="Trazado_882068" data-name="Trazado 882068" d="M707.942,2672.3a22.115,22.115,0,0,1,1.176-6.355c3.594-10.567,15-18.99,29.658-22.058h0l-1.146,13.467,13.2,12.7-5.825,18.739,13.035-19.577-15.535-12.293,2.5-13.988q2.968-.294,6.055-.3a41.8,41.8,0,0,1,16.185,3.145h0c3.9-4.517,8.751-9.6,10.92-9.707.035,0,.07,0,.1,0a.9.9,0,0,1,.857.61c1.533,3.641,1.108,11.489.547,17.039l-.017.17h0q.457.434.9.879.638.642,1.243,1.3a44.893,44.893,0,0,1,6.026,8.333l.156.281a4.156,4.156,0,0,0,1.254,1.355l.122.084a9.754,9.754,0,0,0,3.133,1.271,21.866,21.866,0,0,0,4.168.535l.327.009c.329.007.52,0,.52,0s1.521,7.732-1.617,12.721c-3.042,4.833-11.111,5.535-13.447,7.941a57.984,57.984,0,0,1-11.556,9.6v11.949a1.84,1.84,0,0,1-1.829,1.852h-4.338a1.839,1.839,0,0,1-1.827-1.852v-8.344h0a39.449,39.449,0,0,1-11.828,1.712,58.546,58.546,0,0,1-17.6-2.653v9.284A1.841,1.841,0,0,1,731.63,2712h-4.338a1.841,1.841,0,0,1-1.829-1.852v-12.575c-10.635-5.544-17.535-14.453-17.535-24.5q0-.389.014-.776" transform="translate(-626.049 -2325.629)" fill="#4d4d4d"/>
        <path id="Trazado_882069" data-name="Trazado 882069" d="M580.6,2816.146a8.173,8.173,0,0,0-2.726.431,6.975,6.975,0,0,0-4.345,4.626,15.026,15.026,0,0,0-.672,6.1,5.123,5.123,0,0,0-1.172,2.26c-.69,2.708-.119,6.982,1.837,12.967a1.353,1.353,0,0,0,1.715.871,1.376,1.376,0,0,0,.861-1.734,34.556,34.556,0,0,1-1.978-9.254,8.619,8.619,0,0,0,.644,1.153,4.918,4.918,0,0,0,1.988,1.809,3.333,3.333,0,0,0,2.806-.01,3.688,3.688,0,0,0,2.236-2.493,4.218,4.218,0,0,0-.48-2.961,7.576,7.576,0,0,0-4.548-3.635,4.839,4.839,0,0,0-1.255-.149,11.634,11.634,0,0,1,.574-4,4.317,4.317,0,0,1,2.615-2.934c2.445-.79,4.029-.049,5.4,2.289a20.212,20.212,0,0,1,1.763,4.362c.435,1.453.786,2.868,1.389,5.494.021.092.488,2.125.629,2.713a1.354,1.354,0,0,0,1.637,1.013,1.374,1.374,0,0,0,1-1.656c-.139-.578-.265-1.121-.48-2.065-.012-.046-.123-.533-.144-.625-.616-2.685-.978-4.141-1.435-5.671a22.868,22.868,0,0,0-2.026-4.963,7.972,7.972,0,0,0-3.408-3.373,6.036,6.036,0,0,0-2.422-.564m-4.785,12.739a2.316,2.316,0,0,1,.3.056,4.879,4.879,0,0,1,2.805,2.262,1.576,1.576,0,0,1,.237,1.019c-.053.221-.24.427-.694.628a.654.654,0,0,1-.6.019,2.311,2.311,0,0,1-.854-.843,9.2,9.2,0,0,1-1.2-3.141" transform="translate(-505.319 -2484.495)" fill="#6b6b6b"/>
        <path id="Trazado_882070" data-name="Trazado 882070" d="M726.083,2693.841c-8.313-4.333-14.344-10.723-16.581-18.1a12.62,12.62,0,0,1,.237-9.789c3.592-10.569,14.993-18.993,29.657-22.061l-1.146,13.467,13.2,12.7-5.825,18.739,13.035-19.577-15.535-12.293,2.5-13.988q2.968-.294,6.055-.3a41.784,41.784,0,0,1,16.184,3.145h0c3.9-4.519,8.754-9.6,10.921-9.706.035,0,.069,0,.1,0a.9.9,0,0,1,.857.61,19.258,19.258,0,0,1,1.03,6.317V2643c-.076,2.486-.278,5-.5,7.149.1.1.2.2.3.3,0,.021,0,.042,0,.064-.042.578-.088,1.149-.136,1.705-.044.515-.09,1.018-.138,1.5l-.017.171h0q.456.433.9.877c.122.123.243.246.364.37q.448.462.879.933.753.824,1.456,1.673.551.666,1.073,1.348.405.53.792,1.067.605.842,1.163,1.7.824,1.265,1.542,2.548c.053.094.1.188.156.281a3.571,3.571,0,0,0,.419.6c.079.092.164.182.252.27a5.035,5.035,0,0,0,.583.484h0l.122.084c.066.045.134.09.2.133a7.268,7.268,0,0,0,.7.381h0c.245.116.5.222.76.318h0c.26.1.526.184.8.263h0c.221.065.443.123.665.176l.147.035h0c.545.125,1.087.221,1.6.292.773.108,1.483.165,2.042.192.134.007.259.013.375.017l.327.009.188,0h0c.212,0,.331,0,.331,0s.043.255.086.536c.018.117.038.271.06.428s.04.293.06.477c.033.3.065.631.091,1a14.442,14.442,0,0,1-1.915,6.544c-3.042,4.833-11.11,5.535-13.445,7.942a58.09,58.09,0,0,1-11.556,9.6v11.949a1.839,1.839,0,0,1-1.829,1.85h-4.338a1.838,1.838,0,0,1-1.827-1.771c0-.026,0-.053,0-.079v-8.344a39.525,39.525,0,0,1-11.828,1.712,58.564,58.564,0,0,1-17.6-2.653v9.285a1.838,1.838,0,0,1-1.827,1.85h-4.34a1.838,1.838,0,0,1-1.827-1.85Z" transform="translate(-626.669 -2325.629)" fill="#6b6b6b"/>
        <path id="Trazado_882071" data-name="Trazado 882071" d="M993.276,2694.328l-2.5,13.988,15.535,12.292-13.035,19.578,7.9-19.834-12.507-11.544,2.366-13.394Z" transform="translate(-874.32 -2377.026)" fill="#141414" fill-rule="evenodd"/>
        <path id="Trazado_882072" data-name="Trazado 882072" d="M993.276,2694.328l-2.5,13.988,15.535,12.292-13.035,19.578,7.9-19.834-12.507-11.544,2.366-13.394Z" transform="translate(-874.32 -2377.026)" fill="none" stroke="#000" stroke-linecap="round" stroke-linejoin="round" stroke-width="0.24"/>
        <path id="Trazado_882073" data-name="Trazado 882073" d="M2020.275,544.861a19.054,19.054,0,1,1,18.912,19.541,19.218,19.218,0,0,1-18.912-19.541" transform="translate(-1786.61 -463.708)" fill="#cfd9c3"/>
        <path id="Trazado_882074" data-name="Trazado 882074" d="M2047.933,569.272a15.854,15.854,0,1,1,15.737,16.258,15.994,15.994,0,0,1-15.737-16.258" transform="translate(-1811.069 -488.094)" fill="#aebe9a"/>
        <path id="Trazado_882075" data-name="Trazado 882075" d="M2056.448,576.806a14.869,14.869,0,1,1,14.758,15.25,15,15,0,0,1-14.758-15.25" transform="translate(-1818.599 -495.623)" fill="#cfd9c3"/>
        <path id="Trazado_882076" data-name="Trazado 882076" d="M2071.423,561.782a15.14,15.14,0,0,0-.216,30.274c.371,0,.738-.012,1.1-.037a15.157,15.157,0,0,1,.216-30.185c-.365-.031-.731-.052-1.1-.052" transform="translate(-1818.599 -495.623)" fill="#a8b992"/>
        <path id="Trazado_882077" data-name="Trazado 882077" d="M2175.837,561.782a15.14,15.14,0,0,1-.216,30.274c-.371,0-.738-.025-1.1-.055,7.7-.518,15.081-7,15.138-14.978s-7.231-14.572-14.922-15.207c.365-.021.732-.037,1.1-.034" transform="translate(-1923.014 -495.623)" fill="#e4e9dd"/>
        <path id="Trazado_882078" data-name="Trazado 882078" d="M2131.69,595.656l-.022,3.154a5.842,5.842,0,0,0-3.313,1.375,4.888,4.888,0,0,0-1.634,3.73,4.117,4.117,0,0,0,1.636,3.638,10.3,10.3,0,0,0,3.24,1.233c.105.028.194.052.3.08l1.739.407c.413.1.769.2,1.092.305a5.384,5.384,0,0,1,1.145.5,1.444,1.444,0,0,1,.706,1.292,1.936,1.936,0,0,1-1.455,1.93,3.7,3.7,0,0,1-.423.12c-.173.037-.369.062-.568.086a8.058,8.058,0,0,1-.987.056,6.618,6.618,0,0,1-.892-.071,4.732,4.732,0,0,1-.69-.157,2.612,2.612,0,0,1-1.277-.829,3.492,3.492,0,0,1-.6-1.72l-3.281-.025a5,5,0,0,0,1.811,4.121,6.77,6.77,0,0,0,3.328,1.393l-.023,3.191,3.138.025.023-3.153a6.32,6.32,0,0,0,3.463-1.4,4.871,4.871,0,0,0,1.752-3.8,4.13,4.13,0,0,0-1.449-3.431,7.264,7.264,0,0,0-2.8-1.236l-.889-.225-1.94-.49c-.481-.12-.859-.228-1.193-.336a5.012,5.012,0,0,1-.947-.373,1.445,1.445,0,0,1-.771-1.347,1.748,1.748,0,0,1,.8-1.517,2.915,2.915,0,0,1,.941-.4c.03-.006.064-.01.094-.016a4.769,4.769,0,0,1,1.091-.111c.194,0,.379.012.558.031.125.012.241.034.358.056.051.009.106.012.155.025h.007a3.627,3.627,0,0,1,.83.287l.044.018a.25.25,0,0,1,.042.022,2.4,2.4,0,0,1,1.281,2.155l3.3.025a5.048,5.048,0,0,0-1.9-4.088,6.678,6.678,0,0,0-2.708-1.249l.023-3.243Z" transform="translate(-1880.465 -525.508)" fill="#aebe9a"/>
        <path id="Trazado_882079" data-name="Trazado 882079" d="M2349.7,1893.571a19.054,19.054,0,1,1,18.912,19.541,19.218,19.218,0,0,1-18.912-19.541" transform="translate(-2077.936 -1653.584)" fill="#cfd9c3"/>
        <path id="Trazado_882080" data-name="Trazado 882080" d="M2377.36,1917.982a15.854,15.854,0,1,1,15.736,16.258,15.993,15.993,0,0,1-15.736-16.258" transform="translate(-2102.394 -1677.971)" fill="#aebe9a"/>
        <path id="Trazado_882081" data-name="Trazado 882081" d="M2385.875,1925.517a14.869,14.869,0,1,1,14.758,15.249,15,15,0,0,1-14.758-15.249" transform="translate(-2109.925 -1685.5)" fill="#cfd9c3"/>
        <path id="Trazado_882082" data-name="Trazado 882082" d="M2400.85,1910.493a15.14,15.14,0,0,0-.216,30.274c.371,0,.738-.012,1.1-.037a15.157,15.157,0,0,1,.216-30.185c-.365-.031-.731-.053-1.1-.053" transform="translate(-2109.925 -1685.5)" fill="#a8b992"/>
        <path id="Trazado_882083" data-name="Trazado 882083" d="M2505.263,1910.493a15.14,15.14,0,0,1-.215,30.274c-.372,0-.739-.025-1.1-.055,7.7-.518,15.081-7,15.138-14.978s-7.232-14.572-14.922-15.207c.365-.022.731-.037,1.1-.034" transform="translate(-2214.339 -1685.5)" fill="#e4e9dd"/>
        <path id="Trazado_882084" data-name="Trazado 882084" d="M2461.116,1944.367l-.022,3.154a5.842,5.842,0,0,0-3.313,1.375,4.889,4.889,0,0,0-1.635,3.73,4.116,4.116,0,0,0,1.636,3.638,10.314,10.314,0,0,0,3.24,1.233c.1.027.193.052.3.08l1.739.407c.414.1.769.2,1.092.306a5.353,5.353,0,0,1,1.146.5,1.444,1.444,0,0,1,.706,1.292,1.936,1.936,0,0,1-1.456,1.93,3.726,3.726,0,0,1-.422.12c-.173.037-.369.062-.568.087a8.043,8.043,0,0,1-.988.055,6.576,6.576,0,0,1-.893-.071,4.8,4.8,0,0,1-.69-.157,2.6,2.6,0,0,1-1.276-.829,3.494,3.494,0,0,1-.6-1.72l-3.281-.025a5,5,0,0,0,1.81,4.121,6.769,6.769,0,0,0,3.328,1.393l-.023,3.191,3.138.025.023-3.154a6.324,6.324,0,0,0,3.463-1.4,4.873,4.873,0,0,0,1.752-3.8,4.13,4.13,0,0,0-1.449-3.431,7.271,7.271,0,0,0-2.8-1.236l-.889-.225-1.94-.49c-.481-.12-.859-.228-1.193-.336a4.981,4.981,0,0,1-.947-.373,1.445,1.445,0,0,1-.771-1.347,1.749,1.749,0,0,1,.8-1.517,2.921,2.921,0,0,1,.94-.4c.03-.006.064-.009.094-.015a4.769,4.769,0,0,1,1.091-.111c.194,0,.379.012.558.031.125.012.241.034.358.056.051.009.105.012.155.025h.007a3.368,3.368,0,0,1,.456.13,3.407,3.407,0,0,1,.374.157l.045.019a.282.282,0,0,1,.042.022,2.4,2.4,0,0,1,1.281,2.155l3.3.024a5.049,5.049,0,0,0-1.9-4.088,6.678,6.678,0,0,0-2.708-1.248l.023-3.243Z" transform="translate(-2171.79 -1715.385)" fill="#aebe9a"/>
        <path id="Trazado_882085" data-name="Trazado 882085" d="M2982.991,2180.114s-9.415-3.362-14.21,10.159c-1.577,4.449-4.045,18.912-4.908,25.079-3.5,24.9,1.639,64.609,1.639,64.609h5.358s-7.429-39.777-5.287-64.712c.713-8.287,2.657-19.677,4.414-24.976,3.867-11.665,12.994-10.159,12.994-10.159" transform="translate(-2619.993 -1923.042)" fill="#75927e"/>
        <path id="Trazado_882086" data-name="Trazado 882086" d="M3065.4,2055.93c.763.057-.408-.181-1.358-1.452-4.476-5.986-.592-13.306,5.861-15.114a13.276,13.276,0,0,1,4.358-.28,20.721,20.721,0,0,0-4.423,10.336,39.34,39.34,0,0,1,3.284-5.766,22.022,22.022,0,0,1,3.953-4.3c3.038.4,5.2,1.311,8.553,3.025.23.121-.012.931-.012.931a5.153,5.153,0,0,1,1.793.061,24.561,24.561,0,0,1,4.648,3.582c7.66,7.6,10.8,19.9,10.8,19.9s-6.455-7.022-15.719-5.98a10.009,10.009,0,0,0-3.3.57,18.615,18.615,0,0,1-5.633-1.461,24.7,24.7,0,0,1-4.314-2.612,18.015,18.015,0,0,0,3.7,3.763,10.76,10.76,0,0,0,4.083,1.515c-4.5,2.525-6.5,7.034-11.154,8.311a10.43,10.43,0,0,1-1.869-.753s.816.979.6,1.006a10.2,10.2,0,0,1-3.456-.2c-9.251-2.031-7.1-15.6-.39-15.087" transform="translate(-2705.719 -1798.9)" fill="#829d8b"/>
        <path id="Trazado_882087" data-name="Trazado 882087" d="M3106.191,2131.687l-.619-.464a5.27,5.27,0,0,0,4.71-.955c4.544-3.172,11.038-6.775,16.237-4.8,8.178,3.115,16.885,17.144,16.885,17.144s-7.937-13.494-17.455-16.093-16.536,8.345-20.5,5.158Z" transform="translate(-2746.269 -1874.663)" fill="#cad6ce"/>
        <path id="Trazado_882088" data-name="Trazado 882088" d="M3128.37,2179.8c-1.24.422-2.068,4.3-.341,7.248s7.243,4.561,7.243,4.561-5.243-1.977-6.663-5.076a7.278,7.278,0,0,1,.63-7.146Z" transform="translate(-2765.372 -1922.728)" fill="#cad6ce"/>
        <path id="Trazado_882089" data-name="Trazado 882089" d="M3189.655,2066.311s.3-5.148,2.346-7.76,5.823-2.69,5.823-2.69a8.867,8.867,0,0,0-5.181,3.076c-1.754,2.485-1.831,6.868-1.831,6.868Z" transform="translate(-2820.74 -1813.748)" fill="#cad6ce"/>
        <path id="Trazado_882090" data-name="Trazado 882090" d="M3043.587,2289.414l-9.169-4.724s-17.281-10.474-24.625,10.351-4.731,75.183-4.731,75.183h3.494s-2.713-53.029,3.246-73.761S3033,2285.651,3033,2285.651Z" transform="translate(-2657.098 -2013.306)" fill="#61836c"/>
        <path id="Trazado_882091" data-name="Trazado 882091" d="M3176.28,2327.932c-1.5.852-9.494,9.212-7.109,14.662,3.319,7.588,8.18,2.654,8.18,2.654s.258,3.808,2.793,4.329c2.953.605,3.633-1.069,8.583-.6Z" transform="translate(-2802.235 -2053.779)" fill="#3c6649"/>
        <path id="Trazado_882092" data-name="Trazado 882092" d="M3220.41,2270.849c8.74-3.663,14.825-1.334,20.82,5.995.358.434-4.873,1.323-4.873,1.323s6.532.826,6.828,1.241q.791,1.107,1.592,2.329c7.252,11.074,7.421,24.04,7.113,32.658a157.039,157.039,0,0,1-15.367-7.639c-.586-.326-1.961-8.095-1.961-8.095s-1.183,6.317-1.876,5.914c-3.189-1.862-6.4-3.871-9.284-5.914-1.716-1.214-1.044-6.441-4.272-10.05s-7.272-1.657-8.642-4.389c-3.263-6.507,5.923-11.7,9.924-13.373" transform="translate(-2838.553 -2001.911)" fill="#829d8b"/>
        <path id="Trazado_882093" data-name="Trazado 882093" d="M3252.247,2299.845s9.266,4.111,18.071,14.52,17.145,27.119,17.145,27.119-9.06-16.2-18.421-26.236a59.273,59.273,0,0,0-19.018-13.9Z" transform="translate(-2874.127 -2029)" fill="#cad6ce"/>
        <path id="Trazado_882094" data-name="Trazado 882094" d="M3323.019,2384.745a11.046,11.046,0,0,0-3.944,4.48c-1.852,3.389-1.553,9.176-1.553,9.176s-.008-5.667,2.2-8.748a9.064,9.064,0,0,1,4.725-3.673Z" transform="translate(-2933.802 -2103.901)" fill="#cad6ce"/>
        <path id="Trazado_882095" data-name="Trazado 882095" d="M3436.992,2422.346l1.059,1.361a6,6,0,0,1,3.5-2.181,36.648,36.648,0,0,1,7.115-.895,35.919,35.919,0,0,0-7.3-.061,8.578,8.578,0,0,0-4.37,1.775" transform="translate(-3039.47 -2135.354)" fill="#cad6ce"/>
        <path id="Trazado_882096" data-name="Trazado 882096" d="M3444.886,2504.359l1.041,1.44a6.525,6.525,0,0,0-2.867,2.736,27.222,27.222,0,0,0-2.207,5.739,26.1,26.1,0,0,1,1.352-6.071,10.382,10.382,0,0,1,2.681-3.844" transform="translate(-3042.885 -2209.429)" fill="#cad6ce"/>
        <path id="Trazado_882097" data-name="Trazado 882097" d="M2824.088,2356.634a54.789,54.789,0,0,1,9.613,8.492c6.065,6.679,13.329,16.18,15.805,25.543,4.518,17.094,1.654,45.351,1.654,45.351H2846.2s4.429-27.278,1.228-44.432c-1.752-9.381-8.441-19.135-14.146-26.049a53.561,53.561,0,0,0-9.2-8.9" transform="translate(-2497.454 -2079.1)" fill="#7e9a87"/>
        <path id="Trazado_882098" data-name="Trazado 882098" d="M2515.777,2314.126c12.222,3.525,20.483,11.691,19.072,15.7-1.544,4.389-5.74,7.631-9.739,9.556-9.054,4.353-10.391-1.494-12.367-8.164-.156-.53.887-1.9.887-1.9s-1.562-.287-1.663-.582c-.186-.554-.7-1.738-.917-2.28-.13-.341,1.538.026,1.538.026a11.235,11.235,0,0,1-2.047-1.286,12.075,12.075,0,0,0-5.894-6.031,42.622,42.622,0,0,0-5.379-1.982c-.382-.111-.627-1.069-.627-1.069s-.852.666-1.024.623a33.153,33.153,0,0,0-11.648-1.009s17.589-5.118,29.808-1.593" transform="translate(-2198.442 -2040.506)" fill="#829d8b"/>
        <path id="Trazado_882099" data-name="Trazado 882099" d="M2497.537,2336.624c.252.069,1.231-.919,1.231-.919s.222,1.292.5,1.377a25.39,25.39,0,0,1,7.443,3.187,11.505,11.505,0,0,1,3.29,3.823s-6.385-4.07-11.666-5.377-12.367-3.088-12.367-3.088a30.271,30.271,0,0,1,11.568,1" transform="translate(-2198.442 -2060.414)" fill="#3c6649"/>
        <path id="Trazado_882100" data-name="Trazado 882100" d="M2502.206,2313a83.71,83.71,0,0,0-15.027,2.4l-1.21.322c.325-.072,19.929-4.506,31.657-.373A35.145,35.145,0,0,1,2535,2328.786c-.095-4.245-7.979-11.415-19.222-14.656a41.361,41.361,0,0,0-13.571-1.129" transform="translate(-2198.442 -2040.511)" fill="#cad6ce"/>
        <path id="Trazado_882101" data-name="Trazado 882101" d="M2746.559,2388.761a12.9,12.9,0,0,1-1.728,8.634,12.443,12.443,0,0,1-14.494,5.452s0,0,0,.006c.086.223.177.431.269.645a12.433,12.433,0,0,0,15.077-5.248,12.879,12.879,0,0,0,1.716-8.712c-.269-.259-.547-.518-.843-.777" transform="translate(-2414.547 -2107.445)" fill="#cad6ce"/>
        <path id="Trazado_882102" data-name="Trazado 882102" d="M2717.864,2334.71a10.04,10.04,0,0,1-.053,6.664,9.791,9.791,0,0,1-7.734,6.4c.024.066.06.147.078.2a.2.2,0,0,0,.059.073c.009.009.018.015.027.024l.053.033c.033.018.071.039.113.057a2.712,2.712,0,0,0,.352.136l.009,0a9.782,9.782,0,0,0,7.826-6.417,10.059,10.059,0,0,0-.021-6.9c-.234-.1-.47-.189-.708-.283" transform="translate(-2396.629 -2059.759)" fill="#cad6ce"/>
        <path id="Trazado_882103" data-name="Trazado 882103" d="M2633.031,2312.916c-.044.175-.086.353-.139.527a9.885,9.885,0,0,1-3.367,4.883c.313.12.627.244.944.374h0a9.878,9.878,0,0,0,3.225-4.775,9.388,9.388,0,0,0,.251-.995c-.3-.009-.609-.015-.917-.015" transform="translate(-2325.395 -2040.531)" fill="#cad6ce"/>
        <path id="Trazado_882104" data-name="Trazado 882104" d="M2892.106,2937.945v20.042a15.038,15.038,0,1,0,30.072,0v-20.042Z" transform="translate(-2557.605 -2591.952)" fill="#fdf7e8"/>
        <path id="Trazado_882105" data-name="Trazado 882105" d="M2921.191,3240.539c-1.692-1.4-7.562-2.437-14.544-2.437s-12.85,1.036-14.542,2.437Z" transform="translate(-2557.604 -2856.761)" fill="#fdf7e8"/>
        <rect id="Rectángulo_402668" data-name="Rectángulo 402668" width="30.071" height="8.619" transform="translate(334.501 354.458)" fill="#f8e6b6"/>
        <path id="Trazado_882106" data-name="Trazado 882106" d="M2904.282,3013.859l1.961-4.316,1.962,4.316-1.962,4.318Z" transform="translate(-2568.374 -2655.118)" fill="#f9ebc5"/>
        <path id="Trazado_882107" data-name="Trazado 882107" d="M2892.106,3019.9v6.194l1.409-3.1Z" transform="translate(-2557.605 -2664.258)" fill="#f9ebc5"/>
        <path id="Trazado_882108" data-name="Trazado 882108" d="M2938.2,3013.99l1.961-4.32,1.965,4.32-1.965,4.317Z" transform="translate(-2598.371 -2655.231)" fill="#f9ebc5"/>
        <path id="Trazado_882109" data-name="Trazado 882109" d="M2972.147,3013.99l1.962-4.32,1.962,4.32-1.962,4.317Z" transform="translate(-2628.389 -2655.231)" fill="#f9ebc5"/>
        <path id="Trazado_882110" data-name="Trazado 882110" d="M3006.066,3013.99l1.961-4.32,1.962,4.32-1.962,4.317Z" transform="translate(-2658.386 -2655.231)" fill="#f9ebc5"/>
        <path id="Trazado_882111" data-name="Trazado 882111" d="M3039.986,3013.859l1.961-4.316,1.962,4.316-1.962,4.318Z" transform="translate(-2688.382 -2655.118)" fill="#f9ebc5"/>
        <path id="Trazado_882112" data-name="Trazado 882112" d="M3073.9,3013.99l1.964-4.32,1.962,4.32-1.962,4.317Z" transform="translate(-2718.377 -2655.231)" fill="#f9ebc5"/>
        <path id="Trazado_882113" data-name="Trazado 882113" d="M3107.85,3013.99l1.962-4.32,1.961,4.32-1.961,4.317Z" transform="translate(-2748.397 -2655.231)" fill="#f9ebc5"/>
        <path id="Trazado_882114" data-name="Trazado 882114" d="M3141.335,3019.9l-1.3,2.871-.1.226.11.241,1.3,2.856Z" transform="translate(-2776.763 -2664.258)" fill="#f9ebc5"/>
        <path id="Trazado_882115" data-name="Trazado 882115" d="M2879.5,2926.918h33.2v1.3a1.285,1.285,0,0,1-1.272,1.3H2880.77a1.287,1.287,0,0,1-1.275-1.3Z" transform="translate(-2546.453 -2582.225)" fill="#fbf1d5"/>
        <path id="Trazado_882116" data-name="Trazado 882116" d="M2874.3,3261.393h33.2v-1.3a1.287,1.287,0,0,0-1.275-1.3h-30.654a1.287,1.287,0,0,0-1.275,1.3Z" transform="translate(-2541.862 -2875.018)" fill="#fbf1d5"/>
        <path id="Trazado_882117" data-name="Trazado 882117" d="M2953.457,3230.531H2966.8a.893.893,0,0,1,0,1.786h-13.343a.893.893,0,0,1,0-1.786" transform="translate(-2611.083 -2850.081)" fill="#fbf1d5"/>
      </g>
    </g>
  </g>
</svg>
