<svg xmlns="http://www.w3.org/2000/svg" xmlns:xlink="http://www.w3.org/1999/xlink" width="70.498" height="70.498" viewBox="0 0 70.498 70.498">
  <defs>
    <clipPath id="clip-path">
      <rect id="Rectángulo_402172" data-name="Rectángulo 402172" width="32.509" height="32.474" fill="#ffe8b6"/>
    </clipPath>
  </defs>
  <g id="Grupo_1100542" data-name="Grupo 1100542" transform="translate(-349.555 -4136.251)">
    <g id="Grupo_1098742" data-name="Grupo 1098742" transform="translate(349.555 4136.251)">
      <rect id="Rectángulo_400898" data-name="Rectángulo 400898" width="62.743" height="62.743" rx="31.372" transform="translate(4.23 4.23)" fill="#0f6646" opacity="0.859"/>
      <g id="Rectángulo_400907" data-name="Rectángulo 400907" fill="none" stroke="#4d812e" stroke-linecap="round" stroke-width="2" stroke-dasharray="7">
        <rect width="70.498" height="70.498" rx="35.249" stroke="none"/>
        <rect x="1" y="1" width="68.498" height="68.498" rx="34.249" fill="none"/>
      </g>
    </g>
    <g id="Grupo_1099720" data-name="Grupo 1099720" transform="translate(368.549 4155.251)" clip-path="url(#clip-path)">
      <path id="Trazado_880360" data-name="Trazado 880360" d="M7.737,28.46c0-1.671.011-3.342-.013-5.013a1.1,1.1,0,0,0-.3-.65c-.673-.732-1.379-1.433-2.066-2.152-.257-.269-.653-.566-.231-.947s.676.045.943.3l1.662,1.615c0-1.116.013-2.161-.013-3.2,0-.157-.168-.329-.293-.461-.714-.752-1.438-1.494-2.16-2.238-.25-.257-.507-.576-.128-.842.154-.108.6.018.791.179.615.5,1.174,1.076,1.808,1.671,0-.829,0-1.642,0-2.454,0-.339,0-.677,0-1.016,0-.359-.052-.79.486-.78.492.009.449.414.45.753,0,.952,0,1.9,0,2.856v.635c.639-.6,1.216-1.172,1.835-1.7.175-.148.54-.282.7-.2.41.218.264.555,0,.833-.719.747-1.46,1.474-2.15,2.247a1.533,1.533,0,0,0-.364.876c-.047.918-.017,1.84-.017,2.744.6-.552,1.178-1.068,1.74-1.6.272-.257.548-.564.9-.194.326.339.034.616-.206.863-.706.73-1.423,1.45-2.112,2.2a1.1,1.1,0,0,0-.311.647c-.026,1.671-.014,3.342-.014,5.058.1-.022.2-.015.247-.057a17.945,17.945,0,0,0,5.733-7.222,10.432,10.432,0,0,0-.637-9.17,20.139,20.139,0,0,0-5.8-6.372c-.337.256-.677.5-1,.76A18.356,18.356,0,0,0,2.25,12.376,10.51,10.51,0,0,0,2.8,23.345c.124.2.252.391.388.58.208.29.417.592.012.866s-.611-.051-.808-.334A11.561,11.561,0,0,1,1.63,11.5,20.5,20.5,0,0,1,7.748,4.811a.741.741,0,0,1,1.018.071,22.651,22.651,0,0,1,5.3,5.419l.4.577c.148-.239.27-.43.386-.625q2.661-4.5,5.321-9.01c.946-1.6,2.519-1.6,3.472,0,.249.418.495.837.744,1.255.184.308.346.628-.07.869-.394.227-.572-.075-.74-.358-.281-.473-.553-.95-.841-1.418-.474-.77-1.184-.8-1.636-.034q-2.964,4.989-5.9,10a.655.655,0,0,0-.087.507,12.233,12.233,0,0,1,1.305,5.573h.73c4.359,0,8.718.011,13.077-.018a1.793,1.793,0,0,0,1.167-.42c.39-.394.049-.861-.19-1.266q-2.889-4.886-5.774-9.774c-.1-.164-.252-.327-.262-.5-.012-.2.049-.5.184-.58s.42.017.595.116c.129.073.189.271.275.417q2.935,4.969,5.874,9.935a1.936,1.936,0,0,1,.153,2.144,1.972,1.972,0,0,1-1.9.9c-4.4-.016-8.8-.008-13.2-.008h-.759c-.067.337-.124.66-.2.981a14.6,14.6,0,0,1-3.547,6.57c-1.091,1.225-2.381,2.272-3.558,3.423a1.439,1.439,0,0,0-.394.773,10,10,0,0,0-.018,1.394c0,.366.028.8-.486.789-.462-.009-.455-.41-.452-.761a8.807,8.807,0,0,0-.017-1.394,1.514,1.514,0,0,0-.419-.822c-.923-.868-1.893-1.687-2.829-2.541-.271-.247-.653-.549-.222-.941.386-.351.633.017.894.264.806.762,1.62,1.516,2.431,2.273l.162-.129" transform="translate(0 -0.038)" fill="#ffe8b6"/>
      <path id="Trazado_880361" data-name="Trazado 880361" d="M160.048,40.064c0-.76-.012-1.519,0-2.278a1.579,1.579,0,1,1,3.157-.051q.039,2.372,0,4.746a1.579,1.579,0,1,1-3.157-.076c-.013-.78,0-1.561,0-2.341m.955.077c0,.717,0,1.434,0,2.151,0,.433.151.781.629.777s.616-.348.613-.786c-.007-1.455,0-2.91,0-4.364,0-.428-.117-.773-.619-.77s-.618.358-.62.778c0,.738,0,1.476,0,2.214" transform="translate(-139.723 -31.569)" fill="#ffe8b6"/>
      <path id="Trazado_880362" data-name="Trazado 880362" d="M145.886,170.012q-1.93,0-3.86,0c-.347,0-.743,0-.752-.467-.009-.505.4-.5.775-.5q3.86,0,7.721,0c.349,0,.736-.006.748.464.014.523-.408.5-.772.506-1.287,0-2.573,0-3.86,0" transform="translate(-123.337 -147.578)" fill="#ffe8b6"/>
      <path id="Trazado_880363" data-name="Trazado 880363" d="M145.905,207.084h3.861c.347,0,.736-.009.751.462.016.519-.4.513-.767.514q-3.861,0-7.721,0c-.349,0-.742-.01-.755-.468-.014-.506.4-.51.771-.509q1.93,0,3.861,0" transform="translate(-123.337 -180.79)" fill="#ffe8b6"/>
      <path id="Trazado_880364" data-name="Trazado 880364" d="M145.03,188.062c.992,0,1.983,0,2.975,0,.352,0,.7.1.636.494a.79.79,0,0,1-.6.459q-3.037.052-6.075,0a.792.792,0,0,1-.6-.455c-.068-.4.28-.5.633-.5,1.013,0,2.025,0,3.038,0" transform="translate(-123.404 -164.184)" fill="#ffe8b6"/>
      <path id="Trazado_880365" data-name="Trazado 880365" d="M161.657,106.975a1.544,1.544,0,1,1,1.592-1.531,1.548,1.548,0,0,1-1.592,1.531m.7-1.38.013-.265c-.224-.164-.458-.47-.668-.454s-.421.341-.63.53c.191.208.36.549.58.585s.468-.251.706-.4" transform="translate(-139.765 -90.697)" fill="#ffe8b6"/>
      <path id="Trazado_880366" data-name="Trazado 880366" d="M43.373,0A4.164,4.164,0,0,1,46.3,1.16c.152.149.111.494.159.749-.259-.014-.618.078-.762-.058a3.509,3.509,0,0,0-4.636.014c-.136.131-.5.021-.763.022.048-.241.013-.566.158-.709A4.182,4.182,0,0,1,43.373,0" transform="translate(-35.182)" fill="#ffe8b6"/>
      <path id="Trazado_880367" data-name="Trazado 880367" d="M143.636,226h1.708c.345,0,.705.079.632.492a.787.787,0,0,1-.59.461c-1.2.044-2.4.045-3.605,0-.208-.008-.405-.309-.608-.475.209-.159.406-.431.63-.455a17.6,17.6,0,0,1,1.833-.022" transform="translate(-123.249 -197.296)" fill="#ffe8b6"/>
      <path id="Trazado_880368" data-name="Trazado 880368" d="M54.06,17.307a.455.455,0,0,1-.75.376,1.656,1.656,0,0,0-2.249-.007.611.611,0,0,1-.6-.048.636.636,0,0,1-.021-.606,2.474,2.474,0,0,1,3.5-.01,1.272,1.272,0,0,1,.122.295" transform="translate(-43.979 -14.225)" fill="#ffe8b6"/>
    </g>
  </g>
</svg>
