<svg xmlns="http://www.w3.org/2000/svg" xmlns:xlink="http://www.w3.org/1999/xlink" width="609.999" height="377.501" viewBox="0 0 609.999 377.501">
  <defs>
    <clipPath id="clip-path">
      <rect id="Rectángulo_400902" data-name="Rectángulo 400902" width="85.156" height="75.495" fill="#fff5e2"/>
    </clipPath>
    <clipPath id="clip-path-2">
      <rect id="Rectángulo_402473" data-name="Rectángulo 402473" width="259.611" height="302.613" fill="none"/>
    </clipPath>
  </defs>
  <g id="Grupo_1100548" data-name="Grupo 1100548" transform="translate(-495.051 -3722.412)">
    <rect id="BG" width="609.999" height="377.501" transform="translate(495.051 3722.412)" fill="#effaf4" opacity="0.949"/>
    <path id="Rectángulo_401347" data-name="Rectángulo 401347" d="M107.95,0h0A107.95,107.95,0,0,1,215.9,107.95V308.962a0,0,0,0,1,0,0H0a0,0,0,0,1,0,0V107.95A107.95,107.95,0,0,1,107.95,0Z" transform="translate(692.051 3747.41)" fill="#b8ccab"/>
    <g id="Grupo_1099384" data-name="Grupo 1099384" transform="translate(757.051 3950.484)">
      <g id="Grupo_1098724" data-name="Grupo 1098724" transform="translate(0 0)">
        <g id="Grupo_1098723" data-name="Grupo 1098723" clip-path="url(#clip-path)">
          <path id="Trazado_872910" data-name="Trazado 872910" d="M3.4,1.7A1.7,1.7,0,1,1,1.7,0,1.7,1.7,0,0,1,3.4,1.7" fill="#fff5e2"/>
          <path id="Trazado_872911" data-name="Trazado 872911" d="M32.354,1.7a1.7,1.7,0,1,1-1.7-1.7,1.7,1.7,0,0,1,1.7,1.7" transform="translate(-12.602)" fill="#fff5e2"/>
          <path id="Trazado_872912" data-name="Trazado 872912" d="M61.307,1.7a1.7,1.7,0,1,1-1.7-1.7,1.7,1.7,0,0,1,1.7,1.7" transform="translate(-25.204)" fill="#fff5e2"/>
          <path id="Trazado_872913" data-name="Trazado 872913" d="M90.26,1.7A1.7,1.7,0,1,1,88.56,0a1.7,1.7,0,0,1,1.7,1.7" transform="translate(-37.806)" fill="#fff5e2"/>
          <path id="Trazado_872914" data-name="Trazado 872914" d="M119.213,1.7a1.7,1.7,0,1,1-1.7-1.7,1.7,1.7,0,0,1,1.7,1.7" transform="translate(-50.408)" fill="#fff5e2"/>
          <path id="Trazado_872915" data-name="Trazado 872915" d="M148.167,1.7a1.7,1.7,0,1,1-1.7-1.7,1.7,1.7,0,0,1,1.7,1.7" transform="translate(-63.011)" fill="#fff5e2"/>
          <path id="Trazado_872916" data-name="Trazado 872916" d="M3.4,33.615a1.7,1.7,0,1,1-1.7-1.7,1.7,1.7,0,0,1,1.7,1.7" transform="translate(0 -13.891)" fill="#fff5e2"/>
          <path id="Trazado_872917" data-name="Trazado 872917" d="M32.354,33.615a1.7,1.7,0,1,1-1.7-1.7,1.7,1.7,0,0,1,1.7,1.7" transform="translate(-12.602 -13.891)" fill="#fff5e2"/>
          <path id="Trazado_872918" data-name="Trazado 872918" d="M61.307,33.615a1.7,1.7,0,1,1-1.7-1.7,1.7,1.7,0,0,1,1.7,1.7" transform="translate(-25.204 -13.891)" fill="#fff5e2"/>
          <path id="Trazado_872919" data-name="Trazado 872919" d="M90.26,33.615a1.7,1.7,0,1,1-1.7-1.7,1.7,1.7,0,0,1,1.7,1.7" transform="translate(-37.806 -13.891)" fill="#fff5e2"/>
          <path id="Trazado_872920" data-name="Trazado 872920" d="M119.213,33.615a1.7,1.7,0,1,1-1.7-1.7,1.7,1.7,0,0,1,1.7,1.7" transform="translate(-50.408 -13.891)" fill="#fff5e2"/>
          <path id="Trazado_872921" data-name="Trazado 872921" d="M148.167,33.615a1.7,1.7,0,1,1-1.7-1.7,1.7,1.7,0,0,1,1.7,1.7" transform="translate(-63.011 -13.891)" fill="#fff5e2"/>
          <path id="Trazado_872922" data-name="Trazado 872922" d="M3.4,65.53a1.7,1.7,0,1,1-1.7-1.7,1.7,1.7,0,0,1,1.7,1.7" transform="translate(0 -27.782)" fill="#fff5e2"/>
          <path id="Trazado_872923" data-name="Trazado 872923" d="M32.354,65.53a1.7,1.7,0,1,1-1.7-1.7,1.7,1.7,0,0,1,1.7,1.7" transform="translate(-12.602 -27.782)" fill="#fff5e2"/>
          <path id="Trazado_872924" data-name="Trazado 872924" d="M61.307,65.53a1.7,1.7,0,1,1-1.7-1.7,1.7,1.7,0,0,1,1.7,1.7" transform="translate(-25.204 -27.782)" fill="#fff5e2"/>
          <path id="Trazado_872925" data-name="Trazado 872925" d="M90.26,65.53a1.7,1.7,0,1,1-1.7-1.7,1.7,1.7,0,0,1,1.7,1.7" transform="translate(-37.806 -27.782)" fill="#fff5e2"/>
          <path id="Trazado_872926" data-name="Trazado 872926" d="M119.213,65.53a1.7,1.7,0,1,1-1.7-1.7,1.7,1.7,0,0,1,1.7,1.7" transform="translate(-50.408 -27.782)" fill="#fff5e2"/>
          <path id="Trazado_872927" data-name="Trazado 872927" d="M148.167,65.53a1.7,1.7,0,1,1-1.7-1.7,1.7,1.7,0,0,1,1.7,1.7" transform="translate(-63.011 -27.782)" fill="#fff5e2"/>
          <path id="Trazado_872928" data-name="Trazado 872928" d="M3.4,97.445a1.7,1.7,0,1,1-1.7-1.7,1.7,1.7,0,0,1,1.7,1.7" transform="translate(0 -41.674)" fill="#fff5e2"/>
          <path id="Trazado_872929" data-name="Trazado 872929" d="M32.354,97.445a1.7,1.7,0,1,1-1.7-1.7,1.7,1.7,0,0,1,1.7,1.7" transform="translate(-12.602 -41.674)" fill="#fff5e2"/>
          <path id="Trazado_872930" data-name="Trazado 872930" d="M61.307,97.445a1.7,1.7,0,1,1-1.7-1.7,1.7,1.7,0,0,1,1.7,1.7" transform="translate(-25.204 -41.674)" fill="#fff5e2"/>
          <path id="Trazado_872931" data-name="Trazado 872931" d="M90.26,97.445a1.7,1.7,0,1,1-1.7-1.7,1.7,1.7,0,0,1,1.7,1.7" transform="translate(-37.806 -41.674)" fill="#fff5e2"/>
          <path id="Trazado_872932" data-name="Trazado 872932" d="M119.213,97.445a1.7,1.7,0,1,1-1.7-1.7,1.7,1.7,0,0,1,1.7,1.7" transform="translate(-50.408 -41.674)" fill="#fff5e2"/>
          <path id="Trazado_872933" data-name="Trazado 872933" d="M148.167,97.445a1.7,1.7,0,1,1-1.7-1.7,1.7,1.7,0,0,1,1.7,1.7" transform="translate(-63.011 -41.674)" fill="#fff5e2"/>
          <path id="Trazado_872934" data-name="Trazado 872934" d="M3.4,129.36a1.7,1.7,0,1,1-1.7-1.7,1.7,1.7,0,0,1,1.7,1.7" transform="translate(0 -55.565)" fill="#fff5e2"/>
          <path id="Trazado_872935" data-name="Trazado 872935" d="M32.354,129.36a1.7,1.7,0,1,1-1.7-1.7,1.7,1.7,0,0,1,1.7,1.7" transform="translate(-12.602 -55.565)" fill="#fff5e2"/>
          <path id="Trazado_872936" data-name="Trazado 872936" d="M61.307,129.36a1.7,1.7,0,1,1-1.7-1.7,1.7,1.7,0,0,1,1.7,1.7" transform="translate(-25.204 -55.565)" fill="#fff5e2"/>
          <path id="Trazado_872937" data-name="Trazado 872937" d="M90.26,129.36a1.7,1.7,0,1,1-1.7-1.7,1.7,1.7,0,0,1,1.7,1.7" transform="translate(-37.806 -55.565)" fill="#fff5e2"/>
          <path id="Trazado_872938" data-name="Trazado 872938" d="M119.213,129.36a1.7,1.7,0,1,1-1.7-1.7,1.7,1.7,0,0,1,1.7,1.7" transform="translate(-50.408 -55.565)" fill="#fff5e2"/>
          <path id="Trazado_872939" data-name="Trazado 872939" d="M148.167,129.36a1.7,1.7,0,1,1-1.7-1.7,1.7,1.7,0,0,1,1.7,1.7" transform="translate(-63.011 -55.565)" fill="#fff5e2"/>
        </g>
      </g>
    </g>
    <path id="Rectángulo_401350" data-name="Rectángulo 401350" d="M0,0H239.323a0,0,0,0,1,0,0V12.69a19,19,0,0,1-19,19H19a19,19,0,0,1-19-19V0A0,0,0,0,1,0,0Z" transform="translate(680.051 4049.521)" fill="#c6e5e6"/>
    <g id="Grupo_1100238" data-name="Grupo 1100238" transform="translate(670.051 3759.577)">
      <g id="Grupo_1100237" data-name="Grupo 1100237" clip-path="url(#clip-path-2)">
        <path id="Trazado_881252" data-name="Trazado 881252" d="M312.5,131.116c-3.261,1.62,4.484,11.321,7.061,12.37a10.218,10.218,0,0,0,5.555.312,10.711,10.711,0,0,0-1.823-4.816c-1.582-2.137-9.1-8.7-10.793-7.866" transform="translate(-178.19 -74.91)" fill="#f9eac2"/>
        <path id="Trazado_881253" data-name="Trazado 881253" d="M337.78,160.356a1.052,1.052,0,0,1-.991-.7,18.051,18.051,0,0,0-6.822-8.4,1.051,1.051,0,0,1,1.088-1.8,19.882,19.882,0,0,1,7.716,9.5,1.051,1.051,0,0,1-.638,1.343,1.037,1.037,0,0,1-.353.061" transform="translate(-188.334 -85.349)" fill="#f9eac2"/>
        <path id="Trazado_881254" data-name="Trazado 881254" d="M28.544,295.292c1.8,3.168,11.059-5.1,11.966-7.726A10.215,10.215,0,0,0,40.518,282a10.706,10.706,0,0,0-4.709,2.083c-2.048,1.7-8.194,9.566-7.264,11.206" transform="translate(-16.263 -161.205)" fill="#b4d5d6"/>
        <path id="Trazado_881255" data-name="Trazado 881255" d="M47.059,282.954a.841.841,0,0,1-.742-1.235,19.651,19.651,0,0,1,8.955-8.128.841.841,0,1,1,.65,1.552,18.266,18.266,0,0,0-8.12,7.366.841.841,0,0,1-.743.445" transform="translate(-26.421 -156.359)" fill="#b4d5d6"/>
        <path id="Trazado_881256" data-name="Trazado 881256" d="M78.468,151.227c-2.918,2.177,6.438,10.336,9.161,10.906a10.217,10.217,0,0,0,5.521-.687,10.71,10.71,0,0,0-2.655-4.412c-1.939-1.819-10.515-6.934-12.027-5.807" transform="translate(-44.537 -86.356)" fill="#f9eac2"/>
        <path id="Trazado_881257" data-name="Trazado 881257" d="M108.3,175.518a1.052,1.052,0,0,1-.913-.528,18.048,18.048,0,0,0-8.215-7.044,1.052,1.052,0,0,1,.748-1.966,19.886,19.886,0,0,1,9.291,7.961,1.052,1.052,0,0,1-.911,1.576" transform="translate(-56.305 -94.842)" fill="#f9eac2"/>
        <path id="Trazado_881258" data-name="Trazado 881258" d="M121.306,293.742c1.719,3.21,11.179-4.828,12.148-7.436a10.217,10.217,0,0,0,.142-5.562,10.712,10.712,0,0,0-4.759,1.969c-2.088,1.646-8.422,9.366-7.532,11.028" transform="translate(-69.295 -160.486)" fill="#f9eac2"/>
        <path id="Trazado_881259" data-name="Trazado 881259" d="M139.99,281.7a1.052,1.052,0,0,1-.916-1.567,19.887,19.887,0,0,1,9.255-8,1.052,1.052,0,1,1,.766,1.959,17.939,17.939,0,0,0-8.188,7.075,1.052,1.052,0,0,1-.918.536" transform="translate(-79.423 -155.518)" fill="#f9eac2"/>
        <path id="Trazado_881260" data-name="Trazado 881260" d="M1.864,249.424c1.128,3.462,11.853-2.789,13.266-5.186a10.212,10.212,0,0,0,1.117-5.45,10.707,10.707,0,0,0-5.03,1.1c-2.345,1.254-9.937,7.741-9.353,9.533" transform="translate(-1.047 -136.499)" fill="#f9eac2"/>
        <path id="Trazado_881261" data-name="Trazado 881261" d="M23.5,240.241a1.051,1.051,0,0,1-.811-1.719,19.887,19.887,0,0,1,10.517-6.251,1.051,1.051,0,1,1,.41,2.063,18.049,18.049,0,0,0-9.3,5.528,1.052,1.052,0,0,1-.811.381" transform="translate(-12.833 -132.763)" fill="#f9eac2"/>
        <path id="Trazado_881262" data-name="Trazado 881262" d="M18.024,154.237c3.626-.332,2.124,11.991.481,14.235a10.213,10.213,0,0,1-4.565,3.181,10.707,10.707,0,0,1-.976-5.056c.225-2.649,3.182-12.187,5.06-12.359" transform="translate(-7.395 -88.165)" fill="#f9eac2"/>
        <path id="Trazado_881263" data-name="Trazado 881263" d="M14.624,192.447a1.052,1.052,0,0,1-1.028-.832,19.887,19.887,0,0,1,1.585-12.132,1.052,1.052,0,0,1,1.871.962,18.045,18.045,0,0,0-1.4,10.731,1.053,1.053,0,0,1-1.029,1.272" transform="translate(-7.563 -102.274)" fill="#f9eac2"/>
        <path id="Trazado_881264" data-name="Trazado 881264" d="M427.8,27.712c2.928,2.165-6.395,10.363-9.115,10.944a10.214,10.214,0,0,1-5.524-.664A10.7,10.7,0,0,1,415.8,33.57c1.931-1.828,10.486-6.978,12-5.857" transform="translate(-236.181 -15.751)" fill="#b4d5d6"/>
        <path id="Trazado_881265" data-name="Trazado 881265" d="M404.184,52.2a.842.842,0,0,1-.73-1.258,19.66,19.66,0,0,1,9.15-7.908.841.841,0,0,1,.6,1.57,18.261,18.261,0,0,0-8.293,7.17.84.84,0,0,1-.732.425" transform="translate(-230.569 -24.568)" fill="#b4d5d6"/>
        <path id="Trazado_881266" data-name="Trazado 881266" d="M428.527,204.422c1.607,3.268-10.439,6.269-13.123,5.537a10.213,10.213,0,0,1-4.6-3.126,10.707,10.707,0,0,1,4.374-2.719c2.555-.737,12.52-1.384,13.351.308" transform="translate(-234.833 -116.246)" fill="#b4d5d6"/>
        <path id="Trazado_881267" data-name="Trazado 881267" d="M397.829,213.352a.842.842,0,0,1-.459-1.547,19.656,19.656,0,0,1,11.759-2.823.841.841,0,0,1-.183,1.673,18.258,18.258,0,0,0-10.659,2.562.84.84,0,0,1-.457.136" transform="translate(-226.935 -119.427)" fill="#b4d5d6"/>
        <path id="Trazado_881268" data-name="Trazado 881268" d="M128.381,77.632c3.491,1.034-2.466,11.925-4.823,13.4A10.214,10.214,0,0,1,118.14,92.3a10.711,10.711,0,0,1,.966-5.058c1.189-2.378,7.467-10.144,9.276-9.608" transform="translate(-67.524 -44.363)" fill="#b4d5d6"/>
        <path id="Trazado_881269" data-name="Trazado 881269" d="M113.292,110.855a.842.842,0,0,1-.83-.983,19.651,19.651,0,0,1,5.894-10.559.841.841,0,0,1,1.106,1.268,18.26,18.26,0,0,0-5.341,9.574.842.842,0,0,1-.828.7" transform="translate(-64.281 -56.653)" fill="#b4d5d6"/>
        <path id="Trazado_881270" data-name="Trazado 881270" d="M49.717,50.821c-2.706,2.436,7.362,9.7,10.125,10.018a10.215,10.215,0,0,0,5.435-1.192,10.713,10.713,0,0,0-3.05-4.149c-2.1-1.633-11.109-5.938-12.51-4.676" transform="translate(-28.159 -28.921)" fill="#b4d5d6"/>
        <path id="Trazado_881271" data-name="Trazado 881271" d="M81.814,72.366a.84.84,0,0,1-.688-.357,18.257,18.257,0,0,0-8.944-6.34.841.841,0,0,1,.451-1.621A19.658,19.658,0,0,1,82.5,71.04a.842.842,0,0,1-.687,1.326" transform="translate(-40.911 -36.595)" fill="#b4d5d6"/>
        <path id="Trazado_881272" data-name="Trazado 881272" d="M58.16,173.821c3.148-1.83,6.982,9.977,6.439,12.705a10.216,10.216,0,0,1-2.8,4.809,10.708,10.708,0,0,1-3.017-4.173c-.913-2.5-2.254-12.392-.624-13.34" transform="translate(-32.809 -99.254)" fill="#b4d5d6"/>
        <path id="Trazado_881273" data-name="Trazado 881273" d="M68.564,211.424a.84.84,0,0,1-.673-.335,19.665,19.665,0,0,1-3.636-11.534.83.83,0,0,1,.874-.807.841.841,0,0,1,.807.873,18.26,18.26,0,0,0,3.3,10.455.841.841,0,0,1-.671,1.348" transform="translate(-36.728 -113.612)" fill="#b4d5d6"/>
        <path id="Trazado_881274" data-name="Trazado 881274" d="M215.491,30.093c-.43-4.088,9.632-22.048,9.632-22.048L222.94,5.574s-11.83,17.491-12.6,21.828-2.369,16.783-4.675,19.767-16.045,11.263-16.045,11.263a17.405,17.405,0,0,0-1.025-8.977c-1.88-5.041-11.444-18.932-13.959-23.006s-1.128-23.577-1.128-23.577L171.239,0s-3.058,21.521-1.812,27.529,13.061,20.686,14.125,23.807.723,11.547.723,11.547-21.5,23.255-25.653,25.369c0,0-5.265-7.263-5.764-9.666s.5-19.738.5-19.738l-2.97-.22S148.12,77.9,148.55,81.985s1.621,13.867,1.621,13.867l-14.057,25.889-20.377,11.087c-6.637-12.4-12.989-23.928-13.462-26.212-1-4.806,14.693-43.984,15.533-50.006s-8.3-40.053-8.3-40.053l-2.472,2.183s2.5,24.129,2.706,31.187S104.5,68.977,99.554,73.344s-4.293,5.485-6.018,11.273-7.366,24.92-7.366,24.92-19.3-6.443-20.681-9.08-8.674-35.8-12.807-41.625-5.27-19.376-5.27-19.376,5.979-5.417,6.834-9.354,5.261-4.85,6.35-9.671a21.294,21.294,0,0,0-.308-9.544l-2.327-.144S57.053,18.45,53.822,21,48.957,30.78,46.3,30.077s-3.612-17.423-3.612-17.423l-4.206.872s1.084,17.32,1.854,24.053S40.3,49.493,44.349,59.933,56.606,91.855,56.32,102.567c0,0-22.42-5.378-30.852-6.762s-9.386.066-13.137-2.916-10.55-11.6-10.55-11.6L0,84.792s6.345,12.47,10.572,14.726,14.089,1.465,19.518,3.473c3.011,1.113,12.6,6.369,12.6,6.369s-11.669,6.179-15.273,6.926a66.042,66.042,0,0,1-9.862.791l1.617,1.754s8.025.425,10.829-.156c2.662-.552,15.045-6.884,16.29-7.523,3.578,1.956,6.264,3.474,6.264,3.474l-9.141,6.281.982,2.72s11.1-6.9,14.721-5.558S78.5,127.637,78.5,127.637s24.6,38.151,27.945,46.23-1.267,86.479.13,91.2l44.636-2.391s-19.02-88.324-19.962-96.9c-.191-1.74-1.457-5.012-3.361-9.163,4.244-3.136,17.866-13.372,21.141-17.916,3.893-5.4,13.979-31.3,15.552-35.808s25.746-35,27.1-36.53S209.962,53.8,209.962,53.8l18.024-3.736.22-2.97L211.769,48.41s4.152-14.228,3.722-18.317" fill="#608038"/>
        <path id="Trazado_881275" data-name="Trazado 881275" d="M89.708,239.214c0,1.2,19.13,9.963,21.122,11.159s19.129,8.768,21.122,10.362,22.45,32.812,23.247,37.2,1.727-6.775.532-9.565-17.27-28.3-19.661-30.288-20.856-11.292-22.849-11.69-23.513-7.174-23.513-7.174" transform="translate(-51.281 -136.745)" fill="#809960"/>
        <path id="Trazado_881276" data-name="Trazado 881276" d="M262.785,421.888c2.391-1.993,5.181,3.188,5.181,3.188s-2.391,27.9-1.2,33.875S269.56,501.2,269.56,501.2l-2.789-.8s-4.783-37.063-6.377-41.447,2.391-37.063,2.391-37.063" transform="translate(-148.637 -240.909)" fill="#809960"/>
        <path id="Trazado_881277" data-name="Trazado 881277" d="M284.155,264.98a3.855,3.855,0,0,0,3.188,3.188l17.535-14.613s11.69-22.185,10.893-23.38a3.976,3.976,0,0,1-.133-3.055s-10.362,23.513-13.151,25.506-18.332,12.355-18.332,12.355" transform="translate(-162.435 -129.832)" fill="#809960"/>
        <path id="Trazado_881278" data-name="Trazado 881278" d="M230.982,151.292c-.439-2.637-7.572,10.362-10.362,14.347s-7.173,26.3-7.173,26.3,3.188-.8,4.384-2.79,3.985-21.919,5.181-23.115,8.369-12.355,7.971-14.746" transform="translate(-122.016 -86.285)" fill="#809960"/>
        <path id="Trazado_881279" data-name="Trazado 881279" d="M103.663,110.823c0,1.993,1.063,10.1,3.587,14.746,2.29,4.218,5.579,21.521,7.174,23.115s1.594-1.2,1.2-2.789-4.782-17.536-5.579-19.13-5.579-15.543-5.579-15.543Z" transform="translate(-59.258 -63.351)" fill="#809960"/>
        <path id="Trazado_881280" data-name="Trazado 881280" d="M208.172,135.078a1.052,1.052,0,0,1-.955-.61c-.587-1.265-5.744-12.436-6.109-14.995-.172-1.2.359-5.752,1.238-13.075.733-6.108,1.738-14.472,1.461-15.617a74.5,74.5,0,0,0-3.628-6.882,1.052,1.052,0,1,1,1.815-1.064,73.042,73.042,0,0,1,3.8,7.258c.426,1.171-.114,6.185-1.36,16.556-.649,5.408-1.386,11.537-1.244,12.526.244,1.706,3.683,9.551,5.935,14.408a1.052,1.052,0,0,1-.953,1.494" transform="translate(-114.348 -47.055)" fill="#608038"/>
        <path id="Trazado_881281" data-name="Trazado 881281" d="M384.9,76.611a.976.976,0,0,1-.111-.006c-.423-.045-10.41-1.128-15.352-4.422-4.9-3.269-15.776-19.788-16.237-20.49a1.052,1.052,0,0,1,1.758-1.154c.111.169,11.095,16.861,15.645,19.894,4.509,3.006,14.307,4.07,14.405,4.08a1.052,1.052,0,0,1-.109,2.1" transform="translate(-201.807 -28.619)" fill="#608038"/>
        <path id="Trazado_881282" data-name="Trazado 881282" d="M418.585,157.956a1.052,1.052,0,0,1-.262-2.07c.678-.175,16.67-4.284,22.581-4.284,3.888,0,9.893-4.326,13.481-6.911a17.056,17.056,0,0,1,3.19-2.068c1.62-.54,15.09-2.953,16.62-3.226a1.052,1.052,0,1,1,.37,2.071c-5.951,1.063-15.209,2.779-16.326,3.151a26.6,26.6,0,0,0-2.625,1.779c-3.794,2.733-10.144,7.308-14.711,7.308-5.645,0-21.892,4.176-22.055,4.218a1.053,1.053,0,0,1-.263.033" transform="translate(-238.681 -79.676)" fill="#608038"/>
        <path id="Trazado_881283" data-name="Trazado 881283" d="M135.753,144.838a1.052,1.052,0,0,1-.993-1.4c1.99-5.722,3.968-12.6,3.692-13.747-.568-2.273,1.232-9.247,1.6-10.622a1.052,1.052,0,0,1,2.032.542c-.853,3.2-1.911,8.287-1.59,9.57.564,2.254-2.725,12.012-3.746,14.948a1.052,1.052,0,0,1-.993.706" transform="translate(-77.001 -67.62)" fill="#608038"/>
        <path id="Trazado_881284" data-name="Trazado 881284" d="M71.059,111.88a1.052,1.052,0,0,1-.174-.015c-1-.167-9.883-1.686-12.148-3.384-2.183-1.637-10.912-13.24-11.9-14.558a1.052,1.052,0,0,1,1.683-1.261C52.328,97.74,58.528,105.7,60,106.8c1.4,1.049,7.632,2.392,11.232,2.992a1.052,1.052,0,0,1-.172,2.089" transform="translate(-26.653 -52.729)" fill="#608038"/>
        <path id="Trazado_881285" data-name="Trazado 881285" d="M243.676,212.879a1.052,1.052,0,0,1-.988-1.411c3-8.264,6.239-17.657,6.314-18.787,0-1.1,1.4-2.483,6.966-7.395,2.608-2.3,6.549-5.778,6.887-6.681.347-1.39-.16-7.34-.562-10.759a1.052,1.052,0,0,1,2.089-.246c.111.945,1.069,9.29.507,11.537-.314,1.258-2.535,3.321-7.529,7.726-2.463,2.174-5.82,5.136-6.266,5.993-.252,2.222-4.959,15.288-6.429,19.33a1.052,1.052,0,0,1-.988.692" transform="translate(-138.695 -95.276)" fill="#608038"/>
        <path id="Trazado_881286" data-name="Trazado 881286" d="M481.672,41.518a1.052,1.052,0,0,1-1-.74c-.807-2.6-4.83-15.647-4.83-17.316,0-1.636,2.4-15.6,2.672-17.182a1.052,1.052,0,0,1,2.073.357c-1.021,5.924-2.642,15.729-2.642,16.825.03,1.028,2.462,9.369,4.735,16.693a1.052,1.052,0,0,1-1,1.363" transform="translate(-272.01 -3.091)" fill="#608038"/>
        <rect id="Rectángulo_402472" data-name="Rectángulo 402472" width="104.882" height="9.973" transform="translate(188.578 257.924) rotate(-80.362)" fill="#6d8c77"/>
        <path id="Trazado_881287" data-name="Trazado 881287" d="M438.935,187.72l-42.491,51.295a11.583,11.583,0,0,0,6.981,18.809l65.668,11.151a11.583,11.583,0,0,0,12.8-15.45l-23.177-62.445a11.583,11.583,0,0,0-19.78-3.359" transform="translate(-225.096 -104.909)" fill="#3c6649"/>
        <path id="Trazado_881288" data-name="Trazado 881288" d="M448.82,197.974l-41.637,50.264a7.287,7.287,0,0,0,4.392,11.833L475.924,271a7.286,7.286,0,0,0,8.051-9.719l-22.711-61.191a7.287,7.287,0,0,0-12.443-2.113" transform="translate(-231.802 -111.661)" fill="#f9eac2"/>
        <path id="Trazado_881289" data-name="Trazado 881289" d="M503.338,295.363a4.2,4.2,0,1,1-1.537-4,4.2,4.2,0,0,1,1.537,4" transform="translate(-282.962 -166.04)" fill="#3c6649"/>
        <path id="Trazado_881290" data-name="Trazado 881290" d="M473.092,265.832a6.143,6.143,0,0,0-4.183,4.825l-16.3-2.767A22.667,22.667,0,0,1,467.5,250.272Z" transform="translate(-258.733 -143.066)" fill="#3c6649"/>
        <path id="Trazado_881291" data-name="Trazado 881291" d="M532.293,280.671,516,277.9a6.145,6.145,0,0,0-2.213-5.825l10.545-12.73a22.662,22.662,0,0,1,7.964,21.322" transform="translate(-293.702 -148.255)" fill="#3c6649"/>
        <path id="Trazado_881292" data-name="Trazado 881292" d="M493.263,327.767a22.686,22.686,0,0,1-22.4-3.87l10.543-12.731a6.138,6.138,0,0,0,6.269,1.041Z" transform="translate(-269.166 -177.876)" fill="#3c6649"/>
        <path id="Trazado_881293" data-name="Trazado 881293" d="M493.263,327.767a22.686,22.686,0,0,1-22.4-3.87l10.543-12.731a6.138,6.138,0,0,0,6.269,1.041Z" transform="translate(-269.166 -177.876)" fill="#3c6649"/>
        <path id="Trazado_881294" data-name="Trazado 881294" d="M473.092,265.832a6.143,6.143,0,0,0-4.183,4.825l-16.3-2.767A22.667,22.667,0,0,1,467.5,250.272Z" transform="translate(-258.733 -143.066)" fill="#3c6649"/>
        <path id="Trazado_881295" data-name="Trazado 881295" d="M532.293,280.671,516,277.9a6.145,6.145,0,0,0-2.213-5.825l10.545-12.73a22.662,22.662,0,0,1,7.964,21.322" transform="translate(-293.702 -148.255)" fill="#3c6649"/>
        <path id="Trazado_881296" data-name="Trazado 881296" d="M481.405,311.167,470.863,323.9Z" transform="translate(-269.166 -177.877)" fill="#3c6649"/>
        <path id="Trazado_881297" data-name="Trazado 881297" d="M524.329,259.349l-10.545,12.73Z" transform="translate(-293.702 -148.255)" fill="#3c6649"/>
        <path id="Trazado_881298" data-name="Trazado 881298" d="M492.965,265.832l-5.588-15.56Z" transform="translate(-278.606 -143.066)" fill="#3c6649"/>
        <path id="Trazado_881299" data-name="Trazado 881299" d="M515.7,329.156l-5.588-15.56Z" transform="translate(-291.602 -179.265)" fill="#3c6649"/>
        <path id="Trazado_881300" data-name="Trazado 881300" d="M535.245,305.433l-16.3-2.767Z" transform="translate(-296.654 -173.017)" fill="#3c6649"/>
        <path id="Trazado_881301" data-name="Trazado 881301" d="M468.908,294.169l-16.3-2.767Z" transform="translate(-258.733 -166.578)" fill="#3c6649"/>
        <path id="Trazado_881302" data-name="Trazado 881302" d="M301.661,563.59S299,572.626,289.44,574.75c-5.83,1.3-19.961,5.355-31.3,8.569-7.265,2.061-13.386,3.773-15.46,4.185-5.313,1.06,8.5,9.562,2.125,13.815s-25.506,7.438-31.883,4.249-10.626-10.626-20.192-12.75c-3.853-.858-11.5-1.2-20.865-1.085a421.865,421.865,0,0,0-46.085,3.21c-24.445,3.189-41.449,3.189-47.826,1.065a5.963,5.963,0,0,1-3.26-2.613c-2.4-3.954-.829-10.63,3.26-12.267,5.313-2.128,18.068-7.177,18.068-7.177s22.317-23.112,27.1-26.3a33.287,33.287,0,0,1,6.31-2.8c8.039-2.89,20.221-5.965,23.179-5.965,3.988,0,17.538,3.189,23.116,2.389a35.211,35.211,0,0,0,10.761-3.719s24.31,10.892,41.844,10.892,35.072-1.594,44.638-1.594,25.505,14.349,28.694,16.738" transform="translate(-42.049 -307.29)" fill="#4c7258"/>
        <path id="Trazado_881303" data-name="Trazado 881303" d="M376.22,563.59s-2.659,9.036-12.221,11.16c-5.83,1.3-19.961,5.355-31.3,8.569a38.274,38.274,0,0,1,2.608-9.1c2.124-4.253,14.879-9.566,14.879-9.566s-24.445-3.189-30.822-5.313-38.256,6.377-43.573,6.377-18.064-1.064-23.381-4.253-6.373-8.5-14.875-11.69c-4.934-1.851-20.958-3.7-33.544-4.926,8.039-2.89,20.221-5.965,23.179-5.965,3.988,0,17.538,3.189,23.116,2.389a35.211,35.211,0,0,0,10.761-3.719s24.31,10.892,41.843,10.892,35.072-1.594,44.638-1.594S373.032,561.2,376.22,563.59" transform="translate(-116.609 -307.29)" fill="#3c6649"/>
        <path id="Trazado_881304" data-name="Trazado 881304" d="M173.374,622.935a421.857,421.857,0,0,0-46.085,3.21c-24.445,3.189-41.449,3.189-47.826,1.064A5.962,5.962,0,0,1,76.2,624.6c3.677-.362,8.876-.69,11.762-.046,4.783,1.064,32.413-1.594,34.007-3.189s9.036-11.16,9.036-11.16-5.847-3.719-5.847-5.843,16.474-12.221,16.474-12.221-1.595,6.908-1.064,9.032,4.783,1.064,5.847,4.253,0,5.843,2.654,7.438,17.538,1.594,19.132,3.189c.694.7,2.9,3.706,5.17,6.886" transform="translate(-43.561 -338.492)" fill="#3c6649"/>
        <path id="Trazado_881305" data-name="Trazado 881305" d="M256.768,673.242s24.974-1.594,28.694.531,2.657,3.72,4.251,5.314,7.439,1.063,6.376,3.72-12.753,4.782-16.473,4.251-12.753-5.314-21.786-5.314a66.829,66.829,0,0,1-16.472-2.125s10.628-5.845,15.41-6.377" transform="translate(-137.971 -384.527)" fill="#4c7258"/>
        <path id="Trazado_881306" data-name="Trazado 881306" d="M506.66,649.539c-3.72,2.125-1.063,7.97-1.063,7.97s15.41-4.782,17.535-6.377,4.783-4.782,2.657-5.845-19.13,4.251-19.13,4.251" transform="translate(-288.496 -368.795)" fill="#4c7258"/>
        <path id="Trazado_881307" data-name="Trazado 881307" d="M111.343,588.374s-3.157-12.629-1.754-15.436a11.686,11.686,0,0,1,3.508-4.209l-1.754-14.383,5.613-.562,2.455,13.893s4.21,1.052,5.262,2.456,3.157,16.488,3.157,16.488-5.964,2.456-9.121,2.456a54.865,54.865,0,0,1-7.367-.7" transform="translate(-62.44 -316.567)" fill="#a1cacc"/>
        <path id="Trazado_881308" data-name="Trazado 881308" d="M118.951,551.9l-5.642.78a.69.69,0,0,1-.778-.589l-.612-4.423a.691.691,0,0,1,.589-.778l5.642-.78a.69.69,0,0,1,.778.589l.611,4.422a.69.69,0,0,1-.589.778" transform="translate(-63.974 -312.174)" fill="#8abdbf"/>
        <path id="Trazado_881309" data-name="Trazado 881309" d="M501.525,595.619c-1.683-1.832-7.072-8.056-5.771-11.212.3-.727,1.054-1.612,2.944-1.7.131-.006.264-.011.4-.014a5.883,5.883,0,0,1-.354-.787,3.32,3.32,0,0,1,.485-3.465c1.117-1.321,3.255-2.156,5.672-2.577a3.393,3.393,0,0,1-.371-2.2l2.055.449a2.22,2.22,0,0,0,.6,1.479c3.425-.231,6.948.266,8.709,1.325a2.668,2.668,0,0,1,1.4,3.38c-.324.81-1.441,2.583-4.811,1.547a15.375,15.375,0,0,1-6.251-4.089c-2.366.29-4.485.969-5.393,2.042-.582.688-.065,1.843.84,2.984,5.051.443,10.852,2.364,12.011,4.719a2.18,2.18,0,0,1-.319,2.459,3.045,3.045,0,0,1-3.054.735c-2.846-.514-7.1-3.1-9.653-5.877a18.6,18.6,0,0,0-1.862-.012c-.354.016-.969.09-1.1.4-.533,1.292,2.349,5.69,5.375,8.988Zm2.693-10.36c3.48,2.759,7.09,3.826,7.54,3.345a.313.313,0,0,0,.066-.1c-.015-.271-1.044-1.353-4.233-2.389a27.56,27.56,0,0,0-3.373-.854m4.914-7.661a12.18,12.18,0,0,0,3.961,2.238c.859.263,1.945.422,2.241-.318.058-.144.154-.385-.529-.8a12.366,12.366,0,0,0-5.673-1.124" transform="translate(-283.28 -327.933)" fill="#fefbf2"/>
        <path id="Trazado_881310" data-name="Trazado 881310" d="M186.776,563.239l5.314-20.723,20.192,12.221-7.971,6.908Z" transform="translate(-106.77 -310.126)" fill="#1f1f1f"/>
        <path id="Trazado_881311" data-name="Trazado 881311" d="M204.761,533.212l-5.579,3.985,20.192,12.221,3.719-4.251Z" transform="translate(-113.861 -304.807)"/>
        <path id="Trazado_881312" data-name="Trazado 881312" d="M408.147,607.014a10.6,10.6,0,0,0-11.69-.53c-6.378,3.719-9.566,4.779-9.566,6.907,0,1.918.438,7.3-.652,8.329a.57.57,0,0,1-.408.172c-1.594,0-5.318-6.377-5.318-6.377l-10.626,5.843-2.655-4.248s-7.972-2.659-9.566-5.847,5.843-6.908,5.843-6.908,7.441-3.719,7.441-5.313c0-1.111,2.579-5.835,4.144-8.595.681-1.2,1.169-2.032,1.169-2.032l3.719,6.907.164.009,9.4.522,11.867,3.954,4.072,1.359Z" transform="translate(-204.33 -336.364)" fill="#fcf4e0"/>
        <path id="Trazado_881313" data-name="Trazado 881313" d="M386.238,624.432a.571.571,0,0,1-.408.173c-1.594,0-5.317-6.377-5.317-6.377l-10.626,5.843-2.654-4.248s-7.972-2.659-9.566-5.847,5.843-6.907,5.843-6.907,7.442-3.719,7.442-5.313c0-1.111,2.579-5.835,4.144-8.595-.231,2.259-.989,5.133-1.014,6.028a6.611,6.611,0,0,1-.324,2.339,5.148,5.148,0,0,1-1.729,1.969,19.7,19.7,0,0,1-5.772,3.05c-1.127.37-2.537.955-2.52,2.137a2.61,2.61,0,0,0,.328,1.064c.442.934.888,1.872,1.329,2.806a3.577,3.577,0,0,0,.971,1.409,5.273,5.273,0,0,0,1.443.6,5.775,5.775,0,0,1,3.626,6.222q5.825-4.581,11.644-9.166c-.471,3.47.837,6.916,2.12,10.176q.518,1.319,1.039,2.638" transform="translate(-204.33 -339.076)" fill="#faeece"/>
        <path id="Trazado_881314" data-name="Trazado 881314" d="M418.3,609.037a33.26,33.26,0,0,0-2.692,2.7,4.74,4.74,0,0,0-4.27-2.15,31.653,31.653,0,0,0-4.956.77,3.256,3.256,0,0,1-1.729-.067c-1.308-.53-1.514-2.263-1.523-3.677a81.945,81.945,0,0,1-6.365,6.828,1.408,1.408,0,0,1-.576.391,1.531,1.531,0,0,1-.741-.046c-2.78-.58-5.746.223-8.472-.568a98.656,98.656,0,0,1,10.083-4.03c-.194-1.426-.669-3.37-.03-4.623l9.4.522Z" transform="translate(-221.213 -345.594)" fill="#faeece"/>
        <path id="Trazado_881315" data-name="Trazado 881315" d="M207.025,628.566c-3.87,1.245-17.74,9.2-17.74,9.2l-5.318,3.984-1.6-4.127-4.6-5.7-8.607.816,1.148-4.568,5.641.038,8.9-6.558,6.348.042,10.542-10.458,3.424,5.721L199.6,621.3l5.061,4.2s6.243,1.817,2.368,3.067" transform="translate(-96.702 -349.411)" fill="#fcf4e0"/>
        <path id="Trazado_881316" data-name="Trazado 881316" d="M222.059,628.566c-3.87,1.245-17.74,9.2-17.74,9.2L199,641.754l.711-5.578-2.835-2.831-1.414-3.9,4.779,1.952,1.952,3.9,4.96-3.012-.535-3.189,6.554-1.24h5.136l-3.012-1.591-5.49-1.417-.883-2.835L214.062,619l3.366-4.072-.648-3.685,3.424,5.721L214.63,621.3l5.061,4.2s6.243,1.817,2.368,3.067" transform="translate(-111.736 -349.411)" fill="#faeece"/>
        <path id="Trazado_881317" data-name="Trazado 881317" d="M395.363,503.017h-.017c-2.835.177-8.5,3.012-8.5,3.012a1.132,1.132,0,0,0-.1.054c-1.06-.008-2.407.909-3.088-.231-.761-1.271,2.386-4.173,5.078-5.262,2.452-1.422,8.426-1.149,8.611.6.122,1.157-1.106,1.359-1.982,1.826" transform="translate(-219.248 -285.638)" fill="#1f1f1f"/>
        <path id="Trazado_881318" data-name="Trazado 881318" d="M411.79,532.367a14.126,14.126,0,0,1-7.808,4.581c-1.771.862-5.713,2.394-9.654,1.342,0,0-5.313-11.156-4.783-14.879.378-2.637,1.556-5.814,1.956-8.51a8.134,8.134,0,0,0-.008-3c-.253-1.073-.749-1.359-1.338-1.363.033-.021.067-.038.1-.055,0,0,5.667-2.835,8.5-3.012h.017c-.677.357-1.14.871-.6,2.108a7.7,7.7,0,0,0,1.59,2.2c1.939,1.99,4.934,3.883,6.891,5.83,2.663,2.65,5.132,14.762,5.132,14.762" transform="translate(-222.66 -290.093)" fill="#f9eac2"/>
        <path id="Trazado_881319" data-name="Trazado 881319" d="M392.364,514.9a8.123,8.123,0,0,0-.009-3c-.252-1.073-.749-1.359-1.338-1.363.034-.021.067-.038.1-.055,0,0,5.666-2.835,8.5-3.012h.017c-.677.358-1.14.871-.6,2.108a7.7,7.7,0,0,0,1.59,2.2,42.645,42.645,0,0,0-8.266,3.126" transform="translate(-223.523 -290.093)" fill="#f8e6b6"/>
        <path id="Trazado_881320" data-name="Trazado 881320" d="M394.249,548.8a56.854,56.854,0,0,0,10.362-3.188l3.585,10.759s-7.172,3.987-10.36,3.19Z" transform="translate(-225.37 -311.898)" fill="#fcf4e0"/>
        <path id="Trazado_881321" data-name="Trazado 881321" d="M312.933,502.525s-3.258-5.864,3.258-14.334,12.814-16.941,10.859-26.062,4.561-24.759,7.167-26.714c0,0-5.212,16.289-4.561,24.107s1.629,7.819-2.281,16.94-8.434,17.809-7.782,28.234c0,0-2.751.434-6.661-2.172" transform="translate(-178.421 -248.902)" fill="#f9ebc4"/>
        <path id="Trazado_881322" data-name="Trazado 881322" d="M335.2,456.161s1.528-3.19-3.875-5.7-6.8-3.743-6.941-6.541a18.766,18.766,0,0,1,6.515.82,6.046,6.046,0,0,1,4.5,5.986,34.056,34.056,0,0,1-.2,5.433" transform="translate(-185.431 -253.751)" fill="#f9ebc4"/>
        <path id="Trazado_881323" data-name="Trazado 881323" d="M349.511,477.467s1.259-3.776,4.028-4.531,8.559-1.762,9.818-2.014-1.007,2.769-3.525,4.532-3.021,3.273-6.545,3.273-3.776-1.259-3.776-1.259" transform="translate(-199.796 -269.191)" fill="#f9ebc4"/>
        <path id="Trazado_881324" data-name="Trazado 881324" d="M314.528,532.752s.326-3.909-4.561-5.864-8.145-8.8-8.47-9.773,6.19.326,9.447,2.606,4.887,9.122,3.584,13.031" transform="translate(-172.342 -295.418)" fill="#f9ebc4"/>
        <path id="Trazado_881325" data-name="Trazado 881325" d="M345.708,522.584s2.281-4.887,6.841-5.864,11.728,1.3,11.728,1.3,0,2.606-5.212,4.887-13.357-.326-13.357-.326" transform="translate(-197.622 -295.241)" fill="#f9ebc4"/>
        <path id="Trazado_881326" data-name="Trazado 881326" d="M271.278,587.517l10.628-9.565,9.565,5.314,4.251,9.034s-11.159.531-12.753,0-11.69-4.783-11.69-4.783" transform="translate(-155.074 -330.383)" fill="#91a776"/>
        <path id="Trazado_881327" data-name="Trazado 881327" d="M296.088,577.952,301.4,583.8l-4.251,8.5H309.9l-4.251-9.033Z" transform="translate(-169.257 -330.383)" fill="#809960"/>
      </g>
    </g>
  </g>
</svg>
