<svg xmlns="http://www.w3.org/2000/svg" xmlns:xlink="http://www.w3.org/1999/xlink" width="47.509" height="41.151" viewBox="0 0 47.509 41.151">
  <defs>
    <clipPath id="clip-path">
      <rect id="Rectángulo_400902" data-name="Rectángulo 400902" width="47.509" height="41.151" fill="#4d812e"/>
    </clipPath>
  </defs>
  <g id="Grupo_1099747" data-name="Grupo 1099747" transform="translate(0)">
    <g id="Grupo_1098723" data-name="Grupo 1098723" transform="translate(0)" clip-path="url(#clip-path)">
      <path id="Trazado_872910" data-name="Trazado 872910" d="M1.9.927a.938.938,0,0,1-.948.927A.937.937,0,0,1,0,.927.938.938,0,0,1,.948,0,.938.938,0,0,1,1.9.927" fill="#4d812e"/>
      <path id="Trazado_872911" data-name="Trazado 872911" d="M30.851.927a.949.949,0,0,1-1.9,0,.949.949,0,0,1,1.9,0" transform="translate(-19.831)" fill="#4d812e"/>
      <path id="Trazado_872912" data-name="Trazado 872912" d="M59.8.927a.949.949,0,0,1-1.9,0,.949.949,0,0,1,1.9,0" transform="translate(-39.662)" fill="#4d812e"/>
      <path id="Trazado_872913" data-name="Trazado 872913" d="M88.757.927a.949.949,0,0,1-1.9,0,.949.949,0,0,1,1.9,0" transform="translate(-59.493)" fill="#4d812e"/>
      <path id="Trazado_872914" data-name="Trazado 872914" d="M117.71.927a.949.949,0,0,1-1.9,0,.949.949,0,0,1,1.9,0" transform="translate(-79.323)" fill="#4d812e"/>
      <path id="Trazado_872915" data-name="Trazado 872915" d="M146.664.927a.949.949,0,0,1-1.9,0,.949.949,0,0,1,1.9,0" transform="translate(-99.155)" fill="#4d812e"/>
      <path id="Trazado_872916" data-name="Trazado 872916" d="M1.9,32.842a.938.938,0,0,1-.948.927.927.927,0,1,1,0-1.853.938.938,0,0,1,.948.927" transform="translate(0 -22.09)" fill="#4d812e"/>
      <path id="Trazado_872917" data-name="Trazado 872917" d="M30.851,32.842a.949.949,0,1,1-.948-.927.938.938,0,0,1,.948.927" transform="translate(-19.831 -22.09)" fill="#4d812e"/>
      <path id="Trazado_872918" data-name="Trazado 872918" d="M59.8,32.842a.949.949,0,1,1-.948-.927.938.938,0,0,1,.948.927" transform="translate(-39.662 -22.09)" fill="#4d812e"/>
      <path id="Trazado_872919" data-name="Trazado 872919" d="M88.757,32.842a.949.949,0,1,1-.948-.927.938.938,0,0,1,.948.927" transform="translate(-59.493 -22.09)" fill="#4d812e"/>
      <path id="Trazado_872920" data-name="Trazado 872920" d="M117.71,32.842a.949.949,0,1,1-.948-.927.938.938,0,0,1,.948.927" transform="translate(-79.323 -22.09)" fill="#4d812e"/>
      <path id="Trazado_872921" data-name="Trazado 872921" d="M146.664,32.842a.949.949,0,1,1-.948-.927.938.938,0,0,1,.948.927" transform="translate(-99.155 -22.09)" fill="#4d812e"/>
      <path id="Trazado_872922" data-name="Trazado 872922" d="M1.9,64.757a.938.938,0,0,1-.948.927.927.927,0,1,1,0-1.853.938.938,0,0,1,.948.927" transform="translate(0 -44.181)" fill="#4d812e"/>
      <path id="Trazado_872923" data-name="Trazado 872923" d="M30.851,64.757a.949.949,0,1,1-.948-.927.938.938,0,0,1,.948.927" transform="translate(-19.831 -44.181)" fill="#4d812e"/>
      <path id="Trazado_872924" data-name="Trazado 872924" d="M59.8,64.757a.949.949,0,1,1-.948-.927.938.938,0,0,1,.948.927" transform="translate(-39.662 -44.181)" fill="#4d812e"/>
      <path id="Trazado_872925" data-name="Trazado 872925" d="M88.757,64.757a.949.949,0,1,1-.948-.927.938.938,0,0,1,.948.927" transform="translate(-59.493 -44.181)" fill="#4d812e"/>
      <path id="Trazado_872926" data-name="Trazado 872926" d="M117.71,64.757a.949.949,0,1,1-.948-.927.938.938,0,0,1,.948.927" transform="translate(-79.323 -44.181)" fill="#4d812e"/>
      <path id="Trazado_872927" data-name="Trazado 872927" d="M146.664,64.757a.949.949,0,1,1-.948-.927.938.938,0,0,1,.948.927" transform="translate(-99.155 -44.181)" fill="#4d812e"/>
      <path id="Trazado_872928" data-name="Trazado 872928" d="M1.9,96.672a.938.938,0,0,1-.948.927.927.927,0,1,1,0-1.853.938.938,0,0,1,.948.927" transform="translate(0 -66.271)" fill="#4d812e"/>
      <path id="Trazado_872929" data-name="Trazado 872929" d="M30.851,96.672a.949.949,0,1,1-.948-.927.938.938,0,0,1,.948.927" transform="translate(-19.831 -66.271)" fill="#4d812e"/>
      <path id="Trazado_872930" data-name="Trazado 872930" d="M59.8,96.672a.949.949,0,1,1-.948-.927.938.938,0,0,1,.948.927" transform="translate(-39.662 -66.271)" fill="#4d812e"/>
      <path id="Trazado_872931" data-name="Trazado 872931" d="M88.757,96.672a.949.949,0,1,1-.948-.927.938.938,0,0,1,.948.927" transform="translate(-59.493 -66.271)" fill="#4d812e"/>
      <path id="Trazado_872932" data-name="Trazado 872932" d="M117.71,96.672a.949.949,0,1,1-.948-.927.938.938,0,0,1,.948.927" transform="translate(-79.323 -66.271)" fill="#4d812e"/>
      <path id="Trazado_872933" data-name="Trazado 872933" d="M146.664,96.672a.949.949,0,1,1-.948-.927.938.938,0,0,1,.948.927" transform="translate(-99.155 -66.271)" fill="#4d812e"/>
      <path id="Trazado_872934" data-name="Trazado 872934" d="M1.9,128.587a.938.938,0,0,1-.948.927.927.927,0,1,1,0-1.853.938.938,0,0,1,.948.927" transform="translate(0 -88.362)" fill="#4d812e"/>
      <path id="Trazado_872935" data-name="Trazado 872935" d="M30.851,128.587a.949.949,0,1,1-.948-.927.938.938,0,0,1,.948.927" transform="translate(-19.831 -88.362)" fill="#4d812e"/>
      <path id="Trazado_872936" data-name="Trazado 872936" d="M59.8,128.587a.949.949,0,1,1-.948-.927.938.938,0,0,1,.948.927" transform="translate(-39.662 -88.362)" fill="#4d812e"/>
      <path id="Trazado_872937" data-name="Trazado 872937" d="M88.757,128.587a.949.949,0,1,1-.948-.927.938.938,0,0,1,.948.927" transform="translate(-59.493 -88.362)" fill="#4d812e"/>
      <path id="Trazado_872938" data-name="Trazado 872938" d="M117.71,128.587a.949.949,0,1,1-.948-.927.938.938,0,0,1,.948.927" transform="translate(-79.323 -88.362)" fill="#4d812e"/>
      <path id="Trazado_872939" data-name="Trazado 872939" d="M146.664,128.587a.949.949,0,1,1-.948-.927.938.938,0,0,1,.948.927" transform="translate(-99.155 -88.362)" fill="#4d812e"/>
    </g>
  </g>
</svg>
