<svg xmlns="http://www.w3.org/2000/svg" xmlns:xlink="http://www.w3.org/1999/xlink" width="69.38" height="69.38" viewBox="0 0 69.38 69.38">
  <defs>
    <clipPath id="clip-path">
      <rect id="Rectángulo_402681" data-name="Rectángulo 402681" width="38.053" height="38.061" fill="#ffe8b6"/>
    </clipPath>
  </defs>
  <g id="Grupo_1100551" data-name="Grupo 1100551" transform="translate(-1041.521 -5813.316)">
    <g id="Grupo_1099725" data-name="Grupo 1099725" transform="translate(1041.521 5813.316)">
      <rect id="Rectángulo_400898" data-name="Rectángulo 400898" width="61.749" height="61.748" rx="30.874" transform="translate(4.163 4.163)" fill="#0f6646" opacity="0.859"/>
      <g id="Rectángulo_400907" data-name="Rectángulo 400907" fill="none" stroke="#2b795c" stroke-linecap="round" stroke-width="2" stroke-dasharray="7">
        <rect width="69.38" height="69.38" rx="34.69" stroke="none"/>
        <rect x="1" y="1" width="67.38" height="67.38" rx="33.69" fill="none"/>
      </g>
    </g>
    <g id="Grupo_1100538" data-name="Grupo 1100538" transform="translate(1057.185 5827.294)">
      <g id="Grupo_1100537" data-name="Grupo 1100537" clip-path="url(#clip-path)">
        <path id="Trazado_882364" data-name="Trazado 882364" d="M18.129,35.2a14.091,14.091,0,0,0,7.57-1.649,2.625,2.625,0,0,1-1.285-2.778c-.466,0-.855.01-1.244,0a3.712,3.712,0,0,1-.018-7.423c.94-.025,1.882-.011,2.823-.005.5,0,.914-.123.943-.7s-.346-.736-.856-.8a2.128,2.128,0,0,1-2.05-1.992c-.095-.772-.466-.993-1.181-.975-1.287.032-2.575.018-3.863.007a3.716,3.716,0,1,1-.009-7.429c2.055-.013,4.111,0,6.166,0a2.677,2.677,0,0,0,1.617-1.389c.031-.377.1-.748-.371-1.013a14,14,0,0,0-14.163-.282,3.446,3.446,0,0,0-.383.292c.25.16.44.289.637.407a2.409,2.409,0,0,1-1.155,4.51c-1.287.024-2.576.03-3.863,0a.824.824,0,0,0-.905.565c-.207.5-.454.988-.674,1.485-.2.46-.592.71-1,.442a1.166,1.166,0,0,1-.359-.971A7.294,7.294,0,0,1,5.1,13.982c-.9,0-1.705.006-2.514,0A2.433,2.433,0,0,1,.067,12.1,2.456,2.456,0,0,1,1.388,9.374a1.2,1.2,0,0,0,.466-.509A2.952,2.952,0,0,1,4.629,6.981a1.4,1.4,0,0,0,.725-.267,4.039,4.039,0,0,1,5.57.422.608.608,0,0,0,.868.167A15.422,15.422,0,0,1,26.27,7.289c.125.062.257.109.484.205,0-1.667-.021-3.242.007-4.816A2.541,2.541,0,0,1,28.634.272a2.447,2.447,0,0,1,2.806.984,3.514,3.514,0,0,1,.494,1.664c.055,2.227,0,4.457.042,6.685a1.611,1.611,0,0,0,.415,1,4.612,4.612,0,0,1,1.3,4.356,1.444,1.444,0,0,0-.027.715A15.745,15.745,0,0,1,33.9,25.864,4.334,4.334,0,0,1,36.3,28.8c.035.147.26.269.419.364a2.422,2.422,0,0,1-1.233,4.578c-2.229.009-4.457-.01-6.686.016a1.994,1.994,0,0,0-1.025.293A15.6,15.6,0,0,1,18.51,36.7a1.115,1.115,0,0,0-1.116.488A2.414,2.414,0,0,1,15.339,38.2c-4.21.008-8.419.027-12.629-.007A2.7,2.7,0,0,1,.4,34.083c1.24-2.226,2.551-4.412,3.786-6.64a1.859,1.859,0,0,0,.111-1.152c-.216-1.163-.51-2.312-.761-3.469-.113-.518-.012-.994.584-1.087.662-.1.814.4.9.927.125.774.267,1.545.4,2.318l.188.037c.313-.537.623-1.076.939-1.611a2.736,2.736,0,0,1,4.952,0q3.04,5.229,6.044,10.478c.219.382.364.806.589,1.314m6.843-22.254c-2.035,0-4.012-.009-5.989,0a2.228,2.228,0,1,0,.043,4.447c1.337.01,2.674,0,4.01,0a2.191,2.191,0,0,1,2.411,2.09.9.9,0,0,0,.888.894,2.178,2.178,0,0,1,2.084,2.405,2.219,2.219,0,0,1-2.386,2.041c-.965.008-1.932-.026-2.9.014a2.216,2.216,0,0,0-.015,4.428c.691.037,1.386.023,2.079.007a1.148,1.148,0,0,0,1.084-.717c.261-.506.651-1.172,1.116-1.3,1.527-.434,2.891-1.271,4.422-1.666.047-.012.113.01.145-.015.2-.158.522-.294.572-.495a19.791,19.791,0,0,0,.54-2.76,12.616,12.616,0,0,0-.553-5.231,4.512,4.512,0,0,1-7.556-4.146M9.013,36.711c1.979,0,3.958,0,5.938,0,1.435,0,1.973-.908,1.264-2.141q-2.973-5.175-5.962-10.342c-.692-1.2-1.765-1.2-2.453-.013q-3.01,5.2-6,10.406C1.135,35.78,1.669,36.7,3,36.709c2,.009,4.008,0,6.012,0M28.242,5.532c0,1.631-.018,3.187.01,4.741a1.328,1.328,0,0,1-.622,1.236,2.9,2.9,0,0,0-1.077,3.354,2.961,2.961,0,0,0,5.6.014,2.885,2.885,0,0,0-1.06-3.357,1.381,1.381,0,0,1-.632-1.306c.028-1.55.01-3.1.01-4.683ZM6.919,12.492c1.387,0,2.773,0,4.16,0,.6,0,1.04-.22,1.1-.851.056-.594-.3-.911-.873-.995-.527-.078-.735-.381-.783-.908A2.493,2.493,0,0,0,8.788,7.455,2.579,2.579,0,0,0,5.947,8.2a1.275,1.275,0,0,1-.9.327A1.516,1.516,0,0,0,3.135,9.872a1.19,1.19,0,0,1-.668.728c-.594.183-1.042.431-.939,1.105s.629.8,1.231.792c1.386-.015,2.773,0,4.16-.005M31.184,32.253c1.411,0,2.823-.006,4.234,0,.6,0,1.048-.21,1.118-.835a.87.87,0,0,0-.857-1.007.854.854,0,0,1-.8-.895A2.5,2.5,0,0,0,33.091,27.2a2.593,2.593,0,0,0-2.776.744,1.372,1.372,0,0,1-.961.326,1.526,1.526,0,0,0-1.861,1.344,1.284,1.284,0,0,1-.724.759c-.566.191-.97.444-.885,1.076s.553.811,1.141.807c1.387-.01,2.773,0,4.16,0M28.256,3.969h2.182c-.021-.771.312-1.612-.5-2.1a1.348,1.348,0,0,0-1.15-.014c-.834.473-.488,1.329-.533,2.115" transform="translate(0 -0.149)" fill="#ffe8b6"/>
        <path id="Trazado_882365" data-name="Trazado 882365" d="M463.915,2.758c-.31.114-.543.28-.759.259a.9.9,0,0,1-.658-.348.9.9,0,0,1,.051-.8A18.186,18.186,0,0,1,464.218.186c.357-.323.736-.187,1.054.129a13.017,13.017,0,0,1,1.343,1.38c.191.257.146.688.207,1.041-.352.054-.7.117-1.056.153-.079.008-.168-.081-.358-.181,0,.836,0,1.6,0,2.355,0,.543-.112,1.043-.778,1.025-.615-.017-.719-.5-.717-1.011,0-.762,0-1.523,0-2.317" transform="translate(-428.919 -0.001)" fill="#ffe8b6"/>
        <path id="Trazado_882366" data-name="Trazado 882366" d="M50.468,253.424c-.19-.282-.561-.593-.522-.84a1.043,1.043,0,0,1,.717-.686c.2-.029.64.4.662.656.023.272-.318.574-.5.864l-.357.006" transform="translate(-46.324 -233.642)" fill="#ffe8b6"/>
        <path id="Trazado_882367" data-name="Trazado 882367" d="M115.648,362.741c0,.69.007,1.38,0,2.069-.006.5-.19.9-.75.906s-.739-.4-.739-.9c0-1.4,0-2.808,0-4.213,0-.512.189-.906.737-.908s.749.4.753.9c.005.714,0,1.429,0,2.143" transform="translate(-105.883 -333.627)" fill="#ffe8b6"/>
        <path id="Trazado_882368" data-name="Trazado 882368" d="M115.464,465.8c-.178-.293-.508-.6-.489-.875.018-.251.463-.7.641-.66a1.058,1.058,0,0,1,.716.688c.034.256-.334.567-.525.853l-.344-.006" transform="translate(-106.643 -430.618)" fill="#ffe8b6"/>
        <path id="Trazado_882369" data-name="Trazado 882369" d="M393.476,180.969c.3-.165.621-.484.894-.447a1,1,0,0,1,.623.713.582.582,0,0,1-.757.652c-.288-.068-.518-.38-.773-.582l.013-.336" transform="translate(-364.95 -167.437)" fill="#ffe8b6"/>
      </g>
    </g>
  </g>
</svg>
