<svg xmlns="http://www.w3.org/2000/svg" width="60" height="60" viewBox="0 0 60 60">
  <g id="Grupo_1100541" data-name="Grupo 1100541" transform="translate(18191 9508)">
    <g id="Elipse_11493" data-name="Elipse 11493" transform="translate(-18191 -9508)" fill="#9fc2b5" stroke="#0f6646" stroke-width="3">
      <circle cx="30" cy="30" r="30" stroke="none"/>
      <circle cx="30" cy="30" r="28.5" fill="none"/>
    </g>
    <g id="Grupo_1099386" data-name="Grupo 1099386" transform="translate(-18180.602 -9514.582)">
      <g id="Grupo_1099407" data-name="Grupo 1099407" transform="translate(0.573 18.963)">
        <g id="Grupo_1099403" data-name="Grupo 1099403" transform="translate(0 0)">
          <g id="Grupo_1099391" data-name="Grupo 1099391" transform="translate(2.634)">
            <g id="Grupo_1099387" data-name="Grupo 1099387" transform="translate(3.386 7.419)">
              <g id="Grupo_1099386-2" data-name="Grupo 1099386">
                <path id="Trazado_878358" data-name="Trazado 878358" d="M95.863,125.1l-6.215,4.884-1.393-6.346a1.082,1.082,0,1,0-2.114.464l1.673,7.623a1.082,1.082,0,0,0,1.482.763l6.567-2.807V125.1Z" transform="translate(-86.115 -122.783)" fill="#f8c52d"/>
              </g>
            </g>
            <g id="Grupo_1099389" data-name="Grupo 1099389" transform="translate(18.422 4.505)">
              <g id="Grupo_1099388" data-name="Grupo 1099388">
                <path id="Trazado_878359" data-name="Trazado 878359" d="M283.1,89.32l8.482,3.044-.441-6.482a1.082,1.082,0,1,1,2.159-.147l.53,7.786a1.082,1.082,0,0,1-1.209,1.148l-10.141-1.323Z" transform="translate(-282.479 -84.727)" fill="#f8c52d"/>
              </g>
            </g>
            <path id="Trazado_878360" data-name="Trazado 878360" d="M349.33,26.632a1.082,1.082,0,0,0-1.515-.218c-.391.292-.866.641-1.055.77a1.083,1.083,0,0,0-.61.811c-.035.143-.142.55-.284,1.079l-.7-2.4a1.082,1.082,0,0,0-2.078.606l.628,2.15-1.206-.679a1.082,1.082,0,1,0-1.062,1.886l3.52,1.982a1.082,1.082,0,0,0,.834.1l.862-.285a1.082,1.082,0,0,0,.742-.755s.219-.806.437-1.614c.109-.405.217-.81.3-1.115l.028-.105c.091-.065.2-.143.323-.233.313-.229.623-.461.623-.461A1.082,1.082,0,0,0,349.33,26.632Z" transform="translate(-318.001 -25.895)" fill="#fdd330"/>
            <g id="Grupo_1099390" data-name="Grupo 1099390" transform="translate(0 2.524)">
              <path id="Trazado_878361" data-name="Trazado 878361" d="M50.633,61.178a1.082,1.082,0,0,0-1.53.017l-.968.99V59.946a1.082,1.082,0,1,0-2.164,0v2.5c-.284-.468-.5-.829-.575-.956a1.083,1.083,0,0,0-.813-.608c-.217-.071-.772-.272-1.229-.443a1.082,1.082,0,0,0-.76,2.026s.362.136.727.268l.375.133.056.093c.162.27.38.628.6.987.435.714.871,1.427.871,1.427a1.081,1.081,0,0,0,.924.517l.907.032a1.082,1.082,0,0,0,.774-.326l2.824-2.889A1.082,1.082,0,0,0,50.633,61.178Z" transform="translate(-41.892 -58.864)" fill="#fdd330"/>
            </g>
          </g>
          <path id="Trazado_878362" data-name="Trazado 878362" d="M176.948,50.183c-1.33-2.51-2.345-7.757-1.788-10.062a21.378,21.378,0,0,0,.464-2.994c.082-1.038-2.183-3.247-3.125-4.468a2.2,2.2,0,0,0-3.484,0c-.942,1.221-3.207,3.43-3.125,4.468a21.378,21.378,0,0,0,.464,2.994c.557,2.3-.458,7.552-1.788,10.062-2.363,4.458.167,11.667,6.191,11.667S179.311,54.641,176.948,50.183Z" transform="translate(-151.729 -31.352)" fill="#fdd330"/>
          <path id="Trazado_878363" data-name="Trazado 878363" d="M239.919,61.85a7,7,0,0,1-.779-.042c4.814-1.179,6.668-7.446,4.535-11.472-1.33-2.51-2.345-7.757-1.788-10.061a21.394,21.394,0,0,0,.464-2.994c.082-1.038-2.183-3.247-3.125-4.469a2.189,2.189,0,0,0-.64-.56,2.26,2.26,0,0,1,.362-.224,2.2,2.2,0,0,1,2.713.63c.942,1.221,3.208,3.43,3.125,4.469a21.4,21.4,0,0,1-.464,2.994c-.557,2.3.458,7.551,1.789,10.061C248.473,54.642,245.943,61.85,239.919,61.85Z" transform="translate(-220.891 -31.352)" fill="#f8c52d"/>
          <g id="Grupo_1099392" data-name="Grupo 1099392" transform="translate(14.611 8.149)">
            <path id="Trazado_878364" data-name="Trazado 878364" d="M207.146,136.82h-.916a3.291,3.291,0,0,1-2.529-1.181l-.972-1.159-.972,1.159a3.294,3.294,0,0,1-2.53,1.181h-.821c-.032,0-.064,0-.095,0a17.951,17.951,0,0,0,.165-1.937h.75a1.356,1.356,0,0,0,1.042-.486l1.279-1.526a1.54,1.54,0,0,1,2.36,0l1.279,1.526a1.357,1.357,0,0,0,1.042.486h.75a18.007,18.007,0,0,0,.166,1.942Z" transform="translate(-198.312 -132.315)" fill="#a34f41"/>
            <path id="Trazado_878365" data-name="Trazado 878365" d="M282.261,153.32h-.917a3.289,3.289,0,0,1-1.587-.407,12.651,12.651,0,0,1-.048-2.73l.594.708a1.357,1.357,0,0,0,1.041.486h.75A17.908,17.908,0,0,0,282.261,153.32Z" transform="translate(-273.427 -148.816)" fill="#873f30"/>
          </g>
          <g id="Grupo_1099399" data-name="Grupo 1099399" transform="translate(0 20.464)">
            <g id="Grupo_1099394" data-name="Grupo 1099394" transform="translate(30.611 2.173)">
              <g id="Grupo_1099393" data-name="Grupo 1099393">
                <path id="Trazado_878366" data-name="Trazado 878366" d="M408.409,321.539a1.082,1.082,0,0,1,1.07,1.094l-.016,1.384,1.584-1.584a1.082,1.082,0,0,1,1.53,1.53l-1.768,1.768c.532-.13.941-.232,1.083-.27a1.083,1.083,0,0,1,1,.145c.2.1.738.353,1.182.555a1.082,1.082,0,0,1-.9,1.97s-.352-.16-.7-.325l-.36-.171-.105.026c-.305.076-.713.176-1.121.275-.812.2-1.625.393-1.625.393a1.081,1.081,0,0,1-1.254-.643c-.028-.009-.056-.019-.084-.031a1.082,1.082,0,0,1-.662-1.01l.046-4.039A1.082,1.082,0,0,1,408.409,321.539Z" transform="translate(-407.269 -321.539)" fill="#f8c52d"/>
              </g>
            </g>
            <g id="Grupo_1099398" data-name="Grupo 1099398">
              <g id="Grupo_1099396" data-name="Grupo 1099396" transform="translate(0 2.173)">
                <g id="Grupo_1099395" data-name="Grupo 1099395">
                  <path id="Trazado_878367" data-name="Trazado 878367" d="M13.8,321.539a1.082,1.082,0,0,0-1.07,1.094l.016,1.384-1.584-1.584a1.082,1.082,0,0,0-1.53,1.53l1.768,1.768c-.532-.13-.941-.232-1.083-.27a1.083,1.083,0,0,0-1,.145c-.2.1-.738.353-1.182.555a1.082,1.082,0,1,0,.9,1.97s.352-.16.7-.325l.36-.171.106.026c.305.076.713.176,1.121.275.812.2,1.625.393,1.625.393a1.081,1.081,0,0,0,1.254-.643c.028-.009.056-.019.084-.031a1.082,1.082,0,0,0,.662-1.01l-.046-4.039a1.082,1.082,0,0,0-1.094-1.07Z" transform="translate(-7.495 -321.539)" fill="#f8c52d"/>
                </g>
              </g>
              <path id="Trazado_878368" data-name="Trazado 878368" d="M92.872,298.186l.8-2.055a1.573,1.573,0,0,0-.52-1.824l-1.106-.834a1.573,1.573,0,0,0-1.794-.069l-7.116,4.547H78.6L71.486,293.4a1.573,1.573,0,0,0-1.794.069l-1.106.834a1.573,1.573,0,0,0-.52,1.824l.8,2.055-2.516,3.4,4.2,5.978a.866.866,0,0,0,1.172.233l1.769-1.122a.869.869,0,0,0,.321-1.1,13.113,13.113,0,0,1-.583-1.526,6.066,6.066,0,0,0,5.064.047,5.766,5.766,0,0,1,5.154,0,6.066,6.066,0,0,0,5.064-.047,13.088,13.088,0,0,1-.583,1.526.869.869,0,0,0,.321,1.1l1.769,1.122a.866.866,0,0,0,1.172-.233l4.2-5.978Z" transform="translate(-61.839 -293.156)" fill="#fdd330"/>
              <g id="Grupo_1099397" data-name="Grupo 1099397" transform="translate(4.506 5.03)">
                <path id="Trazado_878369" data-name="Trazado 878369" d="M68.862,358.849l-2.516,3.4,4.2,5.978a.866.866,0,0,0,1.172.233l1.163-.738a.766.766,0,0,0,.262-1.013l-3.029-4.615Z" transform="translate(-66.346 -358.849)" fill="#f8c52d"/>
                <path id="Trazado_878370" data-name="Trazado 878370" d="M360,358.849l-1.255,3.242-3.029,4.615a.766.766,0,0,0,.262,1.013l1.163.738a.866.866,0,0,0,1.172-.233l4.2-5.978Z" transform="translate(-333.468 -358.849)" fill="#f8c52d"/>
              </g>
            </g>
          </g>
          <g id="Grupo_1099402" data-name="Grupo 1099402" transform="translate(13.83 3.864)">
            <g id="Grupo_1099400" data-name="Grupo 1099400" transform="translate(8.356)">
              <path id="Trazado_878371" data-name="Trazado 878371" d="M299.285,77.912c0,.858-.493,1.553-1.1,1.553s-.938-.7-.938-1.553.33-1.553.938-1.553S299.285,77.054,299.285,77.912Z" transform="translate(-297.245 -76.359)" fill="#384848"/>
            </g>
            <g id="Grupo_1099401" data-name="Grupo 1099401">
              <path id="Trazado_878372" data-name="Trazado 878372" d="M188.111,77.912c0,.858.493,1.553,1.1,1.553s.938-.7.938-1.553-.33-1.553-.938-1.553S188.111,77.054,188.111,77.912Z" transform="translate(-188.111 -76.359)" fill="#384848"/>
            </g>
          </g>
        </g>
        <g id="Grupo_1099404" data-name="Grupo 1099404" transform="translate(15.869 14.921)">
          <circle id="Elipse_11490" data-name="Elipse 11490" cx="2.049" cy="2.049" r="2.049" fill="#873f30"/>
        </g>
        <g id="Grupo_1099405" data-name="Grupo 1099405" transform="translate(20.093 20.041)">
          <circle id="Elipse_11491" data-name="Elipse 11491" cx="1.199" cy="1.199" r="1.199" fill="#873f30"/>
        </g>
        <g id="Grupo_1099406" data-name="Grupo 1099406" transform="translate(16.587 25.259)">
          <circle id="Elipse_11492" data-name="Elipse 11492" cx="1.44" cy="1.44" r="1.44" fill="#873f30"/>
        </g>
      </g>
      <g id="Grupo_1099408" data-name="Grupo 1099408" transform="translate(-0.001 18.389)">
        <path id="Trazado_878373" data-name="Trazado 878373" d="M69.983,45.7c-.452-.206-.92-.425-1.124-.526a1.641,1.641,0,0,0-.683-.27l.473-.473a1.656,1.656,0,1,0-2.342-2.342l-.587.587a1.663,1.663,0,0,0-1-1.513,2.14,2.14,0,0,0-.744-1.045l-1.106-.834a2.157,2.157,0,0,0-2.449-.095l-1.527.976a8.2,8.2,0,0,0-.846-2.641A17.6,17.6,0,0,1,56.6,33.087l1.478.193a.574.574,0,0,0,.149-1.139l-1.838-.24a17.678,17.678,0,0,1-.214-2.449l6.114,2.194a.574.574,0,0,0,.767-.579l-.319-4.691a1.63,1.63,0,0,0,.184-.041l.02-.006.793-.263.424,6.236a.508.508,0,0,1-.364.522.5.5,0,0,1-.2.017l-2.669-.348a.574.574,0,0,0-.149,1.139l2.675.349a1.68,1.68,0,0,0,.2.012A1.657,1.657,0,0,0,65.3,32.224l-.481-7.07a1.692,1.692,0,0,0,.1-.261s.22-.807.437-1.615c.1-.365.2-.731.273-1.023l.159-.115c.316-.231.628-.465.628-.465a1.658,1.658,0,0,0,.333-2.319h0a1.658,1.658,0,0,0-2.319-.333c-.4.3-.815.6-1,.732a1.643,1.643,0,0,0-.565.469l-.188-.642a1.656,1.656,0,1,0-3.18.928l.233.8a1.656,1.656,0,0,0-1.6,2.9l3.446,1.94.281,4.123-5.608-2.013c.02-.138.043-.268.072-.388a20.231,20.231,0,0,0,.364-2.027,2.465,2.465,0,0,0,.447-1.46,1.944,1.944,0,0,0-1.6-2.125c-.343-.426-.721-.861-1.06-1.251s-.679-.781-.913-1.084a2.775,2.775,0,0,0-4.393,0c-.234.3-.563.682-.912,1.083s-.717.825-1.06,1.251a1.944,1.944,0,0,0-1.6,2.125,2.464,2.464,0,0,0,.447,1.46,20.259,20.259,0,0,0,.364,2.027,6.17,6.17,0,0,1,.137,1.325l-4.287,3.369-.878-4,2.764-2.828a1.658,1.658,0,0,0-.027-2.342h0a1.658,1.658,0,0,0-2.325.009V22.57a1.656,1.656,0,0,0-3.313,0v.669a1.643,1.643,0,0,0-.674-.292c-.216-.072-.7-.248-1.167-.422a1.656,1.656,0,1,0-1.163,3.1s.365.137.733.27l.185.066c.156.259.352.582.549.906.435.715.872,1.428.872,1.428a1.686,1.686,0,0,0,.165.224l1.519,6.921a1.656,1.656,0,0,0,2.269,1.168l3.892-1.663c-.092.316-.19.628-.294.929a.574.574,0,1,0,1.086.375,24.719,24.719,0,0,0,.992-4.06h.425a3.867,3.867,0,0,0,2.97-1.386l.532-.634.531.634a3.863,3.863,0,0,0,2.969,1.386h.424a20.821,20.821,0,0,0,1.759,5.873,7.206,7.206,0,0,1,.784,2.791L55.2,42.532a.574.574,0,1,0,.618.968l5.227-3.34a1,1,0,0,1,1.139.044l1.106.834a1,1,0,0,1,.33,1.158l-2.05,5.3a.574.574,0,1,0,1.071.415l1.93-4.985-.013,1.152a.574.574,0,0,0,.98.413L67.119,42.9a.508.508,0,1,1,.718.718L66.07,45.388a.574.574,0,0,0,.543.964c.4-.1.923-.226,1.1-.273l.044-.014a.509.509,0,0,1,.163-.03.516.516,0,0,1,.309.1.569.569,0,0,0,.078.048c.222.113.774.37,1.205.566a.508.508,0,1,1-.42.925s-.349-.159-.7-.322l-.353-.168a.574.574,0,0,0-.389-.04l-.106.026c-.3.076-.711.175-1.117.274l-.123.03a.573.573,0,0,0-.9.051L61.2,53.5a.291.291,0,0,1-.394.078l-1.769-1.122a.293.293,0,0,1-.109-.367,13.675,13.675,0,0,0,1.053-3.446c.317-1.91.558-3.358.718-4.3a.574.574,0,1,0-1.133-.191c-.082.486-.186,1.106-.31,1.852a5.034,5.034,0,0,1-2.793,1.122.574.574,0,0,0,.018,1.148H56.5a5.647,5.647,0,0,0,2.5-.728l-.151.913a12.522,12.522,0,0,1-.324,1.424,5.356,5.356,0,0,1-4.34-.028,6.307,6.307,0,0,0-5.666,0,5.357,5.357,0,0,1-4.34.028,12.52,12.52,0,0,1-.324-1.424l-.151-.913a5.648,5.648,0,0,0,2.5.728h.019a.574.574,0,0,0,.018-1.148A5.077,5.077,0,0,1,43.447,46c-.11-.659-.22-1.314-.31-1.851A.574.574,0,1,0,42,44.342c.216,1.281.543,3.246.718,4.3a13.677,13.677,0,0,0,1.053,3.446.292.292,0,0,1-.109.367L41.9,53.581A.291.291,0,0,1,41.5,53.5l-1.177-1.674a.574.574,0,1,0-.94.661l1.177,1.674a1.438,1.438,0,0,0,1.949.388l1.769-1.122a1.445,1.445,0,0,0,.538-1.815q-.087-.191-.168-.384a6.1,6.1,0,0,0,4.379-.348,5.168,5.168,0,0,1,4.642,0,5.441,5.441,0,0,0,2.512.6,7.462,7.462,0,0,0,1.869-.255q-.082.2-.17.389a1.446,1.446,0,0,0,.538,1.815l1.769,1.122a1.438,1.438,0,0,0,1.949-.388l3.813-5.424.743-.18,1.029-.252.177.084c.354.166.709.327.709.327A1.656,1.656,0,1,0,69.983,45.7ZM58.447,22.9a.508.508,0,0,1,.738-.579L60.391,23a.574.574,0,0,0,.833-.661l-.627-2.15a.508.508,0,0,1,.975-.285l.7,2.4a.574.574,0,0,0,1.106-.012c.157-.586.253-.953.287-1.092,0-.015.007-.03.009-.045a.51.51,0,0,1,.287-.382.583.583,0,0,0,.08-.045c.206-.14.7-.5,1.076-.785a.508.508,0,0,1,.609.813s-.307.23-.617.457c-.121.089-.227.165-.317.229a.574.574,0,0,0-.223.323l-.027.1c-.08.3-.188.708-.3,1.112-.217.806-.436,1.612-.436,1.612a.505.505,0,0,1-.349.355l-.02.006-.85.282a.511.511,0,0,1-.384-.047l-3.52-1.982A.5.5,0,0,1,58.447,22.9Zm-3,2.46c-.176,0-.364-.393-.364-.979s.188-.979.364-.979c.215,0,.527.381.527.979S55.664,25.36,55.449,25.36Zm-5.384-4.738a1.627,1.627,0,0,1,2.574,0c.254.33.595.721.956,1.136.28.322.567.652.838.98a2.548,2.548,0,0,0-.5,1.643c0,1.257.593,2.106,1.48,2.127-.067.4-.141.769-.219,1.091a7.18,7.18,0,0,0-.168,1.5h-.176a.784.784,0,0,1-.6-.281l-1.28-1.527a2.114,2.114,0,0,0-3.24,0L48.453,28.82a.784.784,0,0,1-.6.281h-.177a7.133,7.133,0,0,0-.167-1.5c-.078-.321-.152-.694-.219-1.091.886-.021,1.48-.87,1.48-2.127a2.548,2.548,0,0,0-.5-1.643c.271-.328.558-.658.838-.98.36-.415.7-.806.955-1.136ZM47.256,23.4c.176,0,.364.393.364.979s-.188.979-.364.979c-.215,0-.527-.381-.527-.979S47.041,23.4,47.256,23.4Zm-9.944,1.886-.056-.094a.575.575,0,0,0-.3-.246l-.369-.131c-.361-.13-.719-.265-.72-.265a.508.508,0,0,1,.357-.951c.443.166,1.016.375,1.253.452a.577.577,0,0,0,.089.021.509.509,0,0,1,.382.286c.007.014.014.028.022.041.091.158.366.613.582.968a.574.574,0,0,0,1.065-.3v-2.5a.508.508,0,0,1,1.016,0v2.239a.574.574,0,0,0,.985.4l.968-.99a.508.508,0,1,1,.726.71l-2.824,2.889a.511.511,0,0,1-.355.153l-.9-.032h-.021a.505.505,0,0,1-.434-.243s-.436-.712-.871-1.425c-.218-.357-.435-.715-.6-.984ZM41.3,35.554a.514.514,0,0,1-.432-.015A.506.506,0,0,1,40.6,35.2l-1.34-6.105.835.03h.021a1.629,1.629,0,0,0,.189-.012L41.316,33.7a.574.574,0,0,0,.916.328l4.228-3.322A22.978,22.978,0,0,1,46,33.544Zm13.554-4.512a2.718,2.718,0,0,1-2.089-.975l-.972-1.159a.574.574,0,0,0-.88,0l-.972,1.159a2.721,2.721,0,0,1-2.09.975h-.273c.029-.269.052-.534.068-.793h.2a1.931,1.931,0,0,0,1.482-.692l1.279-1.526a.966.966,0,0,1,.741-.346.966.966,0,0,1,.74.345l1.279,1.527a1.93,1.93,0,0,0,1.481.691h.2c.016.259.039.524.068.793Z" transform="translate(-31.751 -18.389)"/>
        <path id="Trazado_878374" data-name="Trazado 878374" d="M5.549,283.973a.573.573,0,0,0-.9-.051l-.123-.03c-.407-.1-.813-.2-1.117-.274l-.106-.026a.574.574,0,0,0-.389.04l-.353.168c-.347.163-.7.321-.7.322a.508.508,0,0,1-.42-.925c.431-.2.983-.453,1.205-.566a.569.569,0,0,0,.078-.048.5.5,0,0,1,.309-.1.514.514,0,0,1,.163.03l.044.014c.173.047.691.174,1.1.273a.574.574,0,0,0,.542-.964l-1.768-1.768a.508.508,0,0,1,.718-.718l1.584,1.584a.574.574,0,0,0,.98-.413l-.013-1.152,1.93,4.985a.574.574,0,0,0,1.071-.415l-2.05-5.3a1,1,0,0,1,.33-1.158l1.106-.834a1,1,0,0,1,1.139-.044l4.964,3.172a.574.574,0,1,0,.618-.968L13.134,277.3a7.423,7.423,0,0,1,.46-2.081.574.574,0,1,0-1.072-.412,8.406,8.406,0,0,0-.466,1.8l-1.528-.976a2.157,2.157,0,0,0-2.449.095l-1.106.834a2.141,2.141,0,0,0-.744,1.045,1.658,1.658,0,0,0-1,1.513l-.587-.587A1.656,1.656,0,1,0,2.3,280.881l.473.473a1.642,1.642,0,0,0-.683.27c-.2.1-.671.321-1.124.526a1.656,1.656,0,1,0,1.371,3.016s.355-.161.709-.327l.178-.084,1.029.252.743.18,1.053,1.5a.574.574,0,1,0,.94-.66Z" transform="translate(0.001 -254.838)"/>
        <path id="Trazado_878375" data-name="Trazado 878375" d="M209.87,213.258a2.624,2.624,0,1,0,2.623,2.624A2.388,2.388,0,0,0,209.87,213.258Zm0,4.1c-1.034,0-1.475-.441-1.475-1.475s.441-1.475,1.475-1.475,1.475.441,1.475,1.475S210.9,217.356,209.87,217.356Z" transform="translate(-191.377 -198.337)"/>
        <path id="Trazado_878376" data-name="Trazado 878376" d="M262.414,281.906a1.774,1.774,0,1,0,1.774-1.774A1.63,1.63,0,0,0,262.414,281.906Zm1.774-.625c.473,0,.625.152.625.625s-.152.625-.625.625-.625-.152-.625-.625S263.714,281.281,264.188,281.281Z" transform="translate(-242.321 -260.09)"/>
        <path id="Trazado_878377" data-name="Trazado 878377" d="M218.639,352.3a2.014,2.014,0,1,0-2.014-2.014A1.851,1.851,0,0,0,218.639,352.3Zm0-2.88c.631,0,.866.235.866.866s-.235.866-.866.866-.866-.235-.866-.866S218.008,349.422,218.639,349.422Z" transform="translate(-200.038 -323.014)"/>
        <path id="Trazado_878378" data-name="Trazado 878378" d="M285.945,381.469v.008a.574.574,0,1,0,1.149,0v-.008a.574.574,0,1,0-1.149,0Z" transform="translate(-264.05 -353.138)"/>
        <path id="Trazado_878379" data-name="Trazado 878379" d="M384.076,323.231v-.008a.574.574,0,1,0-1.149,0v.008a.574.574,0,1,0,1.149,0Z" transform="translate(-353.606 -299.352)"/>
        <path id="Trazado_878380" data-name="Trazado 878380" d="M262.988,98.563a.574.574,0,0,0,.574-.574v-.008a.574.574,0,0,0-1.149,0v.008A.574.574,0,0,0,262.988,98.563Z" transform="translate(-242.321 -91.357)"/>
        <path id="Trazado_878381" data-name="Trazado 878381" d="M115.314,422.145a.574.574,0,0,0-.574.574v.008a.574.574,0,1,0,1.149,0v-.008A.574.574,0,0,0,115.314,422.145Z" transform="translate(-105.954 -391.23)"/>
        <path id="Trazado_878382" data-name="Trazado 878382" d="M171.277,359.117v.008a.574.574,0,1,0,1.149,0v-.008a.574.574,0,1,0-1.149,0Z" transform="translate(-158.162 -332.497)"/>
        <path id="Trazado_878383" data-name="Trazado 878383" d="M220.828,299.751v-.008a.574.574,0,1,0-1.149,0v.008a.574.574,0,1,0,1.149,0Z" transform="translate(-202.858 -277.67)"/>
        <path id="Trazado_878384" data-name="Trazado 878384" d="M279.226,207.71V207.7a.574.574,0,0,0-1.149,0v.008a.574.574,0,1,0,1.149,0Z" transform="translate(-256.785 -192.676)"/>
        <path id="Trazado_878385" data-name="Trazado 878385" d="M128.211,323.179v-.008a.574.574,0,1,0-1.149,0v.008a.574.574,0,0,0,1.149,0Z" transform="translate(-117.333 -299.304)"/>
        <path id="Trazado_878386" data-name="Trazado 878386" d="M383.066,427.865a.574.574,0,0,0,1.149,0v-.008a.574.574,0,0,0-1.149,0Z" transform="translate(-353.735 -395.974)"/>
      </g>
    </g>
  </g>
</svg>
