<svg id="Grupo_1100483" data-name="Grupo 1100483" xmlns="http://www.w3.org/2000/svg" xmlns:xlink="http://www.w3.org/1999/xlink" width="57.8" height="58.022" viewBox="0 0 57.8 58.022">
  <defs>
    <clipPath id="clip-path">
      <rect id="Rectángulo_402590" data-name="Rectángulo 402590" width="57.8" height="58.022" fill="#12263f"/>
    </clipPath>
  </defs>
  <g id="Grupo_1100482" data-name="Grupo 1100482" clip-path="url(#clip-path)">
    <path id="Trazado_881884" data-name="Trazado 881884" d="M50.29,30.69c2.132,4.171,4.271,8.265,6.327,12.4a10.668,10.668,0,0,1-6.8,15.251,12.048,12.048,0,0,1-3.01.358q-17.9.036-35.792.009c-8.505-.017-13.556-8.3-9.695-15.895q9.175-18.045,18.4-36.064C21.632,3,24.664.908,28.9.907s7.262,2.1,9.175,5.85l9.079,17.776c.17.332.346.661.386.737a13.958,13.958,0,0,1,3.069.2,2.739,2.739,0,0,1,1.352,1.4c.69,1.389.12,2.632-1.669,3.82M28.8,56.858q8.923,0,17.847,0c7.244-.014,11.4-6.8,8.127-13.273-1.646-3.255-3.28-6.518-4.991-9.739-.785-1.477-1.759-2.852-2.611-4.295a7.1,7.1,0,0,1-.523-1.35,8.771,8.771,0,0,0-.344-1.173c-3.358-6.6-6.711-13.21-10.112-19.791a7.777,7.777,0,0,0-7.3-4.47,7.776,7.776,0,0,0-7.3,4.484Q12.165,25.618,2.8,44.019a8.3,8.3,0,0,0-.912,4.812,8.833,8.833,0,0,0,9.062,8.022c5.949.019,11.9,0,17.846,0m20.674-27.6c.407-.661.856-1.069.8-1.387a1.316,1.316,0,0,0-.961-.768c-.217-.031-.738.551-.727.843.013.354.443.693.889,1.311" transform="translate(0 -0.702)" fill="#12263f"/>
    <path id="Trazado_881885" data-name="Trazado 881885" d="M202.844,0a13.162,13.162,0,0,1,2.684.66A3.163,3.163,0,0,1,207.369,4q-.809,8.359-1.721,16.708a1.889,1.889,0,0,1-2.132,1.85c-3.249.094-3.509-.122-3.851-3.33q-.8-7.454-1.569-14.91a3.617,3.617,0,0,1,3.58-4.14c.375-.013.752,0,1.128,0l.04-.176m.892,20.654c.06-.443.12-.81.159-1.179.48-4.6.935-9.2,1.44-13.8.366-3.33.054-3.711-3.238-3.645-1.62.033-2.236.705-2.075,2.347q.488,5,1.019,9.988c.218,2.084.457,4.166.69,6.289Z" transform="translate(-153.324)" fill="#12263f"/>
    <path id="Trazado_881886" data-name="Trazado 881886" d="M41.64,67.755c-5.87,0-11.74-.009-17.609.007a7.515,7.515,0,0,1-4.86-1.485,6.955,6.955,0,0,1-1.822-8.928q8.007-15.724,16.045-31.432c.855-1.674,1.7-3.354,2.571-5.017a6.352,6.352,0,0,1,11.362.007Q56.678,39.174,65.99,57.46c2.5,4.926-.808,10.226-6.4,10.282-5.982.059-11.965.013-17.948.014m-.009-1.9c5.873,0,11.751-.147,17.618.049a5.3,5.3,0,0,0,4.918-8.021c-6.173-11.836-12.188-23.754-18.24-35.653-.91-1.79-2.176-2.963-4.271-2.968s-3.373,1.153-4.285,2.946q-9.077,17.848-18.2,35.673c-2.131,4.175.167,7.966,4.841,7.972q8.81.012,17.619,0" transform="translate(-12.75 -13.465)" fill="#12263f"/>
    <path id="Trazado_881887" data-name="Trazado 881887" d="M56.858,95.694c.022-.355.024-.542.047-.725.22-1.816.218-1.818-.814-3.488a8.219,8.219,0,0,1-.949-5.658A12.607,12.607,0,0,1,65.547,75.339c5.582-.765,10.734,1.96,12.716,7a29.24,29.24,0,0,1,1.029,5.49c.077.426.059.968.313,1.248,1.811,1.99,1.99,4.117.554,6.614.709,0,1.283-.021,1.854,0a2.8,2.8,0,1,1-.044,5.606c-1.128.027-2.258.013-3.387.006-.654,0-1.145.228-1.134.944s.525.918,1.17.9c.527-.014,1.055-.023,1.581.007a2.8,2.8,0,0,1,2.78,2.822,2.739,2.739,0,0,1-2.81,2.775q-10.219.035-20.438,0a2.735,2.735,0,0,1-2.834-2.751,2.771,2.771,0,0,1,2.753-2.842c1.165-.052,2.333-.025,3.5-.012.657.007,1.152-.212,1.144-.927s-.515-.92-1.163-.919c-3.576.006-7.152.019-10.727-.005a2.816,2.816,0,0,1-2.832-3.738A2.884,2.884,0,0,1,52.389,95.7c1.461-.021,2.923,0,4.469,0m12.25-1.564,1.685-.557a4.7,4.7,0,0,1,.33.881c.132,1.013.667,1.36,1.682,1.26a20.9,20.9,0,0,1,2.933-.013,3.053,3.053,0,0,0,3.28-1.88c.593-1.432.051-2.6-.984-3.67A2.908,2.908,0,0,1,77.4,88.59a33.356,33.356,0,0,0-.5-4.566,9.653,9.653,0,0,0-9.819-6.937A10.577,10.577,0,0,0,57.2,85.1c-.729,3-.31,5.617,2.547,7.39.054.034.074.123.129.219-.322.656-.665,1.323-.979,2-.276.6-.075.968.6.973,2.064.015,4.129.005,6.273.005l-.4-1.56,1.652-.526c1.018,2.279,1.018,2.279,2.435,1.912l-.349-1.385m-1.979,3.443H53.25c-.338,0-.739-.1-1,.044a4.839,4.839,0,0,0-.939.908,5.867,5.867,0,0,0,.973.889c.226.132.588.034.889.034,3.31,0,6.62.014,9.929-.005a2.859,2.859,0,0,1,2.738,1.442A2.746,2.746,0,0,1,63.571,105c-1.272.1-2.561-.022-3.83.093-.347.031-.648.558-.97.857a11.5,11.5,0,0,0,.937.932c.116.094.364.028.552.028q9.7,0,19.408,0c.225,0,.526.061.659-.056.305-.269.7-.616.729-.961.023-.247-.436-.68-.76-.784a6.734,6.734,0,0,0-1.454-.075,6.23,6.23,0,0,1-1.549-.223,2.763,2.763,0,0,1-1.739-2.976,2.736,2.736,0,0,1,2.517-2.349c1.275-.07,2.563.036,3.831-.086.379-.036.71-.579,1.062-.89A6.972,6.972,0,0,0,81.9,97.6c-.228-.13-.589-.031-.889-.031H67.129" transform="translate(-38.243 -58.22)" fill="#12263f"/>
    <path id="Trazado_881888" data-name="Trazado 881888" d="M90.8,120.175a3.675,3.675,0,0,1,3.733-3.7,3.727,3.727,0,0,1,3.721,3.727,3.793,3.793,0,0,1-3.754,3.726,3.738,3.738,0,0,1-3.7-3.758m3.734,1.846a1.828,1.828,0,0,0,1.835-1.883,1.859,1.859,0,0,0-3.716.044,1.835,1.835,0,0,0,1.881,1.839" transform="translate(-70.289 -90.164)" fill="#12263f"/>
    <path id="Trazado_881889" data-name="Trazado 881889" d="M139.444,111.781a3.683,3.683,0,0,1-3.68,3.748,3.726,3.726,0,0,1-3.774-3.674,3.8,3.8,0,0,1,3.7-3.779,3.736,3.736,0,0,1,3.753,3.7m-3.735-1.793a1.828,1.828,0,0,0-1.835,1.883,1.859,1.859,0,0,0,3.717-.044,1.833,1.833,0,0,0-1.881-1.839" transform="translate(-102.17 -83.659)" fill="#12263f"/>
    <path id="Trazado_881890" data-name="Trazado 881890" d="M134.513,183.65c-.65.473-1.027.956-1.337.916a1.353,1.353,0,0,1-.873-.9c-.051-.21.5-.779.806-.8.343-.029.722.378,1.4.783" transform="translate(-102.411 -141.552)" fill="#12263f"/>
    <path id="Trazado_881891" data-name="Trazado 881891" d="M151.137,200.162c-.666.409-1.04.817-1.4.8-.29-.01-.83-.583-.783-.806a1.317,1.317,0,0,1,.849-.9c.325-.032.7.446,1.335.9" transform="translate(-115.3 -154.241)" fill="#12263f"/>
  </g>
</svg>
