<svg xmlns="http://www.w3.org/2000/svg" xmlns:xlink="http://www.w3.org/1999/xlink" width="89" height="89" viewBox="0 0 89 89">
  <defs>
    <clipPath id="clip-path">
      <rect id="Rectángulo_402651" data-name="Rectángulo 402651" width="53.269" height="53.225" fill="#59836b"/>
    </clipPath>
  </defs>
  <g id="Grupo_1100549" data-name="Grupo 1100549" transform="translate(-757 -10575.347)">
    <g id="Grupo_1098742" data-name="Grupo 1098742" transform="translate(-446.32 10186.604)">
      <g id="Rectángulo_400898" data-name="Rectángulo 400898" transform="translate(1203.32 388.742)" fill="#fff" stroke="#fff" stroke-width="3" opacity="0.859">
        <rect width="89" height="89" rx="44.5" stroke="none"/>
        <rect x="1.5" y="1.5" width="86" height="86" rx="43" fill="none"/>
      </g>
      <g id="Rectángulo_400907" data-name="Rectángulo 400907" transform="translate(1203.32 388.742)" fill="none" stroke="#fff" stroke-width="3">
        <rect width="89" height="89" rx="44.5" stroke="none"/>
        <rect x="1.5" y="1.5" width="86" height="86" rx="43" fill="none"/>
      </g>
    </g>
    <g id="Grupo_1100509" data-name="Grupo 1100509" transform="translate(773.366 10594.234)">
      <g id="Grupo_1100508" data-name="Grupo 1100508" clip-path="url(#clip-path)">
        <path id="Trazado_881916" data-name="Trazado 881916" d="M2.578,15.828c-.34-.088-.625-.138-.894-.235a2.529,2.529,0,0,1-1.672-2.62,2.338,2.338,0,0,1,2.2-2.147c1.167.023,1.6-.529,2-1.482.945-2.219,2.012-4.385,3.016-6.579A4.336,4.336,0,0,1,11.583,0C14.792.046,18,.054,21.211,0a4.3,4.3,0,0,1,4.33,2.776c1.089,2.393,2.179,4.785,3.321,7.152a1.544,1.544,0,0,0,.952.793c1.711.258,2.642,1.016,2.721,2.38s-.64,2.2-2.3,2.65a2.418,2.418,0,0,0-.3.144c-.233,2.549-.472,5.157-.709,7.766-.77,8.507-1.517,17.017-2.322,25.521a4.125,4.125,0,0,1-4.48,4.024q-6.166.038-12.332,0a4.145,4.145,0,0,1-4.481-4.121Q4.136,32.715,2.642,16.347c-.013-.143-.034-.284-.063-.52m1.737-.01c.041.624.064,1.124.109,1.623Q5.03,24.17,5.642,30.9C6.193,36.964,6.728,43.031,7.3,49.094a2.409,2.409,0,0,0,2.725,2.429q6.219.02,12.438,0A2.556,2.556,0,0,0,25.28,49.01c.123-1.037.182-2.082.275-3.123q1.034-11.467,2.069-22.935c.212-2.354.408-4.709.617-7.135Zm1.095-5.149H27.35c-1.238-2.66-2.4-5.21-3.615-7.732a2.207,2.207,0,0,0-2.122-1.249c-3.461,0-6.925-.063-10.382.048A2.774,2.774,0,0,0,9.172,2.819c-1.354,2.52-2.5,5.155-3.761,7.85m10.749,3.413v0c4.508,0,9.017.02,13.524-.034.4,0,1.1-.454,1.139-.766.1-.72-.539-.892-1.182-.883-.821.012-1.642,0-2.463,0H5.538a24.954,24.954,0,0,0-2.892.042c-.343.04-.634.519-.949.8a8.391,8.391,0,0,0,.949.823c.151.1.422.016.638.016H16.159" transform="translate(0 0)" fill="#59836b"/>
        <path id="Trazado_881917" data-name="Trazado 881917" d="M139.011,131.432a2.666,2.666,0,0,1,.359-3.723,1.07,1.07,0,0,1,.5-.167,4.559,4.559,0,0,1,4.241,3.378,1.838,1.838,0,0,0,.836,1.227,14.281,14.281,0,0,1,2.764,2.805c.907,1.327,1.462,2.89,2.288,4.281a25.464,25.464,0,0,0,2.365,3.333c.682.815,1.3,1.576.888,2.694a2.536,2.536,0,0,1-2.575,1.6c-.353.015-.707,0-1.088,0,.791,1.1,1.61,2.095,2.242,3.193.3.522.54,1.617.293,1.815a4.007,4.007,0,0,1-2.529,1.113,11.048,11.048,0,0,1-8.359-5.841c-.232-.4-.456-.8-.642-1.126a42.073,42.073,0,0,1-2.824,3.16,6.791,6.791,0,0,1-8.462.979,5.324,5.324,0,0,1-1.522-2.089c-.106-.2.24-.778.522-1.011a18.318,18.318,0,0,1,1.73-1.1,12.28,12.28,0,0,0,5.389-7.429c.679-2.624,1.425-5.227,3.582-7.1m11.357,19.831.172-.427a21.148,21.148,0,0,0-1.842-2.207,12.386,12.386,0,0,1-3.379-5.074c-.71-2.036-1.3-4.113-1.95-6.17-.2-.627-.337-1.281.507-1.476.77-.178.918.447,1.093,1.032.576,1.929,1.127,3.87,1.8,5.765.719,2.015,1.824,2.664,3.936,2.465.318-.03.774-.2.877-.435.092-.208-.174-.622-.358-.895-1-1.486-2.079-2.924-3.023-4.445-.681-1.1-1.163-2.315-1.789-3.448a5.152,5.152,0,0,0-3.184-2.739.985.985,0,0,1-.748-1.325,1.742,1.742,0,0,0-.941-2,5.146,5.146,0,0,0-1.34-.32,6.166,6.166,0,0,0,.831.92c.76.566.866,1.256.121,1.6A6.314,6.314,0,0,0,138,135.869a23.9,23.9,0,0,0-.889,2.885,14.237,14.237,0,0,1-6.578,8.88c-.312.193-.6.422-.934.657a5.049,5.049,0,0,0,6.049.411,10.51,10.51,0,0,0,3.671-4.169,2.633,2.633,0,0,0,.2-1.491c-.156-1.247-.477-2.475-.6-3.724-.03-.316.452-.68.7-1.021a10.809,10.809,0,0,1,.922.855c.095.108.03.349.052.528a16.526,16.526,0,0,0,2.61,7.47,9.591,9.591,0,0,0,5.883,4.1,5.7,5.7,0,0,0,1.271.013" transform="translate(-100.121 -99.938)" fill="#59836b"/>
        <path id="Trazado_881918" data-name="Trazado 881918" d="M167.649,74.794c2.666,0,5.332-.007,8,0,1.21,0,1.459.3,1.35,1.5a9.481,9.481,0,0,1-18.87.442c-.231-1.641.018-1.939,1.632-1.941q3.945,0,7.89,0m7.833,1.752h-5.437l3.831,3.941,1.606-3.941m-8.808,1.406-3.99,3.987,3.99,1.636Zm-1.542-1.463H159.58l1.62,3.929,3.931-3.929m7.091,5.531-3.765-3.811v5.362l3.765-1.551" transform="translate(-123.85 -58.607)" fill="#59836b"/>
        <path id="Trazado_881919" data-name="Trazado 881919" d="M164.3,9.271c-.014,2.326-.871,3.178-2.917,3.029a1.388,1.388,0,0,1-.9-.746,1.62,1.62,0,0,0-1.8-1.064,1.52,1.52,0,0,0-1.4,1.65c.013.91-.483,1.191-1.241,1.306-.427.064-.854.141-1.273.243-1.056.256-2.035.452-2.175-1.132-.017-.189-.659-.517-.9-.439a1.033,1.033,0,0,0-.528.873c.359,1.13-.258,1.425-1.156,1.575-.355.059-.707.137-1.057.221-.872.209-1.32-.084-1.519-1.008a9.6,9.6,0,0,0-4.97-6.843c-.909-.483-.931-1.05-.094-1.741A20.781,20.781,0,0,1,153.152.568a62.8,62.8,0,0,1,7.539-.24,1.592,1.592,0,0,1,1.248.608A25.8,25.8,0,0,1,164.3,9.271m-15.264,3.8.27-.079a8.227,8.227,0,0,1,.2-.813,2.49,2.49,0,0,1,1.984-1.783,2.535,2.535,0,0,1,2.4.936c.272.285.745.616,1.058.557s.686-.52.83-.884a3.362,3.362,0,0,1,5.585-1.191,4.79,4.79,0,0,0,.99.609,3.136,3.136,0,0,0,.235-1.191c-.47-2.064-1.031-4.108-1.526-6.167a1.456,1.456,0,0,0-1.6-1.226A27.685,27.685,0,0,0,149.958,3a17.892,17.892,0,0,0-5.81,2.961,12.039,12.039,0,0,1,4.889,7.115" transform="translate(-111.085 -0.256)" fill="#59836b"/>
        <path id="Trazado_881920" data-name="Trazado 881920" d="M76.892,107.392c-.022.417.045.691-.062.834-.211.282-.521.679-.787.677a1.048,1.048,0,0,1-.779-.668,14.123,14.123,0,0,1-.11-2.9c.02-.276.509-.664.844-.741a10.34,10.34,0,0,1,1.935-.127c.638-.023,1.471-.19,1.5.725.013.39-.6.8-1.014,1.308a7.866,7.866,0,0,1,1.228,7.307,7.664,7.664,0,0,1-7.107,5.364c-.6.01-1.259.016-1.289-.782s.609-.815,1.219-.865A6.174,6.174,0,0,0,77.3,107.84a5.9,5.9,0,0,0-.4-.449" transform="translate(-55.833 -81.835)" fill="#59836b"/>
        <path id="Trazado_881921" data-name="Trazado 881921" d="M40.129,112.573a7.815,7.815,0,0,1-1.264-7.086,7.634,7.634,0,0,1,7.075-5.54c.615-.015,1.338-.1,1.362.8.022.817-.643.794-1.235.846a6.174,6.174,0,0,0-4.783,9.694,4.187,4.187,0,0,0,.336.383c.089-.1.168-.14.172-.191.052-.605-.027-1.353.874-1.318s.792.778.786,1.383c-.031,3.393.473,2.891-2.852,3.1-.6.039-1.411.167-1.461-.649-.026-.416.582-.872.989-1.427" transform="translate(-30.186 -78.312)" fill="#59836b"/>
        <path id="Trazado_881922" data-name="Trazado 881922" d="M46.368,21.136c-2.23,0-4.461.013-6.692,0-1.214-.01-1.487-.444-1-1.56a36.734,36.734,0,0,1,1.577-3.423,1.829,1.829,0,0,1,1.274-.852q4.854-.108,9.712,0a1.828,1.828,0,0,1,1.305.816,37.276,37.276,0,0,1,1.611,3.526c.448,1.042.166,1.483-.985,1.494-2.266.02-4.533.006-6.8.006m5.857-1.69a19.441,19.441,0,0,0-.9-2,1.129,1.129,0,0,0-.815-.477c-2.733-.035-5.467-.032-8.2,0a1.022,1.022,0,0,0-.77.369c-.362.637-.62,1.333-.967,2.115Z" transform="translate(-30.128 -11.944)" fill="#59836b"/>
        <path id="Trazado_881923" data-name="Trazado 881923" d="M169,17.881a4.02,4.02,0,0,1,3.707,3.182,2.1,2.1,0,0,1-2.21,2.524,3.958,3.958,0,0,1-3.656-3.346A2.05,2.05,0,0,1,169,17.881m-.5,2.023a2.27,2.27,0,0,0,1.783,1.957c.234.017.674-.126.694-.25.153-.927-.489-1.42-1.169-1.84a1.369,1.369,0,0,0-.806-.215c-.212.024-.4.271-.5.348" transform="translate(-130.728 -14.011)" fill="#59836b"/>
        <path id="Trazado_881924" data-name="Trazado 881924" d="M206.646,12.86a2.724,2.724,0,0,1,2.6,2.519,1.681,1.681,0,0,1-1.778,1.737,2.691,2.691,0,0,1-2.593-2.521,1.654,1.654,0,0,1,1.768-1.735" transform="translate(-160.542 -10.077)" fill="#59836b"/>
      </g>
    </g>
  </g>
</svg>
