<svg id="Grupo_1100517" data-name="Grupo 1100517" xmlns="http://www.w3.org/2000/svg" xmlns:xlink="http://www.w3.org/1999/xlink" width="55.583" height="58.022" viewBox="0 0 55.583 58.022">
  <defs>
    <clipPath id="clip-path">
      <rect id="Rectángulo_402657" data-name="Rectángulo 402657" width="55.583" height="58.022" fill="#12263f"/>
    </clipPath>
  </defs>
  <g id="Grupo_1100516" data-name="Grupo 1100516" clip-path="url(#clip-path)">
    <path id="Trazado_881936" data-name="Trazado 881936" d="M31.024,109.744a29.617,29.617,0,0,1,1.706-2.974,2.181,2.181,0,0,1,1.458-.876c6.016-.059,12.033-.047,18.049-.031,1.283,0,1.611.594.986,1.745-1.949,3.591-3.919,7.17-5.88,10.754-.206.376-.4.755-.6,1.114.075.1.117.2.161.2,2.143.027,2.335-.278,2.317,2.513-.024,3.541.263,3.189-3.153,3.189q-22.06,0-44.121,0C.1,125.378,0,125.285,0,123.466c0-.668,0-1.337,0-2.005.007-1.58.1-1.675,1.625-1.752.153-.008.3-.044.592-.088,0-1.609,0-3.213,0-4.816.01-4.962,2.29-8.024,7.046-9.472.977-.3,1.967-.56,2.919-.92.45-.17,1.032-.45,1.191-.831.275-.662-.12-1.167-.74-1.634A7.626,7.626,0,0,1,14.713,88.6a7.643,7.643,0,0,1,7.1,13.32c-.3.233-.74.468-.82.778-.187.728-.221,1.466.855,1.665.806.148,1.571.5,2.371.7a10,10,0,0,1,6.809,4.682m20.162-2.085c-5.624,0-11-.014-16.381.033a1.511,1.511,0,0,0-1,.752c-1.937,3.458-3.831,6.94-5.729,10.419a6.752,6.752,0,0,0-.31.836c5.5,0,10.869.007,16.242-.021a1.122,1.122,0,0,0,.827-.471c2.1-3.763,4.16-7.546,6.353-11.548M16.278,119.64c0-3.143-.1-6.2.037-9.251.091-1.964-1.352-2.992-2.206-4.386-.083-.135-.571-.107-.834-.031-1.506.436-3.021.854-4.5,1.383A6.458,6.458,0,0,0,4.158,112.8,59.361,59.361,0,0,0,4.1,119.64Zm1.809.058c2.462,0,4.737.029,7.01-.033.311-.008.715-.407.9-.727,1.017-1.77,1.979-3.57,2.959-5.361,1.169-2.136,1.115-2.877-.7-4.536a9.439,9.439,0,0,0-2.773-1.71c-1.412-.573-2.912-.93-4.381-1.361-.248-.073-.685-.166-.761-.058-.782,1.112-2.045,2.218-2.148,3.413-.291,3.386-.1,6.813-.1,10.373m-.94-29.728a5.871,5.871,0,0,0-5.859,5.838,5.889,5.889,0,1,0,11.777.05,5.857,5.857,0,0,0-5.918-5.889m30.226,31.554H1.9v1.97H47.373ZM17.187,107.38c.691-1.579,2.242-2.351,1.881-3.982H15.277c-.254,1.673,1.2,2.429,1.91,3.982" transform="translate(0 -67.364)" fill="#12263f"/>
    <path id="Trazado_881937" data-name="Trazado 881937" d="M133.712,9.556c1.853.233,3.6.446,5.345.676a1.31,1.31,0,0,1,1.269,1.51q-.037,9.728-.009,19.457c0,.912-.326,1.392-1.321,1.351A33.4,33.4,0,0,0,126.278,34.6a2.166,2.166,0,0,1-1.354-.015,32.843,32.843,0,0,0-12.481-2.027c-1.152.046-1.529-.416-1.524-1.514q.037-9.61,0-19.221c0-.973.369-1.484,1.308-1.6,1.744-.22,3.488-.432,5.341-.661a8.188,8.188,0,0,1,2.709-7.5A7.857,7.857,0,0,1,126.009.009c4.8.2,7.792,3.947,7.7,9.547m-7.192,22.732,12.02-1.9c-.136.2-.094.165-.094.133.023-6.013.05-12.026.038-18.039a.91.91,0,0,0-.574-.671c-1.443-.129-2.894-.2-4.343-.219a1.219,1.219,0,0,0-.839.5,11.993,11.993,0,0,0-2.21,5.4c-.035.266-.1.713.023.787,1.054.632.739,1.645.751,2.545.028,2.109.008,2.108-2.146,2.186a4.26,4.26,0,0,0-.563.094l.259.274c-.663.755-1.335,1.5-1.982,2.27a1.21,1.21,0,0,0-.326.667c-.025,2.041-.015,4.083-.015,5.976m-4.121-8.93.147-.36c-.35,0-.7.006-1.051,0-1.362-.029-1.6-.214-1.535-1.6.052-1.066-.5-2.312.747-3.126.108-.071.056-.451.015-.676-.114-.617-.229-1.237-.4-1.839-1.139-3.944-2.469-4.732-6.537-4.063-.863.142-1.071.456-1.066,1.28.034,5.542.017,11.084.021,16.626,0,.344.038.688.045.8l11.941,1.892c0-1.908.011-3.949-.015-5.99a1.222,1.222,0,0,0-.335-.663c-.645-.771-1.314-1.523-1.974-2.281m6.275-5.024c.077-2.835,1.442-5.2,2.7-7.65a6.092,6.092,0,0,0-1.895-7.595,6.371,6.371,0,0,0-7.762.043,6.12,6.12,0,0,0-1.831,7.613c1.262,2.409,2.571,4.755,2.657,7.588Zm.689,2.89.279-.393c-.275-.206-.546-.584-.826-.591-2.118-.05-4.238-.015-6.358-.034-.746-.007-.84.333-.621,1.018h7.525Zm-4.736,1.863-.166.335c.366.206.733.576,1.1.573.4,0,.805-.346,1.208-.541l-.143-.367Z" transform="translate(-84.742 -0.001)" fill="#12263f"/>
    <path id="Trazado_881938" data-name="Trazado 881938" d="M151.9,182.545a21.076,21.076,0,0,1,3.6,1.374c1.472.894,1.445,2.549.128,3.656a6.606,6.606,0,0,1-7.4-.051,2.074,2.074,0,0,1,.018-3.434,20.844,20.844,0,0,1,3.657-1.544m-2.752,3.238c1.061,1.279,4.263,1.548,5.331.407a.863.863,0,0,0-.008-.843c-1.1-1.155-4.289-.869-5.323.436" transform="translate(-112.562 -139.469)" fill="#12263f"/>
    <path id="Trazado_881939" data-name="Trazado 881939" d="M186.165,116.007h3.643c.646,0,1.307.166,1.165.924a1.476,1.476,0,0,1-1.124.837q-3.757.115-7.518,0a1.475,1.475,0,0,1-1.122-.854c-.107-.733.543-.913,1.2-.908,1.254.008,2.507,0,3.76,0" transform="translate(-138.439 -88.63)" fill="#12263f"/>
    <path id="Trazado_881940" data-name="Trazado 881940" d="M194.3,103.8a18.67,18.67,0,0,1-2.692-.043c-.372-.055-.676-.569-1.011-.875.346-.294.681-.824,1.039-.841,1.834-.086,3.676-.086,5.51,0,.367.017.711.531,1.065.816-.365.315-.7.843-1.1.9a19.147,19.147,0,0,1-2.809.042" transform="translate(-145.617 -77.91)" fill="#12263f"/>
    <path id="Trazado_881941" data-name="Trazado 881941" d="M202.8,75.995a8.7,8.7,0,0,1-1.871-.038,1.181,1.181,0,0,1-.767-.827,1.133,1.133,0,0,1,.74-.841,27.143,27.143,0,0,1,3.869.009,1.117,1.117,0,0,1,.69.866,1.191,1.191,0,0,1-.789.8A9.011,9.011,0,0,1,202.8,76v-.006" transform="translate(-152.928 -56.709)" fill="#12263f"/>
    <path id="Trazado_881942" data-name="Trazado 881942" d="M202.533,61.974a6.466,6.466,0,0,1-1.636-.034c-.375-.1-.664-.518-.992-.794.329-.315.635-.868.991-.9a18.828,18.828,0,0,1,3.517,0c.326.029.608.549.91.843-.3.294-.566.759-.919.842a8.3,8.3,0,0,1-1.871.038v0" transform="translate(-152.732 -45.965)" fill="#12263f"/>
    <path id="Trazado_881943" data-name="Trazado 881943" d="M206.787,89.744a3.014,3.014,0,0,1-1.16-.031c-.36-.165-.61-.572-.908-.874.309-.291.585-.775.933-.835A6.863,6.863,0,0,1,207.988,88c.378.068.678.569,1.013.874a4.792,4.792,0,0,1-1.051.853,3.161,3.161,0,0,1-1.162.029v-.011" transform="translate(-156.411 -67.159)" fill="#12263f"/>
    <path id="Trazado_881944" data-name="Trazado 881944" d="M128.514,115.945c1.253,0,2.513-.07,3.756.038.427.037,1.1.466,1.163.808.135.728-.508.951-1.161.952-2.507,0-5.014.039-7.518-.041-.389-.012-.761-.562-1.141-.864.38-.3.741-.816,1.145-.852,1.243-.113,2.5-.041,3.756-.042" transform="translate(-94.443 -88.568)" fill="#12263f"/>
    <path id="Trazado_881945" data-name="Trazado 881945" d="M127.325,103.8a18.816,18.816,0,0,1-2.692-.042c-.374-.055-.682-.564-1.02-.866.342-.3.673-.833,1.029-.85,1.834-.087,3.676-.086,5.51,0,.37.017.717.526,1.075.808-.362.318-.692.851-1.092.911a19.045,19.045,0,0,1-2.809.043" transform="translate(-94.443 -77.909)" fill="#12263f"/>
    <path id="Trazado_881946" data-name="Trazado 881946" d="M126.253,75.9a5.713,5.713,0,0,1-1.634-.037c-.389-.12-.672-.58-1-.889.313-.286.607-.79.942-.819a20.111,20.111,0,0,1,3.518,0c.339.03.636.538.953.827-.338.306-.632.77-1.025.879a6.743,6.743,0,0,1-1.752.039" transform="translate(-94.446 -56.6)" fill="#12263f"/>
    <path id="Trazado_881947" data-name="Trazado 881947" d="M126.274,61.945a5.888,5.888,0,0,1-1.634-.035c-.393-.117-.688-.561-1.027-.86.344-.3.666-.809,1.035-.845a16.694,16.694,0,0,1,3.4.008c.357.038.657.594.984.913-.331.273-.627.693-1,.784a7.7,7.7,0,0,1-1.754.036" transform="translate(-94.443 -45.935)" fill="#12263f"/>
    <path id="Trazado_881948" data-name="Trazado 881948" d="M125.746,88.033a3.458,3.458,0,0,1,1.276.035,1.488,1.488,0,0,1,.813.913c.04.219-.476.736-.791.782a7.96,7.96,0,0,1-2.452.008c-.366-.062-.653-.589-.976-.906a4.088,4.088,0,0,1,.969-.813,3.248,3.248,0,0,1,1.162-.029Z" transform="translate(-94.445 -67.22)" fill="#12263f"/>
    <path id="Trazado_881949" data-name="Trazado 881949" d="M151.654,18.238a5.094,5.094,0,1,1,5.1,5.079,5.114,5.114,0,0,1-5.1-5.079m5.1-3.352a3.329,3.329,0,1,0,3.345,3.36,3.341,3.341,0,0,0-3.345-3.36" transform="translate(-115.867 -9.995)" fill="#12263f"/>
    <path id="Trazado_881950" data-name="Trazado 881950" d="M164.782,28.7c.415-.258.847-.493,1.24-.782.281-.207.471-.594.772-.7.351-.126,1.008-.183,1.123-.005a1.307,1.307,0,0,1,.05,1.209,13.582,13.582,0,0,1-2.152,2.154,1.257,1.257,0,0,1-1.217.016,4.061,4.061,0,0,1-.96-1.591c-.048-.13.525-.488.812-.74l.332.442" transform="translate(-125.021 -20.701)" fill="#12263f"/>
  </g>
</svg>
