<svg id="Grupo_1100519" data-name="Grupo 1100519" xmlns="http://www.w3.org/2000/svg" xmlns:xlink="http://www.w3.org/1999/xlink" width="68.949" height="67.665" viewBox="0 0 68.949 67.665">
  <defs>
    <clipPath id="clip-path">
      <rect id="Rectángulo_402658" data-name="Rectángulo 402658" width="68.949" height="67.665" fill="#12263f" stroke="#12263f" stroke-width="0.5"/>
    </clipPath>
  </defs>
  <g id="Grupo_1100518" data-name="Grupo 1100518" clip-path="url(#clip-path)">
    <path id="Trazado_881951" data-name="Trazado 881951" d="M54.773,153.131c-1.854,0-3.5.088-5.126-.036a5.348,5.348,0,0,1-2.478-.806c-2.355-1.578-4.62-3.291-6.926-4.942a3.441,3.441,0,0,1-1.648-3.434,3.377,3.377,0,0,1,5.344-2.341c1.911,1.256,3.745,2.633,5.58,4a3.773,3.773,0,0,0,2.481.793c2.033-.053,4.069-.016,6.33-.016-1.294-1.9-1.9-3.789-1.25-5.892a5.88,5.88,0,0,1,2.271-3.066,5.8,5.8,0,0,1,7.178.354c2.42,2.106,2.659,4.7.719,8.587,2.43,0,4.8.033,7.171-.029a2.742,2.742,0,0,0,1.314-.626c1.914-1.345,3.778-2.761,5.712-4.074a3.4,3.4,0,0,1,5.343,1.951,3.088,3.088,0,0,1-1.189,3.453q-3.8,2.895-7.756,5.576a4.254,4.254,0,0,1-2.118.527c-1.63.075-3.266.024-5.056.024-.041.668-.1,1.193-.1,1.719-.011,2.24.01,4.48-.012,6.72-.014,1.4-.267,1.665-1.668,1.672q-6.121.03-12.243,0c-1.53-.006-1.767-.269-1.778-1.876-.014-2.19,0-4.381-.008-6.571,0-.484-.048-.968-.085-1.668m7.9,8.222c1.443,0,2.885.008,4.328,0,1.647-.011,1.672-.033,1.681-1.668.011-2.139-.018-4.28.013-6.419.023-1.58.283-1.82,1.829-1.834,1.492-.014,2.986-.044,4.477.01a3.977,3.977,0,0,0,2.625-.851c2-1.481,4.027-2.92,6.039-4.381a5.5,5.5,0,0,0,.924-.749,1.511,1.511,0,0,0,.123-2.047,1.432,1.432,0,0,0-1.859-.482,7.479,7.479,0,0,0-1.265.778c-1.7,1.214-3.351,2.5-5.1,3.634a4.911,4.911,0,0,1-2.461.832q-11.342.094-22.684,0a4.6,4.6,0,0,1-2.324-.792c-1.788-1.169-3.485-2.479-5.228-3.719a6.564,6.564,0,0,0-1.275-.757,1.424,1.424,0,0,0-1.832.562,1.473,1.473,0,0,0,.114,1.926,5.1,5.1,0,0,0,.913.76c1.609,1.17,3.3,2.238,4.817,3.52a7.063,7.063,0,0,0,5.621,1.766,22.013,22.013,0,0,1,2.536-.014c1.841.01,2.056.209,2.071,2.049.018,2.189.035,4.379-.006,6.568-.018.954.322,1.351,1.3,1.32,1.541-.05,3.084-.013,4.626-.011m4.129-19.06a4.089,4.089,0,0,0-8.178-.128,4.188,4.188,0,0,0,4.036,4.17,4.141,4.141,0,0,0,4.141-4.042" transform="translate(-27.038 -95.593)" fill="#12263f" stroke="#12263f" stroke-width="0.5"/>
    <path id="Trazado_881952" data-name="Trazado 881952" d="M7.33,76.424c.486-3.447.648-3.587,3.884-3.588.746,0,1.492-.006,2.238,0,1.917.021,2.577.611,2.828,2.506.038.289.092.577.174,1.08,1.092,0,2.169-.013,3.246,0a3.851,3.851,0,0,1,4.064,4q.08,4.626,0,9.254a3.8,3.8,0,0,1-4.072,3.986q-7.834.044-15.668,0A3.679,3.679,0,0,1,.019,89.684q-.038-4.627,0-9.254a3.7,3.7,0,0,1,3.992-4c1.083-.017,2.167,0,3.319,0m14.5,9.357c-6.752.058-13.369.2-20.122-.1,0,1.028-.013,2.212,0,3.4.027,2.076.821,2.878,2.9,2.888,3.179.016,6.358.005,9.538,0,1.788,0,3.577.023,5.365-.012,1.295-.025,2.227-.648,2.294-1.679.1-1.57.027-3.15.027-4.5m-9.913-1.846c2.536,0,5.072.02,7.607-.007,1.692-.018,2.3-.66,2.347-2.366.009-.3.008-.6,0-.895-.037-1.7-.728-2.5-2.425-2.518q-7.607-.064-15.214,0c-1.82.015-2.569,1.023-2.523,3.11.042,1.883.769,2.657,2.6,2.673,2.536.023,5.071.006,7.607,0M9.573,76.314H14.2c.242-1.614.163-1.734-1.171-1.769q-1.119-.03-2.24,0c-1.365.034-1.449.156-1.214,1.769" transform="translate(0 -51.076)" fill="#12263f" stroke="#12263f" stroke-width="0.5"/>
    <path id="Trazado_881953" data-name="Trazado 881953" d="M168.891,72.173c1.165-.823,2.065-1.441,2.946-2.086a1.36,1.36,0,0,1,1.777,0c2.818,2.045,5.667,4.05,8.442,6.152a2.34,2.34,0,0,1,.763,1.633c.063,4.129.047,8.26.027,12.391-.006,1.26-.243,1.513-1.476,1.517q-8.657.03-17.314,0c-1.21,0-1.57-.292-1.582-1.467-.044-4.13-.052-8.261.015-12.39a2.438,2.438,0,0,1,.831-1.623,2.262,2.262,0,0,0,.9-2.063A18.459,18.459,0,0,1,164.244,72a1.24,1.24,0,0,1,1.349-1.284c.447-.006.9,0,1.343-.015.958-.039,1.84.036,1.955,1.469m-2.229.568-.451.008a20.642,20.642,0,0,0-.1,2.127,2.524,2.524,0,0,1-1.1,2.432,1.911,1.911,0,0,0-.666,1.351c-.056,3.33,0,6.661-.047,9.991-.013,1,.4,1.292,1.327,1.288,4.721-.024,9.442,0,14.163-.017,1.284,0,1.352-.083,1.358-1.362.015-3.231-.016-6.462.019-9.693a1.865,1.865,0,0,0-.887-1.732c-2.157-1.51-4.271-3.083-6.409-4.621-.391-.281-.818-.511-1.23-.765-1.268.906-2.427,1.759-3.611,2.575-1.342.926-1.778.747-2.118-.8a8.032,8.032,0,0,0-.253-.781" transform="translate(-113.914 -48.918)" fill="#12263f" stroke="#12263f" stroke-width="0.5"/>
    <path id="Trazado_881954" data-name="Trazado 881954" d="M104.716,6.758a6.582,6.582,0,0,1-1.94,4.742q-3.918,4-7.912,7.928c-.949.939-1.273.934-2.236-.019-2.652-2.627-5.321-5.241-7.9-7.935a6.56,6.56,0,0,1-1.287-7.48,6.593,6.593,0,0,1,6.3-3.985,7.876,7.876,0,0,1,2.851.745A2.429,2.429,0,0,0,94.945.729a6.678,6.678,0,0,1,9.4,3.986,16.37,16.37,0,0,1,.369,2.043M93.523,17.708c2.853-2.721,5.735-5.238,8.327-8.025a4.667,4.667,0,0,0-.376-6.377,4.969,4.969,0,0,0-6.407-.54,1.93,1.93,0,0,1-2.629-.015,4.889,4.889,0,0,0-7.036,1.4,4.872,4.872,0,0,0,.8,6.263c1.718,1.793,3.5,3.525,5.259,5.279.731.728,1.476,1.442,2.058,2.01" transform="translate(-58.075 0)" fill="#12263f" stroke="#12263f" stroke-width="0.5"/>
    <path id="Trazado_881955" data-name="Trazado 881955" d="M46.876,27.784a8.129,8.129,0,0,1-.943,1.057,26.074,26.074,0,0,0-7.483,8.742c-.116.217-.228.505-.42.6-.32.152-.789.332-1.036.2s-.354-.622-.4-.972c-.029-.209.162-.457.276-.676a27.01,27.01,0,0,1,7.713-9.123,1.85,1.85,0,0,1,1.037-.5c.383.028.741.381,1.258.677" transform="translate(-25.659 -19.009)" fill="#12263f" stroke="#12263f" stroke-width="0.5"/>
    <path id="Trazado_881956" data-name="Trazado 881956" d="M179.231,37.656c-.138.238-.227.6-.435.693a1.15,1.15,0,0,1-.945-.027,2.634,2.634,0,0,1-.7-.936,26.067,26.067,0,0,0-7.2-8.416,1.978,1.978,0,0,1-.708-.73,1.184,1.184,0,0,1,.114-.941.913.913,0,0,1,.781-.229,2.368,2.368,0,0,1,.909.471,27.058,27.058,0,0,1,7.811,9.238c.137.26.229.542.369.877" transform="translate(-118.652 -18.975)" fill="#12263f" stroke="#12263f" stroke-width="0.5"/>
  </g>
</svg>
