<svg id="Grupo_1100481" data-name="Grupo 1100481" xmlns="http://www.w3.org/2000/svg" xmlns:xlink="http://www.w3.org/1999/xlink" width="58.029" height="58.022" viewBox="0 0 58.029 58.022">
  <defs>
    <clipPath id="clip-path">
      <rect id="Rectángulo_402589" data-name="Rectángulo 402589" width="58.029" height="58.022" fill="#12263f"/>
    </clipPath>
  </defs>
  <g id="Grupo_1100480" data-name="Grupo 1100480" clip-path="url(#clip-path)">
    <path id="Trazado_881879" data-name="Trazado 881879" d="M23.315,44.4h3.636c.023-.454.061-.855.062-1.257.006-2.6-.012-5.2.008-7.8.018-2.27,1.149-3.371,3.433-3.389,1.018-.008,2.036-.007,3.054-.009s2.023,0,3.187,0V30.708q0-5.882,0-11.763c0-2.261,1.152-3.427,3.39-3.44,2.034-.012,4.067,0,6.285,0V14.328c0-3.62-.007-7.239,0-10.858.007-2.3,1.093-3.371,3.4-3.38q2.432-.009,4.864,0C56.929.1,58.026,1.2,58.027,3.5q.005,23.131,0,46.261,0,3.28,0,6.56c0,1.6-.167,1.769-1.737,1.77q-13.516,0-27.033,0H3.81c-1.675,0-1.886-.206-1.887-1.883q-.007-7.183,0-14.365c0-.627-.023-1.082-.785-1.376a1.762,1.762,0,0,1-.907-2.551c1.459-2.849,2.969-5.672,4.5-8.483A2.541,2.541,0,0,1,7.084,28.1q5.542-.016,11.084,0a2.689,2.689,0,0,1,2.48,1.506c1.446,2.686,2.887,5.376,4.292,8.084a1.991,1.991,0,0,1-.991,2.919,1.188,1.188,0,0,0-.606.75c-.073.969-.029,1.947-.029,3.042M4.048,40.781V55.946H5.8c0-1.244-.043-2.406.01-3.564A2.954,2.954,0,0,1,8.875,49.3c.413-.026.829-.017,1.244-.01,2.416.036,3.524,1.146,3.535,3.543,0,1.039,0,2.078,0,3.124h7.529V40.781ZM55.9,56.029V35.976H48.457c-.023.512-.059.956-.059,1.4q-.007,5.6,0,11.2,0,3.224,0,6.448c0,.49-.057,1.015.7,1.011,2.221-.013,4.442,0,6.8,0M2.125,38.616H22.939a2.055,2.055,0,0,0-.1-.5c-1.281-2.43-2.537-4.876-3.893-7.264a1.846,1.846,0,0,0-1.36-.732c-3.314-.062-6.631-.053-9.946-.008a1.644,1.644,0,0,0-1.237.558c-1.437,2.55-2.788,5.149-4.278,7.942m53.75-4.783V16.627c-2.316,0-4.533.011-6.748-.007-.644,0-.732.367-.73.874,0,1.732,0,3.463,0,5.195,0,3.35,0,6.7.006,10.05,0,.5-.144,1.107.716,1.1,2.217-.018,4.434-.006,6.758-.006M46.3,42.742h-7.45V55.961H46.3Zm-9.752,13.24a1.424,1.424,0,0,0,.118-.32q.016-10.278.027-20.556a.99.99,0,0,0-1.111-1.117c-1.769-.016-3.539-.009-5.308-.008-.924,0-1.225.51-1.217,1.379.024,2.673.006,5.346.012,8.02,0,.327.041.654.07,1.082,1.379,0,2.688,0,4,0,1.476.007,1.757.29,1.76,1.8.006,2.824,0,5.648,0,8.472,0,.4.037.8.059,1.245Zm2.255-15.464H46.3V28.284h-7.49Zm9.589-26.039H55.97c0-3.817,0-7.546,0-11.274,0-.775-.407-1.067-1.137-1.064-1.658.009-3.317-.007-4.975,0-1.254.008-1.45.19-1.459,1.439-.017,2.487-.006,4.975-.007,7.462,0,1.124,0,2.247,0,3.433M38.776,26.051h7.582c0-2.554.018-5.034-.013-7.514a.923.923,0,0,0-1.029-.965c-1.847,0-3.7-.042-5.541.04-.345.015-.946.522-.956.816-.077,2.515-.044,5.033-.044,7.623M23.309,46.591v9.332h1.824c0-1.2-.01-2.285,0-3.373.024-2.141,1.22-3.27,3.435-3.258,2.194.012,3.393,1.166,3.419,3.3.012.978-.014,1.958.031,2.934.008.163.295.313.453.469.122-.154.349-.307.35-.461.021-2.962.016-5.923.016-8.945ZM11.575,55.963c0-1.3.041-2.524-.03-3.745a1.062,1.062,0,0,0-.64-.785,8.771,8.771,0,0,0-2.337-.011,1.066,1.066,0,0,0-.68.765c-.074,1.25-.032,2.508-.032,3.776Zm18.332.024c0-1.339.038-2.569-.014-3.794-.031-.722-.611-.864-1.221-.865s-1.356-.047-1.419.741c-.1,1.285-.027,2.583-.027,3.918Z" transform="translate(0 -0.066)" fill="#12263f"/>
    <path id="Trazado_881880" data-name="Trazado 881880" d="M81.806,3.877c-.818.824-1.609,1.616-2.394,2.415-.489.5-1.038.879-1.658.289-.661-.628-.313-1.208.228-1.742C79.4,3.434,80.8,2.008,82.227.606c.812-.8,1.2-.808,2-.024,1.461,1.418,2.9,2.861,4.345,4.294.477.472.75,1,.22,1.58-.571.62-1.146.39-1.66-.129-.92-.93-1.836-1.865-2.849-2.894-.337,1.727-.545,3.283-.95,4.787-1.992,7.4-6.924,12.037-14.027,14.409a64.937,64.937,0,0,1-7.6,1.61,1.774,1.774,0,0,1-.338.02c-.664,0-1.245-.166-1.3-.941-.056-.837.5-1.08,1.236-1.114a25.984,25.984,0,0,0,8.473-1.784C77.154,17.488,81.118,12,81.947,4.171c.006-.056-.055-.12-.141-.293" transform="translate(-46.482 0)" fill="#12263f"/>
    <path id="Trazado_881881" data-name="Trazado 881881" d="M27.64,185.508v1.638a3.03,3.03,0,0,1,1.1.226c.329.224.737.644.726.967a1.234,1.234,0,0,1-.784.9,5.385,5.385,0,0,1-2.231-.006,1.512,1.512,0,0,1-.847-1.1,31.433,31.433,0,0,1-.036-3.49,1.114,1.114,0,0,1,1.179-1.225,14.173,14.173,0,0,1,1.689.009c.634.049,1.174.417,1.038,1.057-.081.377-.634.687-1.027.947-.186.123-.5.058-.8.082" transform="translate(-19.757 -141.908)" fill="#12263f"/>
    <path id="Trazado_881882" data-name="Trazado 881882" d="M70.328,219.693v1.674a3.272,3.272,0,0,1,1.119.227c.3.193.678.612.648.891a1.263,1.263,0,0,1-.724.933,6.35,6.35,0,0,1-2.343-.011,1.4,1.4,0,0,1-.775-1.043,35.1,35.1,0,0,1-.03-3.6,1.072,1.072,0,0,1,1.147-1.131,15.814,15.814,0,0,1,1.689,0c.633.036,1.1.323,1.081,1.034s-.48.964-1.13.976c-.185,0-.369.026-.68.05" transform="translate(-52.765 -168.385)" fill="#12263f"/>
    <path id="Trazado_881883" data-name="Trazado 881883" d="M70.3,185.5v1.636a2.951,2.951,0,0,1,1.069.234c.322.225.718.643.706.964a1.225,1.225,0,0,1-.763.9,5.383,5.383,0,0,1-2.232-.008,1.515,1.515,0,0,1-.84-1.108,31.814,31.814,0,0,1-.036-3.493,1.127,1.127,0,0,1,1.2-1.213,14.463,14.463,0,0,1,1.578,0c.622.033,1.134.282,1.146.986.012.753-.469,1.05-1.177,1.052-.183,0-.365.027-.649.05" transform="translate(-52.749 -141.903)" fill="#12263f"/>
  </g>
</svg>
