<svg xmlns="http://www.w3.org/2000/svg" xmlns:xlink="http://www.w3.org/1999/xlink" width="56.588" height="55.008" viewBox="0 0 56.588 55.008">
  <defs>
    <clipPath id="clip-path">
      <rect id="Rectángulo_402583" data-name="Rectángulo 402583" width="36.118" height="36.08" fill="#59836b"/>
    </clipPath>
  </defs>
  <g id="Grupo_1100545" data-name="Grupo 1100545" transform="translate(-679.188 -4966.144)">
    <g id="Grupo_1098742" data-name="Grupo 1098742" transform="translate(679.188 4966.144)">
      <g id="Rectángulo_400898" data-name="Rectángulo 400898" fill="#fff" stroke="#fff" stroke-width="3" opacity="0.859">
        <rect width="56.588" height="55.009" rx="27.504" stroke="none"/>
        <rect x="1.5" y="1.5" width="53.588" height="52.009" rx="26.004" fill="none"/>
      </g>
      <g id="Rectángulo_400907" data-name="Rectángulo 400907" transform="translate(0)" fill="none" stroke="#fff" stroke-width="3">
        <rect width="56.588" height="55.009" rx="27.504" stroke="none"/>
        <rect x="1.5" y="1.5" width="53.588" height="52.009" rx="26.004" fill="none"/>
      </g>
    </g>
    <g id="Grupo_1100469" data-name="Grupo 1100469" transform="translate(688.492 4975.608)">
      <g id="Grupo_1100468" data-name="Grupo 1100468" clip-path="url(#clip-path)">
        <path id="Trazado_881835" data-name="Trazado 881835" d="M16.076,18.147c-.1-.766-.176-1.465-.313-2.151a.706.706,0,0,0-.437-.408c-1-.313-2.009-.607-3.026-.864a1.272,1.272,0,0,0-.782.088c-1.511.7-3.011,1.417-4.509,2.139a4.343,4.343,0,0,1-2.871.377,1.228,1.228,0,0,1-1.088-1.04,1.179,1.179,0,0,1,.685-1.271c1.733-.983,3.519-1.885,5.182-2.975A36.365,36.365,0,0,0,12.65,9.076c2.256-1.946,4.479-3.931,6.7-5.92a2.136,2.136,0,0,0,.587-.907A3.024,3.024,0,0,1,25.094.987a2.658,2.658,0,0,0,.759.431c.832.4,1.7.744,2.491,1.22A1.073,1.073,0,0,1,28.785,4a1.3,1.3,0,0,1-1.19.843c-.786.078-1.57.176-2.4.271.4,4.765-1.5,8.111-5.888,10.05.422.951.833,1.913,1.285,2.855a.766.766,0,0,0,.5.3,14.255,14.255,0,0,1,4.954,2.1,1.745,1.745,0,0,0,1.114.094,7.825,7.825,0,1,1-5.494,11.894c-.038-.059-.06-.139-.113-.176-.19-.132-.478-.4-.569-.344a1.229,1.229,0,0,0-.513.643c-.114.371-.032.807-.165,1.167-.356.969-1.167,1.163-2.106,1.164-1,0-1.967-.035-2.4-1.145-.124-.315-.054-.7-.163-1.027a4.411,4.411,0,0,0-.483-.826c-.223.157-.519.265-.657.477A7.81,7.81,0,1,1,8.819,20.513a2.125,2.125,0,0,0,1.689-.342,12.616,12.616,0,0,1,5.568-2.025m-2.512-4.274a2.956,2.956,0,0,0,.336.178A7.753,7.753,0,0,0,24.012,5.968a2.882,2.882,0,0,1,.362-2.02,1.655,1.655,0,0,0-.054-1.979,1.688,1.688,0,0,0-1.788-.712,1.85,1.85,0,0,0-1.448,1.364A3.684,3.684,0,0,1,20.2,4C18.8,5.311,17.3,6.518,15.9,7.842A43.343,43.343,0,0,1,5,15.688a5.244,5.244,0,0,0-.547.351l.079.241a8.02,8.02,0,0,0,1.778-.357c4.208-1.89,8.4-3.82,12.587-5.751a1.908,1.908,0,0,0,1.092-2.5c-.137-.421-.229-.823.263-1,.543-.2.743.226.893.643a3.138,3.138,0,0,1-1.766,3.961c-1.892.869-3.8,1.7-5.813,2.6m7.247,16.759a7.865,7.865,0,0,1,4.081-9.453c-3.845-2.674-10.251-2.5-13.637-.011q5.507,3.225,4.069,9.475a1.946,1.946,0,0,1,1.527,2.216c-.025.559.27.817.826.791a5.082,5.082,0,0,1,.633,0c.654.051.969-.233.938-.9a1.915,1.915,0,0,1,1.562-2.12m14.041-2.437a6.592,6.592,0,1,0-6.584,6.637,6.566,6.566,0,0,0,6.584-6.637M7.894,21.649a6.591,6.591,0,1,0,6.528,6.685,6.564,6.564,0,0,0-6.528-6.685m9.4-3.657H19.23c-.281-.644-.529-1.219-.784-1.792-.382-.86-.559-.915-1.481-.47.047.369.09.741.143,1.111s.117.735.184,1.151M25.863,2.553c-.027.531-.044.87-.064,1.253l1.727-.2.04-.2-1.7-.861" transform="translate(0 0.001)" fill="#59836b"/>
        <path id="Trazado_881836" data-name="Trazado 881836" d="M113.528,149.906a2.379,2.379,0,0,1-2.371-2.438,2.4,2.4,0,0,1,4.8.054,2.379,2.379,0,0,1-2.425,2.384m1.21-2.395a1.184,1.184,0,0,0-2.367-.027,1.184,1.184,0,1,0,2.367.027" transform="translate(-95.508 -124.68)" fill="#59836b"/>
        <path id="Trazado_881837" data-name="Trazado 881837" d="M121.089,187.8c.468.066,1.18-.19,1.163.615s-.722.559-1.194.568-1.12.179-1.131-.562c-.013-.807.69-.556,1.162-.62" transform="translate(-103.044 -161.365)" fill="#59836b"/>
        <path id="Trazado_881838" data-name="Trazado 881838" d="M121.087,204.875c.468.063,1.178-.191,1.165.611s-.718.565-1.19.573-1.12.18-1.134-.561c-.016-.806.684-.564,1.16-.623" transform="translate(-103.044 -176.033)" fill="#59836b"/>
        <path id="Trazado_881839" data-name="Trazado 881839" d="M167.654,172.975a5.412,5.412,0,1,1,5.454-5.383,5.436,5.436,0,0,1-5.454,5.383m.029-9.6a4.187,4.187,0,1,0,4.2,4.189,4.164,4.164,0,0,0-4.2-4.189" transform="translate(-139.44 -139.325)" fill="#59836b"/>
        <path id="Trazado_881840" data-name="Trazado 881840" d="M22.637,172.975a5.412,5.412,0,1,1,5.405-5.435,5.428,5.428,0,0,1-5.405,5.435m4.179-5.408a4.187,4.187,0,1,0-4.206,4.185,4.151,4.151,0,0,0,4.206-4.185" transform="translate(-14.796 -139.324)" fill="#59836b"/>
        <path id="Trazado_881841" data-name="Trazado 881841" d="M179.341,182.474a3.059,3.059,0,0,1,2.835-3.047c.26,0,.515.342.773.526-.223.223-.413.582-.674.644a1.883,1.883,0,0,0-1.732,1.733.963.963,0,0,1-.648.626c-.212.012-.447-.381-.554-.482" transform="translate(-154.094 -154.167)" fill="#59836b"/>
        <path id="Trazado_881842" data-name="Trazado 881842" d="M200.1,197.174a3.041,3.041,0,0,1-2.846,3.062c-.257-.008-.5-.355-.754-.546.208-.214.393-.582.626-.615a1.905,1.905,0,0,0,1.8-1.833.858.858,0,0,1,.65-.534c.214,0,.422.366.525.467" transform="translate(-168.835 -169.016)" fill="#59836b"/>
        <path id="Trazado_881843" data-name="Trazado 881843" d="M34.28,182.491a3.055,3.055,0,0,1,2.819-3.058c.262,0,.522.335.782.515-.219.226-.4.59-.663.653a1.881,1.881,0,0,0-1.739,1.724.977.977,0,0,1-.642.636c-.207.019-.45-.373-.557-.471" transform="translate(-29.454 -154.172)" fill="#59836b"/>
        <path id="Trazado_881844" data-name="Trazado 881844" d="M52.2,199.988c-.1-.106-.45-.318-.476-.564-.02-.195.337-.59.565-.623a1.9,1.9,0,0,0,1.81-1.822c.03-.223.417-.4.639-.594.182.237.507.465.522.711a3.066,3.066,0,0,1-3.06,2.891" transform="translate(-44.443 -168.738)" fill="#59836b"/>
      </g>
    </g>
  </g>
</svg>
