<svg id="Grupo_1100523" data-name="Grupo 1100523" xmlns="http://www.w3.org/2000/svg" xmlns:xlink="http://www.w3.org/1999/xlink" width="52.585" height="58.022" viewBox="0 0 52.585 58.022">
  <defs>
    <clipPath id="clip-path">
      <rect id="Rectángulo_402660" data-name="Rectángulo 402660" width="52.585" height="58.022" fill="#12263f"/>
    </clipPath>
  </defs>
  <g id="Grupo_1100522" data-name="Grupo 1100522" clip-path="url(#clip-path)">
    <path id="Trazado_881959" data-name="Trazado 881959" d="M10.532,36.232a31.436,31.436,0,0,1,.317-4.322c.333-1.616,1-3.162,1.476-4.753a4.083,4.083,0,0,0,.3-1.817,43.345,43.345,0,0,0-1.181-4.455,2.965,2.965,0,0,0-.791-1.125C7.393,16.537,4.105,13.345.859,10.11a2.336,2.336,0,0,1-.2-3.426,2.39,2.39,0,0,1,3.434.186C5.489,8.129,6.883,9.4,8.334,10.6c.777.643,1.667,1.148,2.616,1.79-.567-3.827.456-5.818,3.141-6.371,2.452-.5,4.344.913,5.252,4.133C19.9,8.99,20.439,8.027,20.821,7c.6-1.6,1.109-3.236,1.619-4.868.6-1.912,1.574-2.448,3.465-1.9a1.721,1.721,0,0,0,.942-.064,2.291,2.291,0,0,1,3.19,1.639c.582,1.744,1.109,3.508,1.748,5.231a18.333,18.333,0,0,0,1.532,2.992A4.958,4.958,0,0,1,35.878,6.4a4.2,4.2,0,0,1,3.128-.259c2.4.693,3.412,2.919,2.653,6.187a11.237,11.237,0,0,0,1.242-.752C44.595,10.2,46.272,8.8,47.948,7.407c.328-.274.6-.613.941-.874a2.272,2.272,0,0,1,3.194,3.2,6.19,6.19,0,0,1-.609.661c-3.21,3.149-6.429,6.288-9.623,9.454a3.318,3.318,0,0,0-.8,1.272c-.4,1.218-.71,2.464-1.032,3.705a2.9,2.9,0,0,0,.31,2.209,14.87,14.87,0,0,1,1.76,8.3c-.024.318,0,.639,0,.959l.352.1a19.447,19.447,0,0,0,.777-1.888c.784-2.623,1.5-5.266,2.3-7.885A2.668,2.668,0,0,1,49.3,24.937a2.122,2.122,0,0,1,1.424,2.1c-.31,4.265-.348,8.559-1.417,12.744a11.975,11.975,0,0,1-4.477,6.7c-1.188.914-2.383,1.822-3.518,2.8a8.6,8.6,0,0,0-2.926,5.553c-.308,2.242-1.355,3.179-3.582,3.183q-8.419.015-16.839,0c-2.2,0-3.228-.857-3.556-3.039A9.525,9.525,0,0,0,10.688,48.6c-.645-.5-1.261-1.038-1.939-1.484A13.005,13.005,0,0,1,2.9,37.167c-.359-3.189-.593-6.393-.848-9.593a2.382,2.382,0,0,1,2.109-2.855,2.632,2.632,0,0,1,3.085,1.887c.8,2.663,1.538,5.344,2.328,8.01a18.244,18.244,0,0,0,.693,1.709l.263-.094M25.486,56.206c0-1.807-.078-3.435.02-5.052a5.449,5.449,0,0,0-2.259-4.9c-2.962-2.33-5.908-4.681-8.862-7.021a15.33,15.33,0,0,0-1.43-1.089,1.688,1.688,0,0,0-2.3.369c-.5.887.159,1.326.74,1.782q2.781,2.181,5.561,4.361c.462.364.873.794.428,1.4-.49.67-1.029.388-1.545-.018Q12.862,43.7,9.878,41.36a2.863,2.863,0,0,1-1.092-3.078,1.924,1.924,0,0,0,.006-.954C8.129,35.3,7.405,33.3,6.746,31.272c-.436-1.342-.8-2.708-1.191-4.063-.173-.592-.609-.911-1.154-.676a1.2,1.2,0,0,0-.55.964c.254,3.285.5,6.574.892,9.845a11.052,11.052,0,0,0,4.9,8.227,32.371,32.371,0,0,1,2.924,2.306,10.435,10.435,0,0,1,3.408,5.757c.113.5.178,1.012.272,1.517A1.182,1.182,0,0,0,17.5,56.2c2.606.016,5.212.006,7.984.006m1.837,0c2.737,0,5.338.021,7.939-.012.882-.011,1.223-.614,1.322-1.442a10.983,10.983,0,0,1,4.477-7.642c1.018-.782,2.038-1.562,3.045-2.358a9.6,9.6,0,0,0,3.4-5.161c1.082-4,1.107-8.125,1.388-12.217.019-.278-.322-.807-.531-.826a1.789,1.789,0,0,0-1.074.43c-.166.123-.161.47-.244.712-1.107,3.226-1.55,6.668-3.148,9.738a.866.866,0,0,0-.019.611c.546,1.612-.174,2.7-1.4,3.643-1.769,1.351-3.509,2.739-5.262,4.109-.236.184-.463.458-.728.506-.332.061-.881.051-1.007-.142a1.557,1.557,0,0,1-.059-1.14c.068-.239.42-.4.655-.587q2.775-2.183,5.556-4.359c.481-.375.87-.886.5-1.412a1.98,1.98,0,0,0-1.352-.754,2.629,2.629,0,0,0-1.483.617c-1.645,1.23-3.257,2.5-4.86,3.789-1.869,1.5-3.734,3-5.565,4.549a3.8,3.8,0,0,0-1.533,2.858c-.031,2.1-.009,4.191-.009,6.49M25.1,1.782,24.674,1.7c-.2.422-.442.83-.6,1.267C23.344,4.974,22.683,7.008,21.91,9a8.509,8.509,0,0,1-3.941,4.372,9.093,9.093,0,0,1-4.646,1.087,6.513,6.513,0,0,1-4.354-1.221C7.09,11.75,5.255,10.21,3.405,8.689a5.661,5.661,0,0,0-.773-.67.855.855,0,0,0-.674.037c-.077.036-.066.4,0,.569a1.648,1.648,0,0,0,.408.49c3.141,3.1,6.264,6.211,9.446,9.266a4.778,4.778,0,0,1,1.4,2.084c.353,1.17.722,2.334,1.128,3.643a16.339,16.339,0,0,1,7.12-4.816,13.618,13.618,0,0,1,.036-3.18c1.14-4.384,2.414-8.734,3.611-13.1A4.37,4.37,0,0,0,25.1,1.782M30.969,19.2a16.623,16.623,0,0,1,7.3,4.741c.445-1.372.806-2.645,1.281-3.873a4.321,4.321,0,0,1,1-1.44C43.7,15.5,46.894,12.4,50.054,9.273c.325-.321,1.034-.716.545-1.23-.509-.536-.874.2-1.232.494-1.924,1.561-3.794,3.189-5.755,4.7a7.757,7.757,0,0,1-6.994.99,7.677,7.677,0,0,1-5.462-4.295c-.912-2.252-1.732-4.542-2.588-6.817-.135-.358-.226-.736-.39-1.08-.057-.12-.311-.261-.408-.223a.687.687,0,0,0-.4.411,1.776,1.776,0,0,0,.087.752c1.06,3.916,2.076,7.844,3.218,11.735.426,1.45.926,2.836.291,4.489M26.379,47.049a20.388,20.388,0,0,0,4.3-14.3H21.991c-.136,5.228.941,10,4.387,14.3m6.1-14.522a25.178,25.178,0,0,1-1.316,9.929c1.461-1.011,2.805-2.109,4.2-3.138,1.474-1.087,3-2.1,4.49-3.168a1.023,1.023,0,0,0,.4-.577A11.631,11.631,0,0,0,39.927,31l-7.452,1.525m-20.1,3.208c1.032.663,1.808,1.1,2.518,1.631,1.335,1,2.63,2.048,3.945,3.073.885.691,1.775,1.375,2.772,2.147-.429-1.8-.922-3.39-1.168-5.02-.252-1.669-.261-3.373-.375-5.045l-7.413-1.479c-.1,1.662-.193,3.258-.279,4.693m8.084-4.995A29.048,29.048,0,0,1,24.5,20.6c-5.071.153-10.272,5.07-10.971,8.8l6.929,1.34m7.777-10.118a29.462,29.462,0,0,1,4.074,10.1l7.027-1.446c-1.681-4.71-6.889-8.76-11.1-8.652m-1.877.427a24.951,24.951,0,0,0-4.03,9.83,42.048,42.048,0,0,0,8.107-.071,25.436,25.436,0,0,0-4.076-9.759m2.871-2.424a3.866,3.866,0,0,0-.083-2.821c-.687-2.061-1.261-4.16-1.871-6.247-.3-1.033-.579-2.074-.868-3.111a3.632,3.632,0,0,0-.6,1.326c-.812,2.783-1.585,5.577-2.458,8.34a3.264,3.264,0,0,0,.047,2.513Zm10.978-8.4A2.449,2.449,0,0,0,37.7,7.733a2.492,2.492,0,0,0,.123,4.982,2.447,2.447,0,0,0,2.383-2.488m-22.862.023A2.453,2.453,0,0,0,14.892,7.7,2.489,2.489,0,0,0,14.9,12.68a2.44,2.44,0,0,0,2.442-2.43" transform="translate(0 0)" fill="#12263f"/>
  </g>
</svg>
