<svg xmlns="http://www.w3.org/2000/svg" xmlns:xlink="http://www.w3.org/1999/xlink" width="56.588" height="55.008" viewBox="0 0 56.588 55.008">
  <defs>
    <clipPath id="clip-path">
      <rect id="Rectángulo_402585" data-name="Rectángulo 402585" width="32.314" height="34.687" fill="#59836b"/>
    </clipPath>
  </defs>
  <g id="Grupo_1100547" data-name="Grupo 1100547" transform="translate(-1213.911 -4966.144)">
    <g id="Grupo_1098742" data-name="Grupo 1098742" transform="translate(1213.911 4966.144)">
      <g id="Rectángulo_400898" data-name="Rectángulo 400898" fill="#fff" stroke="#fff" stroke-width="3" opacity="0.859">
        <rect width="56.588" height="55.009" rx="27.504" stroke="none"/>
        <rect x="1.5" y="1.5" width="53.588" height="52.009" rx="26.004" fill="none"/>
      </g>
      <g id="Rectángulo_400907" data-name="Rectángulo 400907" transform="translate(0)" fill="none" stroke="#fff" stroke-width="3">
        <rect width="56.588" height="55.009" rx="27.504" stroke="none"/>
        <rect x="1.5" y="1.5" width="53.588" height="52.009" rx="26.004" fill="none"/>
      </g>
    </g>
    <g id="Grupo_1100473" data-name="Grupo 1100473" transform="translate(1226.058 4976.305)">
      <g id="Grupo_1100472" data-name="Grupo 1100472" clip-path="url(#clip-path)">
        <path id="Trazado_881848" data-name="Trazado 881848" d="M29.553,5.878l-.464.788c1.51,2.164,1.454,4.126-.138,5.529a3.685,3.685,0,0,1-4.939-.055c-1.546-1.429-1.587-3.436-.07-5.459l-.486-.82a4.654,4.654,0,0,0-.51,6.678c.119.136.32.247.354.4a1,1,0,0,1-.051.71c-.076.108-.464.1-.644,0A2.88,2.88,0,0,1,22,13.06l-.644.264c0,.871-.009,1.7.01,2.524a.507.507,0,0,0,.215.366,4.277,4.277,0,0,1,1.8,2.05c.09-.013.154-.017.215-.032.969-.246,1.378.052,1.39,1.034.01.858,0,1.716,0,2.574,0,.406,0,.813,0,1.219a1.53,1.53,0,0,0,.658,1.589c.955.634.964,3.478.017,4.138a1.611,1.611,0,0,0-.675,1.648c.006.18,0,.361,0,.542-.009.823-.149,1.031-.907,1.3-2.168.766-4.34,1.519-6.5,2.3a1.822,1.822,0,0,1-1.309-.012c-2.057-.74-4.126-1.448-6.181-2.194a1.741,1.741,0,0,0-1.291-.013c-1.968.722-3.951,1.4-5.93,2.094C1.85,34.8,1.4,34.486,1.4,33.423c-.005-1.219-.01-2.438,0-3.657,0-.323-.04-.575-.385-.7a.941.941,0,0,1-.276-.193c-1.1-.943-.952-3.707.265-4.481a.748.748,0,0,0,.4-.761c-.02-.609-.007-1.219-.005-1.828,0-.963.056-1.038.958-1.38.124-.047.246-.1.436-.178A8.2,8.2,0,0,1,2.8,19.114,3.627,3.627,0,0,1,4.513,16.4a.9.9,0,0,0,.5-.924C4.976,14.807,5,14.131,5,13.346c-.011-.005-.165-.081-.317-.16a2.147,2.147,0,0,1-1.256-1.941c-.021-.722-.021-1.445-.005-2.167a2.2,2.2,0,0,1,2.3-2.309c.2-.006.4,0,.455,0,.367-.38.655-.648.9-.949a.983.983,0,0,0,.171-.479A5.417,5.417,0,0,1,12.588.535a10.245,10.245,0,0,1,2.353.153A5.306,5.306,0,0,1,19.07,5.177a1.04,1.04,0,0,0,.459.839c.226.146.347.455.55.739h1.149c.53-.6,1.054-1.158,1.525-1.756a.957.957,0,0,0,.1-.656A3.763,3.763,0,0,1,25.832.069a3.66,3.66,0,0,1,4.254,2.786,4.009,4.009,0,0,1,.051,1.474.866.866,0,0,0,.316.861,5.556,5.556,0,0,1,1.666,5.618,5.611,5.611,0,0,1-4.1,4.2,5.433,5.433,0,0,1-2.812.056c-.358-.083-.74-.177-.7-.663.027-.364.359-.485.924-.369A4.73,4.73,0,0,0,31.17,10.3a4.479,4.479,0,0,0-1.617-4.425M23.9,19.241c-2.1.742-4.114,1.46-6.135,2.158-.323.112-.317.327-.317.581q0,1.862,0,3.725c0,.271,0,.542-.011.812-.018.32-.21.547-.517.478a.91.91,0,0,1-.472-.456,1.222,1.222,0,0,1-.028-.533c0-1.309-.02-2.619.01-3.928a.68.68,0,0,0-.553-.77c-1.708-.578-3.405-1.186-5.107-1.782-.247-.087-.5-.169-.757-.257a1.8,1.8,0,0,0-.051.266c0,3.747,0,7.494-.013,11.242,0,.372.164.5.478.61,1.832.634,3.657,1.286,5.486,1.928a4.324,4.324,0,0,0,.507.107c0-.3,0-.543,0-.788q0-1.795,0-3.589c0-.359.122-.659.513-.66s.517.293.515.656c0,1.016,0,2.032,0,3.047,0,.44,0,.88,0,1.406,2.125-.749,4.143-1.455,6.153-2.18a.531.531,0,0,0,.3-.366c.034-.533.014-1.069.014-1.584-1.329-.309-1.786-.876-1.795-2.151,0-.451-.014-.9.011-1.354a1.745,1.745,0,0,1,1.218-1.627c.18-.069.369-.114.549-.169ZM2.458,33.454c.27-.085.461-.139.649-.2,1.722-.6,3.438-1.225,5.17-1.8a.8.8,0,0,0,.624-.924c-.022-3.52-.012-7.039-.012-10.559v-.733c-2.112.746-4.129,1.451-6.137,2.18a.587.587,0,0,0-.31.428c-.032.74-.014,1.482-.014,2.205,1.435.416,1.832.95,1.834,2.4q0,.271,0,.541c0,1.457-.378,1.964-1.8,2.4ZM7.466,7.847H18.875V6.794H13.44c-.158,0-.316,0-.474,0-.353-.007-.652-.133-.661-.523s.276-.535.637-.541c.158,0,.316,0,.474,0h4.666a4.658,4.658,0,0,0-.875-2.41C15.54.893,10.668.888,9.05,3.462a3.808,3.808,0,0,0-.719,2.263c.578,0,1.116-.005,1.653,0,.4.005.868-.085.947.5.054.393-.249.566-.949.568-.828,0-1.655,0-2.516,0ZM11,15.673c-.606-.423-1.089-.782-1.6-1.1a.689.689,0,0,0-.53-.07,2.107,2.107,0,0,0-.686,3.458.774.774,0,0,0,.646.168,1.9,1.9,0,0,1,1.38.079q3.089,1.1,6.185,2.175a7.694,7.694,0,0,0,.843.191v-.9c-.79-.015-1.059-.132-1.057-.493,0-.647.534-.535.935-.615a2.112,2.112,0,0,0,1.669-1.82,2.073,2.073,0,0,0-1.213-2.206.754.754,0,0,0-.6.022c-.53.323-1.027.7-1.591,1.1-.28,1.45-1.046,2.187-2.3,2.143A2.172,2.172,0,0,1,11,15.673M9.684,8.994c0,1.215-.013,2.361,0,3.506a1.936,1.936,0,0,0,2,2.009c.969.021,1.938.016,2.907,0a1.983,1.983,0,0,0,2.1-2.074c.024-.878.006-1.758.006-2.637,0-.262,0-.523,0-.806ZM26.506,9c.86-1.48,1.669-2.782,2.386-4.133a2.626,2.626,0,0,0-.733-3.234,2.684,2.684,0,0,0-3.21-.065,2.585,2.585,0,0,0-.872,3.139c.713,1.421,1.562,2.775,2.43,4.293m1.972-1.294c-.383.65-.729,1.255-1.092,1.851-.53.87-1.223.861-1.758-.02-.361-.6-.712-1.2-1.073-1.807a2.527,2.527,0,0,0,.034,3.508,2.642,2.642,0,0,0,3.67.175,2.6,2.6,0,0,0,.219-3.708M6.292,7.822c-1.055-.062-1.657.147-1.731.805a11.559,11.559,0,0,0,.013,2.945c.114.77.942.944,1.535.445.2-.171.415-.33.641-.51a2.487,2.487,0,0,1,.074-2.662L6.292,7.822M25.227,26.676h-.006a6.632,6.632,0,0,0,0-.675c-.062-.609-.388-.855-1.077-.838-.642.016-.945.264-.982.866a11.071,11.071,0,0,0,0,1.418.818.818,0,0,0,.873.838c.816.071,1.169-.244,1.192-1.069.005-.18,0-.36,0-.54m-22.034.09h0c0-.27.019-.542,0-.81-.047-.558-.377-.8-1.039-.792-.626.008-.95.243-.982.777-.03.516-.017,1.035,0,1.552a.758.758,0,0,0,.7.774c.886.17,1.323-.188,1.332-1.1,0-.135,0-.27,0-.405m2.866-10.68c.772-.361.638-1.189,1.112-1.576.5-.407.995-.815,1.535-1.259L8.576,12.6a1.435,1.435,0,0,0-2,.455,3,3,0,0,0-.5,1.227,12.464,12.464,0,0,0-.02,1.807M17.651,13.4a3.377,3.377,0,0,1,2.136,2.327c.032.122.221.2.336.3l.163-.076c0-.532.022-1.066,0-1.6a1.784,1.784,0,0,0-2.532-1.746l-.1.791m3.727-1.3A6.307,6.307,0,0,1,20.9,7.818h-.812l-.571,1.026a2.464,2.464,0,0,1,.065,2.744c.644.131.906,1.2,1.8.516M20.287,17.1c-.43-.157-.457.1-.583.325a6.07,6.07,0,0,1-.97,1.431,1.013,1.013,0,0,0-.318,1.2c.53-.184,1.045-.344,1.543-.547a.55.55,0,0,0,.314-.363c.031-.691.015-1.385.015-2.049m-2.509-8.07V11.39a1.107,1.107,0,0,0,1.13-1.112c.027-.678-.358-1.115-1.13-1.252M8.578,9c-.81.224-1.2.71-1.133,1.342a1.137,1.137,0,0,0,1.133,1.05Zm3.551,6.613c.033.738.414,1.138,1.049,1.138s1.015-.4,1.074-1.138ZM3.9,19.938c.408-.224.969-.353,1.028-.6a8.888,8.888,0,0,0,.046-1.957A2.527,2.527,0,0,0,3.9,19.938m2.174-2.87V19.1l1.22-.424c-.2-.359-.366-.675-.558-.973-.161-.25-.018-.8-.663-.636m16.389,1.558-.959-1.241-.133.088v1.54l1.091-.387" transform="translate(0 0)" fill="#59836b"/>
        <path id="Trazado_881849" data-name="Trazado 881849" d="M86.661,86.423a1.663,1.663,0,0,1-1.684-1.441c-.045-.354.034-.654.42-.723.348-.062.512.163.609.487.161.54.485.761.851.556a1.113,1.113,0,0,0,.4-.566c.117-.306.265-.549.622-.476.386.079.458.384.417.732a1.685,1.685,0,0,1-1.63,1.431" transform="translate(-73.452 -72.831)" fill="#59836b"/>
        <path id="Trazado_881850" data-name="Trazado 881850" d="M103.578,70.708c.028-.35.159-.622.561-.608.361.013.5.271.5.595.006.35-.12.636-.52.642s-.52-.28-.542-.629" transform="translate(-89.543 -60.601)" fill="#59836b"/>
        <path id="Trazado_881851" data-name="Trazado 881851" d="M84.271,70.729c-.007.359-.146.623-.546.6s-.481-.33-.473-.671.153-.573.511-.567c.4.007.514.286.508.64" transform="translate(-71.97 -60.592)" fill="#59836b"/>
        <path id="Trazado_881852" data-name="Trazado 881852" d="M184.59,17.693a1.738,1.738,0,0,1-1.7-1.749,1.732,1.732,0,1,1,1.7,1.749m.688-1.7a.667.667,0,0,0-1.332-.065.691.691,0,0,0,.637.724.677.677,0,0,0,.7-.659" transform="translate(-158.105 -12.311)" fill="#59836b"/>
      </g>
    </g>
  </g>
</svg>
