<svg id="Grupo_1100485" data-name="Grupo 1100485" xmlns="http://www.w3.org/2000/svg" xmlns:xlink="http://www.w3.org/1999/xlink" width="57.928" height="58.022" viewBox="0 0 57.928 58.022">
  <defs>
    <clipPath id="clip-path">
      <rect id="Rectángulo_402591" data-name="Rectángulo 402591" width="57.928" height="58.022" fill="#12263f"/>
    </clipPath>
  </defs>
  <g id="Grupo_1100484" data-name="Grupo 1100484" clip-path="url(#clip-path)">
    <path id="Trazado_881892" data-name="Trazado 881892" d="M11.058,36.535a12.5,12.5,0,0,1-9.372-6A11.44,11.44,0,0,1,.054,23.386H7.506a17.826,17.826,0,0,1-4.342-8.505c-.268-1.438-.33-2.914-.5-4.5,5.82-.234,11.449-.565,16.755,3.115.091-1.537.16-2.7.232-3.908a4.366,4.366,0,0,0-.616-.136c-2.38-.138-3.5-1.515-3.126-3.866a6.558,6.558,0,0,1,6.4-5.543,42.837,42.837,0,0,1,6.977.2,12.762,12.762,0,0,1,10.916,12.5c.005.115.033.229.017.124A68.99,68.99,0,0,1,47.531,11.3a70.189,70.189,0,0,1,7.571-.059,17.97,17.97,0,0,1-4.6,13.012h7.377a11.721,11.721,0,0,1-2.611,8.618,12.383,12.383,0,0,1-7.885,4.509c.13.456.217.818.336,1.17a21.155,21.155,0,0,1,.617,10.478A10.987,10.987,0,0,1,37.57,57.949c-1.615.005-3.23-.233-4.846-.34-.3-.02-.6.083-.907.086-1.852.017-3.7.016-5.557.033a15.166,15.166,0,0,0-1.69.083c-4.7.574-9.111.177-12.481-3.7a11.055,11.055,0,0,1-2.77-7.241c-.074-3.516-.014-7,1.739-10.335m23.9-1.979c-6.129-3.947-14.367-.58-16.453,4.67,1.033,0,2.039-.025,3.042.006a2.822,2.822,0,0,1,2.686,2.033c.517,1.689.517,1.689,2.341,1.689.349,0,.7,0,1.049,0,2,.017,3.247,1.119,3.239,2.857s-1.258,2.816-3.27,2.827c-1.283.007-2.567,0-3.938,0a6.967,6.967,0,0,0,3.011,2.228,2.206,2.206,0,0,1,1.378,2.361,23.33,23.33,0,0,1-.484,2.629h2.968c-.583-1.353-1.212-2.749-.331-3.8a19.28,19.28,0,0,1,3.725-2.989,3.5,3.5,0,0,1,1.515-.493,3.365,3.365,0,0,1,3.85,2.19,9.151,9.151,0,0,0,1.656-6.792c-1.88,0-3.664.021-5.446-.007a2.807,2.807,0,0,1-2.723-1.98c-.57-1.742-.57-1.742-2.42-1.742-.388,0-.777,0-1.165,0a2.85,2.85,0,1,1,.033-5.681c1.824-.015,3.649,0,5.738,0M32.741,22.445a6.17,6.17,0,0,0,.565-.261A11.022,11.022,0,0,0,38,10.722a10.812,10.812,0,0,0-8.731-8.48,45.145,45.145,0,0,0-7.2-.208,4.415,4.415,0,0,0-4.134,3.653c-.309,1.37.017,1.8,1.413,1.8,2.875.009,5.749-.014,8.624.01a4.694,4.694,0,0,1,4.773,4.334,1.724,1.724,0,0,0,.445.973,3.744,3.744,0,0,1,.191,5.743,2.974,2.974,0,0,0-.614,1.51,18.007,18.007,0,0,0-.026,2.384M35.253,27.4a18.143,18.143,0,0,1,2.259.719,1.2,1.2,0,0,0,1.6-.32,11.812,11.812,0,0,1,7.784-3.51,1.675,1.675,0,0,0,.946-.316,15.447,15.447,0,0,0,5.27-10.792c-1.672,0-3.256-.032-4.839.007a14.95,14.95,0,0,0-7.433,2.061,2.669,2.669,0,0,0-1.1,1.355,13.306,13.306,0,0,1-5.754,7.508c-1.435.905-1.525,1.166-1.055,2.935,4.953-5.8,11.331-9.527,18.016-12.964.226.441.362.674.466.921.116.273.2.557.315.868-5.948,3.175-11.75,6.439-16.482,11.53m-13.5-4.777a1.9,1.9,0,0,0,2.7,1.48c1.38-.488,2.734-1.05,4.181-1.61l.675,1.693c-.843.755-2.434.516-2.247,2.389.147,1.474,1.139,1.962,1.838,2.782a3.613,3.613,0,0,0,1.918-3.745c-.149-1.7.033-3.42-.054-5.125a3.88,3.88,0,0,1,1.282-3.5,1.566,1.566,0,0,0-.332-2.716,1.642,1.642,0,0,1-.95-1.745,2.774,2.774,0,0,0-3.011-3.074c-1.593-.022-3.187.025-4.779-.015-1.057-.027-1.53.435-1.43,1.468a6.253,6.253,0,0,1-1.405,4.67,10.517,10.517,0,0,0-.684,1.25h7.569c.428,3.447-1.157,5.139-5.27,5.8M4.814,12.323A15.726,15.726,0,0,0,9.352,22.4a2.8,2.8,0,0,0,2.338.981,10.333,10.333,0,0,1,7.962,2.67,4.36,4.36,0,0,0,4.734,1.141c.77-.211.951-.423.671-1.107-2.143.379-3.549-.114-4.658-1.461a10.456,10.456,0,0,0-2.186-2.206c-3.608-2.35-7.281-4.6-10.934-6.879-.353-.22-.728-.406-1.156-.642l.931-1.94,12.491,7.621c.1-.915.238-1.811-.951-2.431-.455-.238-.7-1.075-.828-1.683a4.768,4.768,0,0,1,.189-1.554c-4.013-2.7-8.464-2.889-13.142-2.585m-2.677,13.2c.086,4.557,5.055,9.287,9.556,9a1.245,1.245,0,0,0,.76-.4c.563-.63,1.074-1.307,1.816-2.228L4.757,27.684V26.022a18.386,18.386,0,0,1,2.917.761c2.438,1.089,4.822,2.3,7.236,3.443.326.154.808.392,1.039.265,1.164-.639,2.269-1.385,3.451-2.129a8.245,8.245,0,0,0-5.332-2.787c-3.941-.181-7.9-.053-11.931-.053m38.2,3.842a11.864,11.864,0,0,1,1.495,1.089c.724.727,1.336.629,2.224.176,2.241-1.141,4.555-2.143,6.873-3.124a12.152,12.152,0,0,1,2.283-.48v1.937A28.33,28.33,0,0,0,44.4,32.716a21.056,21.056,0,0,0,1.54,2.086,1.634,1.634,0,0,0,1.2.513,9.9,9.9,0,0,0,8.278-6.782,15.8,15.8,0,0,0,.49-2.259c-3.156,0-6.109-.1-9.052.031a9.432,9.432,0,0,0-6.515,3.058M14.851,43.821c1.137-7.241,5.271-11.617,12.571-13.2-.781-.622-1.624-1.468-2.429-1.434a13.654,13.654,0,0,0-8.641,3.6,14.816,14.816,0,0,0-5.07,11.036Zm15.707-13c7.3,1.41,11.409,5.818,12.516,12.975h3.52c.206-6.968-5.646-13.615-12.567-14.581a3.124,3.124,0,0,0-3.469,1.606M23.483,52.374l.133-.319c-.37-.507-.637-1.254-1.133-1.467-.877-.377-1.608.1-2.094.961-.432.77-.971,1.48-1.655,2.5a30.568,30.568,0,0,1-2.687-3.837,28.662,28.662,0,0,1-1.381-4.291H11.351a8.979,8.979,0,0,0,6.213,9.51,20.322,20.322,0,0,0,6.206.459,3.3,3.3,0,0,0,2.061-1.6c.721-1.172.182-1.891-1.2-1.916-.383-.007-.766,0-1.149,0m19.565-6.487a10.848,10.848,0,0,1-4.005,7.932A30.681,30.681,0,0,0,37.3,51.279a2.334,2.334,0,0,0-1.312-.743c-1.356-.223-1.4.847-1.449,1.839-.564,0-1.026-.018-1.486,0-1.083.05-1.426.56-1.113,1.619a2.442,2.442,0,0,0,2.111,1.927c2.555.224,5.123.3,7.514-.928,3.424-1.762,5.646-5.847,4.914-9.109Zm-26.323.8c3.954,0,7.487.028,11.018-.039.388-.007.766-.555,1.149-.853-.385-.294-.737-.76-1.164-.845a12.184,12.184,0,0,0-2.206-.042,2.792,2.792,0,0,1-3.113-2.621c-.12-.749-.462-1.113-1.214-1.109-1.01,0-2.022-.041-3.028.026-.293.02-.775.316-.812.543-.256,1.582-.418,3.18-.631,4.94m23.921-4.674a11.38,11.38,0,0,0-2.735-5.2,1.061,1.061,0,0,0-.711-.285c-2.682-.019-5.366-.043-8.047.028-.357.01-.7.542-1.051.833.341.3.65.792,1.031.858a16.328,16.328,0,0,0,2.442.049,2.9,2.9,0,0,1,3.056,2.6c.1.422.587,1.046.931,1.069,1.649.112,3.31.05,5.083.05M21.632,18.83V20.5c1.858.109,2.756-.386,3.13-1.674ZM18.51,50.637l1.7-1.925H17.457l1.052,1.925" transform="translate(0 0)" fill="#12263f"/>
    <path id="Trazado_881893" data-name="Trazado 881893" d="M100.058,48.126c.9-.05,1.733-.372,2.326.6a1.1,1.1,0,0,0,.986,0c.544-.935,1.365-.653,2.221-.647a2.142,2.142,0,0,1-.992,2.261,2.628,2.628,0,0,1-2.947.311,2.71,2.71,0,0,1-1.594-2.53" transform="translate(-76.714 -36.829)" fill="#12263f"/>
  </g>
</svg>
