<svg xmlns="http://www.w3.org/2000/svg" xmlns:xlink="http://www.w3.org/1999/xlink" width="89" height="89" viewBox="0 0 89 89">
  <defs>
    <clipPath id="clip-path">
      <rect id="Rectángulo_402597" data-name="Rectángulo 402597" width="55.459" height="56.787" fill="#59836b"/>
    </clipPath>
  </defs>
  <g id="Grupo_1100547" data-name="Grupo 1100547" transform="translate(-1177 -10144.15)">
    <g id="Grupo_1098742" data-name="Grupo 1098742" transform="translate(-26.32 9755.408)">
      <g id="Rectángulo_400898" data-name="Rectángulo 400898" transform="translate(1203.32 388.742)" fill="#fff" stroke="#fff" stroke-width="3" opacity="0.859">
        <rect width="89" height="89" rx="44.5" stroke="none"/>
        <rect x="1.5" y="1.5" width="86" height="86" rx="43" fill="none"/>
      </g>
      <g id="Rectángulo_400907" data-name="Rectángulo 400907" transform="translate(1203.32 388.742)" fill="none" stroke="#fff" stroke-width="3">
        <rect width="89" height="89" rx="44.5" stroke="none"/>
        <rect x="1.5" y="1.5" width="86" height="86" rx="43" fill="none"/>
      </g>
    </g>
    <g id="Grupo_1100491" data-name="Grupo 1100491" transform="translate(1193.271 10160.256)">
      <g id="Grupo_1100490" data-name="Grupo 1100490" clip-path="url(#clip-path)">
        <path id="Trazado_881905" data-name="Trazado 881905" d="M3.673,55.763V54.249q0-7.959,0-15.919c0-.283-.008-.567,0-.851.043-1.146.319-1.447,1.449-1.464,1.538-.023,3.077-.007,4.616-.007h5.352c.037-.68.08-1.265.1-1.85.044-1.457.279-1.71,1.708-1.714,2.794-.008,5.588,0,8.381,0h1.438c0-.958-.01-1.8,0-2.637.019-1.243.263-1.5,1.505-1.5,3.037-.012,6.073,0,9.11-.008.234,0,.468-.031.845-.058V26.756q0-8.142,0-16.283c0-.324-.018-.65.011-.972.074-.84.375-1.164,1.214-1.2.93-.041,1.862-.015,2.793-.015,2.591,0,5.183-.005,7.774,0,1.595,0,1.809.221,1.81,1.843q0,21.933,0,43.867v1.766c.817,0,1.568-.018,2.318,0,.99.03,1.318.332,1.336,1.314q.044,2.308,0,4.617c-.018.952-.369,1.27-1.348,1.341-.322.024-.648.009-.972.009H2.344c-.243,0-.486.006-.729,0-1.27-.04-1.59-.344-1.6-1.584-.015-1.417-.019-2.835,0-4.253.017-1.137.315-1.42,1.455-1.445.68-.015,1.361,0,2.2,0m36.692-45.37V55.656h9.212c.286-2.07.168-44.351-.128-45.263ZM38.092,30.387H28.8V55.7h9.288ZM17.35,55.7h9.3V34.551h-9.3Zm-11.51-.031h9.207V38.113H5.841Zm47.5,2.2H2.126v2.994h51.21Z" transform="translate(0 -6.267)" fill="#59836b"/>
        <path id="Trazado_881906" data-name="Trazado 881906" d="M84.681,27.851C80.2,23.9,83.508,17.513,87.421,16.439c1.011-.277,2.013-.589,3.024-.864A5.869,5.869,0,0,0,94.181,12.7a3.6,3.6,0,0,1,.379-.618,1,1,0,0,1,1.792.388,1.33,1.33,0,0,1,.054.359,28.222,28.222,0,0,1-1.4,11.226A11.148,11.148,0,0,1,94.029,26a5.875,5.875,0,0,1-6.518,2.88,1.547,1.547,0,0,0-1.3.33c-1.3.874-2.653,1.678-3.992,2.5a4.025,4.025,0,0,1-.67.278.95.95,0,0,1-1.308-.527.931.931,0,0,1,.508-1.311c.813-.446,1.665-.824,2.473-1.278.488-.275.925-.64,1.462-1.019m9.711-11.8c-1.291.55-2.525,1.115-3.79,1.6-.712.273-1.478.4-2.212.62a5.3,5.3,0,0,0-3.805,4.435,3.121,3.121,0,0,0,1.662,3.48A9.362,9.362,0,0,0,88.3,22.031c.2-.822.634-1.176,1.2-1.064a1.119,1.119,0,0,1,.777,1.528,23.669,23.669,0,0,1-.948,2.738,18.475,18.475,0,0,1-.91,1.716,4.162,4.162,0,0,0,4.241-2.636C94,21.7,94.233,18.857,94.392,16.055" transform="translate(-60.661 -8.837)" fill="#59836b"/>
        <path id="Trazado_881907" data-name="Trazado 881907" d="M24.81,21.368c1.365-.9,2.7-1.725,3.968-2.648a1.7,1.7,0,0,0,.478-1.139c.141-1.816.159-3.642.334-5.453A18.17,18.17,0,0,1,30.252,8.7c.578-1.935,1.274-3.836,1.934-5.746.456-1.318.8-1.477,2.058-.95,1.374.577,2.738,1.175,4.128,1.773.925-.994,1.8-1.943,2.687-2.887a5.127,5.127,0,0,1,.7-.673.809.809,0,0,1,1.2.1,1.564,1.564,0,0,1,.19,1.194,3.32,3.32,0,0,1-.828,1.027q-1.27,1.39-2.556,2.765c-.817.87-.973.9-2.11.411-1.188-.509-2.373-1.028-3.679-1.6-.5,1.449-.935,2.874-1.486,4.251A14.8,14.8,0,0,0,31.57,13.1c-.1,1.778-.225,3.556-.283,5.336a2,2,0,0,1-1,1.8c-1.61,1.012-3.177,2.091-4.776,3.121-.942.607-1.215.553-1.961-.282-.348-.389-.68-.791-1.138-1.325-.7,1.5-1.332,2.867-1.973,4.235a5.205,5.205,0,0,1-.5.962.88.88,0,0,1-1.18.3.964.964,0,0,1-.564-1.2,2.741,2.741,0,0,1,.177-.452c.892-1.949,1.769-3.9,2.686-5.843.55-1.163,1.269-1.249,2.131-.289.538.6,1.049,1.22,1.628,1.9" transform="translate(-13.738 0)" fill="#59836b"/>
      </g>
    </g>
  </g>
</svg>
