<svg id="Grupo_1100534" data-name="Grupo 1100534" xmlns="http://www.w3.org/2000/svg" xmlns:xlink="http://www.w3.org/1999/xlink" width="88.395" height="82.556" viewBox="0 0 88.395 82.556">
  <defs>
    <clipPath id="clip-path">
      <rect id="Rectángulo_402679" data-name="Rectángulo 402679" width="88.395" height="82.556" fill="#4d812e"/>
    </clipPath>
  </defs>
  <g id="Grupo_1100533" data-name="Grupo 1100533" clip-path="url(#clip-path)">
    <path id="Trazado_882361" data-name="Trazado 882361" d="M84,36.61c.194.105.247.16.3.158,4.273-.182,4.342.027,3.932,4.768C86.432,62.384,71.584,78.418,50.9,81.971,27.925,85.918,4.664,69.417.75,46.353a63.321,63.321,0,0,1-.725-6.941c-.132-2.287.224-2.575,2.463-2.6.6-.006,1.2,0,1.8,0a19.793,19.793,0,0,1,.35-2.7c.6-2.16,2.239-3.27,4.957-3.17a2.064,2.064,0,0,0,2.457-1.72c.675-2.147,1.667-4.195,2.593-6.451-.513-.539-1.163-1.177-1.763-1.86a4.282,4.282,0,0,1-.024-5.994q3.154-3.346,6.506-6.5a4.265,4.265,0,0,1,5.989.043,15.735,15.735,0,0,1,1.542,1.83c2.771-1.083,5.227-1.983,7.617-3.035A2.026,2.026,0,0,0,35.3,5.717C35.468,1.3,36.788,0,41.276,0c2.147,0,4.294,0,6.441,0,3.646.01,5.266,1.623,5.294,5.262,0,.547,0,1.095,0,1.594l8.121,3.358c.355-.339.873-.833,1.389-1.328,2.355-2.262,4.715-2.24,7.079.092q2.686,2.649,5.335,5.335c2.391,2.427,2.366,4.731-.044,7.208-.423.435-.834.88-1.162,1.227.987,2.5,1.876,4.9,2.91,7.237a1.991,1.991,0,0,0,1.476.885c4.446.229,5.571,1.283,5.888,5.737M18.255,70.367c5.028-4.414,10.458-4.546,16.312-1.932a14.164,14.164,0,0,0,11.282.181c2.407-.945,4.969-1.409,7.355-.35a60.052,60.052,0,0,1,8.818,4.759c2.21,1.465,2.049,1.709,4.162-.166-2.023-3.714-1.929-7.9-2.485-11.946a6.662,6.662,0,0,0-4.034-5.684C56.028,53.6,52.751,51.5,50.691,47.72c-3.726,3.9-8.257,4.8-13.377,4.007a13.506,13.506,0,0,1-.566,2.831c-.245.562-.943.926-1.438,1.378-.479-.531-1.351-1.057-1.358-1.594a18.751,18.751,0,0,1,.638-3.589,4.221,4.221,0,0,0,.19-1.571c-.675-3.07-1.423-6.125-2.2-9.413H25.337c1.378,1.534,2.641,2.711,3.633,4.084,3.417,4.729,2.684,9.409-2.313,12.392a51.673,51.673,0,0,1-9.275,3.842c-2.013.716-2.6.109-2.678-2.091-.11-3.248-.155-6.5-.416-9.738a45.9,45.9,0,0,0-1.1-6.69c-.159-.68-.972-1.679-1.536-1.713-2.853-.175-5.723-.081-8.718-.081A41.8,41.8,0,0,0,18.255,70.367M7.455,36.7H19.237c2.514-14.943,14.32-21.695,24.052-21.963A24.493,24.493,0,0,1,58.956,19.6,25.069,25.069,0,0,1,69.038,36.722H80.82c.25-2.461-.065-2.835-2.331-2.855a10.89,10.89,0,0,0-1.47.009c-1.769.226-2.665-.468-3.091-2.269a28.28,28.28,0,0,0-1.97-5.322c-1.807-3.885-1.877-3.884.99-6.986a1.751,1.751,0,0,0-.029-2.839c-1.189-1.151-2.336-2.346-3.513-3.508-3.38-3.337-3.034-3.936-6.588-.147a2.107,2.107,0,0,1-2.926.389,46.741,46.741,0,0,0-5.653-2.614c-3.92-1.453-3.974-1.39-4.168-5.691C50.006,3.472,49.35,2.924,48,2.952c-1.716.034-3.433.008-5.149.007-4.691,0-4.677-.444-4.534,4.395a2.282,2.282,0,0,1-2,2.569,40.258,40.258,0,0,0-5.511,1.995c-3.946,1.8-3.938,1.876-7.136-1a1.7,1.7,0,0,0-2.705.009c-1.251,1.263-2.517,2.511-3.77,3.772-3.133,3.149-3.7,2.913-.036,6.323,1.033.961,1.027,1.826.428,3.077a73.274,73.274,0,0,0-3.228,7.768c-.5,1.46-1.177,2.2-2.743,2.013a13.57,13.57,0,0,0-1.654-.01c-2.344.014-2.613.3-2.507,2.833m77.96,3.069H83.178c-7.663,0-15.333.181-22.988-.083-3.4-.117-5.944.256-6.736,4.047-.024.116-.155.219-.155.328a5.6,5.6,0,0,0,.085,2.3,10.772,10.772,0,0,0,5.88,5.313c5.388,2.036,7.553,6.057,7.721,11.525a23.163,23.163,0,0,0,.43,3.833c.279,1.391.741,2.746,1.215,4.445C79.1,63.227,84.547,52.88,85.415,39.77M22.534,36.808c3.668,0,7.34.017,11.012-.027a1.47,1.47,0,0,0,1-.616,9.049,9.049,0,0,1,6.312-3.727,29.215,29.215,0,0,0,13.323-6.28,8.969,8.969,0,0,1,2.361-.966,7.563,7.563,0,0,1,.812,2.592c-.222,2.973-.667,5.929-1.033,8.943h9.517C65.462,29.01,57.7,17.6,43.881,17.691c-10.792.071-21.436,9.547-21.347,19.117M60.78,76.066c-3.577-4.3-9.553-6.2-14.354-4.506a18.349,18.349,0,0,1-12.936-.317,29.576,29.576,0,0,0-4.525-1.488c-3.045-.6-5.7.353-8.289,2.457,12.892,8.2,26.062,9.473,40.1,3.854M54.242,29.892a33.232,33.232,0,0,1-12.663,5.441c-5.122.952-7.233,6.032-4.44,10.591.891-.832,1.771-1.676,2.676-2.491.8-.723,1.7-1.162,2.535-.12.771.959.149,1.66-.58,2.347-.991.932-1.913,1.937-3.012,3.062,4.332.776,7.711-.443,10.287-3.668,3.425-4.287,4.5-9.409,5.2-15.16M16.317,39.776c.549,5.784,1.082,11.4,1.67,17.595,2.86-1.518,5.651-2.757,8.168-4.412,2.024-1.332,2.647-3.328,1.379-5.31a34.313,34.313,0,0,0-6.344-7.468c-1.011-.871-3.266-.3-4.955-.377-.058,0-.117.033.083-.027" transform="translate(0 0)" fill="#4d812e"/>
  </g>
</svg>
