<svg id="Grupo_1100475" data-name="Grupo 1100475" xmlns="http://www.w3.org/2000/svg" xmlns:xlink="http://www.w3.org/1999/xlink" width="57.739" height="58.022" viewBox="0 0 57.739 58.022">
  <defs>
    <clipPath id="clip-path">
      <rect id="Rectángulo_402586" data-name="Rectángulo 402586" width="57.739" height="58.022" fill="#12263f"/>
    </clipPath>
  </defs>
  <g id="Grupo_1100474" data-name="Grupo 1100474" clip-path="url(#clip-path)">
    <path id="Trazado_881853" data-name="Trazado 881853" d="M13.579,161.155c1.331-.388,2.532-.71,3.714-1.089a8.032,8.032,0,0,1,6.655.669c3.345,1.859,6.749,3.609,10.1,5.46a2.639,2.639,0,0,0,2.1.239c5.436-1.407,10.872-2.813,16.321-4.165a5.474,5.474,0,0,1,2.406-.09,3.734,3.734,0,0,1,2.858,3.583,3.889,3.889,0,0,1-2.473,3.765q-8.783,3.576-17.581,7.115c-1.628.658-3.261,1.3-4.887,1.968a7.408,7.408,0,0,1-6.435-.326c-2.3-1.156-4.664-2.187-7-3.284a10.673,10.673,0,0,0-5.769-.612c-.063.361-.1.664-.171.96a3.051,3.051,0,0,1-3.092,2.512q-3.574.032-7.149,0A2.964,2.964,0,0,1,.031,174.8q-.067-6.624,0-13.25A3.08,3.08,0,0,1,3.1,158.347c2.419-.092,4.845-.074,7.265-.007,1.7.047,2.662,1.137,3.213,2.814M13.543,172.3a6.273,6.273,0,0,0,.842,0,9.894,9.894,0,0,1,5.6.8c2.433,1.063,4.846,2.177,7.218,3.368a5.731,5.731,0,0,0,4.965.233q11.023-4.451,22.042-8.914A1.932,1.932,0,0,0,55.56,165.2a2.026,2.026,0,0,0-2.534-1.038c-3.642,1.023-7.323,1.9-10.99,2.842l-5.091,1.3a4.8,4.8,0,0,0,.072.7,3.614,3.614,0,0,1-1.164,4.022,3.845,3.845,0,0,1-4.389.539c-2.075-1-4.094-2.117-6.12-3.215-.729-.4-.948-1.016-.6-1.529.421-.617.976-.529,1.55-.224q1.346.715,2.7,1.42c1.073.562,2.125,1.169,3.226,1.668,1.57.711,3.149-.245,2.953-1.739a2.08,2.08,0,0,0-1.27-1.569c-3.824-2.043-7.628-4.127-11.482-6.112a4.476,4.476,0,0,0-2.569-.559c-2.132.357-4.22.977-6.307,1.489ZM2.016,168.083q0,2.933,0,5.865c0,1.706.207,1.919,1.855,1.922q2.873.006,5.745,0c1.577,0,1.857-.276,1.862-1.821.006-2.072,0-4.144,0-6.217q0-3.036-.005-6.073c0-.92-.373-1.328-1.377-1.341q-3.282-.043-6.566,0c-1.211.012-1.5.322-1.51,1.57-.017,2.033,0,4.066-.005,6.1" transform="translate(0 -121.174)" fill="#12263f"/>
    <path id="Trazado_881854" data-name="Trazado 881854" d="M99.3,104.361c.225-.507.375-.86.537-1.208a11.766,11.766,0,0,1,10.192-7.168c.5-.048,1-.153,1.508-.191.917-.068,1.321.216,1.493,1.107,1.509,7.81-3.654,13.932-10.026,14.725-.232.029-.459.1-.69.133-1.559.258-2,.762-2.077,2.36-.007.156,0,.313,0,.469-.037.9-.411,1.41-1.048,1.433-.679.024-1.042-.545-1.086-1.518a14.405,14.405,0,0,0-.286-1.934c-.2-1.073-.908-1.4-1.935-1.449a12.141,12.141,0,0,1-7.127-2.651,12.784,12.784,0,0,1-5.1-11.807c.068-.738.136-1.475.231-2.21a1,1,0,0,1,1.131-.951c3.226.206,6.352.736,9.037,2.76a13.49,13.49,0,0,1,4.973,7.188c.073.253.153.5.277.912m-1.891,3.14A11.146,11.146,0,0,0,85.842,95.777c-1.451,6.4,4.119,13.827,10.041,13.158-.751-.942-1.435-1.832-2.156-2.691-.476-.568-1.006-1.092-1.51-1.636-.456-.492-.619-1.047-.089-1.547s1.078-.294,1.547.173c.276.276.559.548.814.843.935,1.084,1.859,2.177,2.922,3.424m3.57.433c.36-.422.573-.687.8-.938.789-.863,1.56-1.745,2.384-2.573a.924.924,0,0,1,1.448.015.96.96,0,0,1-.05,1.375c-.226.267-.494.5-.724.764-.809.931-1.61,1.87-2.485,2.889,5.064.6,10.266-6.5,8.577-11.408-5.146-.484-10.275,4.472-9.952,9.875" transform="translate(-63.989 -71.576)" fill="#12263f"/>
    <path id="Trazado_881855" data-name="Trazado 881855" d="M187.052,56.6a28.183,28.183,0,0,1-3.492-.233,4.262,4.262,0,0,1-3.512-4.781,4.329,4.329,0,0,1,4.456-3.807,2.26,2.26,0,0,0,1.7-.536,5.325,5.325,0,1,1,3.665,9.274c-.934.054-1.873.009-2.81.009l0,.075m.412-7.7c.285.45.56.83.777,1.241.54,1.022.458,1.761-.255,2.024-.942.348-1.183-.376-1.5-1.033a2.293,2.293,0,0,0-2.727-1.278,2.38,2.38,0,0,0-1.719,2.492,2.185,2.185,0,0,0,2.172,2.053c1.952.061,3.91.069,5.861,0A3.02,3.02,0,0,0,193,51.837a3.266,3.266,0,0,0-1.622-3.574,3.193,3.193,0,0,0-3.918.643" transform="translate(-137.814 -35.092)" fill="#12263f"/>
    <path id="Trazado_881856" data-name="Trazado 881856" d="M116.3,16.534c-.9,0-1.8.034-2.693-.007A4.484,4.484,0,0,1,109.19,12a4.386,4.386,0,0,1,4.688-4.211,2.1,2.1,0,0,0,1.565-.574,5.289,5.289,0,0,1,6.4-.537,5.348,5.348,0,0,1-2.733,9.846c-.934.051-1.873.008-2.81.008v0m.412-7.7c.348.736.747,1.444,1.016,2.2a.82.82,0,0,1-.652,1.159c-.362.038-.779-.31-1.146-.528-.11-.065-.131-.275-.2-.414a2.37,2.37,0,0,0-2.657-1.422,2.444,2.444,0,0,0-1.861,2.285,2.2,2.2,0,0,0,2.058,2.3,47.813,47.813,0,0,0,6.3-.045,3.012,3.012,0,0,0,2.694-2.687,3.353,3.353,0,0,0-1.728-3.435,3.164,3.164,0,0,0-3.821.586" transform="translate(-83.587 -4.47)" fill="#12263f"/>
    <path id="Trazado_881857" data-name="Trazado 881857" d="M30.435,24.786a5.629,5.629,0,0,1-5.61,5.7,5.7,5.7,0,0,1-5.757-5.7,5.787,5.787,0,0,1,5.7-5.671,5.7,5.7,0,0,1,5.663,5.675m-2,.04a3.72,3.72,0,0,0-3.624-3.712,3.821,3.821,0,0,0-3.74,3.631,3.724,3.724,0,0,0,3.717,3.736,3.652,3.652,0,0,0,3.646-3.655" transform="translate(-14.598 -14.63)" fill="#12263f"/>
    <path id="Trazado_881858" data-name="Trazado 881858" d="M57.713,5.372a3.063,3.063,0,0,1,.7.868c.2.552-.843,2.191-1.414,2.216a1.417,1.417,0,0,1-1.072-.444c-.482-.676.689-2.618,1.791-2.64" transform="translate(-42.726 -4.113)" fill="#12263f"/>
    <path id="Trazado_881859" data-name="Trazado 881859" d="M8.431,56.479c.052,1.157-1.761,2.325-2.538,1.949-.543-.263-.823-.973-.4-1.349a5.812,5.812,0,0,1,1.962-1.158c.271-.091.743.415.977.559" transform="translate(-4.048 -42.801)" fill="#12263f"/>
    <path id="Trazado_881860" data-name="Trazado 881860" d="M69.319,55.033a18.666,18.666,0,0,1,1.891,1.384.96.96,0,0,1,0,.935c-.2.256-.71.532-.951.441a5.843,5.843,0,0,1-1.773-1.063,1.192,1.192,0,0,1-.063-1.056c.1-.255.515-.385.9-.642" transform="translate(-52.31 -42.13)" fill="#12263f"/>
    <path id="Trazado_881861" data-name="Trazado 881861" d="M58.594,70.3c-.314.395-.472.766-.742.885a1.036,1.036,0,0,1-.942-.072,7.874,7.874,0,0,1-1.123-1.868c-.088-.208.168-.707.405-.865s.81-.208.956-.049A20.151,20.151,0,0,1,58.594,70.3" transform="translate(-42.694 -52.237)" fill="#12263f"/>
    <path id="Trazado_881862" data-name="Trazado 881862" d="M41.03,1.646c.01,1.165-.271,1.679-.928,1.713-.7.036-1.066-.556-1.058-1.734a4.428,4.428,0,0,1,.028-.7.96.96,0,0,1,1-.93.9.9,0,0,1,.955.95c.02.231,0,.464,0,.7" transform="translate(-29.89 0)" fill="#12263f"/>
    <path id="Trazado_881863" data-name="Trazado 881863" d="M1.712,40.967c-.232,0-.53.091-.683-.019C.693,40.7.207,40.367.2,40.054a1.283,1.283,0,0,1,.734-.974,3.07,3.07,0,0,1,1.71-.007,1.406,1.406,0,0,1,.816.941c.089.55-.348.906-.933.954-.269.022-.541,0-.812,0v-.005" transform="translate(-0.151 -29.822)" fill="#12263f"/>
    <path id="Trazado_881864" data-name="Trazado 881864" d="M70.475,19.232c.337.289.77.494.89.815a1.108,1.108,0,0,1-.267,1.01,4.543,4.543,0,0,1-1.655.787,1.066,1.066,0,0,1-.942-.438,1.231,1.231,0,0,1,.157-1.128,10.054,10.054,0,0,1,1.816-1.046" transform="translate(-52.389 -14.723)" fill="#12263f"/>
    <path id="Trazado_881865" data-name="Trazado 881865" d="M19.871,70.259c.122-1.187.988-2.231,1.667-2.136a.9.9,0,0,1,.822,1.069c-.057.95-.958,2.128-1.593,2.044a.9.9,0,0,1-.9-.976" transform="translate(-15.21 -52.146)" fill="#12263f"/>
    <path id="Trazado_881866" data-name="Trazado 881866" d="M22.673,7.858c-.269.353-.435.779-.721.887a1.135,1.135,0,0,1-1.036-.173,5.094,5.094,0,0,1-.848-1.75,1.094,1.094,0,0,1,.475-.925,1.074,1.074,0,0,1,1.025.109,12.77,12.77,0,0,1,1.105,1.851" transform="translate(-15.355 -4.453)" fill="#12263f"/>
    <path id="Trazado_881867" data-name="Trazado 881867" d="M7.7,22.431c-.886.041-2.252-.862-2.315-1.452A.979.979,0,0,1,6.4,19.943c.843-.005,2.128.9,2.122,1.513a.874.874,0,0,1-.816.975" transform="translate(-4.122 -15.267)" fill="#12263f"/>
    <path id="Trazado_881868" data-name="Trazado 881868" d="M74.276,41.083c-.155,0-.31,0-.465,0-.676.017-1.181-.256-1.185-.971s.5-1,1.166-1.017c.309-.009.62-.016.929,0,.658.04,1.155.328,1.129,1.049-.023.654-.489.92-1.11.932-.155,0-.31,0-.465,0" transform="translate(-55.599 -29.924)" fill="#12263f"/>
    <path id="Trazado_881869" data-name="Trazado 881869" d="M41.01,74.312c0,.232.09.527-.019.684-.239.346-.534.8-.888.888-.56.146-.944-.295-1.026-.853a6,6,0,0,1-.017-1.39.948.948,0,0,1,.974-.96c.644,0,.97.407.988,1.05.005.193,0,.387,0,.581H41.01" transform="translate(-29.877 -55.641)" fill="#12263f"/>
    <path id="Trazado_881870" data-name="Trazado 881870" d="M17.447,203.2a3.426,3.426,0,0,1,3.392,3.346,3.556,3.556,0,0,1-3.42,3.489,3.417,3.417,0,1,1,.028-6.834m1.294,3.388a1.319,1.319,0,0,0-1.283-1.382,1.443,1.443,0,0,0-1.451,1.384,1.32,1.32,0,0,0,1.318,1.349,1.281,1.281,0,0,0,1.416-1.351" transform="translate(-10.716 -155.558)" fill="#12263f"/>
  </g>
</svg>
