<svg xmlns="http://www.w3.org/2000/svg" xmlns:xlink="http://www.w3.org/1999/xlink" width="89" height="89" viewBox="0 0 89 89">
  <defs>
    <clipPath id="clip-path">
      <rect id="Rectángulo_402595" data-name="Rectángulo 402595" width="59.13" height="59.138" fill="#59836b"/>
    </clipPath>
  </defs>
  <g id="Grupo_1100545" data-name="Grupo 1100545" transform="translate(-336 -10139.1)">
    <g id="Grupo_1098742" data-name="Grupo 1098742" transform="translate(-867.32 9750.357)">
      <g id="Rectángulo_400898" data-name="Rectángulo 400898" transform="translate(1203.32 388.742)" fill="#fff" stroke="#fff" stroke-width="3" opacity="0.859">
        <rect width="89" height="89" rx="44.5" stroke="none"/>
        <rect x="1.5" y="1.5" width="86" height="86" rx="43" fill="none"/>
      </g>
      <g id="Rectángulo_400907" data-name="Rectángulo 400907" transform="translate(1203.32 388.742)" fill="none" stroke="#fff" stroke-width="3">
        <rect width="89" height="89" rx="44.5" stroke="none"/>
        <rect x="1.5" y="1.5" width="86" height="86" rx="43" fill="none"/>
      </g>
    </g>
    <g id="Grupo_1100487" data-name="Grupo 1100487" transform="translate(350.485 10154.03)">
      <g id="Grupo_1100486" data-name="Grupo 1100486" clip-path="url(#clip-path)">
        <path id="Trazado_881894" data-name="Trazado 881894" d="M21.317,76.165a22.107,22.107,0,0,1-8.761-2.332A42.293,42.293,0,0,1,.668,65.053c-.806-.823-.879-1.2-.239-1.862,4.552-4.675,9.625-8.579,15.972-10.526a17.576,17.576,0,0,1,12.46.95A41.4,41.4,0,0,1,41.98,63c.729.745.783,1.144.162,1.779-4.7,4.808-9.923,8.834-16.53,10.669a39.39,39.39,0,0,1-4.295.715m.015-20.425A8.248,8.248,0,1,0,29.528,64a8.307,8.307,0,0,0-8.2-8.265m4.837,17.425c5.452-1.8,9.865-5.19,14.04-9.175-4.182-4-8.6-7.385-14.051-9.18a10.559,10.559,0,0,1,.011,18.355M16.4,73.12c-3.338-2.168-5.3-5.1-5.3-9.15S13.1,57,16.413,54.833c-5.5,1.809-9.917,5.184-14.055,9.156,4.2,4,8.6,7.381,14.046,9.131" transform="translate(0 -39.964)" fill="#59836b"/>
        <path id="Trazado_881895" data-name="Trazado 881895" d="M8.917,159.4l2.093-.882c.244-.6.061-.961-.481-1.331a2.71,2.71,0,0,1-1.113-3.225,2.827,2.827,0,0,1,5.342,0,2.711,2.711,0,0,1-1.109,3.227.98.98,0,0,0-.474,1.355c.334.129.693.256,1.043.406s.688.318.993.46c.92-.3.566-.96.529-1.534a2.81,2.81,0,0,1,2.4-3.021,2.862,2.862,0,0,1,3.146,2.114,2.8,2.8,0,0,1-1.916,3.356,9.323,9.323,0,0,1-1.476.088c-.388.043-.769.158-1.222.256.314.75.5,1.292.767,1.792.139.26.4.6.639.624a1.071,1.071,0,0,0,.8-.436,2.921,2.921,0,0,1,2.172-1.346,2.815,2.815,0,0,1,2.978,2.033,2.846,2.846,0,0,1-1.38,3.241,2.756,2.756,0,0,1-3.521-.729c-.389-.5-.688-1.045-1.465-.661l-.872,2.073c.286.895.953.533,1.525.5a2.825,2.825,0,0,1,3.005,2.294,2.874,2.874,0,0,1-2.106,3.259,2.773,2.773,0,0,1-3.306-1.817,8.822,8.822,0,0,1-.132-1.581c-.047-.388-.161-.768-.26-1.219-.75.315-1.293.5-1.792.768-.26.139-.594.4-.621.642a1.074,1.074,0,0,0,.439.794,2.879,2.879,0,0,1,1.352,2.4,2.825,2.825,0,0,1-2.14,2.79,2.863,2.863,0,0,1-3.143-1.392,2.833,2.833,0,0,1,.6-3.467c.142-.127.311-.224.462-.342.674-.525.614-1.114-.145-1.425-.529-.217-1.059-.431-1.61-.656-.739.228-.584.777-.507,1.372a2.742,2.742,0,0,1-1.8,3.011,2.811,2.811,0,0,1-3.234-4.324,2.914,2.914,0,0,1,2.862-1.092,4.9,4.9,0,0,0,1.255-.205c-.318-.789-.542-1.352-.772-1.911-.312-.759-.93-.838-1.419-.138a2.862,2.862,0,0,1-2.377,1.39,2.823,2.823,0,0,1-2.817-2.1,2.825,2.825,0,0,1,4.821-2.608c.154.169.265.376.41.554.479.592,1.083.516,1.371-.172.221-.529.433-1.062.666-1.637-.214-.81-.827-.577-1.446-.511a2.8,2.8,0,0,1-3.088-2.315,2.86,2.86,0,0,1,2.037-3.2,2.78,2.78,0,0,1,3.4,1.825,4.212,4.212,0,0,1,.109,1.471c-.038.678-.074.676.524,1.188m6.8,4.7a3.7,3.7,0,0,0-3.575-3.635,3.636,3.636,0,0,0-.119,7.27,3.708,3.708,0,0,0,3.693-3.635m-2.5-9.2c-.464-.384-.8-.857-1.044-.817-.343.055-.624.5-.932.773.3.289.557.742.9.811.248.05.6-.405,1.08-.768m-6.453,2.7c-.489-.355-.847-.8-1.1-.75-.338.075-.592.533-.882.826.312.271.6.707.945.756.25.035.574-.441,1.032-.833m11.763,1.175c.38-.468.848-.8.807-1.053-.058-.342-.5-.62-.78-.925-.286.3-.737.564-.8.9-.048.248.41.6.777,1.073M2.871,165.224c.372-.475.834-.817.788-1.066-.063-.342-.512-.612-.795-.912-.282.3-.728.576-.789.918-.044.249.421.588.8,1.06m19.634-1.155c-.565-.389-.934-.829-1.18-.769-.337.083-.581.546-.866.845.281.265.565.745.842.74.333-.006.66-.422,1.2-.817M5.571,171.682c.4-.456.879-.771.848-1.023-.043-.345-.474-.641-.74-.957-.3.286-.759.534-.839.872-.059.247.383.613.731,1.109m14.168-1.114c-.547-.392-.875-.806-1.209-.81-.276,0-.557.478-.836.745.286.3.533.759.871.84.246.059.613-.383,1.174-.775M13.28,173.3c-.553-.376-.891-.783-1.225-.779-.275,0-.808.561-.758.752a1.322,1.322,0,0,0,.833.833c.247.052.6-.4,1.15-.806" transform="translate(-0.023 -117.016)" fill="#59836b"/>
        <path id="Trazado_881896" data-name="Trazado 881896" d="M134.076,125.627c0,1.791-.007,3.542,0,5.293.007,1.3-.276,2.723.145,3.881.406,1.117,1.547,1.968,2.369,2.933.773.906,1.533,1.824,2.334,2.7a2.353,2.353,0,0,1,.692,1.87c-.052.649-.008,1.306-.017,1.959-.009.621-.285,1.061-.942,1.076s-.951-.4-.986-1.03a.428.428,0,0,1,0-.115c.415-1.822-.626-3.019-1.743-4.225-1.1-1.183-2.148-2.411-3.137-3.684a2.962,2.962,0,0,1-.627-1.635c-.057-3.342-.036-6.685-.025-10.028,0-1.381.483-1.728,1.806-1.27a12.164,12.164,0,0,1,2.089.942,3.129,3.129,0,0,1,1.741,3.126c-.062.841-.018,1.69-.009,2.535.01,1,.323,1.531.908,1.444.808-.12.841-.758.839-1.406q-.008-4.668,0-9.336c0-.576,0-1.153,0-1.729.018-2.934.835-3.86,3.709-4.161.476-1.353,1.017-2.7,2.817-2.683,1.725.019,2.3,1.284,2.735,2.626,3.295.616,3.295.616,3.829,5.549a.935.935,0,0,0,.287.113c2.062.1,3.2,1.022,3.257,3.072.109,4.185.058,8.374.032,12.562a2.378,2.378,0,0,1-.469,1.14c-.808,1.261-1.62,2.521-2.495,3.735a3.2,3.2,0,0,0-.7,2.348,8.294,8.294,0,0,1,0,.921c.005.656-.221,1.172-.949,1.187s-.953-.484-.994-1.145c-.108-1.756-.019-3.423,1.288-4.827a9.682,9.682,0,0,0,2.444-7.931c-.207-2.248-.03-4.53-.049-6.8a4.7,4.7,0,0,0-.2-1.469c-.107-.31-.448-.539-.685-.8a3.4,3.4,0,0,0-.652.85,4.387,4.387,0,0,0-.189,1.356c-.023,1.268-.015,2.536-.007,3.8,0,.686-.164,1.28-.968,1.283s-.976-.588-.975-1.275c0-3.074.011-6.147-.008-9.221a5.753,5.753,0,0,0-.217-1.584c-.084-.284-.4-.5-.615-.745-.238.262-.584.487-.691.8a4.7,4.7,0,0,0-.206,1.468c-.022,1.767-.008,3.535-.01,5.3,0,.268.083.618-.052.788-.255.321-.625.712-.977.743-.27.024-.659-.414-.854-.733-.139-.228-.055-.6-.055-.905,0-2.613.009-5.225-.01-7.838a5.438,5.438,0,0,0-.206-1.584c-.1-.309-.448-.538-.685-.8a3.194,3.194,0,0,0-.65.85,4.969,4.969,0,0,0-.19,1.471c-.017,2.613-.008,5.225-.009,7.838,0,.269.012.539-.013.806a.912.912,0,0,1-.954.945.889.889,0,0,1-.955-.937c-.037-.805-.017-1.613-.018-2.42,0-1.268.034-2.537-.015-3.8-.029-.739.064-1.628-.836-1.96-.456-.168-.884.77-.891,2.011-.014,2.536,0,5.072-.005,7.607,0,1.345.019,2.69-.008,4.034a2.808,2.808,0,1,1-5.614,0c-.022-.883,0-1.767-.007-2.651,0-1.437-.188-1.685-1.747-2.234" transform="translate(-101.679 -86.259)" fill="#59836b"/>
        <path id="Trazado_881897" data-name="Trazado 881897" d="M178.387,20.377a10.188,10.188,0,1,1,10.182-10.164,10.147,10.147,0,0,1-10.182,10.164M173.562,3.6l4.775,4.781,4.844-4.793a7.79,7.79,0,0,0-9.619.012m3.068,6.635-4.836-4.842c-2.279,2.5-2.149,7.379.056,9.627l4.78-4.785m8.351-4.854L180.2,10.152l4.812,4.809a7.791,7.791,0,0,0-.029-9.586m-6.771,6.243c-.795.839-1.577,1.683-2.38,2.507s-1.647,1.653-2.477,2.484c3.031,2.59,7.964,2.158,9.885.038l-5.029-5.029" transform="translate(-129.438 0)" fill="#59836b"/>
        <path id="Trazado_881898" data-name="Trazado 881898" d="M24.424,35.535A24.463,24.463,0,0,1,34.4,38.119,39.027,39.027,0,0,1,43.8,44.5c.255.231.614.454.7.746a1.5,1.5,0,0,1-.081,1.2c-.221.226-.815.206-1.2.114-.3-.071-.531-.419-.79-.647a38.493,38.493,0,0,0-10.206-6.6,18.9,18.9,0,0,0-15.523-.031,37.913,37.913,0,0,0-9.87,6.279c-.349.3-.681.621-1.034.917a.93.93,0,0,1-1.428-.019.907.907,0,0,1,.13-1.418c1.5-1.26,2.961-2.57,4.544-3.713a29.23,29.23,0,0,1,11.521-5.287c1.274-.248,2.577-.346,3.867-.512" transform="translate(-3.138 -27.346)" fill="#59836b"/>
        <path id="Trazado_881899" data-name="Trazado 881899" d="M73.718,91.215a5.565,5.565,0,0,1-5.559-4.971,5.631,5.631,0,0,1,4.581-6.127,3.808,3.808,0,0,1,.458-.045c.931-.051,1.458.252,1.465.892.009.8-.538.96-1.219,1.061a3.624,3.624,0,1,0,3.864,4.146c.248-1.234.522-1.579,1.172-1.474.683.11.958.79.767,1.895a5.6,5.6,0,0,1-5.53,4.623" transform="translate(-52.436 -61.616)" fill="#59836b"/>
        <rect id="Rectángulo_402592" data-name="Rectángulo 402592" width="1.755" height="1.816" transform="translate(25.028 19.436)" fill="#59836b"/>
        <rect id="Rectángulo_402593" data-name="Rectángulo 402593" width="1.773" height="1.794" transform="translate(12.09 44.347)" fill="#59836b"/>
        <rect id="Rectángulo_402594" data-name="Rectángulo 402594" width="1.816" height="1.755" transform="translate(10.225 47.134)" fill="#59836b"/>
      </g>
    </g>
  </g>
</svg>
