<svg id="Grupo_1100479" data-name="Grupo 1100479" xmlns="http://www.w3.org/2000/svg" xmlns:xlink="http://www.w3.org/1999/xlink" width="58.732" height="58.022" viewBox="0 0 58.732 58.022">
  <defs>
    <clipPath id="clip-path">
      <rect id="Rectángulo_402588" data-name="Rectángulo 402588" width="58.732" height="58.022" fill="#12263f"/>
    </clipPath>
  </defs>
  <g id="Grupo_1100478" data-name="Grupo 1100478" clip-path="url(#clip-path)">
    <path id="Trazado_881874" data-name="Trazado 881874" d="M82.508,18.622c-.8-1.7-1.442-3.142-2.172-4.541-.124-.237-.613-.35-.95-.393-.679-.087-1.382-.017-2.052-.138a3.78,3.78,0,0,1-3.184-2.916c-.262-.992-.325-2.036-.575-3.031-.174-.691-.542-1.331-.77-2.012-.145-.432-.4-1.028-.226-1.312a1.68,1.68,0,0,1,1.27-.489,7.924,7.924,0,0,1,7.7,7.344,18.609,18.609,0,0,0,.771,3.071l.329-.071c.55-1.3,1.118-2.59,1.636-3.9a2.361,2.361,0,0,0,.009-.888c-.029-.876-.137-1.757-.083-2.627A4.35,4.35,0,0,1,87.4,2.551c1.048-.345,2.155-.519,3.19-.895C91.5,1.323,92.35.8,93.242.4c.388-.177.937-.5,1.184-.362A1.757,1.757,0,0,1,95.1,1.22a9.125,9.125,0,0,1-7.8,9.825,2.228,2.228,0,0,0-2.168,1.731,14.639,14.639,0,0,0-.907,5.847H85.48q6.815,0,13.631,0c1.542,0,1.684.157,1.632,1.737a17.012,17.012,0,0,1-33.708,2.363c-.15-.861-.185-1.743-.281-2.614-.118-1.075.327-1.512,1.435-1.5,4.2.038,8.4.015,12.6.015h1.72m-14,1.839.651,3.321c1.389-.619,2.655-1.666,3.9-1.638a34.813,34.813,0,0,1,7.88,1.13c2.63.682,3.368,2.992,1.729,5.177a28.366,28.366,0,0,1-3.7,3.512c-.459.423-.941.821-1.409,1.227.158.195.192.275.25.3.243.108.491.209.742.3a14.957,14.957,0,0,0,12.69-1.047C93.479,31.5,93.458,31.482,92.789,29c-.228-.845-.405-1.7-.593-2.56-.152-.694-.284-1.392-.418-2.048a1.426,1.426,0,0,0-.349-.038,1.177,1.177,0,0,0-.425.149c-1.4,1.042-2.738.619-4.049-.173a8.975,8.975,0,0,1-3.5-3.372,1.053,1.053,0,0,0-.763-.48c-4.648-.029-9.3-.021-14.191-.021m7.128,11.886c1.131-.893,2.191-1.682,3.2-2.537a15.418,15.418,0,0,0,2.121-2.066c1.176-1.481.878-2.483-.964-2.882a61.446,61.446,0,0,0-6.434-.968c-1.518-.163-2.39,1-3.287,1.985-.113.124-.055.513.052.712a14.693,14.693,0,0,0,5.318,5.756M94.783,29.57a13.371,13.371,0,0,0,4.1-9H85.508l-.2.309c.341.247.688.487,1.022.743,1.315,1.012,2.469,2.2,4.429,1.028,1.228-.733,2.645.282,2.926,1.71.342,1.741.728,3.473,1.1,5.209m-1.665-26.7L88.663,4.048c-2.8.738-2.805,2.444-2.538,4.782.02.174.478.431.729.427,3.034-.045,6.2-3.266,6.265-6.383m-13.5,8.843c.149-2.839-2.067-5.636-4.478-5.739.18,1,.365,2,.541,3.009.433,2.469,1.293,3.083,3.937,2.73" transform="translate(-51.44 0)" fill="#12263f"/>
    <path id="Trazado_881875" data-name="Trazado 881875" d="M49.717,112.515c2.8.5,2.8.5,2.8,3.372,0,3.878,0,3.878-3.851,3.878q-6.186,0-12.371,0c-1.74,0-2.24-.513-2.246-2.255q-.006-1.317,0-2.635c.007-1.716.421-2.142,2.142-2.217.149-.006.3-.03.548-.057a4.972,4.972,0,0,0-1.573-3.882c-.815-.8-1.669-1.57-2.536-2.318A7.335,7.335,0,0,1,30,100.773c-.135-5.649-.286-11.3-.393-16.948a3.5,3.5,0,1,1,7-.144c.055,2.512.013,5.027.013,6.992a39.11,39.11,0,0,1,3.5,2.334c1.979,1.678,3.843,3.492,5.8,5.2a9.772,9.772,0,0,1,3.6,7.378c.052,1.908.089,3.817.137,5.726.01.41.042.82.063,1.208m-2.108.075c0-2.616.053-5.163-.019-7.707a6.09,6.09,0,0,0-1.908-4.3q-3.728-3.553-7.627-6.924a2.067,2.067,0,0,0-1.761-.262,1.855,1.855,0,0,0-.958,1.369,2.316,2.316,0,0,0,.755,1.546c1.765,1.688,3.6,3.3,5.411,4.94.462.418.805.895.307,1.473s-1,.369-1.49-.07c-1.922-1.744-3.88-3.45-5.763-5.234a3.445,3.445,0,0,1-.124-5.024,1.672,1.672,0,0,0,.524-.927c-.029-2.671-.089-5.343-.21-8.011a1.489,1.489,0,0,0-1.683-1.5,1.543,1.543,0,0,0-1.609,1.588,5.963,5.963,0,0,0,0,.686c.112,4.922.341,9.845.3,14.766a8.01,8.01,0,0,0,3.294,7.122c2.13,1.574,3.62,3.609,3.587,6.462Zm3.017,2H35.96v3.244H50.626Z" transform="translate(-22.82 -61.749)" fill="#12263f"/>
    <path id="Trazado_881876" data-name="Trazado 881876" d="M168.08,112.512c.375.024.635.042.9.057,1.322.08,1.817.594,1.835,1.948.014,1.031.011,2.062,0,3.093-.014,1.509-.557,2.062-2.087,2.068-3.551.013-7.1,0-10.652,0-1.26,0-2.52.019-3.78-.007-1.318-.027-1.893-.58-1.938-1.881-.036-1.03-.021-2.062-.007-3.092.021-1.63.459-2.061,2.125-2.137.186-.009.372-.037.668-.067.024-.424.058-.829.069-1.236.06-2.061.09-4.122.177-6.182a9.223,9.223,0,0,1,3.2-6.619c2.23-2.031,4.438-4.088,6.729-6.048A14.376,14.376,0,0,1,167.833,91l.429.178c0-2.626-.041-5.253.016-7.877a3.466,3.466,0,0,1,6.41-1.656,4.537,4.537,0,0,1,.555,2.167c-.083,5.573-.244,11.146-.365,16.718a7.51,7.51,0,0,1-2.692,5.834c-.813.694-1.6,1.421-2.377,2.153a5.419,5.419,0,0,0-1.728,4m-1.866.016a7.7,7.7,0,0,1,3.052-6.016c.648-.533,1.253-1.118,1.875-1.681a5.2,5.2,0,0,0,1.844-3.807q.241-8.7.423-17.4a1.578,1.578,0,0,0-1.679-1.755,1.6,1.6,0,0,0-1.629,1.7q-.141,3.833-.2,7.668a1.6,1.6,0,0,0,.422.97,3.522,3.522,0,0,1-.23,5.352c-1.176,1.09-2.376,2.152-3.568,3.224a25.626,25.626,0,0,1-2.242,1.951,1.192,1.192,0,0,1-1.165-.091c-.2-.22-.13-.815,0-1.185.1-.287.466-.485.72-.716,1.7-1.539,3.412-3.056,5.082-4.622a1.664,1.664,0,0,0-.291-2.845,1.789,1.789,0,0,0-2.085.465c-2.312,2.109-4.688,4.152-6.925,6.337A7.6,7.6,0,0,0,157.706,103c-1.008,3.091-.479,6.315-.687,9.533Zm-11.908,5.224h14.6V114.5H154.193c0,.919-.008,1.753.005,2.586a4.421,4.421,0,0,0,.109.661" transform="translate(-117.42 -61.666)" fill="#12263f"/>
    <path id="Trazado_881877" data-name="Trazado 881877" d="M9.788,24.459c-1.566,0-3.133.023-4.7-.005A5.008,5.008,0,0,1,.006,19.721a5.078,5.078,0,0,1,4.553-5.268,2.869,2.869,0,0,0,1.44-.7,5.077,5.077,0,0,1,7.131.1,2.316,2.316,0,0,0,1.435.581,5.124,5.124,0,0,1,5.091,4.894A5.038,5.038,0,0,1,14.83,24.44c-1.678.067-3.361.012-5.041.012v.006M4.5,16.437a3.083,3.083,0,0,0,.1,6.12q5.2.165,10.4,0a3.06,3.06,0,0,0,2.794-3.425,2.878,2.878,0,0,0-2.918-2.731c-.464.728-.74,1.659-1.172,1.738-1.093.2-.819-.935-1.15-1.544a5.161,5.161,0,0,0-1.864-2.137,3.021,3.021,0,0,0-4.287,2.5c-.081.671-.235,1.29-1.014,1.245s-.886-.7-.84-1.365a2.563,2.563,0,0,0-.047-.41" transform="translate(0 -9.506)" fill="#12263f"/>
    <path id="Trazado_881878" data-name="Trazado 881878" d="M204.878,12.154c.8-.929,1.514-.661,2.085.161a30.624,30.624,0,0,1,2.586,4,3.355,3.355,0,0,1-.608,3.943,4.3,4.3,0,0,1-4,1.174,8.214,8.214,0,0,0-2.418-.019,5.5,5.5,0,0,1-5.237-1.581,4.671,4.671,0,0,1-.727-5.046,16.206,16.206,0,0,1,4.04-5.9c.559-.57,1.1-.416,1.572.122.878,1,1.74,2.019,2.7,3.139m-3.52-1.415c-1.451,1.669-2.723,3.193-3.194,5.186-.6,2.519,1.394,4.319,3.976,3.536-.68-1.946.031-3.621,1.054-5.252a1.12,1.12,0,0,0,.018-.99c-.532-.822-1.166-1.577-1.854-2.48m4.734,3.092-.468.008c-.6,1.115-1.264,2.2-1.783,3.355a1.562,1.562,0,0,0,.643,2.089,2.474,2.474,0,0,0,2.793-.014,1.579,1.579,0,0,0,.614-2.1c-.516-1.149-1.191-2.227-1.8-3.334" transform="translate(-151.198 -6.577)" fill="#12263f"/>
  </g>
</svg>
