<svg id="Grupo_1100521" data-name="Grupo 1100521" xmlns="http://www.w3.org/2000/svg" xmlns:xlink="http://www.w3.org/1999/xlink" width="58.96" height="60.194" viewBox="0 0 58.96 60.194">
  <defs>
    <clipPath id="clip-path">
      <rect id="Rectángulo_402659" data-name="Rectángulo 402659" width="58.96" height="60.194" fill="#12263f" stroke="#12263f" stroke-width="0.5"/>
    </clipPath>
  </defs>
  <g id="Grupo_1100520" data-name="Grupo 1100520" clip-path="url(#clip-path)">
    <path id="Trazado_881957" data-name="Trazado 881957" d="M5.577,136.158c-2.909-3.014-3.1-6.424-.593-8.876a5.766,5.766,0,0,1,8.09,0c2.5,2.453,2.314,5.86-.42,8.7a25.3,25.3,0,0,1,3.418,3.037,23.607,23.607,0,0,1,2.114,3.918l2.136-1.61a4.223,4.223,0,0,1-1.434-3.952,6.469,6.469,0,0,1,1.6-2.947,4.344,4.344,0,0,1,6.053.229c1.808,1.791,1.767,4.294-.07,6.6l3.017,2.8,2.992-2.793a4.379,4.379,0,0,1-1.263-4.312A6,6,0,0,1,32.9,134.3a4.38,4.38,0,0,1,6.044.487c1.711,1.854,1.62,4.25-.294,6.525l2.325,1.778a9.474,9.474,0,0,1,5.527-6.927,6.093,6.093,0,0,1-2.332-5.285,5.677,5.677,0,0,1,2.068-3.916,5.769,5.769,0,0,1,7.986.57c2.261,2.5,1.982,5.719-.815,8.591l.895.534a8.768,8.768,0,0,1,4.626,7.728c.059,3.348,0,6.7.029,10.048.01.994-.41,1.324-1.366,1.324q-28.111-.021-56.222,0c-1.063,0-1.383-.442-1.371-1.443.037-3.189.007-6.38.016-9.57A8.9,8.9,0,0,1,4.971,136.5l.607-.337M1.734,153.994H16.31c0-3.537.172-7.007-.048-10.452-.227-3.551-3.6-6.332-7.23-6.336-3.67,0-7.06,2.859-7.257,6.447-.187,3.41-.04,6.838-.04,10.342m55.528.013c0-3.24.035-6.417-.009-9.593a7.322,7.322,0,0,0-14.642.031c-.035,2.23-.008,4.462-.008,6.693,0,.943,0,1.886,0,2.869Zm-39.1,0H28.6c0-2.268.091-4.487-.023-6.7a5.171,5.171,0,0,0-4.979-4.875,5.079,5.079,0,0,0-5.386,4.389A70.715,70.715,0,0,0,18.159,154m22.594.011a70.082,70.082,0,0,0-.058-7.439,5.007,5.007,0,0,0-5.106-4.151c-2.4.015-4.821,1.742-5.067,4.073a72.476,72.476,0,0,0-.058,7.516ZM9.081,135.5a4.1,4.1,0,1,0-4.168-4.033A4.11,4.11,0,0,0,9.081,135.5m40.874,0a4.1,4.1,0,1,0-4.137-4.065,4.107,4.107,0,0,0,4.137,4.065m-23.769,2.32a2.854,2.854,0,0,0-2.93-2.809,2.908,2.908,0,0,0-2.775,2.872,2.858,2.858,0,0,0,2.9,2.842,2.786,2.786,0,0,0,2.806-2.9m9.446,2.9a2.851,2.851,0,0,0,2.846-2.892,2.906,2.906,0,0,0-2.825-2.823,2.857,2.857,0,0,0-2.879,2.862,2.786,2.786,0,0,0,2.858,2.853" transform="translate(0 -95.571)" fill="#12263f" stroke="#12263f" stroke-width="0.5"/>
    <path id="Trazado_881958" data-name="Trazado 881958" d="M46.668,12.633l-4.613,2.9A10.637,10.637,0,0,1,43.7,17c.2.278.044.819.048,1.241-.395-.025-.9.1-1.16-.1a11.864,11.864,0,0,1-1.442-1.587,15.867,15.867,0,0,0-4.56,7.791,21.827,21.827,0,0,0,2.578-1.615c1.359-1.126,2.476-1.455,3.549-.825a3.245,3.245,0,0,1,1.276,3.789c-.565,2.042-2,3.475-3.562,4.947l-1.062-1.117a28.494,28.494,0,0,0,2.366-2.942,4.545,4.545,0,0,0,.622-2.342c-.014-.962-.887-1.287-1.6-.621a10.583,10.583,0,0,1-4.444,2.461c-.318.09-.521.77-.674,1.213-.238.686.095,1.882-1.116,1.714-1.115-.155-.656-1.191-.561-1.877a20.414,20.414,0,0,1,5.791-11.64c-.2-.244-.373-.495-.586-.708-1.715-1.724-3.473-3.408-5.127-5.189A2.044,2.044,0,0,1,33.6,7.94a6.885,6.885,0,0,1,6.65-5.392c2.405-.137,4.685-.414,6.429-2.334.175-.193.8-.283.929-.149a1.535,1.535,0,0,1,.418,1.112,8.4,8.4,0,0,1-3.852,6.181c-.744.46-1.542.829-2.3,1.268A11.712,11.712,0,0,0,39.97,9.839c-1.264,1.112-1.252,2.1-.088,3.28.364.367.7.758,1.079,1.166,7.5-5.615,15.458-6.452,24.033-2.666q2.186-3.777,4.4-7.6c1-1.731,1-1.73,2.989-1.489A7.008,7.008,0,0,1,78.2,6.558a15.585,15.585,0,0,1,1,2.552,7.338,7.338,0,0,0,3.369,4.461c.372.225.554.763.824,1.157a4.428,4.428,0,0,1-1.373.679,9.21,9.21,0,0,1-8.175-3.347,19,19,0,0,0-1.88-2,5.313,5.313,0,0,0-1.842-1.027,1.637,1.637,0,0,0-2.3,1.013,15.553,15.553,0,0,1-1.229,2.19c1.789,1.733,3.634,3.269,5.172,5.066a18.959,18.959,0,0,1,4.343,10.188c.079.635.279,1.409-.616,1.539-1,.145-.97-.747-1.054-1.39a18.792,18.792,0,0,0-3.83-9.147,3.8,3.8,0,0,1-.29-.53l-.393.126c-.087.637-.22,1.272-.254,1.912-.137,2.571-1.234,3.819-3.794,4.26-1.633.281-2.494-.463-2.545-2.125a10.907,10.907,0,0,0-.3-1.662c-.6.342-1.4.548-1.74,1.061a4.043,4.043,0,0,0-.582,2.28c.067,1.461.512,2.91.534,4.368.031,2.108-1.36,3.228-3.368,2.708a1.842,1.842,0,0,0-2.28.938c-.484.731-.936,1.486-1.464,2.183-1.48,1.952-3.362,1.991-5.062.274a8.431,8.431,0,0,0-2.41-1.6c-1.329-.621-1.707-1.768-.551-2.688A16.564,16.564,0,0,1,50,27.747c.958-.4,1.485-.852,1.4-1.894a3.68,3.68,0,0,1,.921-2.868,2.022,2.022,0,0,0,.281-2.219,10.947,10.947,0,0,1-.172-2.28,3.378,3.378,0,0,0-.438-1.268,1.227,1.227,0,0,0-.731-.368,6,6,0,0,1-4.588-4.217m1.641-.419a3.959,3.959,0,0,0,2.9,2.825,6.364,6.364,0,0,1,1.833.845,2.355,2.355,0,0,1,1.079,2.975,2.117,2.117,0,0,0,.041,1.346,3.578,3.578,0,0,1-.4,3.717,4.4,4.4,0,0,0-.655,1.947c-.12,2.051-.658,2.757-2.632,3.475a29.31,29.31,0,0,0-2.929,1.418c1.027.871,1.951,1.579,2.783,2.381.968.934,1.628.959,2.449-.126.6-.793,1.1-1.663,1.685-2.465.894-1.222,1.961-1.892,3.592-1.334,1.1.376,1.607-.056,1.529-1.244A16.476,16.476,0,0,0,59,24.21c-.691-2.237,1.173-4.607,2.925-5.271a2.117,2.117,0,0,1,3.108,1.976c.041.546.006,1.1.006,1.654,2.236-.133,2.789-.746,2.969-2.808a26.872,26.872,0,0,1,.7-3.3c-4.706-4.994-14.116-7.028-20.4-4.246m31.1,1.363c-.66-1.485-1.281-2.883-1.9-4.28-.386-.867-.709-1.771-1.177-2.591A5.092,5.092,0,0,0,71.982,4.2c-.281-.021-.716.044-.839.228-.577.869-1.071,1.794-1.663,2.818a5.726,5.726,0,0,1,4.133,2.051c.626.666,1.207,1.374,1.849,2.022a6.817,6.817,0,0,0,3.947,2.26m-42.033-2.6A6.212,6.212,0,0,1,40.868,7.25a14.784,14.784,0,0,0,2.486-1.39,27.893,27.893,0,0,0,2.4-2.365c-1.932.256-3.6.5-5.272.694-1.8.211-3.414.723-4.446,2.37-1.012,1.614-1,1.7.343,3.073a13.485,13.485,0,0,1,.993,1.34" transform="translate(-25.531 -0.001)" fill="#12263f" stroke="#12263f" stroke-width="0.5"/>
  </g>
</svg>
