<svg id="Grupo_1100477" data-name="Grupo 1100477" xmlns="http://www.w3.org/2000/svg" xmlns:xlink="http://www.w3.org/1999/xlink" width="55.351" height="58.022" viewBox="0 0 55.351 58.022">
  <defs>
    <clipPath id="clip-path">
      <rect id="Rectángulo_402587" data-name="Rectángulo 402587" width="55.351" height="58.022" fill="#12263f"/>
    </clipPath>
  </defs>
  <g id="Grupo_1100476" data-name="Grupo 1100476" clip-path="url(#clip-path)">
    <path id="Trazado_881871" data-name="Trazado 881871" d="M50.649,68.808v-3.95a15.787,15.787,0,0,1-3.7.04,5.012,5.012,0,0,1-3.156-7.491,1.7,1.7,0,0,0,.223-1.6,4.37,4.37,0,0,1,2.229-5.34A4.035,4.035,0,0,0,47.5,49.351a5.155,5.155,0,0,1,8.341.023,4.033,4.033,0,0,0,1.268,1.108,4.534,4.534,0,0,1,2.242,5.37,1.87,1.87,0,0,0,.047,1.265c1.192,2.226,1.11,4.4-.315,6.118a5.123,5.123,0,0,1-5.929,1.471c-.142-.047-.294-.065-.482-.1-.017.235-.042.427-.043.618,0,1.131,0,2.262,0,3.587h1.266q7.905,0,15.81,0c1.5,0,1.681.194,1.661,1.7-.121,9.011-7.412,17.332-16.4,18.713A19.714,19.714,0,0,1,32.336,73.6a18.689,18.689,0,0,1-.356-2.9c-.088-1.749.079-1.9,1.8-1.9q7.729,0,15.459,0ZM45.866,86.536a17.87,17.87,0,0,0,7.372.933c1.551-.145,3-.41,3.96-1.824a2.646,2.646,0,0,1,.628-.522c1.67-1.274,1.582-2.7-.232-3.75-2.056-1.194-2.679-3.138-1.815-5.667.645-1.89,2.153-2.672,4.511-2.366q1.8.233,3.605.405a1.485,1.485,0,0,0,1.692-1.278,11.3,11.3,0,0,0,.155-1.666H41.12c1.771,1.4,2.05,3.17,2.1,5.054.048,1.987,1.123,2.652,3.031,2.078a5.777,5.777,0,0,1,2.495-.294,3.825,3.825,0,0,1,3.048,3.681,4,4,0,0,1-2.584,4.163c-1.019.38-2.076.658-3.339,1.051M53,57.014a3.406,3.406,0,0,1,1.07-.614,3.887,3.887,0,0,1,1.331.215c-.09.447-.034,1.034-.3,1.31A9.849,9.849,0,0,1,53.361,59.1a2.3,2.3,0,0,0-.05,3.469,3.149,3.149,0,0,0,4.148-4.694,1.459,1.459,0,0,1-.269-2.128,2.454,2.454,0,0,0-1.341-3.709,3.05,3.05,0,0,1-1.326-1.12,3.222,3.222,0,0,0-5.714,0,3.045,3.045,0,0,1-1.323,1.123c-1.556.653-2.284,2.226-1.4,3.6a1.592,1.592,0,0,1-.284,2.325,3.1,3.1,0,0,0,.065,4.164,3.156,3.156,0,0,0,4.151.45,2.32,2.32,0,0,0-.04-3.474A10,10,0,0,1,48.24,57.93c-.268-.276-.217-.862-.31-1.309a3.7,3.7,0,0,1,1.328-.222,4.823,4.823,0,0,1,1.294.729l-.138-.286c.436-.379.856-1.027,1.313-1.054.364-.022.772.714,1.27,1.225m-19.07,13.88a18,18,0,0,0,6.48,12.637,4.624,4.624,0,0,0,4.287,1.193,34.268,34.268,0,0,0,3.818-1.07,2.157,2.157,0,0,0,1.175-2.918,1.876,1.876,0,0,0-2.578-1.085c-.222.071-.439.159-.662.231a3.807,3.807,0,0,1-5.138-3.354,10.949,10.949,0,0,0-.208-2.2A3.777,3.777,0,0,0,39.944,72.4c-1.743-1.2-3.625-2.158-6.017-1.508m35.512-.019c-1.652-.27-1.716-.222-1.826,1.248a3.521,3.521,0,0,1-4.047,3.525c-1.321-.092-2.637-.28-3.952-.443a1.555,1.555,0,0,0-1.9.988c-.52,1.589-.575,2.852,1.127,3.662a3.65,3.65,0,0,1,2.11,3.622,12.66,12.66,0,0,1-.247,1.61,18.006,18.006,0,0,0,8.732-14.211" transform="translate(-24.471 -36.167)" fill="#12263f"/>
    <path id="Trazado_881872" data-name="Trazado 881872" d="M27.678,14.757c1.6.231,3.609.508,5.609.813.746.114,1.62.264,1.39,1.309-.238,1.077-1.127.725-1.827.577-8.066-1.7-15.456-.168-21.726,5.2C3.147,29.479.144,38.278,2.818,48.449c2.681,10.2,9.576,16.5,19.961,18.467A25.268,25.268,0,0,0,51.112,33.923c-.1-.3-.311-.612-.266-.884.073-.439.2-1.044.514-1.23a.852.852,0,0,1,1.272.622A44.226,44.226,0,0,1,54.1,38.079,27.21,27.21,0,1,1,22.937,15.191c1.421-.226,2.872-.268,4.741-.434" transform="translate(0 -11.298)" fill="#12263f"/>
    <path id="Trazado_881873" data-name="Trazado 881873" d="M159.8,5.39c.2-.213.458-.7.846-.854A24.839,24.839,0,0,0,168.073.17,1.471,1.471,0,0,1,169.494.2a22.866,22.866,0,0,0,7.34,4.279,1.193,1.193,0,0,1,.843,1.46,18.625,18.625,0,0,1-4.348,10.295c-1.14,1.283-2.372,2.485-3.585,3.7-.791.793-1.149.785-1.956-.026-1.157-1.162-2.327-2.314-3.429-3.527C161.6,13.346,160.335,9.668,159.8,5.39m9-3.006c-1.925,1.084-3.834,2.287-5.858,3.244a1.323,1.323,0,0,0-.894,1.759c.837,4.431,3.331,7.8,6.71,10.632,3.731-3.118,6.421-6.828,6.843-11.687l-6.8-3.948" transform="translate(-122.346 0)" fill="#12263f"/>
  </g>
</svg>
